<svg width="219" height="81" viewBox="0 0 219 81" fill="none" xmlns="http://www.w3.org/2000/svg">
<path d="M35.3117 37.8607C40.7375 37.8607 45.0678 34.3532 45.0678 27.3381C45.0678 22.799 43.0852 19.6009 40.2158 18.4146C43.0331 17.0734 44.5982 14.1849 44.5982 10.11C44.5982 4.69391 41.7288 0 35.8856 0C28.5815 0 25.0338 4.07493 26.0251 13.9786C26.0251 13.9786 28.9467 13.8238 33.0683 13.5659C32.6509 8.45935 33.277 5.77712 35.2595 5.77712C36.7203 5.77712 37.3985 7.4793 37.3985 10.8321C37.3985 13.0501 36.8246 14.6491 35.9377 15.3197C35.103 15.9902 33.5378 16.2481 31.1379 16.145C31.3466 19.8073 31.3466 21.6126 31.3466 21.6126C33.7987 21.4579 35.103 21.7158 35.9899 22.4379C36.929 23.16 37.555 24.7591 37.555 27.2866C37.555 30.8973 36.5116 32.0321 35.103 32.0321C33.2248 32.0321 32.3901 29.7625 32.9118 24.2948C28.112 24.0369 25.8686 23.8306 25.8686 23.8306C24.8773 32.4963 27.2772 37.8607 35.3117 37.8607Z" fill="white"/>
<path d="M72.3796 38.0671C72.3796 38.0671 75.0926 38.2218 82.3444 37.8092C82.3444 37.8092 83.1792 25.0686 85.3182 0.670556C85.3182 0.670556 81.8749 0.670556 77.7533 0.464233C77.7533 0.464233 77.7011 7.63405 76.8664 30.8457C76.2403 26.4097 74.9882 17.2282 73.3709 3.50753C73.3709 3.50753 70.971 3.30121 66.9538 3.35279C66.9538 3.35279 66.3799 6.80874 63.3018 27.9571C63.3018 27.9571 62.8844 19.4978 62.5192 1.49586L54.85 1.70219C54.85 1.70219 56.1021 13.308 57.7194 35.488C57.7194 35.488 59.8584 35.3848 66.9016 35.7975C66.9016 35.7975 67.5798 30.2267 70.0841 12.8954C70.6058 18.3114 71.3884 26.6676 72.3796 38.0671Z" fill="white"/>
<path d="M85.5151 35.9522C90.3671 35.9522 92.5583 36.0554 92.5583 36.0554L93.0278 30.4846C95.3234 30.4846 97.045 30.5362 98.245 30.5362C98.7145 35.2817 98.9232 37.5513 98.9232 37.5513C103.462 37.3965 106.384 37.4997 106.384 37.4997C103.201 18.5177 100.697 0.515814 100.697 0.515814C100.697 0.515814 96.3146 0.464233 90.6279 0.72214C87.7063 22.3347 85.5151 35.9522 85.5151 35.9522ZM95.5842 6.49926C96.4711 14.1333 97.1494 20.0652 97.6189 24.7591C94.9582 24.8107 93.6017 24.7591 93.6017 24.7591C94.4364 16.1966 95.219 9.49098 95.5842 6.49926Z" fill="white"/>
<path d="M111.817 37.3965C117.504 37.2418 119.017 37.3449 119.017 37.3449C118.756 30.1751 118.86 29.0919 118.86 29.0919C123.034 11.5027 125.851 0.72214 125.851 0.72214C120.582 0.72214 118.547 0.567394 118.547 0.567394C116.878 11.1416 115.417 19.2399 115.417 19.2399C113.539 9.07833 112.443 1.59902 112.443 1.59902C106.13 1.85693 104.774 1.85693 104.774 1.85693C110.147 21.8189 111.765 29.1951 111.765 29.1951C111.973 35.6943 111.817 37.3965 111.817 37.3965Z" fill="white"/>
<path d="M135.017 37.4997C140.6 37.4997 144.513 34.9206 144.513 27.7508C144.513 22.8506 142.843 20.0136 138.043 16.8155C134.078 14.1849 132.931 12.4311 132.931 9.90363C132.931 7.32456 133.557 5.77712 134.965 5.77712C136.53 5.77712 137.47 7.78879 136.843 13.1017C140.443 13.2048 143.939 13.5143 143.939 13.5143C144.878 4.79707 141.956 0.154742 135.07 0.154742C129.435 0.154742 125.522 2.88856 125.522 9.54256C125.522 14.1849 127.14 17.4861 131.835 20.7873C136.165 23.8306 137.052 25.5328 137.052 27.9055C137.052 30.8973 136.374 31.8773 135.07 31.8773C133.244 31.8773 132.513 29.453 132.983 24.0369C128.548 23.9854 125.679 23.8822 125.679 23.8822C124.844 32.9089 127.609 37.4997 135.017 37.4997Z" fill="white"/>
<path d="M153.893 7.58247L159.267 7.53088C159.424 25.4296 159.371 36.9839 159.371 36.9839C164.067 36.8807 166.467 36.9323 166.467 36.9323C166.258 21.3547 166.258 12.6374 166.258 7.53088C169.441 7.53088 171.58 7.58247 171.58 7.58247C171.527 3.24963 171.684 0.72214 171.684 0.72214C159.319 0.928466 153.841 0.876882 153.841 0.876882C153.946 5.72554 153.893 7.58247 153.893 7.58247Z" fill="white"/>
<path d="M182.062 37.5513C188.844 37.5513 192.079 33.0637 192.183 18.7756C192.183 7.78879 190.253 0.206326 182.062 0.206326C173.975 0.206326 171.992 8.45935 171.992 18.8272C172.045 31.2067 174.549 37.5513 182.062 37.5513ZM182.166 32.0836C180.34 32.0836 179.714 29.4014 179.714 18.4661C179.714 9.18149 180.236 5.8287 182.062 5.8287C183.731 5.8287 184.462 8.66568 184.462 18.5177C184.462 29.7625 183.731 32.0836 182.166 32.0836Z" fill="white"/>
<path d="M0.417374 79.5557C2.3999 79.8136 4.22591 79.9684 5.8954 79.9684C14.1907 79.9684 19.0948 77.1314 19.0948 69.7552C19.0948 65.2161 17.008 62.1728 13.5125 60.8833C16.4341 59.7485 18.4166 57.0146 18.4166 53.146C18.4166 46.5952 15.0776 43.1908 7.25186 43.1908C5.165 43.1908 2.71293 43.4487 0 43.9646C0.365202 62.8433 0.417374 79.5557 0.417374 79.5557ZM7.35621 74.6555L7.19969 64.0813C10.4865 64.0813 12.0517 65.9898 12.0517 69.6005C12.0517 73.6239 10.2778 74.8102 7.35621 74.6555ZM7.14752 48.71C10.4343 48.4521 11.7908 50.2575 11.7908 53.8166C11.7908 57.2725 10.2778 58.9747 7.14752 58.8716V48.71Z" fill="white"/>
<path d="M30.1344 43.5519C22.7782 43.5519 20.0131 48.9164 19.961 61.7601C19.961 74.5523 22.6217 79.9168 30.1344 79.9168C36.6037 79.9168 40.2558 75.2229 40.2558 61.7086C40.2036 49.2259 37.4907 43.5519 30.1344 43.5519ZM30.0301 49.1743C31.7518 49.1743 32.5343 51.4954 32.5343 62.2759C32.5343 72.8501 31.6474 74.4492 30.1344 74.4492C28.6215 74.4492 27.6824 72.6954 27.6824 62.2244C27.6824 51.547 28.3606 49.1743 30.0301 49.1743Z" fill="white"/>
<path d="M51.9891 80.5358C58.7714 80.5358 62.006 76.0482 62.1104 61.7601C62.1104 50.7733 60.18 43.1908 51.9891 43.1908C43.9025 43.1908 41.9199 51.4439 41.9199 61.8117C41.9721 74.1912 44.4764 80.5358 51.9891 80.5358ZM52.0934 75.0681C50.2674 75.0681 49.6413 72.3859 49.6413 61.4506C49.6413 52.166 50.1631 48.8132 51.9891 48.8132C53.6586 48.8132 54.389 51.6502 54.389 61.5022C54.389 72.747 53.6586 75.0681 52.0934 75.0681Z" fill="white"/>
<path d="M76.8721 81C76.8721 81 80.4198 80.7421 84.5413 80.5873C84.5413 80.5873 82.0371 73.0565 78.5938 61.2959C79.6894 57.8915 81.7241 51.547 84.4892 43.1908C84.4892 43.1908 81.7763 43.1908 77.133 42.9329C77.133 42.9329 75.307 49.7932 71.3419 63.6171C71.3419 58.4589 71.3419 52.3207 71.4463 44.6867C71.4463 44.6867 68.9942 44.6867 64.2466 44.6351C64.2466 44.6351 64.3509 59.0779 64.2466 79.0915C64.2466 79.0915 66.3856 78.9883 71.4984 79.0399C71.4984 79.0399 71.4463 77.3377 71.3941 74.0365C71.7593 72.9017 72.4897 70.89 73.6375 67.9499C74.3679 70.6837 75.4635 74.9134 76.8721 81Z" fill="white"/>
<path d="M93.519 50.567L98.8926 50.5154C99.0492 68.4141 98.997 79.9684 98.997 79.9684C103.692 79.8652 106.092 79.9168 106.092 79.9168C105.884 64.3392 105.884 55.6219 105.884 50.5154C109.066 50.5154 111.205 50.567 111.205 50.567C111.153 46.2341 111.309 43.7066 111.309 43.7066C98.9448 43.913 93.4668 43.8614 93.4668 43.8614C93.5711 48.71 93.519 50.567 93.519 50.567Z" fill="white"/>
<path d="M113.478 79.762C118.121 79.7105 120.625 79.762 120.625 79.762C120.469 61.1412 120.365 43.8614 120.365 43.8614C115.721 43.913 113.269 43.913 113.269 43.913C113.53 63.9781 113.478 79.762 113.478 79.762Z" fill="white"/>
<path d="M133.2 80.5873C139.044 80.6389 143.113 76.9766 142.904 64.6487C142.904 64.6487 139.357 64.6487 135.235 64.8034C135.496 73.0565 134.609 74.7071 133.305 74.7071C131.531 74.7071 130.957 71.7669 130.957 61.8117C130.853 52.2692 131.427 48.8132 133.253 48.8132C134.766 48.8132 135.183 51.0828 135.131 57.582C135.131 57.582 138.052 57.7368 142.696 57.7884C142.904 49.0711 140.661 42.9329 133.618 42.9329C126.053 42.9329 123.183 49.1227 123.183 61.8633C123.183 75.3776 126.105 80.5873 133.2 80.5873Z" fill="white"/>
<path d="M157.318 80.5358C157.318 80.5358 160.344 80.0715 164.674 79.762C164.674 79.762 162.483 72.128 159.457 60.419L164.726 44.1193C164.726 44.1193 162.118 44.1193 157.475 43.8614C157.475 43.8614 155.805 49.948 151.892 63.6686C151.892 58.5621 151.892 52.5786 151.996 45.1509C151.996 45.1509 149.544 45.2025 144.797 45.0993C144.797 45.0993 144.901 59.5937 144.797 79.6073C144.797 79.6073 146.936 79.5041 152.049 79.5557C152.049 79.5557 151.996 77.6472 151.944 73.9333C152.362 72.6954 153.249 70.3742 154.501 67.1762C155.127 69.8068 156.066 74.0881 157.318 80.5358Z" fill="white"/>
<path d="M166.205 79.5557C174.031 79.6589 180.657 79.8652 180.657 79.8652C180.657 75.584 180.761 73.3659 180.761 73.3659C176.222 73.2628 173.196 73.0565 173.196 73.0565C173.092 70.3742 173.04 67.8467 172.987 65.5256C176.744 65.5256 179.613 65.5772 179.613 65.5772C179.561 61.7601 179.561 59.0263 179.561 59.0263C175.596 59.1295 173.3 59.0779 172.883 59.0779C172.779 53.8682 172.831 50.7217 172.831 50.7217C176.326 50.6185 180.604 50.567 180.604 50.567C180.5 46.5436 180.552 43.7066 180.552 43.7066C170.014 43.8614 165.788 43.913 165.788 43.913C166.101 64.7003 166.205 79.5557 166.205 79.5557Z" fill="white"/>
<path d="M181.712 51.3407L186.877 51.2891C187.085 68.9299 186.981 79.1431 186.981 79.1431C191.728 79.0399 194.076 79.0915 194.076 79.0915C193.868 64.0813 193.868 56.1378 193.868 51.2891C196.633 51.2375 199.033 51.2891 199.033 51.2891C198.98 47.0079 199.137 44.4288 199.137 44.4288C186.772 44.6867 181.659 44.6351 181.659 44.6351C181.764 49.4322 181.712 51.3407 181.712 51.3407Z" fill="white"/>
<path d="M209.505 80.4842C215.087 80.4842 219 77.9051 219 70.7353C219 65.8351 217.331 62.9981 212.531 59.8C208.566 57.1694 207.418 55.4156 207.418 52.8881C207.418 50.3091 208.044 48.7616 209.453 48.7616C211.018 48.7616 211.957 50.7733 211.331 56.0862C214.931 56.1893 218.426 56.4988 218.426 56.4988C219.365 47.7816 216.444 43.1392 209.557 43.1392C203.922 43.1392 200.01 45.8731 200.01 52.5271C200.01 57.1694 201.627 60.4706 206.322 63.7718C210.653 66.8151 211.539 68.5173 211.539 70.89C211.539 73.8818 210.861 74.8618 209.557 74.8618C207.731 74.8618 207.001 72.4375 207.47 67.0214C203.035 66.9699 200.166 66.8667 200.166 66.8667C199.331 75.8934 202.096 80.4842 209.505 80.4842Z" fill="white"/>
</svg>
