<svg width="731" height="72" viewBox="0 0 731 72" fill="none" xmlns="http://www.w3.org/2000/svg">
<path d="M17.7671 71.112C27.7511 71.112 35.7191 64.584 35.7191 51.528C35.7191 43.08 32.0711 37.128 26.7911 34.92C31.9751 32.424 34.8551 27.048 34.8551 19.464C34.8551 9.384 29.5751 0.647999 18.8231 0.647999C5.38312 0.647999 -1.14488 8.232 0.679119 26.664C0.679119 26.664 6.05512 26.376 13.6391 25.896C12.8711 16.392 14.0231 11.4 17.6711 11.4C20.3591 11.4 21.6071 14.568 21.6071 20.808C21.6071 24.936 20.5511 27.912 18.9191 29.16C17.3831 30.408 14.5031 30.888 10.0871 30.696C10.4711 37.512 10.4711 40.872 10.4711 40.872C14.9831 40.584 17.3831 41.064 19.0151 42.408C20.7431 43.752 21.8951 46.728 21.8951 51.432C21.8951 58.152 19.9751 60.264 17.3831 60.264C13.9271 60.264 12.3911 56.04 13.3511 45.864C4.51912 45.384 0.391119 45 0.391119 45C-1.43288 61.128 2.98312 71.112 17.7671 71.112ZM85.9751 71.496C85.9751 71.496 90.9671 71.784 104.311 71.016C104.311 71.016 105.847 47.304 109.783 1.89599C109.783 1.89599 103.447 1.89599 95.8631 1.512C95.8631 1.512 95.7671 14.856 94.2311 58.056C93.0791 49.8 90.7751 32.712 87.7991 7.17599C87.7991 7.17599 83.3831 6.792 75.9911 6.888C75.9911 6.888 74.9351 13.32 69.2711 52.68C69.2711 52.68 68.5031 36.936 67.8311 3.432L53.7191 3.816C53.7191 3.816 56.0231 25.416 58.9991 66.696C58.9991 66.696 62.9351 66.504 75.8951 67.272C75.8951 67.272 77.1431 56.904 81.7511 24.648C82.7111 34.728 84.1511 50.28 85.9751 71.496ZM110.145 67.56C119.073 67.56 123.105 67.752 123.105 67.752L123.969 57.384C128.193 57.384 131.361 57.48 133.569 57.48C134.433 66.312 134.817 70.536 134.817 70.536C143.169 70.248 148.545 70.44 148.545 70.44C142.689 35.112 138.081 1.608 138.081 1.608C138.081 1.608 130.017 1.512 119.553 1.992C114.177 42.216 110.145 67.56 110.145 67.56ZM128.673 12.744C130.305 26.952 131.553 37.992 132.417 46.728C127.521 46.824 125.025 46.728 125.025 46.728C126.561 30.792 128.001 18.312 128.673 12.744ZM158.543 70.248C169.007 69.96 171.791 70.152 171.791 70.152C171.311 56.808 171.503 54.792 171.503 54.792C179.183 22.056 184.367 1.992 184.367 1.992C174.671 1.992 170.927 1.704 170.927 1.704C167.855 21.384 165.167 36.456 165.167 36.456C161.711 17.544 159.695 3.62399 159.695 3.62399C148.079 4.10399 145.583 4.10399 145.583 4.10399C155.471 41.256 158.447 54.984 158.447 54.984C158.831 67.08 158.543 70.248 158.543 70.248ZM201.234 70.44C211.506 70.44 218.706 65.64 218.706 52.296C218.706 43.176 215.634 37.896 206.802 31.944C199.506 27.048 197.394 23.784 197.394 19.08C197.394 14.28 198.546 11.4 201.138 11.4C204.018 11.4 205.746 15.144 204.594 25.032C211.218 25.224 217.65 25.8 217.65 25.8C219.378 9.576 214.002 0.935995 201.33 0.935995C190.962 0.935995 183.762 6.024 183.762 18.408C183.762 27.048 186.738 33.192 195.378 39.336C203.346 45 204.978 48.168 204.978 52.584C204.978 58.152 203.73 59.976 201.33 59.976C197.97 59.976 196.626 55.464 197.49 45.384C189.33 45.288 184.05 45.096 184.05 45.096C182.514 61.896 187.602 70.44 201.234 70.44ZM235.967 14.76L245.855 14.664C246.143 47.976 246.047 69.48 246.047 69.48C254.687 69.288 259.103 69.384 259.103 69.384C258.719 40.392 258.719 24.168 258.719 14.664C264.575 14.664 268.511 14.76 268.511 14.76C268.415 6.696 268.703 1.992 268.703 1.992C245.951 2.376 235.871 2.27999 235.871 2.27999C236.063 11.304 235.967 14.76 235.967 14.76ZM287.799 70.536C300.279 70.536 306.231 62.184 306.423 35.592C306.423 15.144 302.871 1.032 287.799 1.032C272.919 1.032 269.271 16.392 269.271 35.688C269.367 58.728 273.975 70.536 287.799 70.536ZM287.991 60.36C284.631 60.36 283.479 55.368 283.479 35.016C283.479 17.736 284.439 11.496 287.799 11.496C290.871 11.496 292.215 16.776 292.215 35.112C292.215 56.04 290.871 60.36 287.991 60.36ZM327.903 68.712C331.551 69.192 334.911 69.48 337.983 69.48C353.247 69.48 362.271 64.2 362.271 50.472C362.271 42.024 358.431 36.36 351.999 33.96C357.375 31.848 361.023 26.76 361.023 19.56C361.023 7.368 354.879 1.032 340.479 1.032C336.639 1.032 332.127 1.512 327.135 2.472C327.807 37.608 327.903 68.712 327.903 68.712ZM340.671 59.592L340.383 39.912C346.431 39.912 349.311 43.464 349.311 50.184C349.311 57.672 346.047 59.88 340.671 59.592ZM340.287 11.304C346.335 10.824 348.831 14.184 348.831 20.808C348.831 27.24 346.047 30.408 340.287 30.216V11.304ZM382.584 1.704C369.048 1.704 363.96 11.688 363.864 35.592C363.864 59.4 368.76 69.384 382.584 69.384C394.488 69.384 401.208 60.648 401.208 35.496C401.112 12.264 396.12 1.704 382.584 1.704ZM382.392 12.168C385.56 12.168 387 16.488 387 36.552C387 56.232 385.368 59.208 382.584 59.208C379.8 59.208 378.072 55.944 378.072 36.456C378.072 16.584 379.32 12.168 382.392 12.168ZM422.799 70.536C435.279 70.536 441.231 62.184 441.423 35.592C441.423 15.144 437.871 1.032 422.799 1.032C407.919 1.032 404.271 16.392 404.271 35.688C404.367 58.728 408.975 70.536 422.799 70.536ZM422.991 60.36C419.631 60.36 418.479 55.368 418.479 35.016C418.479 17.736 419.439 11.496 422.799 11.496C425.871 11.496 427.215 16.776 427.215 35.112C427.215 56.04 425.871 60.36 422.991 60.36ZM468.585 71.4C468.585 71.4 475.113 70.92 482.697 70.632C482.697 70.632 478.089 56.616 471.753 34.728C473.769 28.392 477.513 16.584 482.601 1.032C482.601 1.032 477.609 1.032 469.065 0.551994C469.065 0.551994 465.705 13.32 458.409 39.048C458.409 29.448 458.409 18.024 458.601 3.816C458.601 3.816 454.089 3.816 445.353 3.72C445.353 3.72 445.545 30.6 445.353 67.848C445.353 67.848 449.289 67.656 458.697 67.752C458.697 67.752 458.601 64.584 458.505 58.44C459.177 56.328 460.521 52.584 462.633 47.112C463.977 52.2 465.993 60.072 468.585 71.4ZM499.217 14.76L509.105 14.664C509.393 47.976 509.297 69.48 509.297 69.48C517.937 69.288 522.353 69.384 522.353 69.384C521.969 40.392 521.969 24.168 521.969 14.664C527.825 14.664 531.761 14.76 531.761 14.76C531.665 6.696 531.953 1.992 531.953 1.992C509.201 2.376 499.121 2.27999 499.121 2.27999C499.313 11.304 499.217 14.76 499.217 14.76ZM535.943 69.096C544.487 69 549.095 69.096 549.095 69.096C548.807 34.44 548.615 2.27999 548.615 2.27999C540.071 2.376 535.559 2.376 535.559 2.376C536.039 39.72 535.943 69.096 535.943 69.096ZM572.234 70.632C582.986 70.728 590.474 63.912 590.09 40.968C590.09 40.968 583.562 40.968 575.978 41.256C576.458 56.616 574.826 59.688 572.426 59.688C569.162 59.688 568.106 54.216 568.106 35.688C567.914 17.928 568.97 11.496 572.33 11.496C575.114 11.496 575.882 15.72 575.786 27.816C575.786 27.816 581.162 28.104 589.706 28.2C590.09 11.976 585.962 0.551994 573.002 0.551994C559.082 0.551994 553.802 12.072 553.802 35.784C553.802 60.936 559.178 70.632 572.234 70.632ZM616.612 70.536C616.612 70.536 622.18 69.672 630.148 69.096C630.148 69.096 626.116 54.888 620.548 33.096L630.244 2.75999C630.244 2.75999 625.444 2.75999 616.9 2.27999C616.9 2.27999 613.828 13.608 606.628 39.144C606.628 29.64 606.628 18.504 606.82 4.68C606.82 4.68 602.308 4.776 593.572 4.584C593.572 4.584 593.764 31.56 593.572 68.808C593.572 68.808 597.508 68.616 606.916 68.712C606.916 68.712 606.82 65.16 606.724 58.248C607.492 55.944 609.124 51.624 611.428 45.672C612.58 50.568 614.308 58.536 616.612 70.536ZM632.965 68.712C647.365 68.904 659.557 69.288 659.557 69.288C659.557 61.32 659.749 57.192 659.749 57.192C651.397 57 645.829 56.616 645.829 56.616C645.637 51.624 645.541 46.92 645.445 42.6C652.357 42.6 657.637 42.696 657.637 42.696C657.541 35.592 657.541 30.504 657.541 30.504C650.245 30.696 646.021 30.6 645.253 30.6C645.061 20.904 645.157 15.048 645.157 15.048C651.589 14.856 659.461 14.76 659.461 14.76C659.269 7.272 659.365 1.992 659.365 1.992C639.973 2.27999 632.197 2.376 632.197 2.376C632.773 41.064 632.965 68.712 632.965 68.712ZM661.498 16.2L671.002 16.104C671.386 48.936 671.194 67.944 671.194 67.944C679.93 67.752 684.25 67.848 684.25 67.848C683.866 39.912 683.866 25.128 683.866 16.104C688.954 16.008 693.37 16.104 693.37 16.104C693.274 8.136 693.562 3.336 693.562 3.336C670.81 3.816 661.402 3.72 661.402 3.72C661.594 12.648 661.498 16.2 661.498 16.2ZM712.64 70.44C722.912 70.44 730.112 65.64 730.112 52.296C730.112 43.176 727.04 37.896 718.208 31.944C710.912 27.048 708.8 23.784 708.8 19.08C708.8 14.28 709.952 11.4 712.544 11.4C715.424 11.4 717.152 15.144 716 25.032C722.624 25.224 729.056 25.8 729.056 25.8C730.784 9.576 725.408 0.935995 712.736 0.935995C702.368 0.935995 695.168 6.024 695.168 18.408C695.168 27.048 698.144 33.192 706.784 39.336C714.752 45 716.384 48.168 716.384 52.584C716.384 58.152 715.136 59.976 712.736 59.976C709.376 59.976 708.032 55.464 708.896 45.384C700.736 45.288 695.456 45.096 695.456 45.096C693.92 61.896 699.008 70.44 712.64 70.44Z" fill="white"/>
</svg>
