<svg width="147" height="47" viewBox="0 0 147 47" fill="none" xmlns="http://www.w3.org/2000/svg">
<path d="M0 44.9391C5.96468 44.9391 8.65841 45.0678 8.65841 45.0678L9.23563 38.1145C12.0576 38.1145 14.1741 38.1789 15.6493 38.1789C16.2265 44.1021 16.483 46.9349 16.483 46.9349C22.0629 46.7418 25.6545 46.8706 25.6545 46.8706C21.7422 23.1778 18.6637 0.708211 18.6637 0.708211C18.6637 0.708211 13.2762 0.64383 6.28536 0.965742C2.69373 27.9421 0 44.9391 0 44.9391ZM12.3783 8.1766C13.4686 17.7052 14.3024 25.1092 14.8796 30.9681C11.6087 31.0324 9.94113 30.9681 9.94113 30.9681C10.9673 20.2805 11.9294 11.9108 12.3783 8.1766Z" fill="white"/>
<path d="M38.2027 46.9993C45.386 47.0637 50.3886 42.4925 50.1321 27.1051C50.1321 27.1051 45.7708 27.1051 40.704 27.2982C41.0247 37.5995 39.9344 39.6597 38.331 39.6597C36.1504 39.6597 35.4449 35.9899 35.4449 23.564C35.3166 11.6533 36.0221 7.33962 38.2668 7.33962C40.1268 7.33962 40.6399 10.1725 40.5758 18.2847C40.5758 18.2847 44.1674 18.4778 49.8755 18.5422C50.1321 7.66153 47.3742 0 38.7158 0C29.416 0 25.8885 7.72592 25.8885 23.6284C25.8885 40.4967 29.4802 46.9993 38.2027 46.9993Z" fill="white"/>
<path d="M64.701 46.5486C73.1029 46.613 76.9511 41.398 76.6304 27.3626C76.6304 27.3626 72.205 27.6202 67.2024 27.7489C67.523 37.4707 66.4969 39.0159 64.701 39.0159C62.5204 39.0159 61.7508 35.1529 61.7508 23.564C61.6225 12.3615 62.328 7.91907 64.5728 7.91907C66.3045 7.91907 67.2024 10.1725 67.1382 18.4134C67.1382 18.4134 70.7299 18.2203 76.438 18.2203C76.6945 6.88895 73.1029 0.515062 65.0217 0.515062C55.6578 0.515062 52.1945 7.98345 52.1945 23.564C52.1945 41.9775 57.3254 46.5486 64.701 46.5486Z" fill="white"/>
<path d="M79.4654 45.7117C89.0859 45.8404 97.2312 46.098 97.2312 46.098C97.2312 40.7542 97.3595 37.9858 97.3595 37.9858C91.7796 37.857 88.0597 37.5995 88.0597 37.5995C87.9314 34.2516 87.8673 31.0968 87.8032 28.1996C92.421 28.1996 95.9485 28.264 95.9485 28.264C95.8843 23.4997 95.8843 20.0874 95.8843 20.0874C91.01 20.2162 88.188 20.1518 87.6749 20.1518C87.5466 13.6491 87.6107 9.72178 87.6107 9.72178C91.9079 9.59302 97.1671 9.52863 97.1671 9.52863C97.0388 4.50679 97.1029 0.965742 97.1029 0.965742C84.1474 1.15889 78.9523 1.22327 78.9523 1.22327C79.3372 27.1695 79.4654 45.7117 79.4654 45.7117Z" fill="white"/>
<path d="M110.586 46.8706C117.448 46.8706 122.258 43.6514 122.258 34.7022C122.258 28.5859 120.206 25.0448 114.306 21.0531C109.431 17.7696 108.02 15.5806 108.02 12.4258C108.02 9.20672 108.79 7.27524 110.521 7.27524C112.446 7.27524 113.6 9.78616 112.83 16.4176C117.256 16.5463 121.553 16.9326 121.553 16.9326C122.707 6.05197 119.116 0.257531 110.65 0.257531C103.723 0.257531 98.9128 3.66981 98.9128 11.9752C98.9128 17.7696 100.901 21.8901 106.673 26.0106C111.997 29.8092 113.087 31.9338 113.087 34.8954C113.087 38.6296 112.253 39.8529 110.65 39.8529C108.405 39.8529 107.507 36.8269 108.084 30.0667C102.633 30.0023 99.1052 29.8735 99.1052 29.8735C98.079 41.1405 101.478 46.8706 110.586 46.8706Z" fill="white"/>
<path d="M135.327 46.8062C142.959 46.8062 147 42.1062 147 34.7666C147 29.7448 145.589 25.6243 138.342 21.2463C133.852 18.5422 132.762 16.16 132.762 13.6491C132.762 10.43 133.531 8.75604 135.263 8.75604C137.187 8.75604 138.342 10.6875 137.572 17.1258C142.19 16.9326 146.359 17.1258 146.359 17.1258C147.449 7.01771 144.178 1.73833 135.391 1.73833C128.657 1.73833 123.654 5.02185 123.654 13.1984C123.654 19.7011 126.348 23.3065 131.736 26.8476C136.61 30.0667 137.829 32.0626 137.829 34.9598C137.829 38.1145 136.995 39.7885 135.391 39.7885C133.467 39.7885 132.185 37.7926 132.762 31.2256C127.182 31.4187 123.783 31.3543 123.783 31.3543C122.821 41.7843 126.669 46.8062 135.327 46.8062Z" fill="white"/>
</svg>
