<svg width="1081" height="127" viewBox="0 0 1081 127" fill="none" xmlns="http://www.w3.org/2000/svg">
<path d="M22.2162 70.632C34.4082 70.728 43.9122 64.68 43.7202 40.68C43.7202 40.68 34.7922 40.584 24.9042 40.968C25.0962 53.736 24.2322 56.136 22.4082 56.136C20.3922 56.136 19.6242 53.448 19.6242 35.784C19.4322 18.984 20.2002 14.568 22.5042 14.568C24.5202 14.568 25.0962 17.256 25.0002 27.912C25.0002 27.912 32.3922 28.296 43.5282 28.296C44.1042 13.032 39.2082 0.167969 23.3682 0.167969C7.43221 0.167969 0.616211 11.4 0.616211 35.688C0.616211 60.84 6.85621 70.632 22.2162 70.632Z" fill="#23408C"/>
<path d="M67.5042 1.60797C51.7602 1.60797 45.8082 11.592 45.6162 34.824C45.6162 58.056 50.7042 69.576 67.6002 69.576C81.9042 69.576 89.3922 59.976 89.3922 34.728C89.2962 13.32 83.7282 1.60797 67.5042 1.60797ZM67.3122 15.24C69.5202 15.24 70.4802 17.544 70.4802 35.4C70.4802 55.08 69.6162 56.328 67.5042 56.328C65.5842 56.328 64.5282 54.504 64.5282 36.072C64.5282 17.736 65.3922 15.24 67.3122 15.24Z" fill="#23408C"/>
<path d="M91.2725 67.848C98.5685 67.944 109.512 68.232 109.512 68.232C109.128 51.336 109.128 35.496 109.128 23.976C112.584 46.344 113.832 59.304 113.832 59.304C121.992 59.688 130.92 59.784 130.92 59.784C131.976 46.536 134.088 31.272 135.816 20.424C136.872 49.8 136.392 70.92 136.392 70.92C145.032 70.632 154.248 70.152 154.248 70.152C151.56 28.296 151.464 1.51197 151.464 1.51197C139.368 1.12797 126.408 0.647968 126.408 0.647968C125.256 13.992 123.624 27.24 122.184 37.32C119.688 19.464 117.96 3.71997 117.96 3.71997C104.808 4.19997 93.7685 4.00797 93.7685 4.00797C92.9045 40.584 91.2725 67.848 91.2725 67.848Z" fill="#23408C"/>
<path d="M157.971 68.712C163.059 69.288 167.763 69.672 172.083 69.672C188.211 69.672 198.483 64.392 198.483 49.992C198.483 41.928 195.123 36.168 188.499 33.48C193.779 31.176 197.427 26.376 197.427 19.464C197.427 6.59997 190.035 0.551964 174.483 0.551964C169.491 0.551964 163.827 1.12797 157.107 2.37597C157.779 37.512 157.971 68.712 157.971 68.712ZM174.963 56.808C174.963 56.808 174.675 51.912 174.579 41.16C179.379 41.16 181.299 44.04 181.299 49.224C181.299 55.272 178.995 56.904 174.963 56.808ZM174.579 13.896C179.091 13.704 181.299 15.912 181.299 21.384C181.299 26.184 179.283 28.776 174.579 28.68C174.579 28.68 174.483 23.496 174.579 13.896Z" fill="#23408C"/>
<path d="M201.284 69.096C212.996 69 218.756 69.096 218.756 69.096C218.468 34.44 218.276 2.27996 218.276 2.27996C206.852 2.37597 200.9 2.37597 200.9 2.37597C201.38 39.72 201.284 69.096 201.284 69.096Z" fill="#23408C"/>
<path d="M223.395 67.272C233.283 67.272 239.619 67.56 239.619 67.56C238.755 53.928 238.371 44.52 238.179 37.896C245.379 57.192 250.179 70.824 250.179 70.824C260.931 69.96 265.731 69.192 265.731 69.192C264.483 26.376 264.003 0.743967 264.003 0.743967C254.307 0.839966 248.355 0.455965 248.355 0.455965C249.699 17.16 250.467 29.064 250.851 36.84C243.459 16.392 239.427 4.19997 239.427 4.19997C230.019 4.48796 223.107 4.96796 223.107 4.96796C223.779 43.752 223.395 67.272 223.395 67.272Z" fill="#23408C"/>
<path d="M290.247 70.728C304.167 70.728 312.711 64.584 311.751 33.576C303.303 33.576 289.863 33.48 289.863 33.48C290.055 42.408 289.959 47.688 289.959 47.688C292.359 47.496 293.991 47.4 293.991 47.4C294.087 55.368 293.223 57.864 291.111 57.864C288.423 57.864 287.271 54.408 287.175 36.36C287.079 18.888 287.943 15.144 290.439 15.144C292.455 15.144 293.607 18.312 293.415 28.584C296.679 28.68 310.983 28.776 310.983 28.776C311.847 13.224 305.607 0.935965 290.823 0.935965C275.655 0.935965 268.647 11.4 268.647 36.168C268.647 63.432 277.191 70.728 290.247 70.728Z" fill="#23408C"/>
<path d="M333.846 69.48C337.686 69.768 341.334 69.864 344.598 69.864C365.142 69.864 375.03 64.104 375.03 50.76C375.03 43.08 371.67 36.936 363.798 34.344C369.654 31.656 373.782 26.568 373.782 19.464C373.782 7.94397 366.966 1.60797 348.534 1.79996C344.022 1.89596 338.934 2.27996 332.982 3.14396C333.654 38.28 333.846 69.48 333.846 69.48ZM350.838 57.576C350.838 57.576 350.55 52.776 350.454 41.736C355.734 41.736 357.846 44.232 357.846 49.416C357.846 55.368 355.83 57.672 350.838 57.576ZM350.454 15.24C355.638 15.048 357.462 16.776 357.462 22.248C357.462 27.912 354.966 30.024 350.454 29.928C350.454 29.928 350.262 24.36 350.454 15.24Z" fill="#23408C"/>
<path d="M374.562 67.56C386.466 67.464 391.746 67.752 391.746 67.752L392.322 59.688C395.682 59.688 398.658 59.688 400.386 59.784C400.962 67.368 401.154 70.536 401.154 70.536C412.386 70.248 419.49 70.44 419.49 70.44C413.154 33.864 408.738 1.60797 408.738 1.60797C408.738 1.60797 398.082 1.41596 384.162 1.99197C378.786 42.12 374.562 67.56 374.562 67.56ZM396.258 16.2C396.258 16.2 397.698 29.448 399.234 45.672C399.234 45.672 396.45 45.768 393.378 45.672C394.53 31.848 395.682 21.384 396.258 16.2Z" fill="#23408C"/>
<path d="M440.622 70.632C452.814 70.728 462.318 64.68 462.126 40.68C462.126 40.68 453.198 40.584 443.31 40.968C443.502 53.736 442.638 56.136 440.814 56.136C438.798 56.136 438.03 53.448 438.03 35.784C437.838 18.984 438.606 14.568 440.91 14.568C442.926 14.568 443.502 17.256 443.406 27.912C443.406 27.912 450.798 28.296 461.934 28.296C462.51 13.032 457.614 0.167969 441.774 0.167969C425.838 0.167969 419.022 11.4 419.022 35.688C419.022 60.84 425.262 70.632 440.622 70.632Z" fill="#23408C"/>
<path d="M489.474 71.496C489.474 71.496 498.114 70.824 508.194 70.44C508.194 70.44 503.97 57 498.018 34.92C500.034 27.816 503.49 15.912 507.906 0.935965C507.906 0.935965 501.57 0.935965 489.858 0.359966C489.858 0.359966 487.65 11.784 481.89 36.456C481.89 27.432 481.986 16.776 482.178 3.81597C482.178 3.81597 476.418 3.91197 464.514 3.71997C464.514 3.71997 464.802 31.08 464.514 67.56C464.514 67.56 469.506 67.272 482.274 67.464C482.274 67.464 482.178 65.64 482.082 62.088C482.754 59.976 483.906 56.616 485.634 52.008C486.594 56.52 487.842 62.76 489.474 71.496Z" fill="#23408C"/>
<path d="M526.076 18.984L536.348 18.888C536.636 49.896 536.444 69.576 536.444 69.576C548.06 69.288 553.724 69.48 553.724 69.48C553.436 45 553.34 29.736 553.34 18.888C559.676 18.888 563.516 18.984 563.516 18.984C563.42 8.23197 563.804 1.99197 563.804 1.99197C538.94 2.47197 525.98 2.37597 525.98 2.37597C526.268 14.76 526.076 18.984 526.076 18.984Z" fill="#23408C"/>
<path d="M585.658 70.824C600.442 70.824 607.258 61.8 607.45 36.648C607.45 14.184 603.322 0.839966 585.562 0.839966C568.282 0.839966 563.866 15.528 563.866 36.744C563.962 58.92 569.722 70.824 585.658 70.824ZM585.85 57.672C583.642 57.672 582.778 55.272 582.778 36.552C582.778 18.024 583.066 14.568 585.658 14.568C587.77 14.568 588.538 17.16 588.538 35.88C588.538 55.464 587.77 57.672 585.85 57.672Z" fill="#23408C"/>
<path d="M626.295 20.52C629.367 20.424 633.015 20.424 636.087 20.424C636.375 50.664 636.183 67.848 636.183 67.848C647.799 67.56 653.463 67.752 653.463 67.752C653.175 44.808 653.079 30.6 653.079 20.424C659.223 20.424 662.775 20.52 662.775 20.52C662.679 9.76797 663.063 3.52797 663.063 3.52797C638.199 4.00797 626.199 3.91197 626.199 3.91197C626.487 16.296 626.295 20.52 626.295 20.52Z" fill="#23408C"/>
<path d="M687.692 70.92C698.444 70.632 705.164 71.016 705.164 71.016C704.876 31.752 704.876 0.455965 704.876 0.455965C693.548 0.647968 687.308 0.551964 687.308 0.551964C687.404 13.224 687.596 24.84 687.596 34.824C685.1 34.824 682.796 34.728 682.796 34.728C682.604 16.2 682.508 3.91197 682.508 3.91197C669.452 4.10396 665.42 4.00797 665.42 4.00797C665.9 41.544 665.804 66.984 665.804 66.984C675.884 66.6 683.18 66.888 683.18 66.888L682.892 49.416C684.908 49.32 686.444 49.32 687.692 49.32V70.92Z" fill="#23408C"/>
<path d="M709.782 68.712C726.006 68.904 740.118 69.384 740.118 69.384C740.118 58.728 740.31 53.352 740.31 53.352C732.246 53.064 726.87 52.68 726.87 52.68C726.582 47.496 726.582 44.232 726.582 44.232C733.014 44.232 738.198 44.328 738.198 44.328C738.006 34.92 738.102 28.104 738.102 28.104C730.518 28.296 726.966 28.2 726.198 28.2C726.198 28.2 726.102 24.264 726.198 19.272C731.286 19.08 740.502 18.984 740.502 18.984C740.214 8.99997 740.31 1.99197 740.31 1.99197C717.174 2.18397 709.014 2.27996 709.014 2.27996C709.59 40.968 709.782 68.712 709.782 68.712Z" fill="#23408C"/>
<path d="M795.205 71.88C795.205 71.88 801.349 72.264 819.205 71.208C819.205 71.208 820.645 46.344 824.389 2.08797C824.389 2.08797 816.037 2.08797 805.861 1.60797C805.861 1.60797 806.245 13.224 805.861 53.928C804.709 45.672 802.693 30.12 800.293 7.17596C800.293 7.17596 794.629 6.69596 785.221 6.88797C785.221 6.88797 784.357 11.4 779.461 46.44C779.269 35.88 778.981 20.616 778.981 3.43197C778.981 3.43197 770.053 3.71997 760.261 3.81597C760.261 3.81597 762.853 25.416 765.733 66.312C765.733 66.312 770.341 66.024 787.717 66.984C787.717 66.984 788.773 57.768 792.325 31.464C793.189 41.256 794.149 54.792 795.205 71.88Z" fill="#23408C"/>
<path d="M827.532 67.752C843.756 67.944 857.388 68.136 857.388 68.136C857.388 57.48 857.58 52.104 857.58 52.104C849.612 52.296 844.62 52.296 844.62 52.296C844.332 48.072 844.332 44.904 844.332 44.904C850.764 44.808 855.468 45 855.468 45C855.276 35.592 855.372 29.256 855.372 29.256C847.788 29.448 844.62 29.352 843.948 29.352C843.852 23.688 843.948 20.232 843.948 20.232C850.092 19.848 857.772 19.656 857.772 19.656C857.484 9.67197 857.58 2.66397 857.58 2.66397C834.828 3.23996 826.764 3.23996 826.764 3.23996C827.34 41.928 827.532 67.752 827.532 67.752Z" fill="#23408C"/>
<path d="M879.999 70.248C892.287 70.248 900.639 64.68 900.639 50.952C900.639 40.296 897.279 35.016 884.223 29.16C879.423 27.048 877.599 23.688 877.599 20.04C877.599 16.488 878.367 14.472 880.095 14.472C881.919 14.472 883.359 17.16 882.303 25.32C890.847 25.512 899.679 26.28 899.679 26.28C901.311 9.76797 895.167 0.839966 880.383 0.839966C868.383 0.839966 859.455 5.83196 859.455 19.272C859.455 29.64 862.911 35.976 874.239 41.64C880.863 45 882.495 47.592 882.495 51.144C882.495 55.272 881.727 56.52 879.903 56.52C877.407 56.52 876.543 52.968 877.119 45.288C866.367 45.288 859.263 45.096 859.263 45.096C858.207 61.032 863.487 70.248 879.999 70.248Z" fill="#23408C"/>
<path d="M901.263 18.984L911.535 18.888C911.823 49.896 911.631 69.576 911.631 69.576C923.247 69.288 928.911 69.48 928.911 69.48C928.623 45 928.527 29.736 928.527 18.888C934.863 18.888 938.703 18.984 938.703 18.984C938.607 8.23197 938.991 1.99197 938.991 1.99197C914.127 2.47197 901.167 2.37597 901.167 2.37597C901.455 14.76 901.263 18.984 901.263 18.984Z" fill="#23408C"/>
<path d="M959.532 67.752C975.756 67.944 989.388 68.136 989.388 68.136C989.388 57.48 989.58 52.104 989.58 52.104C981.612 52.296 976.62 52.296 976.62 52.296C976.332 48.072 976.332 44.904 976.332 44.904C982.764 44.808 987.468 45 987.468 45C987.276 35.592 987.372 29.256 987.372 29.256C979.788 29.448 976.62 29.352 975.948 29.352C975.852 23.688 975.948 20.232 975.948 20.232C982.092 19.848 989.772 19.656 989.772 19.656C989.484 9.67197 989.58 2.66397 989.58 2.66397C966.828 3.23996 958.764 3.23996 958.764 3.23996C959.34 41.928 959.532 67.752 959.532 67.752Z" fill="#23408C"/>
<path d="M992.895 67.272C1002.78 67.272 1009.12 67.56 1009.12 67.56C1008.26 53.928 1007.87 44.52 1007.68 37.896C1014.88 57.192 1019.68 70.824 1019.68 70.824C1030.43 69.96 1035.23 69.192 1035.23 69.192C1033.98 26.376 1033.5 0.743967 1033.5 0.743967C1023.81 0.839966 1017.86 0.455965 1017.86 0.455965C1019.2 17.16 1019.97 29.064 1020.35 36.84C1012.96 16.392 1008.93 4.19997 1008.93 4.19997C999.519 4.48796 992.607 4.96796 992.607 4.96796C993.279 43.752 992.895 67.272 992.895 67.272Z" fill="#23408C"/>
<path d="M1056.77 56.712C1056.77 56.712 1056.29 36.168 1056.2 15.816C1060.61 15.336 1061.96 20.424 1061.96 36.648C1061.96 55.656 1060.52 57 1056.77 56.712ZM1039.11 69.384C1044.1 70.152 1048.52 70.536 1052.64 70.536C1070.88 70.536 1080.68 61.512 1080.68 37.512C1080.68 12.36 1073.09 1.22397 1051.88 1.22397C1048.13 1.22397 1043.81 1.70397 1039.2 2.47197C1039.2 2.47197 1039.3 36.84 1039.11 69.384Z" fill="#23408C"/>
<path d="M263.487 126.056C269.247 125.72 272.511 125.48 272.511 125.48C269.583 117.416 268.095 112.712 267.711 111.464C270.207 109.688 271.743 106.904 271.743 102.728C271.743 94.808 267.711 90.632 258.879 90.632C256.623 90.632 254.079 90.92 251.199 91.448C251.247 111.656 251.007 124.376 251.007 124.376C256.143 124.28 259.887 124.328 259.887 124.328L259.695 114.008C260.031 114.008 260.367 113.96 260.367 113.96C262.383 121.352 263.487 126.056 263.487 126.056ZM259.695 108.2C259.695 108.2 259.599 103.064 259.551 98.024C261.711 97.832 262.671 99.992 262.671 103.352C262.671 106.76 261.567 108.152 259.695 108.2Z" fill="#269DDF"/>
<path d="M273.375 124.856C281.487 124.952 288.543 125.192 288.543 125.192C288.543 119.864 288.639 117.176 288.639 117.176C284.607 117.032 281.919 116.84 281.919 116.84C281.775 114.248 281.775 112.616 281.775 112.616C284.991 112.616 287.583 112.664 287.583 112.664C287.487 107.96 287.535 104.552 287.535 104.552C283.743 104.648 281.967 104.6 281.583 104.6C281.583 104.6 281.535 102.632 281.583 100.136C284.127 100.04 288.735 99.992 288.735 99.992C288.591 95 288.639 91.496 288.639 91.496C277.071 91.592 272.991 91.64 272.991 91.64C273.279 110.984 273.375 124.856 273.375 124.856Z" fill="#269DDF"/>
<path d="M289.522 100.76C291.058 100.712 292.882 100.712 294.418 100.712C294.562 115.832 294.466 124.424 294.466 124.424C300.274 124.28 303.106 124.376 303.106 124.376C302.962 112.904 302.914 105.8 302.914 100.712C305.986 100.712 307.762 100.76 307.762 100.76C307.714 95.384 307.906 92.264 307.906 92.264C295.474 92.504 289.474 92.456 289.474 92.456C289.618 98.648 289.522 100.76 289.522 100.76Z" fill="#269DDF"/>
<path d="M319.645 125.672C326.701 125.672 329.917 120.104 329.917 107.96C329.917 102.392 329.341 95.912 328.429 90.68C323.053 91.304 319.789 91.4 319.789 91.4C320.461 96.728 320.893 102.44 320.893 107.432C320.893 116.12 320.269 117.416 319.165 117.416C317.965 117.416 317.197 114.536 317.197 105.368C317.197 101.72 317.437 97.736 317.965 93.176C312.157 92.456 309.661 92.024 309.661 92.024C308.989 96.584 308.605 101.336 308.605 105.752C308.605 119.576 311.821 125.672 319.645 125.672Z" fill="#269DDF"/>
<path d="M344.311 126.392C349.207 125.672 353.143 125.384 353.143 125.384C350.407 117.944 348.631 113.144 347.959 111.464C350.743 109.592 352.087 106.76 352.087 102.968C352.087 95.816 348.583 91.544 338.551 91.544C336.487 91.544 334.183 91.784 331.543 92.168C331.591 112.376 331.351 125.144 331.351 125.144C336.487 125.048 340.231 125.096 340.231 125.096C340.135 119.864 340.039 116.024 340.039 113.864C340.231 113.864 340.663 113.816 340.663 113.816C342.823 121.112 344.311 126.392 344.311 126.392ZM340.039 108.344C340.039 108.344 339.943 103.784 339.895 98.744C342.151 98.552 343.015 100.376 343.015 103.352C343.015 106.616 342.151 108.296 340.039 108.344Z" fill="#269DDF"/>
<path d="M353.76 124.136C358.704 124.136 361.872 124.28 361.872 124.28C361.44 117.464 361.248 112.76 361.152 109.448C364.752 119.096 367.152 125.912 367.152 125.912C372.528 125.48 374.928 125.096 374.928 125.096C374.304 103.688 374.064 90.872 374.064 90.872C369.216 90.92 366.24 90.728 366.24 90.728C366.912 99.08 367.296 105.032 367.488 108.92C363.792 98.696 361.776 92.6 361.776 92.6C357.072 92.744 353.616 92.984 353.616 92.984C353.952 112.376 353.76 124.136 353.76 124.136Z" fill="#269DDF"/>
<path d="M377.298 125.048C383.154 125 386.034 125.048 386.034 125.048C385.89 107.72 385.794 91.64 385.794 91.64C380.082 91.688 377.106 91.688 377.106 91.688C377.346 110.36 377.298 125.048 377.298 125.048Z" fill="#269DDF"/>
<path d="M388.354 125.48C393.298 125.48 396.466 125.624 396.466 125.624C395.986 118.088 395.794 112.136 395.698 108.2C399.298 117.848 401.746 124.952 401.746 124.952C407.074 124.424 409.714 124.376 409.714 124.376C409.09 102.968 408.85 91.4 408.85 91.4C404.002 91.448 401.026 91.256 401.026 91.256C401.65 99.32 402.034 104.408 402.226 107.912C398.482 97.928 396.514 91.928 396.514 91.928C391.522 92.072 388.21 91.928 388.21 91.928C388.546 111.32 388.354 125.48 388.354 125.48Z" fill="#269DDF"/>
<path d="M421.967 125.864C428.927 125.864 433.199 122.792 432.719 107.288C428.495 107.288 421.775 107.24 421.775 107.24C421.871 111.704 421.823 114.344 421.823 114.344C423.023 114.248 423.839 114.2 423.839 114.2C423.887 118.184 423.455 119.432 422.399 119.432C421.055 119.432 420.479 117.704 420.431 108.68C420.383 99.944 420.815 98.072 422.063 98.072C423.071 98.072 423.647 99.656 423.551 104.792C425.183 104.84 432.335 104.888 432.335 104.888C432.767 97.112 429.647 90.968 422.255 90.968C414.671 90.968 411.167 96.2 411.167 108.584C411.167 122.216 415.439 125.864 421.967 125.864Z" fill="#269DDF"/>
<path d="M443.719 124.856C443.719 124.856 447.175 124.76 452.359 124.808C452.263 121.256 452.215 118.04 452.167 115.16C456.631 115.064 458.599 115.16 458.599 115.16C458.503 110.216 458.551 106.76 458.551 106.76C454.855 106.904 452.599 106.856 452.023 106.856C451.975 102.584 452.023 100.136 452.023 100.136C456.967 99.992 459.079 100.088 459.079 100.088C459.079 94.376 459.175 91.496 459.175 91.496C449.719 91.688 443.335 91.688 443.335 91.688C443.719 111.08 443.719 124.856 443.719 124.856Z" fill="#269DDF"/>
<path d="M470.813 125.912C478.205 125.912 481.613 121.4 481.709 108.824C481.709 97.592 479.645 90.92 470.765 90.92C462.125 90.92 459.917 98.264 459.917 108.872C459.965 119.96 462.845 125.912 470.813 125.912ZM470.909 119.336C469.805 119.336 469.373 118.136 469.373 108.776C469.373 99.512 469.517 97.784 470.813 97.784C471.869 97.784 472.253 99.08 472.253 108.44C472.253 118.232 471.869 119.336 470.909 119.336Z" fill="#269DDF"/>
<path d="M495.612 126.056C501.372 125.72 504.636 125.48 504.636 125.48C501.708 117.416 500.22 112.712 499.836 111.464C502.332 109.688 503.868 106.904 503.868 102.728C503.868 94.808 499.836 90.632 491.004 90.632C488.748 90.632 486.204 90.92 483.324 91.448C483.372 111.656 483.132 124.376 483.132 124.376C488.268 124.28 492.012 124.328 492.012 124.328L491.82 114.008C492.156 114.008 492.492 113.96 492.492 113.96C494.508 121.352 495.612 126.056 495.612 126.056ZM491.82 108.2C491.82 108.2 491.724 103.064 491.676 98.024C493.836 97.832 494.796 99.992 494.796 103.352C494.796 106.76 493.692 108.152 491.82 108.2Z" fill="#269DDF"/>
<path d="M512.828 124.28C518.78 124.232 521.42 124.376 521.42 124.376L521.708 120.344C523.388 120.344 524.876 120.344 525.74 120.392C526.028 124.184 526.124 125.768 526.124 125.768C531.74 125.624 535.292 125.72 535.292 125.72C532.124 107.432 529.916 91.304 529.916 91.304C529.916 91.304 524.588 91.208 517.628 91.496C514.94 111.56 512.828 124.28 512.828 124.28ZM523.676 98.6C523.676 98.6 524.396 105.224 525.164 113.336C525.164 113.336 523.772 113.384 522.236 113.336C522.812 106.424 523.388 101.192 523.676 98.6Z" fill="#269DDF"/>
<path d="M545.201 124.808C545.201 124.808 556.769 124.856 560.705 125C560.705 125 560.657 121.832 560.753 117.08C560.753 117.08 557.633 117.08 553.745 116.936C553.409 96.728 553.553 91.928 553.553 91.928C547.745 92.024 544.913 91.928 544.913 91.928C545.201 111.56 545.201 124.808 545.201 124.808Z" fill="#269DDF"/>
<path d="M562.126 125.048C567.982 125 570.862 125.048 570.862 125.048C570.718 107.72 570.622 91.64 570.622 91.64C564.91 91.688 561.934 91.688 561.934 91.688C562.174 110.36 562.126 125.048 562.126 125.048Z" fill="#269DDF"/>
<path d="M572.558 124.424C576.206 124.472 581.678 124.616 581.678 124.616C581.486 116.168 581.486 108.248 581.486 102.488C583.214 113.672 583.838 120.152 583.838 120.152C587.918 120.344 592.382 120.392 592.382 120.392C592.91 113.768 593.966 106.136 594.83 100.712C595.358 115.4 595.118 125.96 595.118 125.96C599.438 125.816 604.046 125.576 604.046 125.576C602.702 104.648 602.654 91.256 602.654 91.256C596.606 91.064 590.126 90.824 590.126 90.824C589.55 97.496 588.734 104.12 588.014 109.16C586.766 100.232 585.902 92.36 585.902 92.36C579.326 92.6 573.806 92.504 573.806 92.504C573.374 110.792 572.558 124.424 572.558 124.424Z" fill="#269DDF"/>
<path d="M605.908 124.28C611.764 124.232 614.644 124.28 614.644 124.28C614.5 106.952 614.404 92.888 614.404 92.888C608.692 92.936 605.716 92.936 605.716 92.936C605.956 111.608 605.908 124.28 605.908 124.28Z" fill="#269DDF"/>
<path d="M616.147 99.992L621.283 99.944C621.427 115.448 621.331 125.288 621.331 125.288C627.139 125.144 629.971 125.24 629.971 125.24C629.827 113 629.779 105.368 629.779 99.944C632.947 99.944 634.867 99.992 634.867 99.992C634.819 94.616 635.011 91.496 635.011 91.496C622.579 91.736 616.099 91.688 616.099 91.688C616.243 97.88 616.147 99.992 616.147 99.992Z" fill="#269DDF"/>
<path d="M636.61 124.376C644.722 124.472 651.538 124.568 651.538 124.568C651.538 119.24 651.634 116.552 651.634 116.552C647.65 116.648 645.154 116.648 645.154 116.648C645.01 114.536 645.01 112.952 645.01 112.952C648.226 112.904 650.578 113 650.578 113C650.482 108.296 650.53 105.128 650.53 105.128C646.738 105.224 645.154 105.176 644.818 105.176C644.77 102.344 644.818 100.616 644.818 100.616C647.89 100.424 651.73 100.328 651.73 100.328C651.586 95.336 651.634 91.832 651.634 91.832C640.258 92.12 636.226 92.12 636.226 92.12C636.514 111.464 636.61 124.376 636.61 124.376Z" fill="#269DDF"/>
<path d="M661.979 118.856C661.979 118.856 661.739 108.584 661.691 98.408C663.899 98.168 664.571 100.712 664.571 108.824C664.571 118.328 663.851 119 661.979 118.856ZM653.147 125.192C655.643 125.576 657.851 125.768 659.915 125.768C669.035 125.768 673.931 121.256 673.931 109.256C673.931 96.68 670.139 91.112 659.531 91.112C657.659 91.112 655.499 91.352 653.195 91.736C653.195 91.736 653.243 108.92 653.147 125.192Z" fill="#269DDF"/>
<path d="M694.203 125.624C700.347 125.624 704.523 122.84 704.523 115.976C704.523 110.648 702.843 108.008 696.315 105.08C693.915 104.024 693.003 102.344 693.003 100.52C693.003 98.744 693.387 97.736 694.251 97.736C695.163 97.736 695.883 99.08 695.355 103.16C699.627 103.256 704.043 103.64 704.043 103.64C704.859 95.384 701.787 90.92 694.395 90.92C688.395 90.92 683.931 93.416 683.931 100.136C683.931 105.32 685.659 108.488 691.323 111.32C694.635 113 695.451 114.296 695.451 116.072C695.451 118.136 695.067 118.76 694.155 118.76C692.907 118.76 692.475 116.984 692.763 113.144C687.387 113.144 683.835 113.048 683.835 113.048C683.307 121.016 685.947 125.624 694.203 125.624Z" fill="#269DDF"/>
<path d="M706.125 124.856C714.237 124.952 721.293 125.192 721.293 125.192C721.293 119.864 721.389 117.176 721.389 117.176C717.357 117.032 714.669 116.84 714.669 116.84C714.525 114.248 714.525 112.616 714.525 112.616C717.741 112.616 720.333 112.664 720.333 112.664C720.237 107.96 720.285 104.552 720.285 104.552C716.493 104.648 714.717 104.6 714.333 104.6C714.333 104.6 714.285 102.632 714.333 100.136C716.877 100.04 721.485 99.992 721.485 99.992C721.341 95 721.389 91.496 721.389 91.496C709.821 91.592 705.741 91.64 705.741 91.64C706.029 110.984 706.125 124.856 706.125 124.856Z" fill="#269DDF"/>
<path d="M721.984 124.28C727.936 124.232 730.576 124.376 730.576 124.376L730.864 120.344C732.544 120.344 734.032 120.344 734.896 120.392C735.184 124.184 735.28 125.768 735.28 125.768C740.896 125.624 744.448 125.72 744.448 125.72C741.28 107.432 739.072 91.304 739.072 91.304C739.072 91.304 733.744 91.208 726.784 91.496C724.096 111.56 721.984 124.28 721.984 124.28ZM732.832 98.6C732.832 98.6 733.552 105.224 734.32 113.336C734.32 113.336 732.928 113.384 731.392 113.336C731.968 106.424 732.544 101.192 732.832 98.6Z" fill="#269DDF"/>
<path d="M754.39 125.384C761.158 125.384 764.71 122.216 764.71 115.496C764.71 111.032 763.318 108.056 757.462 105.8C754.102 104.504 753.19 103.112 753.19 101.24C753.19 99.464 753.574 98.216 754.438 98.216C755.35 98.216 756.07 99.608 755.542 103.688C760.438 103.592 764.23 103.64 764.23 103.64C764.806 95.912 762.022 91.4 754.582 91.4C747.478 91.4 744.118 95.192 744.118 101.144C744.118 106.28 746.086 109.208 751.126 111.224C754.966 112.76 755.638 113.912 755.638 115.592C755.638 117.656 755.254 118.52 754.342 118.52C753.094 118.52 752.662 116.984 752.95 113.144C747.43 113.336 744.022 113.288 744.022 113.288C743.446 121.928 747.046 125.384 754.39 125.384Z" fill="#269DDF"/>
<path d="M776.345 125.912C783.737 125.912 787.145 121.4 787.241 108.824C787.241 97.592 785.177 90.92 776.297 90.92C767.657 90.92 765.449 98.264 765.449 108.872C765.497 119.96 768.377 125.912 776.345 125.912ZM776.441 119.336C775.337 119.336 774.905 118.136 774.905 108.776C774.905 99.512 775.049 97.784 776.345 97.784C777.401 97.784 777.785 99.08 777.785 108.44C777.785 118.232 777.401 119.336 776.441 119.336Z" fill="#269DDF"/>
<path d="M788.807 124.136C793.751 124.136 796.919 124.28 796.919 124.28C796.487 117.464 796.295 112.76 796.199 109.448C799.799 119.096 802.199 125.912 802.199 125.912C807.575 125.48 809.975 125.096 809.975 125.096C809.351 103.688 809.111 90.872 809.111 90.872C804.263 90.92 801.287 90.728 801.287 90.728C801.959 99.08 802.343 105.032 802.535 108.92C798.839 98.696 796.823 92.6 796.823 92.6C792.119 92.744 788.663 92.984 788.663 92.984C788.999 112.376 788.807 124.136 788.807 124.136Z" fill="#269DDF"/>
</svg>
