<svg width="559" height="230" viewBox="0 0 559 230" fill="none" xmlns="http://www.w3.org/2000/svg">
<path d="M57.9438 70.464C70.1358 70.56 79.6398 64.512 79.4478 40.512C79.4478 40.512 70.5197 40.416 60.6317 40.8C60.8237 53.568 59.9598 55.968 58.1358 55.968C56.1198 55.968 55.3517 53.28 55.3517 35.616C55.1597 18.816 55.9278 14.4 58.2318 14.4C60.2478 14.4 60.8238 17.088 60.7278 27.744C60.7278 27.744 68.1198 28.128 79.2558 28.128C79.8318 12.864 74.9358 0 59.0958 0C43.1598 0 36.3438 11.232 36.3438 35.52C36.3438 60.672 42.5838 70.464 57.9438 70.464Z" fill="#23408C"/>
<path d="M103.232 1.44C87.4878 1.44 81.5357 11.424 81.3438 34.656C81.3438 57.888 86.4318 69.408 103.328 69.408C117.632 69.408 125.12 59.808 125.12 34.56C125.024 13.152 119.456 1.44 103.232 1.44ZM103.04 15.072C105.248 15.072 106.208 17.376 106.208 35.232C106.208 54.912 105.344 56.16 103.232 56.16C101.312 56.16 100.256 54.336 100.256 35.904C100.256 17.568 101.12 15.072 103.04 15.072Z" fill="#23408C"/>
<path d="M127 67.68C134.296 67.776 145.24 68.064 145.24 68.064C144.856 51.168 144.856 35.328 144.856 23.808C148.312 46.176 149.56 59.136 149.56 59.136C157.72 59.52 166.648 59.616 166.648 59.616C167.704 46.368 169.816 31.104 171.544 20.256C172.6 49.632 172.12 70.752 172.12 70.752C180.76 70.464 189.976 69.984 189.976 69.984C187.288 28.128 187.192 1.344 187.192 1.344C175.096 0.959999 162.136 0.48 162.136 0.48C160.984 13.824 159.352 27.072 157.912 37.152C155.416 19.296 153.688 3.552 153.688 3.552C140.536 4.032 129.496 3.84 129.496 3.84C128.632 40.416 127 67.68 127 67.68Z" fill="#23408C"/>
<path d="M193.699 68.544C198.787 69.12 203.491 69.504 207.811 69.504C223.939 69.504 234.211 64.224 234.211 49.824C234.211 41.76 230.851 36 224.227 33.312C229.507 31.008 233.155 26.208 233.155 19.296C233.155 6.432 225.763 0.383995 210.211 0.383995C205.219 0.383995 199.555 0.959999 192.835 2.208C193.507 37.344 193.699 68.544 193.699 68.544ZM210.691 56.64C210.691 56.64 210.403 51.744 210.307 40.992C215.107 40.992 217.027 43.872 217.027 49.056C217.027 55.104 214.723 56.736 210.691 56.64ZM210.307 13.728C214.819 13.536 217.027 15.744 217.027 21.216C217.027 26.016 215.011 28.608 210.307 28.512C210.307 28.512 210.211 23.328 210.307 13.728Z" fill="#23408C"/>
<path d="M237.012 68.928C248.724 68.832 254.483 68.928 254.483 68.928C254.195 34.272 254.004 2.112 254.004 2.112C242.58 2.208 236.628 2.208 236.628 2.208C237.108 39.552 237.012 68.928 237.012 68.928Z" fill="#23408C"/>
<path d="M259.123 67.104C269.011 67.104 275.347 67.392 275.347 67.392C274.483 53.76 274.099 44.352 273.907 37.728C281.107 57.024 285.907 70.656 285.907 70.656C296.659 69.792 301.459 69.024 301.459 69.024C300.211 26.208 299.731 0.575998 299.731 0.575998C290.035 0.671997 284.083 0.287996 284.083 0.287996C285.427 16.992 286.195 28.896 286.579 36.672C279.187 16.224 275.155 4.032 275.155 4.032C265.747 4.32 258.835 4.8 258.835 4.8C259.507 43.584 259.123 67.104 259.123 67.104Z" fill="#23408C"/>
<path d="M325.975 70.56C339.895 70.56 348.439 64.416 347.479 33.408C339.031 33.408 325.591 33.312 325.591 33.312C325.783 42.24 325.687 47.52 325.687 47.52C328.087 47.328 329.719 47.232 329.719 47.232C329.815 55.2 328.951 57.696 326.839 57.696C324.151 57.696 322.999 54.24 322.903 36.192C322.807 18.72 323.671 14.976 326.167 14.976C328.183 14.976 329.335 18.144 329.143 28.416C332.407 28.512 346.711 28.608 346.711 28.608C347.575 13.056 341.335 0.767996 326.551 0.767996C311.383 0.767996 304.375 11.232 304.375 36C304.375 63.264 312.919 70.56 325.975 70.56Z" fill="#23408C"/>
<path d="M369.574 69.312C373.414 69.6 377.062 69.696 380.326 69.696C400.87 69.696 410.758 63.936 410.758 50.592C410.758 42.912 407.398 36.768 399.526 34.176C405.382 31.488 409.51 26.4 409.51 19.296C409.51 7.776 402.694 1.44 384.262 1.632C379.75 1.72799 374.662 2.112 368.71 2.976C369.382 38.112 369.574 69.312 369.574 69.312ZM386.566 57.408C386.566 57.408 386.278 52.608 386.182 41.568C391.462 41.568 393.574 44.064 393.574 49.248C393.574 55.2 391.558 57.504 386.566 57.408ZM386.182 15.072C391.366 14.88 393.19 16.608 393.19 22.08C393.19 27.744 390.694 29.856 386.182 29.76C386.182 29.76 385.99 24.192 386.182 15.072Z" fill="#23408C"/>
<path d="M410.29 67.392C422.194 67.296 427.474 67.584 427.474 67.584L428.05 59.52C431.41 59.52 434.386 59.52 436.114 59.616C436.69 67.2 436.882 70.368 436.882 70.368C448.114 70.08 455.218 70.272 455.218 70.272C448.882 33.696 444.466 1.44 444.466 1.44C444.466 1.44 433.81 1.248 419.89 1.824C414.514 41.952 410.29 67.392 410.29 67.392ZM431.986 16.032C431.986 16.032 433.426 29.28 434.962 45.504C434.962 45.504 432.178 45.6 429.106 45.504C430.258 31.68 431.41 21.216 431.986 16.032Z" fill="#23408C"/>
<path d="M476.35 70.464C488.542 70.56 498.046 64.512 497.854 40.512C497.854 40.512 488.926 40.416 479.038 40.8C479.23 53.568 478.366 55.968 476.542 55.968C474.526 55.968 473.758 53.28 473.758 35.616C473.566 18.816 474.334 14.4 476.638 14.4C478.654 14.4 479.23 17.088 479.134 27.744C479.134 27.744 486.526 28.128 497.662 28.128C498.238 12.864 493.342 0 477.502 0C461.566 0 454.75 11.232 454.75 35.52C454.75 60.672 460.99 70.464 476.35 70.464Z" fill="#23408C"/>
<path d="M525.201 71.328C525.201 71.328 533.841 70.656 543.921 70.272C543.921 70.272 539.697 56.832 533.745 34.752C535.761 27.648 539.217 15.744 543.633 0.767996C543.633 0.767996 537.297 0.767996 525.585 0.191998C525.585 0.191998 523.377 11.616 517.617 36.288C517.617 27.264 517.713 16.608 517.905 3.648C517.905 3.648 512.145 3.744 500.241 3.552C500.241 3.552 500.529 30.912 500.241 67.392C500.241 67.392 505.233 67.104 518.001 67.296C518.001 67.296 517.905 65.472 517.809 61.92C518.481 59.808 519.633 56.448 521.361 51.84C522.321 56.352 523.569 62.592 525.201 71.328Z" fill="#23408C"/>
<path d="M3.00662 114.816L13.2786 114.72C13.5666 145.728 13.3746 165.408 13.3746 165.408C24.9906 165.12 30.6546 165.312 30.6546 165.312C30.3666 140.832 30.2706 125.568 30.2706 114.72C36.6066 114.72 40.4466 114.816 40.4466 114.816C40.3506 104.064 40.7346 97.824 40.7346 97.824C15.8706 98.304 2.91064 98.208 2.91064 98.208C3.19864 110.592 3.00662 114.816 3.00662 114.816Z" fill="#23408C"/>
<path d="M62.5889 166.656C77.3729 166.656 84.1889 157.632 84.3809 132.48C84.3809 110.016 80.2529 96.672 62.4929 96.672C45.2129 96.672 40.7969 111.36 40.7969 132.576C40.8929 154.752 46.6529 166.656 62.5889 166.656ZM62.7809 153.504C60.5729 153.504 59.7089 151.104 59.7089 132.384C59.7089 113.856 59.9969 110.4 62.5889 110.4C64.7009 110.4 65.4689 112.992 65.4689 131.712C65.4689 151.296 64.7009 153.504 62.7809 153.504Z" fill="#23408C"/>
<path d="M103.225 116.352C106.297 116.256 109.945 116.256 113.017 116.256C113.305 146.496 113.113 163.68 113.113 163.68C124.729 163.392 130.393 163.584 130.393 163.584C130.105 140.64 130.009 126.432 130.009 116.256C136.153 116.256 139.705 116.352 139.705 116.352C139.609 105.6 139.993 99.36 139.993 99.36C115.129 99.84 103.129 99.744 103.129 99.744C103.417 112.128 103.225 116.352 103.225 116.352Z" fill="#23408C"/>
<path d="M164.623 166.752C175.375 166.464 182.095 166.848 182.095 166.848C181.807 127.584 181.807 96.288 181.807 96.288C170.479 96.48 164.239 96.384 164.239 96.384C164.335 109.056 164.527 120.672 164.527 130.656C162.031 130.656 159.727 130.56 159.727 130.56C159.535 112.032 159.439 99.744 159.439 99.744C146.383 99.936 142.351 99.84 142.351 99.84C142.831 137.376 142.735 162.816 142.735 162.816C152.815 162.432 160.111 162.72 160.111 162.72L159.823 145.248C161.839 145.152 163.375 145.152 164.623 145.152V166.752Z" fill="#23408C"/>
<path d="M186.712 164.544C202.936 164.736 217.048 165.216 217.048 165.216C217.048 154.56 217.24 149.184 217.24 149.184C209.176 148.896 203.8 148.512 203.8 148.512C203.512 143.328 203.512 140.064 203.512 140.064C209.944 140.064 215.128 140.16 215.128 140.16C214.936 130.752 215.032 123.936 215.032 123.936C207.448 124.128 203.896 124.032 203.128 124.032C203.128 124.032 203.032 120.096 203.128 115.104C208.216 114.912 217.432 114.816 217.432 114.816C217.144 104.832 217.24 97.824 217.24 97.824C194.104 98.016 185.944 98.112 185.944 98.112C186.52 136.8 186.712 164.544 186.712 164.544Z" fill="#23408C"/>
<path d="M272.136 167.712C272.136 167.712 278.28 168.096 296.136 167.04C296.136 167.04 297.576 142.176 301.32 97.92C301.32 97.92 292.968 97.92 282.792 97.44C282.792 97.44 283.176 109.056 282.792 149.76C281.64 141.504 279.624 125.952 277.224 103.008C277.224 103.008 271.56 102.528 262.152 102.72C262.152 102.72 261.288 107.232 256.392 142.272C256.2 131.712 255.912 116.448 255.912 99.264C255.912 99.264 246.984 99.552 237.192 99.648C237.192 99.648 239.784 121.248 242.664 162.144C242.664 162.144 247.272 161.856 264.648 162.816C264.648 162.816 265.704 153.6 269.256 127.296C270.12 137.088 271.08 150.624 272.136 167.712Z" fill="#23408C"/>
<path d="M304.462 163.584C320.686 163.776 334.318 163.968 334.318 163.968C334.318 153.312 334.51 147.936 334.51 147.936C326.542 148.128 321.55 148.128 321.55 148.128C321.262 143.904 321.262 140.736 321.262 140.736C327.694 140.64 332.398 140.832 332.398 140.832C332.206 131.424 332.302 125.088 332.302 125.088C324.718 125.28 321.55 125.184 320.878 125.184C320.782 119.52 320.878 116.064 320.878 116.064C327.022 115.68 334.702 115.488 334.702 115.488C334.414 105.504 334.51 98.496 334.51 98.496C311.758 99.072 303.694 99.072 303.694 99.072C304.27 137.76 304.462 163.584 304.462 163.584Z" fill="#23408C"/>
<path d="M356.93 166.08C369.218 166.08 377.57 160.512 377.57 146.784C377.57 136.128 374.21 130.848 361.154 124.992C356.354 122.88 354.53 119.52 354.53 115.872C354.53 112.32 355.298 110.304 357.026 110.304C358.85 110.304 360.29 112.992 359.234 121.152C367.778 121.344 376.61 122.112 376.61 122.112C378.242 105.6 372.098 96.672 357.314 96.672C345.314 96.672 336.386 101.664 336.386 115.104C336.386 125.472 339.842 131.808 351.17 137.472C357.794 140.832 359.426 143.424 359.426 146.976C359.426 151.104 358.658 152.352 356.834 152.352C354.338 152.352 353.474 148.8 354.05 141.12C343.298 141.12 336.194 140.928 336.194 140.928C335.138 156.864 340.418 166.08 356.93 166.08Z" fill="#23408C"/>
<path d="M378.194 114.816L388.466 114.72C388.754 145.728 388.562 165.408 388.562 165.408C400.178 165.12 405.842 165.312 405.842 165.312C405.554 140.832 405.458 125.568 405.458 114.72C411.794 114.72 415.634 114.816 415.634 114.816C415.538 104.064 415.922 97.824 415.922 97.824C391.058 98.304 378.098 98.208 378.098 98.208C378.386 110.592 378.194 114.816 378.194 114.816Z" fill="#23408C"/>
<path d="M436.462 163.584C452.686 163.776 466.318 163.968 466.318 163.968C466.318 153.312 466.51 147.936 466.51 147.936C458.542 148.128 453.55 148.128 453.55 148.128C453.262 143.904 453.262 140.736 453.262 140.736C459.694 140.64 464.398 140.832 464.398 140.832C464.206 131.424 464.302 125.088 464.302 125.088C456.718 125.28 453.55 125.184 452.878 125.184C452.782 119.52 452.878 116.064 452.878 116.064C459.022 115.68 466.702 115.488 466.702 115.488C466.414 105.504 466.51 98.496 466.51 98.496C443.758 99.072 435.694 99.072 435.694 99.072C436.27 137.76 436.462 163.584 436.462 163.584Z" fill="#23408C"/>
<path d="M469.826 163.104C479.714 163.104 486.05 163.392 486.05 163.392C485.186 149.76 484.802 140.352 484.61 133.728C491.81 153.024 496.61 166.656 496.61 166.656C507.362 165.792 512.162 165.024 512.162 165.024C510.914 122.208 510.434 96.576 510.434 96.576C500.738 96.672 494.786 96.288 494.786 96.288C496.13 112.992 496.898 124.896 497.282 132.672C489.89 112.224 485.858 100.032 485.858 100.032C476.45 100.32 469.538 100.8 469.538 100.8C470.21 139.584 469.826 163.104 469.826 163.104Z" fill="#23408C"/>
<path d="M533.702 152.544C533.702 152.544 533.222 132 533.126 111.648C537.542 111.168 538.886 116.256 538.886 132.48C538.886 151.488 537.446 152.832 533.702 152.544ZM516.038 165.216C521.03 165.984 525.446 166.368 529.574 166.368C547.814 166.368 557.606 157.344 557.606 133.344C557.606 108.192 550.022 97.056 528.806 97.056C525.062 97.056 520.742 97.536 516.134 98.304C516.134 98.304 516.23 132.672 516.038 165.216Z" fill="#23408C"/>
<path d="M12.48 228.888C18.24 228.552 21.504 228.312 21.504 228.312C18.576 220.248 17.088 215.544 16.704 214.296C19.2 212.52 20.736 209.736 20.736 205.56C20.736 197.64 16.704 193.464 7.87201 193.464C5.61601 193.464 3.07202 193.752 0.192017 194.28C0.240017 214.488 0 227.208 0 227.208C5.136 227.112 8.88 227.16 8.88 227.16L8.68802 216.84C9.02402 216.84 9.36002 216.792 9.36002 216.792C11.376 224.184 12.48 228.888 12.48 228.888ZM8.68802 211.032C8.68802 211.032 8.59201 205.896 8.54401 200.856C10.704 200.664 11.664 202.824 11.664 206.184C11.664 209.592 10.56 210.984 8.68802 211.032Z" fill="#269DDF"/>
<path d="M22.3684 227.688C30.4804 227.784 37.5364 228.024 37.5364 228.024C37.5364 222.696 37.6324 220.008 37.6324 220.008C33.6004 219.864 30.9124 219.672 30.9124 219.672C30.7684 217.08 30.7684 215.448 30.7684 215.448C33.9844 215.448 36.5764 215.496 36.5764 215.496C36.4804 210.792 36.5284 207.384 36.5284 207.384C32.7364 207.48 30.9604 207.432 30.5764 207.432C30.5764 207.432 30.5284 205.464 30.5764 202.968C33.1204 202.872 37.7284 202.824 37.7284 202.824C37.5844 197.832 37.6324 194.328 37.6324 194.328C26.0644 194.424 21.9844 194.472 21.9844 194.472C22.2724 213.816 22.3684 227.688 22.3684 227.688Z" fill="#269DDF"/>
<path d="M38.5155 203.592C40.0515 203.544 41.8755 203.544 43.4115 203.544C43.5555 218.664 43.4595 227.256 43.4595 227.256C49.2675 227.112 52.0995 227.208 52.0995 227.208C51.9555 215.736 51.9075 208.632 51.9075 203.544C54.9795 203.544 56.7555 203.592 56.7555 203.592C56.7075 198.216 56.8995 195.096 56.8995 195.096C44.4675 195.336 38.4675 195.288 38.4675 195.288C38.6115 201.48 38.5155 203.592 38.5155 203.592Z" fill="#269DDF"/>
<path d="M68.6381 228.504C75.6941 228.504 78.9101 222.936 78.9101 210.792C78.9101 205.224 78.3341 198.744 77.4221 193.512C72.0461 194.136 68.7821 194.232 68.7821 194.232C69.4541 199.56 69.8861 205.272 69.8861 210.264C69.8861 218.952 69.2621 220.248 68.1581 220.248C66.9581 220.248 66.1901 217.368 66.1901 208.2C66.1901 204.552 66.4301 200.568 66.9581 196.008C61.1501 195.288 58.6541 194.856 58.6541 194.856C57.9821 199.416 57.5981 204.168 57.5981 208.584C57.5981 222.408 60.8141 228.504 68.6381 228.504Z" fill="#269DDF"/>
<path d="M93.3038 229.224C98.1998 228.504 102.136 228.216 102.136 228.216C99.3998 220.776 97.6238 215.976 96.9518 214.296C99.7358 212.424 101.08 209.592 101.08 205.8C101.08 198.648 97.5758 194.376 87.5438 194.376C85.4798 194.376 83.1758 194.616 80.5358 195C80.5838 215.208 80.3438 227.976 80.3438 227.976C85.4798 227.88 89.2238 227.928 89.2238 227.928C89.1278 222.696 89.0318 218.856 89.0318 216.696C89.2238 216.696 89.6558 216.648 89.6558 216.648C91.8158 223.944 93.3038 229.224 93.3038 229.224ZM89.0318 211.176C89.0318 211.176 88.9358 206.616 88.8878 201.576C91.1438 201.384 92.0078 203.208 92.0078 206.184C92.0078 209.448 91.1438 211.128 89.0318 211.176Z" fill="#269DDF"/>
<path d="M102.753 226.968C107.697 226.968 110.865 227.112 110.865 227.112C110.433 220.296 110.241 215.592 110.145 212.28C113.745 221.928 116.145 228.744 116.145 228.744C121.521 228.312 123.921 227.928 123.921 227.928C123.297 206.52 123.057 193.704 123.057 193.704C118.209 193.752 115.233 193.56 115.233 193.56C115.905 201.912 116.289 207.864 116.481 211.752C112.785 201.528 110.769 195.432 110.769 195.432C106.065 195.576 102.609 195.816 102.609 195.816C102.945 215.208 102.753 226.968 102.753 226.968Z" fill="#269DDF"/>
<path d="M126.291 227.88C132.147 227.832 135.027 227.88 135.027 227.88C134.883 210.552 134.787 194.472 134.787 194.472C129.075 194.52 126.099 194.52 126.099 194.52C126.339 213.192 126.291 227.88 126.291 227.88Z" fill="#269DDF"/>
<path d="M137.347 228.312C142.291 228.312 145.459 228.456 145.459 228.456C144.979 220.92 144.787 214.968 144.691 211.032C148.291 220.68 150.739 227.784 150.739 227.784C156.067 227.256 158.707 227.208 158.707 227.208C158.083 205.8 157.843 194.232 157.843 194.232C152.995 194.28 150.019 194.088 150.019 194.088C150.643 202.152 151.027 207.24 151.219 210.744C147.475 200.76 145.507 194.76 145.507 194.76C140.515 194.904 137.203 194.76 137.203 194.76C137.539 214.152 137.347 228.312 137.347 228.312Z" fill="#269DDF"/>
<path d="M170.961 228.696C177.921 228.696 182.193 225.624 181.713 210.12C177.489 210.12 170.769 210.072 170.769 210.072C170.865 214.536 170.817 217.176 170.817 217.176C172.017 217.08 172.833 217.032 172.833 217.032C172.881 221.016 172.449 222.264 171.393 222.264C170.049 222.264 169.473 220.536 169.425 211.512C169.377 202.776 169.809 200.904 171.057 200.904C172.065 200.904 172.641 202.488 172.545 207.624C174.177 207.672 181.329 207.72 181.329 207.72C181.761 199.944 178.641 193.8 171.249 193.8C163.665 193.8 160.161 199.032 160.161 211.416C160.161 225.048 164.433 228.696 170.961 228.696Z" fill="#269DDF"/>
<path d="M192.712 227.688C192.712 227.688 196.168 227.592 201.352 227.64C201.256 224.088 201.208 220.872 201.16 217.992C205.624 217.896 207.592 217.992 207.592 217.992C207.496 213.048 207.544 209.592 207.544 209.592C203.848 209.736 201.592 209.688 201.016 209.688C200.968 205.416 201.016 202.968 201.016 202.968C205.96 202.824 208.072 202.92 208.072 202.92C208.072 197.208 208.168 194.328 208.168 194.328C198.712 194.52 192.328 194.52 192.328 194.52C192.712 213.912 192.712 227.688 192.712 227.688Z" fill="#269DDF"/>
<path d="M219.807 228.744C227.199 228.744 230.607 224.232 230.703 211.656C230.703 200.424 228.639 193.752 219.759 193.752C211.119 193.752 208.911 201.096 208.911 211.704C208.959 222.792 211.839 228.744 219.807 228.744ZM219.903 222.168C218.799 222.168 218.367 220.968 218.367 211.608C218.367 202.344 218.511 200.616 219.807 200.616C220.863 200.616 221.247 201.912 221.247 211.272C221.247 221.064 220.863 222.168 219.903 222.168Z" fill="#269DDF"/>
<path d="M244.605 228.888C250.365 228.552 253.629 228.312 253.629 228.312C250.701 220.248 249.213 215.544 248.829 214.296C251.325 212.52 252.861 209.736 252.861 205.56C252.861 197.64 248.829 193.464 239.997 193.464C237.741 193.464 235.197 193.752 232.317 194.28C232.365 214.488 232.125 227.208 232.125 227.208C237.261 227.112 241.005 227.16 241.005 227.16L240.813 216.84C241.149 216.84 241.485 216.792 241.485 216.792C243.501 224.184 244.605 228.888 244.605 228.888ZM240.813 211.032C240.813 211.032 240.717 205.896 240.669 200.856C242.829 200.664 243.789 202.824 243.789 206.184C243.789 209.592 242.685 210.984 240.813 211.032Z" fill="#269DDF"/>
<path d="M261.821 227.112C267.773 227.064 270.413 227.208 270.413 227.208L270.701 223.176C272.381 223.176 273.869 223.176 274.733 223.224C275.021 227.016 275.117 228.6 275.117 228.6C280.733 228.456 284.285 228.552 284.285 228.552C281.117 210.264 278.909 194.136 278.909 194.136C278.909 194.136 273.581 194.04 266.621 194.328C263.933 214.392 261.821 227.112 261.821 227.112ZM272.669 201.432C272.669 201.432 273.389 208.056 274.157 216.168C274.157 216.168 272.765 216.216 271.229 216.168C271.805 209.256 272.381 204.024 272.669 201.432Z" fill="#269DDF"/>
<path d="M294.194 227.64C294.194 227.64 305.762 227.688 309.698 227.832C309.698 227.832 309.65 224.664 309.746 219.912C309.746 219.912 306.626 219.912 302.738 219.768C302.402 199.56 302.546 194.76 302.546 194.76C296.738 194.856 293.906 194.76 293.906 194.76C294.194 214.392 294.194 227.64 294.194 227.64Z" fill="#269DDF"/>
<path d="M311.12 227.88C316.976 227.832 319.855 227.88 319.855 227.88C319.711 210.552 319.616 194.472 319.616 194.472C313.904 194.52 310.928 194.52 310.928 194.52C311.168 213.192 311.12 227.88 311.12 227.88Z" fill="#269DDF"/>
<path d="M321.551 227.256C325.199 227.304 330.671 227.448 330.671 227.448C330.479 219 330.479 211.08 330.479 205.32C332.207 216.504 332.831 222.984 332.831 222.984C336.911 223.176 341.375 223.224 341.375 223.224C341.903 216.6 342.959 208.968 343.823 203.544C344.351 218.232 344.111 228.792 344.111 228.792C348.431 228.648 353.039 228.408 353.039 228.408C351.695 207.48 351.647 194.088 351.647 194.088C345.599 193.896 339.119 193.656 339.119 193.656C338.543 200.328 337.727 206.952 337.007 211.992C335.759 203.064 334.895 195.192 334.895 195.192C328.319 195.432 322.799 195.336 322.799 195.336C322.367 213.624 321.551 227.256 321.551 227.256Z" fill="#269DDF"/>
<path d="M354.901 227.112C360.757 227.064 363.637 227.112 363.637 227.112C363.493 209.784 363.397 195.72 363.397 195.72C357.685 195.768 354.709 195.768 354.709 195.768C354.949 214.44 354.901 227.112 354.901 227.112Z" fill="#269DDF"/>
<path d="M365.141 202.824L370.277 202.776C370.421 218.28 370.324 228.12 370.324 228.12C376.132 227.976 378.965 228.072 378.965 228.072C378.821 215.832 378.772 208.2 378.772 202.776C381.94 202.776 383.861 202.824 383.861 202.824C383.813 197.448 384.004 194.328 384.004 194.328C371.572 194.568 365.092 194.52 365.092 194.52C365.236 200.712 365.141 202.824 365.141 202.824Z" fill="#269DDF"/>
<path d="M385.603 227.208C393.715 227.304 400.531 227.4 400.531 227.4C400.531 222.072 400.627 219.384 400.627 219.384C396.643 219.48 394.147 219.48 394.147 219.48C394.003 217.368 394.003 215.784 394.003 215.784C397.219 215.736 399.571 215.832 399.571 215.832C399.475 211.128 399.523 207.96 399.523 207.96C395.731 208.056 394.147 208.008 393.811 208.008C393.763 205.176 393.811 203.448 393.811 203.448C396.883 203.256 400.723 203.16 400.723 203.16C400.579 198.168 400.627 194.664 400.627 194.664C389.251 194.952 385.219 194.952 385.219 194.952C385.507 214.296 385.603 227.208 385.603 227.208Z" fill="#269DDF"/>
<path d="M410.973 221.688C410.973 221.688 410.733 211.416 410.685 201.24C412.893 201 413.565 203.544 413.565 211.656C413.565 221.16 412.845 221.832 410.973 221.688ZM402.141 228.024C404.637 228.408 406.845 228.6 408.909 228.6C418.029 228.6 422.925 224.088 422.925 212.088C422.925 199.512 419.133 193.944 408.525 193.944C406.653 193.944 404.493 194.184 402.189 194.568C402.189 194.568 402.237 211.752 402.141 228.024Z" fill="#269DDF"/>
<path d="M443.196 228.456C449.34 228.456 453.516 225.672 453.516 218.808C453.516 213.48 451.836 210.84 445.308 207.912C442.908 206.856 441.996 205.176 441.996 203.352C441.996 201.576 442.38 200.568 443.244 200.568C444.156 200.568 444.876 201.912 444.348 205.992C448.62 206.088 453.036 206.472 453.036 206.472C453.852 198.216 450.78 193.752 443.388 193.752C437.388 193.752 432.924 196.248 432.924 202.968C432.924 208.152 434.652 211.32 440.316 214.152C443.628 215.832 444.444 217.128 444.444 218.904C444.444 220.968 444.06 221.592 443.148 221.592C441.9 221.592 441.468 219.816 441.756 215.976C436.38 215.976 432.828 215.88 432.828 215.88C432.3 223.848 434.94 228.456 443.196 228.456Z" fill="#269DDF"/>
<path d="M455.118 227.688C463.23 227.784 470.286 228.024 470.286 228.024C470.286 222.696 470.382 220.008 470.382 220.008C466.35 219.864 463.662 219.672 463.662 219.672C463.518 217.08 463.518 215.448 463.518 215.448C466.734 215.448 469.326 215.496 469.326 215.496C469.23 210.792 469.278 207.384 469.278 207.384C465.486 207.48 463.71 207.432 463.326 207.432C463.326 207.432 463.278 205.464 463.326 202.968C465.87 202.872 470.478 202.824 470.478 202.824C470.334 197.832 470.382 194.328 470.382 194.328C458.814 194.424 454.734 194.472 454.734 194.472C455.022 213.816 455.118 227.688 455.118 227.688Z" fill="#269DDF"/>
<path d="M470.978 227.112C476.93 227.064 479.569 227.208 479.569 227.208L479.858 223.176C481.538 223.176 483.025 223.176 483.889 223.224C484.177 227.016 484.274 228.6 484.274 228.6C489.89 228.456 493.441 228.552 493.441 228.552C490.273 210.264 488.066 194.136 488.066 194.136C488.066 194.136 482.737 194.04 475.777 194.328C473.089 214.392 470.978 227.112 470.978 227.112ZM481.826 201.432C481.826 201.432 482.546 208.056 483.314 216.168C483.314 216.168 481.922 216.216 480.386 216.168C480.962 209.256 481.538 204.024 481.826 201.432Z" fill="#269DDF"/>
<path d="M503.384 228.216C510.152 228.216 513.703 225.048 513.703 218.328C513.703 213.864 512.312 210.888 506.456 208.632C503.096 207.336 502.184 205.944 502.184 204.072C502.184 202.296 502.567 201.048 503.431 201.048C504.343 201.048 505.063 202.44 504.535 206.52C509.431 206.424 513.224 206.472 513.224 206.472C513.8 198.744 511.016 194.232 503.576 194.232C496.472 194.232 493.111 198.024 493.111 203.976C493.111 209.112 495.08 212.04 500.12 214.056C503.96 215.592 504.632 216.744 504.632 218.424C504.632 220.488 504.247 221.352 503.335 221.352C502.087 221.352 501.656 219.816 501.944 215.976C496.424 216.168 493.016 216.12 493.016 216.12C492.44 224.76 496.04 228.216 503.384 228.216Z" fill="#269DDF"/>
<path d="M525.338 228.744C532.73 228.744 536.138 224.232 536.234 211.656C536.234 200.424 534.17 193.752 525.29 193.752C516.65 193.752 514.442 201.096 514.442 211.704C514.49 222.792 517.37 228.744 525.338 228.744ZM525.434 222.168C524.33 222.168 523.898 220.968 523.898 211.608C523.898 202.344 524.042 200.616 525.338 200.616C526.394 200.616 526.778 201.912 526.778 211.272C526.778 221.064 526.394 222.168 525.434 222.168Z" fill="#269DDF"/>
<path d="M537.8 226.968C542.744 226.968 545.912 227.112 545.912 227.112C545.48 220.296 545.288 215.592 545.192 212.28C548.792 221.928 551.192 228.744 551.192 228.744C556.568 228.312 558.968 227.928 558.968 227.928C558.344 206.52 558.104 193.704 558.104 193.704C553.256 193.752 550.28 193.56 550.28 193.56C550.952 201.912 551.336 207.864 551.528 211.752C547.832 201.528 545.816 195.432 545.816 195.432C541.112 195.576 537.656 195.816 537.656 195.816C537.992 215.208 537.8 226.968 537.8 226.968Z" fill="#269DDF"/>
</svg>
