<svg width="302" height="166" viewBox="0 0 302 166" fill="none" xmlns="http://www.w3.org/2000/svg">
<path d="M30.8028 39C37.4068 39.052 42.5547 35.776 42.4507 22.776C42.4507 22.776 37.6148 22.724 32.2588 22.932C32.3628 29.848 31.8948 31.148 30.9068 31.148C29.8148 31.148 29.3988 29.692 29.3988 20.124C29.2948 11.024 29.7108 8.63203 30.9588 8.63203C32.0508 8.63203 32.3628 10.088 32.3108 15.86C32.3108 15.86 36.3147 16.068 42.3467 16.068C42.6587 7.80003 40.0068 0.832031 31.4268 0.832031C22.7948 0.832031 19.1028 6.91603 19.1028 20.072C19.1028 33.696 22.4828 39 30.8028 39Z" fill="#23408C"/>
<path d="M55.3337 1.61203C46.8057 1.61203 43.5818 7.02003 43.4778 19.604C43.4778 32.188 46.2337 38.428 55.3857 38.428C63.1337 38.428 67.1898 33.228 67.1898 19.552C67.1378 7.95603 64.1217 1.61203 55.3337 1.61203ZM55.2297 8.99603C56.4257 8.99603 56.9457 10.244 56.9457 19.916C56.9457 30.576 56.4777 31.252 55.3337 31.252C54.2937 31.252 53.7217 30.264 53.7217 20.28C53.7217 10.348 54.1897 8.99603 55.2297 8.99603Z" fill="#23408C"/>
<path d="M68.2083 37.492C72.1603 37.544 78.0883 37.7 78.0883 37.7C77.8803 28.548 77.8802 19.968 77.8802 13.728C79.7522 25.844 80.4282 32.864 80.4282 32.864C84.8482 33.072 89.6842 33.124 89.6842 33.124C90.2562 25.948 91.4002 17.68 92.3362 11.804C92.9082 27.716 92.6483 39.156 92.6483 39.156C97.3283 39 102.32 38.74 102.32 38.74C100.864 16.068 100.812 1.56003 100.812 1.56003C94.2603 1.35203 87.2402 1.09203 87.2402 1.09203C86.6162 8.32003 85.7322 15.496 84.9522 20.956C83.6002 11.284 82.6642 2.75603 82.6642 2.75603C75.5402 3.01603 69.5602 2.91203 69.5602 2.91203C69.0922 22.724 68.2083 37.492 68.2083 37.492Z" fill="#23408C"/>
<path d="M104.337 37.96C107.093 38.272 109.641 38.48 111.981 38.48C120.717 38.48 126.281 35.62 126.281 27.82C126.281 23.452 124.461 20.332 120.873 18.876C123.733 17.628 125.709 15.028 125.709 11.284C125.709 4.31603 121.705 1.04003 113.281 1.04003C110.577 1.04003 107.509 1.35203 103.869 2.02803C104.233 21.06 104.337 37.96 104.337 37.96ZM113.541 31.512C113.541 31.512 113.385 28.86 113.333 23.036C115.933 23.036 116.973 24.596 116.973 27.404C116.973 30.68 115.725 31.564 113.541 31.512ZM113.333 8.26803C115.777 8.16403 116.973 9.36003 116.973 12.324C116.973 14.924 115.881 16.328 113.333 16.276C113.333 16.276 113.281 13.468 113.333 8.26803Z" fill="#23408C"/>
<path d="M127.798 38.168C134.142 38.116 137.262 38.168 137.262 38.168C137.106 19.396 137.002 1.97603 137.002 1.97603C130.814 2.02803 127.59 2.02803 127.59 2.02803C127.85 22.256 127.798 38.168 127.798 38.168Z" fill="#23408C"/>
<path d="M139.775 37.18C145.131 37.18 148.563 37.336 148.563 37.336C148.095 29.952 147.887 24.856 147.783 21.268C151.683 31.72 154.283 39.104 154.283 39.104C160.107 38.636 162.707 38.22 162.707 38.22C162.031 15.028 161.771 1.14403 161.771 1.14403C156.519 1.19603 153.295 0.988029 153.295 0.988029C154.023 10.036 154.439 16.484 154.647 20.696C150.643 9.62003 148.459 3.01603 148.459 3.01603C143.363 3.17203 139.619 3.43203 139.619 3.43203C139.983 24.44 139.775 37.18 139.775 37.18Z" fill="#23408C"/>
<path d="M175.986 39.052C183.526 39.052 188.154 35.724 187.634 18.928C183.058 18.928 175.778 18.876 175.778 18.876C175.882 23.712 175.83 26.572 175.83 26.572C177.13 26.468 178.014 26.416 178.014 26.416C178.066 30.732 177.598 32.084 176.454 32.084C174.998 32.084 174.374 30.212 174.322 20.436C174.27 10.972 174.738 8.94403 176.09 8.94403C177.182 8.94403 177.806 10.66 177.702 16.224C179.47 16.276 187.218 16.328 187.218 16.328C187.686 7.90403 184.306 1.24803 176.298 1.24803C168.082 1.24803 164.286 6.91603 164.286 20.332C164.286 35.1 168.914 39.052 175.986 39.052Z" fill="#23408C"/>
<path d="M199.602 38.376C201.682 38.532 203.658 38.584 205.426 38.584C216.554 38.584 221.91 35.464 221.91 28.236C221.91 24.076 220.09 20.748 215.826 19.344C218.998 17.888 221.234 15.132 221.234 11.284C221.234 5.04403 217.542 1.61203 207.558 1.71603C205.114 1.76803 202.358 1.97603 199.134 2.44403C199.498 21.476 199.602 38.376 199.602 38.376ZM208.806 31.928C208.806 31.928 208.651 29.328 208.599 23.348C211.459 23.348 212.602 24.7 212.602 27.508C212.602 30.732 211.51 31.98 208.806 31.928ZM208.599 8.99603C211.407 8.89203 212.394 9.82803 212.394 12.792C212.394 15.86 211.043 17.004 208.599 16.952C208.599 16.952 208.495 13.936 208.599 8.99603Z" fill="#23408C"/>
<path d="M221.657 37.336C228.105 37.284 230.965 37.44 230.965 37.44L231.277 33.072C233.097 33.072 234.709 33.072 235.645 33.124C235.957 37.232 236.061 38.948 236.061 38.948C242.145 38.792 245.993 38.896 245.993 38.896C242.561 19.084 240.169 1.61203 240.169 1.61203C240.169 1.61203 234.397 1.50803 226.857 1.82003C223.945 23.556 221.657 37.336 221.657 37.336ZM233.409 9.51603C233.409 9.51603 234.189 16.692 235.021 25.48C235.021 25.48 233.513 25.532 231.849 25.48C232.473 17.992 233.097 12.324 233.409 9.51603Z" fill="#23408C"/>
<path d="M257.439 39C264.043 39.052 269.191 35.776 269.087 22.776C269.087 22.776 264.252 22.724 258.896 22.932C259 29.848 258.531 31.148 257.543 31.148C256.451 31.148 256.035 29.692 256.035 20.124C255.931 11.024 256.347 8.63203 257.595 8.63203C258.687 8.63203 259 10.088 258.948 15.86C258.948 15.86 262.951 16.068 268.983 16.068C269.295 7.80003 266.643 0.832031 258.063 0.832031C249.431 0.832031 245.74 6.91603 245.74 20.072C245.74 33.696 249.119 39 257.439 39Z" fill="#23408C"/>
<path d="M283.901 39.468C283.901 39.468 288.581 39.104 294.041 38.896C294.041 38.896 291.753 31.616 288.529 19.656C289.621 15.808 291.493 9.36003 293.885 1.24803C293.885 1.24803 290.453 1.24803 284.109 0.93603C284.109 0.93603 282.913 7.12403 279.793 20.488C279.793 15.6 279.845 9.82803 279.949 2.80803C279.949 2.80803 276.829 2.86003 270.381 2.75603C270.381 2.75603 270.537 17.576 270.381 37.336C270.381 37.336 273.085 37.18 280.001 37.284C280.001 37.284 279.949 36.296 279.897 34.372C280.261 33.228 280.885 31.408 281.821 28.912C282.341 31.356 283.017 34.736 283.901 39.468Z" fill="#23408C"/>
<path d="M1.04517 63.024L6.60916 62.972C6.76516 79.768 6.66116 90.428 6.66116 90.428C12.9532 90.272 16.0211 90.376 16.0211 90.376C15.8651 77.116 15.8131 68.848 15.8131 62.972C19.2451 62.972 21.3252 63.024 21.3252 63.024C21.2732 57.2 21.4811 53.82 21.4811 53.82C8.01314 54.08 0.993164 54.028 0.993164 54.028C1.14916 60.736 1.04517 63.024 1.04517 63.024Z" fill="#23408C"/>
<path d="M33.3189 91.104C41.3269 91.104 45.0189 86.216 45.1229 72.592C45.1229 60.424 42.8869 53.196 33.2669 53.196C23.9069 53.196 21.5149 61.152 21.5149 72.644C21.5669 84.656 24.6869 91.104 33.3189 91.104ZM33.4229 83.98C32.2269 83.98 31.7589 82.68 31.7589 72.54C31.7589 62.504 31.9149 60.632 33.3189 60.632C34.4629 60.632 34.8789 62.036 34.8789 72.176C34.8789 82.784 34.4629 83.98 33.4229 83.98Z" fill="#23408C"/>
<path d="M55.3303 63.856C56.9943 63.804 58.9703 63.804 60.6343 63.804C60.7903 80.184 60.6863 89.492 60.6863 89.492C66.9783 89.336 70.0463 89.44 70.0463 89.44C69.8903 77.012 69.8383 69.316 69.8383 63.804C73.1663 63.804 75.0903 63.856 75.0903 63.856C75.0383 58.032 75.2463 54.652 75.2463 54.652C61.7783 54.912 55.2783 54.86 55.2783 54.86C55.4343 61.568 55.3303 63.856 55.3303 63.856Z" fill="#23408C"/>
<path d="M88.5872 91.156C94.4112 91 98.0511 91.208 98.0511 91.208C97.8951 69.94 97.8951 52.988 97.8951 52.988C91.7591 53.092 88.3792 53.04 88.3792 53.04C88.4312 59.904 88.5352 66.196 88.5352 71.604C87.1832 71.604 85.9352 71.552 85.9352 71.552C85.8312 61.516 85.7792 54.86 85.7792 54.86C78.7072 54.964 76.5231 54.912 76.5231 54.912C76.7831 75.244 76.7311 89.024 76.7311 89.024C82.1911 88.816 86.1431 88.972 86.1431 88.972L85.9872 79.508C87.0792 79.456 87.9112 79.456 88.5872 79.456V91.156Z" fill="#23408C"/>
<path d="M100.552 89.96C109.34 90.064 116.984 90.324 116.984 90.324C116.984 84.552 117.088 81.64 117.088 81.64C112.72 81.484 109.808 81.276 109.808 81.276C109.652 78.468 109.652 76.7 109.652 76.7C113.136 76.7 115.944 76.752 115.944 76.752C115.84 71.656 115.892 67.964 115.892 67.964C111.784 68.068 109.86 68.016 109.444 68.016C109.444 68.016 109.392 65.884 109.444 63.18C112.2 63.076 117.192 63.024 117.192 63.024C117.036 57.616 117.088 53.82 117.088 53.82C104.556 53.924 100.136 53.976 100.136 53.976C100.448 74.932 100.552 89.96 100.552 89.96Z" fill="#23408C"/>
<path d="M146.823 91.676C146.823 91.676 150.151 91.884 159.823 91.312C159.823 91.312 160.603 77.844 162.631 53.872C162.631 53.872 158.108 53.872 152.596 53.612C152.596 53.612 152.804 59.904 152.596 81.952C151.972 77.48 150.88 69.056 149.58 56.628C149.58 56.628 146.512 56.368 141.416 56.472C141.416 56.472 140.947 58.916 138.295 77.896C138.191 72.176 138.036 63.908 138.036 54.6C138.036 54.6 133.2 54.756 127.896 54.808C127.896 54.808 129.299 66.508 130.859 88.66C130.859 88.66 133.356 88.504 142.768 89.024C142.768 89.024 143.339 84.032 145.263 69.784C145.731 75.088 146.251 82.42 146.823 91.676Z" fill="#23408C"/>
<path d="M164.334 89.44C173.122 89.544 180.506 89.648 180.506 89.648C180.506 83.876 180.61 80.964 180.61 80.964C176.294 81.068 173.59 81.068 173.59 81.068C173.434 78.78 173.434 77.064 173.434 77.064C176.918 77.012 179.466 77.116 179.466 77.116C179.362 72.02 179.414 68.588 179.414 68.588C175.306 68.692 173.59 68.64 173.226 68.64C173.174 65.572 173.226 63.7 173.226 63.7C176.554 63.492 180.714 63.388 180.714 63.388C180.558 57.98 180.61 54.184 180.61 54.184C168.286 54.496 163.918 54.496 163.918 54.496C164.23 75.452 164.334 89.44 164.334 89.44Z" fill="#23408C"/>
<path d="M192.754 90.792C199.41 90.792 203.934 87.776 203.934 80.34C203.934 74.568 202.114 71.708 195.042 68.536C192.442 67.392 191.454 65.572 191.454 63.596C191.454 61.672 191.87 60.58 192.806 60.58C193.794 60.58 194.574 62.036 194.002 66.456C198.63 66.56 203.414 66.976 203.414 66.976C204.298 58.032 200.97 53.196 192.962 53.196C186.462 53.196 181.626 55.9 181.626 63.18C181.626 68.796 183.498 72.228 189.634 75.296C193.222 77.116 194.106 78.52 194.106 80.444C194.106 82.68 193.69 83.356 192.702 83.356C191.35 83.356 190.882 81.432 191.194 77.272C185.37 77.272 181.522 77.168 181.522 77.168C180.95 85.8 183.81 90.792 192.754 90.792Z" fill="#23408C"/>
<path d="M204.272 63.024L209.836 62.972C209.992 79.768 209.888 90.428 209.888 90.428C216.18 90.272 219.248 90.376 219.248 90.376C219.092 77.116 219.04 68.848 219.04 62.972C222.472 62.972 224.552 63.024 224.552 63.024C224.5 57.2 224.708 53.82 224.708 53.82C211.24 54.08 204.22 54.028 204.22 54.028C204.376 60.736 204.272 63.024 204.272 63.024Z" fill="#23408C"/>
<path d="M235.834 89.44C244.622 89.544 252.006 89.648 252.006 89.648C252.006 83.876 252.11 80.964 252.11 80.964C247.794 81.068 245.09 81.068 245.09 81.068C244.934 78.78 244.934 77.064 244.934 77.064C248.418 77.012 250.966 77.116 250.966 77.116C250.862 72.02 250.914 68.588 250.914 68.588C246.806 68.692 245.09 68.64 244.726 68.64C244.674 65.572 244.726 63.7 244.726 63.7C248.054 63.492 252.214 63.388 252.214 63.388C252.058 57.98 252.11 54.184 252.11 54.184C239.786 54.496 235.418 54.496 235.418 54.496C235.73 75.452 235.834 89.44 235.834 89.44Z" fill="#23408C"/>
<path d="M253.906 89.18C259.262 89.18 262.694 89.336 262.694 89.336C262.226 81.952 262.018 76.856 261.914 73.268C265.814 83.72 268.414 91.104 268.414 91.104C274.238 90.636 276.838 90.22 276.838 90.22C276.162 67.028 275.902 53.144 275.902 53.144C270.65 53.196 267.426 52.988 267.426 52.988C268.154 62.036 268.57 68.484 268.778 72.696C264.774 61.62 262.59 55.016 262.59 55.016C257.494 55.172 253.75 55.432 253.75 55.432C254.114 76.44 253.906 89.18 253.906 89.18Z" fill="#23408C"/>
<path d="M288.505 83.46C288.505 83.46 288.245 72.332 288.193 61.308C290.585 61.048 291.313 63.804 291.313 72.592C291.313 82.888 290.533 83.616 288.505 83.46ZM278.937 90.324C281.641 90.74 284.033 90.948 286.269 90.948C296.149 90.948 301.453 86.06 301.453 73.06C301.453 59.436 297.345 53.404 285.853 53.404C283.825 53.404 281.485 53.664 278.989 54.08C278.989 54.08 279.041 72.696 278.937 90.324Z" fill="#23408C"/>
<path d="M64.2324 133.82C68.0724 133.596 70.2484 133.436 70.2484 133.436C68.2964 128.06 67.3043 124.924 67.0483 124.092C68.7123 122.908 69.7363 121.052 69.7363 118.268C69.7363 112.988 67.0483 110.204 61.1603 110.204C59.6563 110.204 57.9603 110.396 56.0403 110.748C56.0723 124.22 55.9124 132.7 55.9124 132.7C59.3364 132.636 61.8323 132.668 61.8323 132.668L61.7043 125.788C61.9283 125.788 62.1523 125.756 62.1523 125.756C63.4963 130.684 64.2324 133.82 64.2324 133.82ZM61.7043 121.916C61.7043 121.916 61.6403 118.492 61.6083 115.132C63.0483 115.004 63.6884 116.444 63.6884 118.684C63.6884 120.956 62.9523 121.884 61.7043 121.916Z" fill="#269DDF"/>
<path d="M70.8246 133.02C76.2326 133.084 80.9366 133.244 80.9366 133.244C80.9366 129.692 81.0006 127.9 81.0006 127.9C78.3126 127.804 76.5206 127.676 76.5206 127.676C76.4246 125.948 76.4246 124.86 76.4246 124.86C78.5686 124.86 80.2966 124.892 80.2966 124.892C80.2326 121.756 80.2646 119.484 80.2646 119.484C77.7366 119.548 76.5526 119.516 76.2966 119.516C76.2966 119.516 76.2646 118.204 76.2966 116.54C77.9926 116.476 81.0646 116.444 81.0646 116.444C80.9686 113.116 81.0006 110.78 81.0006 110.78C73.2886 110.844 70.5686 110.876 70.5686 110.876C70.7606 123.772 70.8246 133.02 70.8246 133.02Z" fill="#269DDF"/>
<path d="M81.5894 116.956C82.6134 116.924 83.8293 116.924 84.8533 116.924C84.9493 127.004 84.8853 132.732 84.8853 132.732C88.7573 132.636 90.6453 132.7 90.6453 132.7C90.5493 125.052 90.5173 120.316 90.5173 116.924C92.5653 116.924 93.7493 116.956 93.7493 116.956C93.7173 113.372 93.8453 111.292 93.8453 111.292C85.5573 111.452 81.5573 111.42 81.5573 111.42C81.6533 115.548 81.5894 116.956 81.5894 116.956Z" fill="#269DDF"/>
<path d="M101.671 133.564C106.375 133.564 108.519 129.852 108.519 121.756C108.519 118.044 108.135 113.724 107.527 110.236C103.943 110.652 101.767 110.716 101.767 110.716C102.215 114.268 102.503 118.076 102.503 121.404C102.503 127.196 102.087 128.06 101.351 128.06C100.551 128.06 100.039 126.14 100.039 120.028C100.039 117.596 100.199 114.94 100.551 111.9C96.6791 111.42 95.0151 111.132 95.0151 111.132C94.5671 114.172 94.3111 117.34 94.3111 120.284C94.3111 129.5 96.4551 133.564 101.671 133.564Z" fill="#269DDF"/>
<path d="M118.115 134.044C121.379 133.564 124.003 133.372 124.003 133.372C122.179 128.412 120.995 125.212 120.547 124.092C122.403 122.844 123.299 120.956 123.299 118.428C123.299 113.66 120.963 110.812 114.275 110.812C112.899 110.812 111.363 110.972 109.603 111.228C109.635 124.7 109.475 133.212 109.475 133.212C112.899 133.148 115.395 133.18 115.395 133.18C115.331 129.692 115.267 127.132 115.267 125.692C115.395 125.692 115.683 125.66 115.683 125.66C117.123 130.524 118.115 134.044 118.115 134.044ZM115.267 122.012C115.267 122.012 115.203 118.972 115.171 115.612C116.675 115.484 117.251 116.7 117.251 118.684C117.251 120.86 116.675 121.98 115.267 122.012Z" fill="#269DDF"/>
<path d="M124.415 132.54C127.711 132.54 129.823 132.636 129.823 132.636C129.535 128.092 129.407 124.956 129.343 122.748C131.743 129.18 133.343 133.724 133.343 133.724C136.927 133.436 138.527 133.18 138.527 133.18C138.111 118.908 137.951 110.364 137.951 110.364C134.719 110.396 132.735 110.268 132.735 110.268C133.183 115.836 133.439 119.804 133.567 122.396C131.103 115.58 129.759 111.516 129.759 111.516C126.623 111.612 124.319 111.772 124.319 111.772C124.543 124.7 124.415 132.54 124.415 132.54Z" fill="#269DDF"/>
<path d="M140.107 133.148C144.011 133.116 145.931 133.148 145.931 133.148C145.835 121.596 145.771 110.876 145.771 110.876C141.963 110.908 139.979 110.908 139.979 110.908C140.139 123.356 140.107 133.148 140.107 133.148Z" fill="#269DDF"/>
<path d="M147.477 133.436C150.773 133.436 152.885 133.532 152.885 133.532C152.565 128.508 152.437 124.54 152.373 121.916C154.773 128.348 156.405 133.084 156.405 133.084C159.957 132.732 161.717 132.7 161.717 132.7C161.301 118.428 161.141 110.716 161.141 110.716C157.909 110.748 155.925 110.62 155.925 110.62C156.341 115.996 156.597 119.388 156.725 121.724C154.229 115.068 152.917 111.068 152.917 111.068C149.589 111.164 147.381 111.068 147.381 111.068C147.605 123.996 147.477 133.436 147.477 133.436Z" fill="#269DDF"/>
<path d="M169.886 133.692C174.526 133.692 177.374 131.644 177.054 121.308C174.238 121.308 169.758 121.276 169.758 121.276C169.822 124.252 169.79 126.012 169.79 126.012C170.59 125.948 171.134 125.916 171.134 125.916C171.166 128.572 170.878 129.404 170.174 129.404C169.278 129.404 168.894 128.252 168.862 122.236C168.83 116.412 169.118 115.164 169.95 115.164C170.622 115.164 171.006 116.22 170.942 119.644C172.03 119.676 176.798 119.708 176.798 119.708C177.086 114.524 175.006 110.428 170.078 110.428C165.022 110.428 162.686 113.916 162.686 122.172C162.686 131.26 165.534 133.692 169.886 133.692Z" fill="#269DDF"/>
<path d="M184.387 133.02C184.387 133.02 186.691 132.956 190.147 132.988C190.083 130.62 190.051 128.476 190.019 126.556C192.995 126.492 194.307 126.556 194.307 126.556C194.243 123.26 194.275 120.956 194.275 120.956C191.811 121.052 190.307 121.02 189.923 121.02C189.891 118.172 189.923 116.54 189.923 116.54C193.219 116.444 194.627 116.508 194.627 116.508C194.627 112.7 194.691 110.78 194.691 110.78C188.387 110.908 184.131 110.908 184.131 110.908C184.387 123.836 184.387 133.02 184.387 133.02Z" fill="#269DDF"/>
<path d="M202.45 133.724C207.378 133.724 209.65 130.716 209.714 122.332C209.714 114.844 208.338 110.396 202.418 110.396C196.658 110.396 195.186 115.292 195.186 122.364C195.218 129.756 197.138 133.724 202.45 133.724ZM202.514 129.34C201.778 129.34 201.49 128.54 201.49 122.3C201.49 116.124 201.586 114.972 202.45 114.972C203.154 114.972 203.41 115.836 203.41 122.076C203.41 128.604 203.154 129.34 202.514 129.34Z" fill="#269DDF"/>
<path d="M218.982 133.82C222.822 133.596 224.998 133.436 224.998 133.436C223.046 128.06 222.054 124.924 221.798 124.092C223.462 122.908 224.486 121.052 224.486 118.268C224.486 112.988 221.798 110.204 215.91 110.204C214.406 110.204 212.71 110.396 210.79 110.748C210.822 124.22 210.662 132.7 210.662 132.7C214.086 132.636 216.582 132.668 216.582 132.668L216.454 125.788C216.678 125.788 216.902 125.756 216.902 125.756C218.246 130.684 218.982 133.82 218.982 133.82ZM216.454 121.916C216.454 121.916 216.39 118.492 216.358 115.132C217.798 115.004 218.438 116.444 218.438 118.684C218.438 120.956 217.702 121.884 216.454 121.916Z" fill="#269DDF"/>
<path d="M230.46 132.636C234.428 132.604 236.188 132.7 236.188 132.7L236.38 130.012C237.5 130.012 238.492 130.012 239.068 130.044C239.26 132.572 239.324 133.628 239.324 133.628C243.068 133.532 245.436 133.596 245.436 133.596C243.324 121.404 241.852 110.652 241.852 110.652C241.852 110.652 238.3 110.588 233.66 110.78C231.868 124.156 230.46 132.636 230.46 132.636ZM237.692 115.516C237.692 115.516 238.172 119.932 238.684 125.34C238.684 125.34 237.756 125.372 236.732 125.34C237.116 120.732 237.5 117.244 237.692 115.516Z" fill="#269DDF"/>
<path d="M62.1824 164.988C62.1824 164.988 69.8945 165.02 72.5185 165.116C72.5185 165.116 72.4865 163.004 72.5505 159.836C72.5505 159.836 70.4705 159.836 67.8785 159.74C67.6545 146.268 67.7505 143.068 67.7505 143.068C63.8785 143.132 61.9905 143.068 61.9905 143.068C62.1825 156.156 62.1824 164.988 62.1824 164.988Z" fill="#269DDF"/>
<path d="M73.4659 165.148C77.3699 165.116 79.29 165.148 79.29 165.148C79.194 153.596 79.1299 142.876 79.1299 142.876C75.3219 142.908 73.338 142.908 73.338 142.908C73.498 155.356 73.4659 165.148 73.4659 165.148Z" fill="#269DDF"/>
<path d="M80.4205 164.732C82.8525 164.764 86.5005 164.86 86.5005 164.86C86.3725 159.228 86.3724 153.948 86.3724 150.108C87.5244 157.564 87.9405 161.884 87.9405 161.884C90.6605 162.012 93.6365 162.044 93.6365 162.044C93.9885 157.628 94.6925 152.54 95.2685 148.924C95.6205 158.716 95.4604 165.756 95.4604 165.756C98.3405 165.66 101.412 165.5 101.412 165.5C100.516 151.548 100.484 142.62 100.484 142.62C96.4524 142.492 92.1324 142.332 92.1324 142.332C91.7484 146.78 91.2045 151.196 90.7245 154.556C89.8925 148.604 89.3165 143.356 89.3165 143.356C84.9325 143.516 81.2524 143.452 81.2524 143.452C80.9644 155.644 80.4205 164.732 80.4205 164.732Z" fill="#269DDF"/>
<path d="M102.653 164.636C106.557 164.604 108.477 164.636 108.477 164.636C108.381 153.084 108.317 143.708 108.317 143.708C104.509 143.74 102.525 143.74 102.525 143.74C102.685 156.188 102.653 164.636 102.653 164.636Z" fill="#269DDF"/>
<path d="M109.48 148.444L112.904 148.412C113 158.748 112.936 165.308 112.936 165.308C116.808 165.212 118.696 165.276 118.696 165.276C118.6 157.116 118.568 152.028 118.568 148.412C120.68 148.412 121.96 148.444 121.96 148.444C121.928 144.86 122.056 142.78 122.056 142.78C113.768 142.94 109.448 142.908 109.448 142.908C109.544 147.036 109.48 148.444 109.48 148.444Z" fill="#269DDF"/>
<path d="M123.121 164.7C128.529 164.764 133.073 164.828 133.073 164.828C133.073 161.276 133.137 159.484 133.137 159.484C130.481 159.548 128.817 159.548 128.817 159.548C128.721 158.14 128.721 157.084 128.721 157.084C130.865 157.052 132.433 157.116 132.433 157.116C132.369 153.98 132.401 151.868 132.401 151.868C129.873 151.932 128.817 151.9 128.593 151.9C128.561 150.012 128.593 148.86 128.593 148.86C130.641 148.732 133.201 148.668 133.201 148.668C133.105 145.34 133.137 143.004 133.137 143.004C125.553 143.196 122.865 143.196 122.865 143.196C123.057 156.092 123.121 164.7 123.121 164.7Z" fill="#269DDF"/>
<path d="M140.035 161.02C140.035 161.02 139.875 154.172 139.843 147.388C141.315 147.228 141.763 148.924 141.763 154.332C141.763 160.668 141.283 161.116 140.035 161.02ZM134.147 165.244C135.811 165.5 137.283 165.628 138.659 165.628C144.739 165.628 148.003 162.62 148.003 154.62C148.003 146.236 145.475 142.524 138.403 142.524C137.155 142.524 135.715 142.684 134.179 142.94C134.179 142.94 134.211 154.396 134.147 165.244Z" fill="#269DDF"/>
<path d="M161.517 165.532C165.613 165.532 168.397 163.676 168.397 159.1C168.397 155.548 167.277 153.788 162.925 151.836C161.325 151.132 160.717 150.012 160.717 148.796C160.717 147.612 160.973 146.94 161.549 146.94C162.157 146.94 162.637 147.836 162.285 150.556C165.133 150.62 168.077 150.876 168.077 150.876C168.621 145.372 166.573 142.396 161.645 142.396C157.645 142.396 154.669 144.06 154.669 148.54C154.669 151.996 155.821 154.108 159.597 155.996C161.805 157.116 162.349 157.98 162.349 159.164C162.349 160.54 162.093 160.956 161.485 160.956C160.653 160.956 160.365 159.772 160.557 157.212C156.973 157.212 154.605 157.148 154.605 157.148C154.253 162.46 156.013 165.532 161.517 165.532Z" fill="#269DDF"/>
<path d="M169.465 165.02C174.873 165.084 179.577 165.244 179.577 165.244C179.577 161.692 179.641 159.9 179.641 159.9C176.953 159.804 175.161 159.676 175.161 159.676C175.065 157.948 175.065 156.86 175.065 156.86C177.209 156.86 178.937 156.892 178.937 156.892C178.873 153.756 178.905 151.484 178.905 151.484C176.377 151.548 175.193 151.516 174.937 151.516C174.937 151.516 174.905 150.204 174.937 148.54C176.633 148.476 179.705 148.444 179.705 148.444C179.609 145.116 179.641 142.78 179.641 142.78C171.929 142.844 169.209 142.876 169.209 142.876C169.401 155.772 169.465 165.02 169.465 165.02Z" fill="#269DDF"/>
<path d="M180.038 164.636C184.006 164.604 185.766 164.7 185.766 164.7L185.958 162.012C187.078 162.012 188.07 162.012 188.646 162.044C188.838 164.572 188.902 165.628 188.902 165.628C192.646 165.532 195.014 165.596 195.014 165.596C192.902 153.404 191.43 142.652 191.43 142.652C191.43 142.652 187.878 142.588 183.238 142.78C181.446 156.156 180.038 164.636 180.038 164.636ZM187.27 147.516C187.27 147.516 187.75 151.932 188.262 157.34C188.262 157.34 187.334 157.372 186.31 157.34C186.694 152.732 187.078 149.244 187.27 147.516Z" fill="#269DDF"/>
<path d="M201.642 165.372C206.154 165.372 208.522 163.26 208.522 158.78C208.522 155.804 207.594 153.82 203.69 152.316C201.45 151.452 200.842 150.524 200.842 149.276C200.842 148.092 201.098 147.26 201.674 147.26C202.282 147.26 202.762 148.188 202.41 150.908C205.674 150.844 208.202 150.876 208.202 150.876C208.586 145.724 206.73 142.716 201.77 142.716C197.034 142.716 194.794 145.244 194.794 149.212C194.794 152.636 196.106 154.588 199.466 155.932C202.026 156.956 202.474 157.724 202.474 158.844C202.474 160.22 202.218 160.796 201.61 160.796C200.778 160.796 200.49 159.772 200.682 157.212C197.002 157.34 194.73 157.308 194.73 157.308C194.346 163.068 196.746 165.372 201.642 165.372Z" fill="#269DDF"/>
<path d="M216.278 165.724C221.206 165.724 223.478 162.716 223.542 154.332C223.542 146.844 222.166 142.396 216.246 142.396C210.486 142.396 209.014 147.292 209.014 154.364C209.046 161.756 210.966 165.724 216.278 165.724ZM216.342 161.34C215.606 161.34 215.318 160.54 215.318 154.3C215.318 148.124 215.414 146.972 216.278 146.972C216.982 146.972 217.238 147.836 217.238 154.076C217.238 160.604 216.982 161.34 216.342 161.34Z" fill="#269DDF"/>
<path d="M224.586 164.54C227.882 164.54 229.994 164.636 229.994 164.636C229.706 160.092 229.578 156.956 229.514 154.748C231.914 161.18 233.514 165.724 233.514 165.724C237.098 165.436 238.698 165.18 238.698 165.18C238.282 150.908 238.122 142.364 238.122 142.364C234.89 142.396 232.906 142.268 232.906 142.268C233.354 147.836 233.61 151.804 233.738 154.396C231.274 147.58 229.93 143.516 229.93 143.516C226.794 143.612 224.49 143.772 224.49 143.772C224.714 156.7 224.586 164.54 224.586 164.54Z" fill="#269DDF"/>
</svg>
