<svg width="385" height="72" viewBox="0 0 385 72" fill="none" xmlns="http://www.w3.org/2000/svg">
<path d="M19.3451 70.536C31.1531 70.536 38.2571 63.816 37.0091 34.44C28.7531 34.632 18.0011 34.536 18.0011 34.536C18.1931 41.256 18.0971 45.384 18.0971 45.384C18.0971 45.384 20.4971 45.192 23.8571 45.096C24.1451 56.232 22.9931 60.36 19.9211 60.36C16.2731 60.36 14.7371 55.368 14.6411 35.592C14.6411 18.792 15.7931 11.88 19.2491 11.88C22.1291 11.88 23.3771 16.488 23.1851 27.912C26.1611 28.008 36.3371 28.104 36.3371 28.104C37.1051 12.168 32.0171 1.03201 19.4411 1.03201C6.38514 1.03201 0.817139 12.552 0.817139 35.4C0.817139 62.568 7.63314 70.536 19.3451 70.536Z" fill="white"/>
<path d="M64.0961 70.824C72.6401 70.248 77.6321 69.768 77.6321 69.768C71.8721 52.968 68.7041 43.272 67.9361 40.68C73.0241 37.32 76.0961 31.848 76.0961 23.304C76.0961 9.00001 68.9921 0.936003 54.0161 0.936003C50.2721 0.936003 46.0481 1.416 41.2481 2.28C41.5361 42.792 41.1521 67.752 41.1521 67.752C48.8321 67.656 54.5921 67.656 54.5921 67.656C54.4001 56.904 54.2081 49.128 54.2081 45.096C55.0721 45 56.0321 44.904 56.8961 44.712C61.5041 60.936 64.0961 70.824 64.0961 70.824ZM54.2081 36.072C54.2081 36.072 54.0161 25.224 53.9201 12.264C53.9201 12.264 54.7841 12.168 55.1681 12.168C60.2561 12.168 62.4641 16.872 62.4641 24.264C62.4641 32.712 58.9121 35.784 54.2081 36.072Z" fill="white"/>
<path d="M97.0639 70.536C109.544 70.536 115.496 62.184 115.688 35.592C115.688 15.144 112.136 1.03201 97.0639 1.03201C82.1839 1.03201 78.5359 16.392 78.5359 35.688C78.6319 58.728 83.2399 70.536 97.0639 70.536ZM97.2559 60.36C93.8959 60.36 92.7439 55.368 92.7439 35.016C92.7439 17.736 93.7039 11.496 97.0639 11.496C100.136 11.496 101.48 16.776 101.48 35.112C101.48 56.04 100.136 60.36 97.2559 60.36Z" fill="white"/>
<path d="M136.611 70.344C149.571 70.344 154.563 59.784 154.563 34.728C154.563 23.976 153.315 11.688 151.587 0.552002C143.427 1.51201 138.435 1.60801 138.435 1.60801C139.971 13.032 140.931 25.032 140.931 35.304C140.931 54.6 139.299 57.576 136.515 57.576C133.731 57.576 131.427 51.528 131.427 30.504C131.427 23.4 132.003 15.72 133.155 4.968C124.323 3.912 120.579 3.24 120.579 3.24C119.235 12.744 118.563 23.016 118.563 33.48C118.563 58.248 123.171 70.344 136.611 70.344Z" fill="white"/>
<path d="M158.246 68.52C166.118 68.232 171.686 68.424 171.686 68.424L171.302 52.872C184.358 52.392 192.23 43.464 192.23 27.816C192.23 11.016 184.742 2.28 166.214 2.28C163.814 2.28 161.126 2.47201 158.342 2.76C158.63 43.272 158.246 68.52 158.246 68.52ZM171.014 13.896C176.294 13.608 178.886 18.6 178.886 28.2C178.886 38.76 175.91 41.928 171.11 42.408C170.918 28.104 171.014 22.632 171.014 13.896Z" fill="white"/>
<path d="M235.672 71.016C242.968 69.864 248.92 69.288 248.92 69.288L238.84 40.488C244.408 36.936 247.096 31.464 247.096 23.88C247.096 10.632 240.856 2.76 222.904 2.76C219.736 2.76 216.184 3.048 212.248 3.624C212.536 44.04 212.152 69.096 212.152 69.096C219.832 68.904 225.592 69 225.592 69C225.4 57.672 225.208 48.84 225.208 44.616C226.168 44.616 227.896 44.328 227.896 44.328C232.6 60.264 235.672 71.016 235.672 71.016ZM225.208 35.976C225.208 35.976 225.016 26.664 224.92 13.704C231.352 13.224 233.464 17.544 233.464 24.456C233.464 32.328 230.296 35.688 225.208 35.976Z" fill="white"/>
<path d="M248.473 67.56C257.401 67.56 261.433 67.752 261.433 67.752L262.297 57.384C266.521 57.384 269.689 57.48 271.897 57.48C272.761 66.312 273.145 70.536 273.145 70.536C281.497 70.248 286.873 70.44 286.873 70.44C281.017 35.112 276.409 1.60801 276.409 1.60801C276.409 1.60801 268.345 1.51201 257.881 1.99201C252.505 42.216 248.473 67.56 248.473 67.56ZM267.001 12.744C268.633 26.952 269.881 37.992 270.745 46.728C265.849 46.824 263.353 46.728 263.353 46.728C264.889 30.792 266.329 18.312 267.001 12.744Z" fill="white"/>
<path d="M284.763 14.76L294.651 14.664C294.939 47.976 294.843 69.48 294.843 69.48C303.483 69.288 307.899 69.384 307.899 69.384C307.515 40.392 307.515 24.168 307.515 14.664C313.371 14.664 317.307 14.76 317.307 14.76C317.211 6.696 317.499 1.99201 317.499 1.99201C294.747 2.37601 284.667 2.28 284.667 2.28C284.859 11.304 284.763 14.76 284.763 14.76Z" fill="white"/>
<path d="M321.105 67.848C335.505 68.04 347.505 68.232 347.505 68.232C347.505 60.264 347.697 56.136 347.697 56.136C339.345 56.232 333.969 56.136 333.969 56.136C333.777 51.624 333.681 47.4 333.585 43.56C340.401 43.464 345.489 43.56 345.489 43.56C345.393 36.456 345.489 31.656 345.489 31.656C338.673 31.848 333.393 31.848 333.393 31.848C333.297 21.768 333.297 16.008 333.297 16.008C340.497 15.624 347.409 15.528 347.409 15.528C347.121 8.04 347.217 2.76 347.217 2.76C328.113 3.33601 320.337 3.33601 320.337 3.33601C320.913 42.024 321.105 67.848 321.105 67.848Z" fill="white"/>
<path d="M367.405 70.44C377.677 70.44 384.877 65.64 384.877 52.296C384.877 43.176 381.805 37.896 372.973 31.944C365.677 27.048 363.565 23.784 363.565 19.08C363.565 14.28 364.717 11.4 367.309 11.4C370.189 11.4 371.917 15.144 370.765 25.032C377.389 25.224 383.821 25.8 383.821 25.8C385.549 9.57601 380.173 0.936003 367.501 0.936003C357.133 0.936003 349.933 6.02401 349.933 18.408C349.933 27.048 352.909 33.192 361.549 39.336C369.517 45 371.149 48.168 371.149 52.584C371.149 58.152 369.901 59.976 367.501 59.976C364.141 59.976 362.797 55.464 363.661 45.384C355.501 45.288 350.221 45.096 350.221 45.096C348.685 61.896 353.773 70.44 367.405 70.44Z" fill="white"/>
</svg>
