<svg width="193" height="39" viewBox="0 0 193 39" fill="none" xmlns="http://www.w3.org/2000/svg">
<path d="M10.1783 38.5244C16.665 38.5244 20.5676 34.8252 19.882 18.6545C15.3466 18.7602 9.43998 18.7073 9.43998 18.7073C9.54545 22.4065 9.49271 24.6789 9.49271 24.6789C9.49271 24.6789 10.8111 24.5732 12.657 24.5203C12.8152 30.6504 12.1823 32.9228 10.4947 32.9228C8.49071 32.9228 7.64691 30.1748 7.59417 19.2886C7.59417 10.0407 8.22702 6.23577 10.1256 6.23577C11.7077 6.23577 12.3933 8.77236 12.2878 15.061C13.9226 15.1138 19.5128 15.1667 19.5128 15.1667C19.9347 6.39431 17.1396 0.264231 10.231 0.264231C3.05876 0.264231 0 6.60569 0 19.1829C0 34.1382 3.74435 38.5244 10.1783 38.5244Z" fill="#4C378F"/>
<path d="M34.7621 38.6829C39.4557 38.3659 42.1981 38.1016 42.1981 38.1016C39.0338 28.8537 37.2935 23.5163 36.8716 22.0894C39.6667 20.2398 41.3543 17.2276 41.3543 12.5244C41.3543 4.65041 37.4517 0.211383 29.2247 0.211383C27.168 0.211383 24.8475 0.47561 22.2106 0.95122C22.3689 23.252 22.1579 36.9919 22.1579 36.9919C26.3769 36.939 29.5411 36.939 29.5411 36.939C29.4357 31.0203 29.3302 26.7398 29.3302 24.5203C29.8048 24.4675 30.3322 24.4146 30.8068 24.3089C33.3382 33.2398 34.7621 38.6829 34.7621 38.6829ZM29.3302 19.5528C29.3302 19.5528 29.2247 13.5813 29.172 6.44716C29.172 6.44716 29.6466 6.39431 29.8576 6.39431C32.6526 6.39431 33.8656 8.98374 33.8656 13.0528C33.8656 17.7033 31.9143 19.3943 29.3302 19.5528Z" fill="#4C378F"/>
<path d="M52.8729 38.5244C59.7287 38.5244 62.9984 33.9268 63.1039 19.2886C63.1039 8.03252 61.1526 0.264231 52.8729 0.264231C44.6986 0.264231 42.6946 8.71951 42.6946 19.3415C42.7473 32.0244 45.2787 38.5244 52.8729 38.5244ZM52.9783 32.9228C51.1325 32.9228 50.4997 30.1748 50.4997 18.9715C50.4997 9.45935 51.0271 6.02439 52.8729 6.02439C54.5605 6.02439 55.2988 8.93089 55.2988 19.0244C55.2988 30.5447 54.5605 32.9228 52.9783 32.9228Z" fill="#4C378F"/>
<path d="M74.5977 38.4187C81.7173 38.4187 84.4596 32.6057 84.4596 18.813C84.4596 12.8943 83.774 6.13008 82.8248 0C78.3421 0.528458 75.5998 0.581303 75.5998 0.581303C76.4436 6.86992 76.9709 13.4756 76.9709 19.1301C76.9709 29.752 76.0744 31.3902 74.545 31.3902C73.0156 31.3902 71.7499 28.061 71.7499 16.4878C71.7499 12.5772 72.0664 8.3496 72.6992 2.43089C67.8474 1.84959 65.7906 1.47967 65.7906 1.47967C65.0523 6.71138 64.6831 12.3659 64.6831 18.126C64.6831 31.7602 67.2145 38.4187 74.5977 38.4187Z" fill="#4C378F"/>
<path d="M86.483 37.4146C90.8075 37.2561 93.8662 37.3618 93.8662 37.3618L93.6553 28.8008C100.828 28.5366 105.152 23.622 105.152 15.0081C105.152 5.76016 101.038 0.95122 90.8602 0.95122C89.5418 0.95122 88.0651 1.05691 86.5357 1.21545C86.6939 23.5163 86.483 37.4146 86.483 37.4146ZM93.4971 7.34553C96.3976 7.18699 97.8215 9.93496 97.8215 15.2195C97.8215 21.0325 96.1867 22.7764 93.5498 23.0407C93.4443 15.1667 93.4971 12.1545 93.4971 7.34553Z" fill="#4C378F"/>
<path d="M115.737 38.4715C121.38 38.4715 125.336 35.8293 125.336 28.4837C125.336 23.4634 123.648 20.5569 118.796 17.2805C114.788 14.5854 113.628 12.7886 113.628 10.1992C113.628 7.55691 114.261 5.97155 115.685 5.97155C117.267 5.97155 118.216 8.03252 117.583 13.4756C121.222 13.5813 124.755 13.8984 124.755 13.8984C125.705 4.96748 122.751 0.211383 115.79 0.211383C110.094 0.211383 106.139 3.0122 106.139 9.82927C106.139 14.5854 107.774 17.9675 112.52 21.3496C116.898 24.4675 117.794 26.2114 117.794 28.6423C117.794 31.7073 117.109 32.7114 115.79 32.7114C113.944 32.7114 113.206 30.2276 113.681 24.6789C109.198 24.626 106.297 24.5203 106.297 24.5203C105.454 33.7683 108.249 38.4715 115.737 38.4715Z" fill="#4C378F"/>
<path d="M145.459 38.5772C151.893 38.5772 155.215 34.4553 155.215 24.9959C155.162 17.8089 153.738 12.4187 148.676 12.4187C145.986 12.4187 144.404 13.4228 143.191 15.3781C143.191 11.8902 143.296 9.35366 143.349 7.60976C150.205 7.45122 153.949 7.50407 153.949 7.50407C153.949 2.16667 154.055 0.792685 154.055 0.792685C143.56 1.1626 136.599 1.1626 136.599 1.1626C136.44 12.8415 136.124 22.4594 136.124 22.4594C139.868 22.8821 143.296 23.1463 143.296 23.1463C143.613 19.8699 144.246 17.9146 145.617 17.9146C147.041 17.9146 147.726 20.3984 147.726 25.4715C147.726 31.4431 146.83 33.0285 145.459 33.0285C143.718 33.0285 143.033 31.0732 143.191 25.2602C143.191 25.2602 139.974 25.2073 135.966 24.8902C135.228 33.4512 137.601 38.5772 145.459 38.5772Z" fill="#4C378F"/>
<path d="M166.948 39C174.331 39 177.074 32.2886 177.074 19.1829C177.074 6.65854 174.015 0.686992 166.895 0.686992C159.987 0.686992 156.77 6.65854 156.77 19.5C156.77 32.7642 160.04 39 166.948 39ZM166.895 33.2927C165.155 33.2927 164.364 29.9634 164.364 19.2886C164.364 9.30081 165.102 6.44716 166.843 6.44716C168.53 6.44716 169.269 10.0935 169.269 19.0772C169.269 30.9146 168.583 33.2927 166.895 33.2927Z" fill="#4C378F"/>
<path d="M182.874 30.3333C182.874 30.3333 184.246 30.2805 188.412 30.2805C188.412 30.2805 188.306 28.0081 188.306 23.3049C189.73 23.3049 191.365 23.3049 192.895 23.3577C192.895 23.3577 192.789 22.6179 193 17.9146C193 17.9146 191.26 17.9675 188.306 17.9675C188.306 15.8537 188.359 13.5285 188.412 10.7805C188.412 10.7805 187.832 10.8333 182.98 10.6748C182.98 10.6748 183.033 13.6341 183.033 17.9146C181.609 17.9146 180.079 17.8618 178.392 17.8089C178.392 17.8089 178.55 19.2358 178.445 23.3577C178.445 23.3577 179.974 23.3049 182.98 23.3049C182.98 25.4715 182.927 27.8496 182.874 30.3333Z" fill="#4C378F"/>
</svg>
