<svg width="187" height="38" viewBox="0 0 187 38" fill="none" xmlns="http://www.w3.org/2000/svg">
<path d="M10.0797 37.5366C16.5036 37.5366 20.3684 33.9323 19.6894 18.1762C15.198 18.2791 9.34857 18.2276 9.34857 18.2276C9.45303 21.832 9.4008 24.0461 9.4008 24.0461C9.4008 24.0461 10.7065 23.9431 12.5344 23.8916C12.6911 29.8645 12.0644 32.0786 10.3931 32.0786C8.40849 32.0786 7.57287 29.4011 7.52064 18.794C7.52064 9.7832 8.14736 6.07588 10.0275 6.07588C11.5943 6.07588 12.2733 8.54743 12.1688 14.6748C13.7878 14.7263 19.3239 14.7778 19.3239 14.7778C19.7417 6.23035 16.9737 0.257455 10.132 0.257455C3.02915 0.257455 0 6.43632 0 18.6911C0 33.2629 3.70809 37.5366 10.0797 37.5366Z" fill="#4C378F"/>
<path d="M34.4255 37.6911C39.0737 37.3821 41.7895 37.1247 41.7895 37.1247C38.6559 28.1138 36.9324 22.9133 36.5146 21.523C39.2826 19.7209 40.9539 16.7859 40.9539 12.2033C40.9539 4.53117 37.0891 0.205962 28.9417 0.205962C26.9049 0.205962 24.6069 0.463415 21.9956 0.92683C22.1523 22.6558 21.9434 36.0434 21.9434 36.0434C26.1215 35.9919 29.2551 35.9919 29.2551 35.9919C29.1506 30.2249 29.0462 26.0542 29.0462 23.8916C29.5162 23.8401 30.0385 23.7886 30.5085 23.6856C33.0154 32.3875 34.4255 37.6911 34.4255 37.6911ZM29.0462 19.0515C29.0462 19.0515 28.9417 13.2331 28.8895 6.28184C28.8895 6.28184 29.3595 6.23035 29.5684 6.23035C32.3365 6.23035 33.5377 8.75339 33.5377 12.7182C33.5377 17.2493 31.6053 18.897 29.0462 19.0515Z" fill="#4C378F"/>
<path d="M52.3609 37.5366C59.1504 37.5366 62.3884 33.0569 62.4929 18.794C62.4929 7.82656 60.5605 0.257455 52.3609 0.257455C44.2658 0.257455 42.2812 8.49594 42.2812 18.8455C42.3334 31.2033 44.8403 37.5366 52.3609 37.5366ZM52.4654 32.0786C50.6374 32.0786 50.0107 29.4011 50.0107 18.4851C50.0107 9.2168 50.533 5.86992 52.3609 5.86992C54.0322 5.86992 54.7633 8.7019 54.7633 18.5366C54.7633 29.7615 54.0322 32.0786 52.4654 32.0786Z" fill="#4C378F"/>
<path d="M73.8754 37.4336C80.926 37.4336 83.6418 31.7696 83.6418 18.3306C83.6418 12.5637 82.9629 5.9729 82.0228 0C77.5835 0.514908 74.8677 0.566398 74.8677 0.566398C75.7034 6.69377 76.2256 13.1301 76.2256 18.6396C76.2256 28.9892 75.3378 30.5854 73.8232 30.5854C72.3086 30.5854 71.0552 27.3415 71.0552 16.065C71.0552 12.2547 71.3685 8.1355 71.9953 2.36856C67.1904 1.80217 65.1536 1.44173 65.1536 1.44173C64.4224 6.5393 64.0568 12.0488 64.0568 17.6612C64.0568 30.9458 66.5637 37.4336 73.8754 37.4336Z" fill="#4C378F"/>
<path d="M85.6456 36.4553C89.9282 36.3008 92.9573 36.4038 92.9573 36.4038L92.7484 28.0623C99.8512 27.8049 104.134 23.0163 104.134 14.6233C104.134 5.61247 100.06 0.92683 89.9804 0.92683C88.6747 0.92683 87.2124 1.02981 85.6978 1.18428C85.8545 22.9133 85.6456 36.4553 85.6456 36.4553ZM92.5917 7.15718C95.4642 7.00271 96.8743 9.68022 96.8743 14.8293C96.8743 20.4932 95.2553 22.1924 92.644 22.4499C92.5395 14.7778 92.5917 11.8428 92.5917 7.15718Z" fill="#4C378F"/>
<path d="M114.617 37.4851C120.205 37.4851 124.122 34.9106 124.122 27.7534C124.122 22.8618 122.451 20.0298 117.646 16.8374C113.677 14.2114 112.528 12.4607 112.528 9.93767C112.528 7.36314 113.154 5.81843 114.564 5.81843C116.131 5.81843 117.071 7.82656 116.445 13.1301C120.048 13.2331 123.547 13.542 123.547 13.542C124.488 4.84011 121.563 0.205962 114.669 0.205962C109.028 0.205962 105.111 2.93496 105.111 9.57724C105.111 14.2114 106.73 17.5068 111.431 20.8022C115.766 23.8401 116.654 25.5393 116.654 27.9079C116.654 30.8943 115.975 31.8726 114.669 31.8726C112.841 31.8726 112.11 29.4526 112.58 24.0461C108.141 23.9946 105.268 23.8916 105.268 23.8916C104.433 32.9024 107.201 37.4851 114.617 37.4851Z" fill="#4C378F"/>
<path d="M139.976 36.8672C139.976 36.8672 142.744 36.9702 147.393 36.8157C147.393 36.8157 147.079 19.6179 147.079 1.49323C147.079 1.49323 145.878 1.23577 143.214 0.87534C143.214 0.87534 139.036 3.2439 133.709 6.07588C133.709 6.07588 134.597 8.54742 135.903 12.7182C135.903 12.7182 137.104 11.8943 139.976 10.3496C140.029 13.748 140.133 22.7073 139.976 36.8672Z" fill="#4C378F"/>
<path d="M161.2 38C168.512 38 171.228 31.4607 171.228 18.6911C171.228 6.48781 168.199 0.669377 161.148 0.669377C154.307 0.669377 151.121 6.48781 151.121 19C151.121 31.9241 154.359 38 161.2 38ZM161.148 32.439C159.425 32.439 158.641 29.1951 158.641 18.794C158.641 9.06233 159.373 6.28184 161.096 6.28184C162.767 6.28184 163.498 9.83469 163.498 18.5881C163.498 30.122 162.819 32.439 161.148 32.439Z" fill="#4C378F"/>
<path d="M176.972 29.5556C176.972 29.5556 178.33 29.5041 182.456 29.5041C182.456 29.5041 182.352 27.29 182.352 22.7073C183.762 22.7073 185.381 22.7073 186.896 22.7588C186.896 22.7588 186.791 22.0379 187 17.4553C187 17.4553 185.277 17.5068 182.352 17.5068C182.352 15.4472 182.404 13.1816 182.456 10.5041C182.456 10.5041 181.882 10.5556 177.077 10.4011C177.077 10.4011 177.129 13.2846 177.129 17.4553C175.719 17.4553 174.204 17.4038 172.533 17.3523C172.533 17.3523 172.69 18.7425 172.585 22.7588C172.585 22.7588 174.1 22.7073 177.077 22.7073C177.077 24.8184 177.025 27.1355 176.972 29.5556Z" fill="#4C378F"/>
</svg>
