<svg width="187" height="38" viewBox="0 0 187 38" fill="none" xmlns="http://www.w3.org/2000/svg">
<path d="M9.92278 37.5366C16.2466 37.5366 20.0512 33.9323 19.3828 18.1762C14.9613 18.2791 9.20299 18.2276 9.20299 18.2276C9.30582 21.832 9.2544 24.0461 9.2544 24.0461C9.2544 24.0461 10.5397 23.9431 12.3392 23.8916C12.4934 29.8645 11.8765 32.0786 10.2313 32.0786C8.27755 32.0786 7.45494 29.4011 7.40352 18.794C7.40352 9.7832 8.02048 6.07588 9.87136 6.07588C11.4138 6.07588 12.0821 8.54743 11.9793 14.6748C13.5731 14.7263 19.0229 14.7778 19.0229 14.7778C19.4342 6.23035 16.7093 0.257455 9.97419 0.257455C2.98197 0.257455 0 6.43632 0 18.6911C0 33.2629 3.65035 37.5366 9.92278 37.5366Z" fill="#4C378F"/>
<path d="M33.8894 37.6911C38.4652 37.3821 41.1387 37.1247 41.1387 37.1247C38.0539 28.1138 36.3573 22.9133 35.946 21.523C38.6709 19.7209 40.3161 16.7859 40.3161 12.2033C40.3161 4.53117 36.5115 0.205962 28.491 0.205962C26.4859 0.205962 24.2237 0.463415 21.6531 0.92683C21.8073 22.6558 21.6016 36.0434 21.6016 36.0434C25.7147 35.9919 28.7995 35.9919 28.7995 35.9919C28.6967 30.2249 28.5939 26.0542 28.5939 23.8916C29.0566 23.8401 29.5707 23.7886 30.0334 23.6856C32.5013 32.3875 33.8894 37.6911 33.8894 37.6911ZM28.5939 19.0515C28.5939 19.0515 28.491 13.2331 28.4396 6.28184C28.4396 6.28184 28.9023 6.23035 29.108 6.23035C31.8329 6.23035 33.0154 8.75339 33.0154 12.7182C33.0154 17.2493 31.1131 18.897 28.5939 19.0515Z" fill="#4C378F"/>
<path d="M51.5455 37.5366C58.2292 37.5366 61.4169 33.0569 61.5197 18.794C61.5197 7.82656 59.6174 0.257455 51.5455 0.257455C43.5764 0.257455 41.6227 8.49594 41.6227 18.8455C41.6741 31.2033 44.142 37.5366 51.5455 37.5366ZM51.6483 32.0786C49.8489 32.0786 49.2319 29.4011 49.2319 18.4851C49.2319 9.2168 49.746 5.86992 51.5455 5.86992C53.1907 5.86992 53.9105 8.7019 53.9105 18.5366C53.9105 29.7615 53.1907 32.0786 51.6483 32.0786Z" fill="#4C378F"/>
<path d="M72.725 37.4336C79.6658 37.4336 82.3393 31.7696 82.3393 18.3306C82.3393 12.5637 81.6709 5.9729 80.7455 0C76.3753 0.514908 73.7018 0.566398 73.7018 0.566398C74.5245 6.69377 75.0386 13.1301 75.0386 18.6396C75.0386 28.9892 74.1646 30.5854 72.6736 30.5854C71.1826 30.5854 69.9487 27.3415 69.9487 16.065C69.9487 12.2547 70.2571 8.1355 70.8741 2.36856C66.1441 1.80217 64.139 1.44173 64.139 1.44173C63.4192 6.5393 63.0593 12.0488 63.0593 17.6612C63.0593 30.9458 65.5271 37.4336 72.725 37.4336Z" fill="#4C378F"/>
<path d="M84.3119 36.4553C88.5278 36.3008 91.5097 36.4038 91.5097 36.4038L91.3041 28.0623C98.2963 27.8049 102.512 23.0163 102.512 14.6233C102.512 5.61247 98.502 0.92683 88.5792 0.92683C87.2938 0.92683 85.8543 1.02981 84.3633 1.18428C84.5175 22.9133 84.3119 36.4553 84.3119 36.4553ZM91.1498 7.15718C93.9776 7.00271 95.3657 9.68022 95.3657 14.8293C95.3657 20.4932 93.7719 22.1924 91.2013 22.4499C91.0984 14.7778 91.1498 11.8428 91.1498 7.15718Z" fill="#4C378F"/>
<path d="M112.832 37.4851C118.333 37.4851 122.189 34.9106 122.189 27.7534C122.189 22.8618 120.544 20.0298 115.814 16.8374C111.906 14.2114 110.775 12.4607 110.775 9.93767C110.775 7.36314 111.392 5.81843 112.78 5.81843C114.323 5.81843 115.248 7.82656 114.631 13.1301C118.179 13.2331 121.624 13.542 121.624 13.542C122.549 4.84011 119.67 0.205962 112.883 0.205962C107.331 0.205962 103.475 2.93496 103.475 9.57724C103.475 14.2114 105.068 17.5068 109.696 20.8022C113.963 23.8401 114.837 25.5393 114.837 27.9079C114.837 30.8943 114.169 31.8726 112.883 31.8726C111.084 31.8726 110.364 29.4526 110.827 24.0461C106.457 23.9946 103.629 23.8916 103.629 23.8916C102.806 32.9024 105.531 37.4851 112.832 37.4851Z" fill="#4C378F"/>
<path d="M149.622 36.7642C149.622 36.7642 149.57 35.168 149.57 29.8645C149.57 29.8645 146.845 29.9675 140.367 29.916C146.434 25.1274 150.29 18.1247 150.29 10.7615C150.29 4.27371 147.565 0.308945 141.55 0.308945C134.301 0.308945 131.473 5.66396 132.552 16.1165C137.231 15.9106 139.288 15.9106 139.288 15.9106C138.722 8.75339 139.442 6.23035 141.344 6.23035C142.527 6.23035 143.246 7.72358 143.246 10.5556C143.246 17.8157 138.414 23.5827 132.398 28.6287C132.398 28.6287 132.45 31.9756 132.655 36.5068C132.655 36.5068 139.802 36.5068 149.622 36.7642Z" fill="#4C378F"/>
<path d="M161.602 38C168.8 38 171.474 31.4607 171.474 18.6911C171.474 6.48781 168.492 0.669377 161.551 0.669377C154.816 0.669377 151.679 6.48781 151.679 19C151.679 31.9241 154.867 38 161.602 38ZM161.551 32.439C159.854 32.439 159.083 29.1951 159.083 18.794C159.083 9.06233 159.803 6.28184 161.499 6.28184C163.145 6.28184 163.864 9.83469 163.864 18.5881C163.864 30.122 163.196 32.439 161.551 32.439Z" fill="#4C378F"/>
<path d="M177.129 29.5556C177.129 29.5556 178.465 29.5041 182.527 29.5041C182.527 29.5041 182.424 27.29 182.424 22.7073C183.812 22.7073 185.406 22.7073 186.897 22.7588C186.897 22.7588 186.794 22.0379 187 17.4553C187 17.4553 185.303 17.5068 182.424 17.5068C182.424 15.4472 182.476 13.1816 182.527 10.5041C182.527 10.5041 181.962 10.5556 177.231 10.4011C177.231 10.4011 177.283 13.2846 177.283 17.4553C175.895 17.4553 174.404 17.4038 172.758 17.3523C172.758 17.3523 172.913 18.7425 172.81 22.7588C172.81 22.7588 174.301 22.7073 177.231 22.7073C177.231 24.8184 177.18 27.1355 177.129 29.5556Z" fill="#4C378F"/>
</svg>
