<svg width="364" height="147" viewBox="0 0 364 147" fill="none" xmlns="http://www.w3.org/2000/svg">
<path d="M45.8998 39.9869C45.8998 39.9869 56.1208 40.0999 61.7114 40.2129C61.7114 40.2129 61.7114 37.5019 61.7678 33.2095C61.7678 33.2095 58.8314 33.2095 53.4668 33.0401C53.1279 9.20603 53.2409 1.29902 53.2409 1.29902C48.0456 1.41197 45.561 1.29902 45.561 1.29902C45.8433 24.3988 45.8998 39.9869 45.8998 39.9869Z" fill="#D70F82"/>
<path d="M63.8303 40.2693C68.8561 40.2128 71.5667 40.2693 71.5667 40.2693C71.3973 19.8805 71.2843 0.96014 71.2843 0.96014C66.2585 1.01662 63.6044 1.01662 63.6044 1.01662C63.8868 22.9868 63.8303 40.2693 63.8303 40.2693Z" fill="#D70F82"/>
<path d="M74.3355 39.4786C77.6672 39.5351 82.4107 39.6481 82.4107 39.6481C82.2978 28.7477 82.3542 16.8307 82.4107 10.0532C84.6695 24.3988 85.7424 32.9271 85.7424 32.9271C89.413 33.0965 93.5353 33.153 93.5353 33.153C94.6082 24.1729 96.0764 14.628 97.0364 8.58477C97.6576 27.6181 97.4317 41.2295 97.4317 41.2295C101.328 41.1165 105.394 40.8906 105.394 40.8906C104.152 16.2094 104.039 0.395349 104.039 0.395349C98.674 0.225915 92.7447 0.0564836 92.7447 0.0564836C91.7847 8.98012 90.4859 17.9038 89.5259 23.8905C87.7753 12.3688 86.533 1.69436 86.533 1.69436C80.5472 1.97676 75.5778 1.92028 75.5778 1.92028C75.1261 23.3257 74.3355 39.4786 74.3355 39.4786Z" fill="#D70F82"/>
<path d="M108.389 39.3657C113.414 39.3092 116.125 39.3657 116.125 39.3657C115.956 18.9768 115.843 2.14619 115.843 2.14619C110.817 2.20267 108.163 2.20267 108.163 2.20267C108.445 24.1729 108.389 39.3657 108.389 39.3657Z" fill="#D70F82"/>
<path d="M118.329 8.30237L124.145 8.2459C124.315 27.844 124.258 40.4952 124.258 40.4952C129.341 40.3823 131.938 40.4388 131.938 40.4388C131.712 23.3822 131.712 13.8373 131.712 8.2459C135.157 8.2459 137.472 8.30237 137.472 8.30237C137.416 3.55816 137.585 0.790708 137.585 0.790708C124.202 1.01662 118.273 0.96014 118.273 0.96014C118.386 6.26914 118.329 8.30237 118.329 8.30237Z" fill="#D70F82"/>
<path d="M139.706 39.5351C148.177 39.6481 155.236 39.761 155.236 39.761C155.236 35.0733 155.349 32.6447 155.349 32.6447C150.436 32.7012 147.273 32.6447 147.273 32.6447C147.161 29.9902 147.104 27.5051 147.048 25.246C151.057 25.1895 154.05 25.246 154.05 25.246C153.993 21.0666 154.05 18.2426 154.05 18.2426C150.04 18.3556 146.935 18.3556 146.935 18.3556C146.878 12.4253 146.878 9.0366 146.878 9.0366C151.113 8.81068 155.179 8.7542 155.179 8.7542C155.01 4.34886 155.066 1.24253 155.066 1.24253C143.829 1.58141 139.255 1.58141 139.255 1.58141C139.594 24.3423 139.706 39.5351 139.706 39.5351Z" fill="#D70F82"/>
<path d="M165.304 34.6779C165.304 34.6779 165.021 20.7277 164.965 7.11632C168.41 6.60802 169.878 10.3921 169.878 20.9536C169.878 33.5484 168.184 34.9039 165.304 34.6779ZM157.398 40.4388C159.544 40.7776 161.577 40.9471 163.384 40.9471C173.153 40.9471 178.122 35.864 178.122 21.4619C178.122 7.11632 174.113 0.508308 163.214 0.508308C161.464 0.508308 159.544 0.677746 157.398 1.0731C157.398 1.0731 157.511 20.3323 157.398 40.4388Z" fill="#D70F82"/>
<path d="M199.864 41.06C205.906 41.06 210.141 38.2361 210.141 30.3856C210.141 25.0201 208.334 21.9137 203.139 18.4121C198.847 15.5317 197.605 13.6114 197.605 10.8439C197.605 8.01998 198.283 6.32562 199.807 6.32562C201.501 6.32562 202.518 8.52829 201.84 14.3456C205.737 14.4586 209.52 14.7974 209.52 14.7974C210.537 5.25253 207.374 0.169433 199.92 0.169433C193.821 0.169433 189.586 3.16281 189.586 10.4486C189.586 15.5317 191.337 19.1463 196.419 22.7609C201.106 26.0932 202.066 27.957 202.066 30.555C202.066 33.8308 201.332 34.9039 199.92 34.9039C197.944 34.9039 197.153 32.2494 197.661 26.3191C192.861 26.2626 189.756 26.1496 189.756 26.1496C188.852 36.0334 191.845 41.06 199.864 41.06Z" fill="#D70F82"/>
<path d="M212.5 40.0434C220.97 40.1564 228.142 40.3823 228.142 40.3823C228.142 35.6946 228.255 33.266 228.255 33.266C223.342 33.153 220.067 32.9271 220.067 32.9271C219.954 29.9902 219.897 27.2227 219.841 24.6812C223.907 24.6812 227.013 24.7377 227.013 24.7377C226.956 20.5583 226.956 17.5649 226.956 17.5649C222.664 17.6778 220.18 17.6214 219.728 17.6214C219.615 11.917 219.671 8.47181 219.671 8.47181C223.455 8.35886 228.085 8.30237 228.085 8.30237C227.972 3.89703 228.029 0.790708 228.029 0.790708C216.622 0.960142 212.048 1.01662 212.048 1.01662C212.387 23.7775 212.5 40.0434 212.5 40.0434Z" fill="#D70F82"/>
<path d="M229.058 39.3657C234.309 39.3657 236.681 39.4786 236.681 39.4786L237.189 33.3789C239.674 33.3789 241.538 33.4354 242.836 33.4354C243.345 38.6314 243.571 41.1165 243.571 41.1165C248.483 40.9471 251.646 41.06 251.646 41.06C248.201 20.2759 245.491 0.564791 245.491 0.564791C245.491 0.564791 240.747 0.508314 234.592 0.790708C231.429 24.4553 229.058 39.3657 229.058 39.3657ZM239.956 7.11632C240.916 15.4752 241.651 21.9702 242.159 27.1098C239.279 27.1663 237.811 27.1098 237.811 27.1098C238.714 17.7343 239.561 10.3921 239.956 7.11632Z" fill="#D70F82"/>
<path d="M261.96 41.0036C268.68 41.0036 272.237 36.8806 272.237 30.442C272.237 26.0367 270.995 22.4221 264.614 18.5815C260.661 16.2094 259.701 14.1197 259.701 11.917C259.701 9.09307 260.379 7.62463 261.903 7.62463C263.598 7.62463 264.614 9.31899 263.936 14.9669C268.002 14.7974 271.673 14.9669 271.673 14.9669C272.633 6.0997 269.753 1.46845 262.016 1.46845C256.087 1.46845 251.682 4.34886 251.682 11.5217C251.682 17.226 254.054 20.3888 258.798 23.4952C263.089 26.3191 264.162 28.0699 264.162 30.6115C264.162 33.3789 263.428 34.8474 262.016 34.8474C260.322 34.8474 259.193 33.0965 259.701 27.3357C254.788 27.5051 251.795 27.4487 251.795 27.4487C250.948 36.5982 254.336 41.0036 261.96 41.0036Z" fill="#D70F82"/>
<path d="M284.533 41.1165C291.874 41.1165 295.376 36.2029 295.488 20.5583C295.488 8.52829 293.399 0.225916 284.533 0.225916C275.78 0.225916 273.635 9.26251 273.635 20.6147C273.691 34.1696 276.402 41.1165 284.533 41.1165ZM284.646 35.1298C282.67 35.1298 281.992 32.1929 281.992 20.2194C281.992 10.0532 282.557 6.3821 284.533 6.3821C286.34 6.3821 287.131 9.48843 287.131 20.2759C287.131 32.5882 286.34 35.1298 284.646 35.1298Z" fill="#D70F82"/>
<path d="M297.97 39.3092C302.205 39.3092 305.255 39.4222 305.255 39.4222C304.746 30.3291 304.521 22.2526 304.464 17.1695C309.038 31.967 311.862 41.173 311.862 41.173C316.718 40.8341 319.033 40.4952 319.033 40.4952C318.469 15.3057 318.243 0.112958 318.243 0.112958C313.895 0.169436 311.24 0 311.24 0C311.975 11.1828 312.313 20.4453 312.483 26.0367C308.248 12.5948 305.311 1.92028 305.311 1.92028C300.794 2.03324 297.801 2.25915 297.801 2.25915C298.139 25.1895 297.97 39.3092 297.97 39.3092Z" fill="#D70F82"/>
<path d="M21.6656 96.5221C23.8114 96.8045 25.7879 96.974 27.5949 96.974C36.5737 96.974 41.8818 93.8676 41.8818 85.7912C41.8818 80.821 39.623 77.4888 35.8395 76.0768C39.0019 74.8343 41.1477 71.8409 41.1477 67.605C41.1477 60.4322 37.5336 56.7046 29.0632 56.7046C26.8044 56.7046 24.1503 56.987 21.2138 57.5518C21.6091 78.223 21.6656 96.5221 21.6656 96.5221ZM29.1761 91.1567L29.0067 79.5785C32.5643 79.5785 34.2584 81.6682 34.2584 85.6217C34.2584 90.0271 32.3384 91.3261 29.1761 91.1567ZM28.9502 62.7479C32.5078 62.4655 33.976 64.4422 33.976 68.3392C33.976 72.1233 32.3384 73.9871 28.9502 73.8742V62.7479Z" fill="#D70F82"/>
<path d="M44.055 96.5221C52.5255 96.6351 59.6972 96.861 59.6972 96.861C59.6972 92.1733 59.8101 89.7447 59.8101 89.7447C54.8973 89.6317 51.622 89.4058 51.622 89.4058C51.5091 86.4689 51.4526 83.7015 51.3961 81.1599C55.462 81.1599 58.5678 81.2164 58.5678 81.2164C58.5113 77.037 58.5113 74.0436 58.5113 74.0436C54.2196 74.1566 51.7349 74.1001 51.2832 74.1001C51.1702 68.3957 51.2267 64.9505 51.2267 64.9505C55.0102 64.8376 59.6407 64.7811 59.6407 64.7811C59.5278 60.3758 59.5843 57.2694 59.5843 57.2694C48.1773 57.4389 43.6033 57.4953 43.6033 57.4953C43.9421 80.2563 44.055 96.5221 44.055 96.5221Z" fill="#D70F82"/>
<path d="M72.0266 97.5952C78.9724 97.5952 83.1512 93.6417 82.4171 76.3592C77.5607 76.4722 71.236 76.4157 71.236 76.4157C71.349 80.3692 71.2925 82.7978 71.2925 82.7978C71.2925 82.7978 72.7042 82.6849 74.6807 82.6284C74.8501 89.1799 74.1725 91.6085 72.3654 91.6085C70.2196 91.6085 69.3161 88.6716 69.2596 77.037C69.2596 67.1532 69.9372 63.0867 71.9701 63.0867C73.6642 63.0867 74.3983 65.7977 74.2854 72.5187C76.036 72.5752 82.0218 72.6316 82.0218 72.6316C82.4735 63.2562 79.4806 56.7046 72.0831 56.7046C64.4032 56.7046 61.1279 63.4821 61.1279 76.924C61.1279 92.9075 65.1373 97.5952 72.0266 97.5952Z" fill="#D70F82"/>
<path d="M85.4753 96.7481C90.5011 96.6916 93.2117 96.7481 93.2117 96.7481C93.0423 76.3592 92.9293 57.4389 92.9293 57.4389C87.9035 57.4953 85.2494 57.4953 85.2494 57.4953C85.5317 79.4656 85.4753 96.7481 85.4753 96.7481Z" fill="#D70F82"/>
<path d="M96.6581 95.7879C100.893 95.7879 103.943 95.9009 103.943 95.9009C103.434 86.8078 103.209 78.7313 103.152 73.6483C107.726 88.4457 110.55 97.6517 110.55 97.6517C115.406 97.3128 117.721 96.974 117.721 96.974C117.157 71.7845 116.931 56.5917 116.931 56.5917C112.583 56.6482 109.929 56.4787 109.929 56.4787C110.663 67.6615 111.001 76.924 111.171 82.5154C106.936 69.0735 103.999 58.399 103.999 58.399C99.4816 58.512 96.4887 58.7379 96.4887 58.7379C96.8275 81.6682 96.6581 95.7879 96.6581 95.7879Z" fill="#D70F82"/>
<path d="M130.076 97.5388C136.118 97.5388 140.353 94.7148 140.353 86.8643C140.353 81.4988 138.546 78.3925 133.351 74.8908C129.059 72.0104 127.817 70.0901 127.817 67.3226C127.817 64.4987 128.495 62.8043 130.019 62.8043C131.714 62.8043 132.73 65.007 132.052 70.8243C135.949 70.9373 139.732 71.2761 139.732 71.2761C140.749 61.7312 137.586 56.6482 130.132 56.6482C124.034 56.6482 119.798 59.6415 119.798 66.9273C119.798 72.0104 121.549 75.625 126.631 79.2396C131.318 82.5719 132.278 84.4357 132.278 87.0337C132.278 90.3095 131.544 91.3826 130.132 91.3826C128.156 91.3826 127.365 88.7281 127.874 82.7978C123.074 82.7413 119.968 82.6284 119.968 82.6284C119.064 92.5122 122.057 97.5388 130.076 97.5388Z" fill="#D70F82"/>
<path d="M150.281 95.8444C155.533 95.8444 157.905 95.9574 157.905 95.9574L158.413 89.8577C160.897 89.8577 162.761 89.9141 164.06 89.9141C164.568 95.1102 164.794 97.5952 164.794 97.5952C169.707 97.4258 172.869 97.5388 172.869 97.5388C169.424 76.7546 166.714 57.0435 166.714 57.0435C166.714 57.0435 161.97 56.987 155.815 57.2694C152.653 80.934 150.281 95.8444 150.281 95.8444ZM161.18 63.595C162.14 71.9539 162.874 78.4489 163.382 83.5885C160.502 83.645 159.034 83.5885 159.034 83.5885C159.937 74.213 160.785 66.8708 161.18 63.595Z" fill="#D70F82"/>
<path d="M174.467 96.4092C179.098 96.2397 182.373 96.3527 182.373 96.3527L182.147 87.2032C189.827 86.9208 194.457 81.6682 194.457 72.4622C194.457 62.5784 190.053 57.4389 179.154 57.4389C177.742 57.4389 176.161 57.5518 174.523 57.7213C174.693 81.5553 174.467 96.4092 174.467 96.4092ZM181.978 64.2728C185.083 64.1034 186.608 67.0403 186.608 72.6881C186.608 78.9008 184.857 80.7646 182.034 81.047C181.921 72.6316 181.978 69.4124 181.978 64.2728Z" fill="#D70F82"/>
<path d="M209.801 97.7647C214.827 97.4258 217.764 97.1434 217.764 97.1434C214.375 87.2596 212.512 81.5553 212.06 80.0303C215.053 78.0536 216.86 74.8343 216.86 69.8077C216.86 61.3924 212.681 56.6482 203.872 56.6482C201.67 56.6482 199.185 56.9306 196.361 57.4389C196.531 81.2729 196.305 95.9574 196.305 95.9574C200.823 95.9009 204.211 95.9009 204.211 95.9009C204.098 89.5753 203.985 85.0005 203.985 82.6284C204.493 82.5719 205.058 82.5154 205.566 82.4025C208.277 91.9474 209.801 97.7647 209.801 97.7647ZM203.985 77.3194C203.985 77.3194 203.872 70.9373 203.815 63.3127C203.815 63.3127 204.324 63.2562 204.55 63.2562C207.543 63.2562 208.841 66.0236 208.841 70.3725C208.841 75.3426 206.752 77.1499 203.985 77.3194Z" fill="#D70F82"/>
<path d="M219.481 96.7481C224.507 96.6916 227.217 96.7481 227.217 96.7481C227.048 76.3592 226.935 57.4389 226.935 57.4389C221.909 57.4953 219.255 57.4953 219.255 57.4953C219.538 79.4656 219.481 96.7481 219.481 96.7481Z" fill="#D70F82"/>
<path d="M230.833 96.4657C230.833 96.4657 241.054 96.5786 246.645 96.6916C246.645 96.6916 246.645 93.9806 246.701 89.6882C246.701 89.6882 243.765 89.6882 238.4 89.5188C238.061 65.6848 238.174 57.7777 238.174 57.7777C232.979 57.8907 230.494 57.7777 230.494 57.7777C230.777 80.8775 230.833 96.4657 230.833 96.4657Z" fill="#D70F82"/>
<path d="M275.207 96.7481C275.207 96.7481 275.151 94.9972 275.151 89.1799C275.151 89.1799 272.158 89.2929 265.043 89.2364C271.706 83.9839 275.941 76.3027 275.941 68.2263C275.941 61.11 272.948 56.7611 266.341 56.7611C258.379 56.7611 255.273 62.6349 256.459 74.1001C261.598 73.8742 263.857 73.8742 263.857 73.8742C263.236 66.0236 264.026 63.2562 266.115 63.2562C267.414 63.2562 268.205 64.8941 268.205 68.0004C268.205 75.9639 262.897 82.2895 256.29 87.8244C256.29 87.8244 256.346 91.4955 256.572 96.4657C256.572 96.4657 264.421 96.4657 275.207 96.7481Z" fill="#D70F82"/>
<path d="M288.366 98.1035C296.272 98.1035 299.208 90.9307 299.208 76.924C299.208 63.5386 295.933 57.1565 288.31 57.1565C280.912 57.1565 277.467 63.5386 277.467 77.2629C277.467 91.4391 280.968 98.1035 288.366 98.1035ZM288.31 92.0038C286.446 92.0038 285.599 88.4457 285.599 77.037C285.599 66.3625 286.39 63.3127 288.253 63.3127C290.06 63.3127 290.851 67.2097 290.851 76.8111C290.851 89.4623 290.117 92.0038 288.31 92.0038Z" fill="#D70F82"/>
<path d="M319.876 96.5221C319.876 96.5221 319.819 94.7713 319.819 88.954C319.819 88.954 316.826 89.0669 309.768 89.0105C316.6 83.645 320.61 76.5851 320.61 68.9605C320.61 62.1831 317.617 57.4953 311.01 57.4953C303.104 57.4953 299.942 63.4821 301.128 74.8343C306.267 74.6649 308.525 74.6649 308.525 74.6649C307.904 66.8143 308.695 64.0469 310.784 64.0469C312.083 64.0469 312.873 65.6283 312.873 68.7911C312.873 76.3027 307.735 81.8941 300.958 87.5985C300.958 87.5985 301.015 91.2696 301.241 96.2397C301.241 96.2397 309.09 96.2397 319.876 96.5221Z" fill="#D70F82"/>
<path d="M332.978 57.7777C324.846 57.7777 322.136 65.12 322.136 78.3925C322.136 92.2298 325.637 97.5952 333.035 97.5952C339.642 97.5952 343.877 93.0769 343.877 78.0536C343.877 64.6117 340.602 57.7777 332.978 57.7777ZM333.035 63.7645C335.011 63.7645 335.689 67.3226 335.689 78.223C335.689 89.4623 334.616 91.3261 333.091 91.3261C331.51 91.3261 330.493 88.954 330.493 78.3925C330.493 66.3625 331.228 63.7645 333.035 63.7645Z" fill="#D70F82"/>
<path d="M6.32463 146.605C8.79519 146.605 11.1175 145.666 12.1057 143.046C12.0563 145.122 11.9081 146.753 11.9081 146.753C15.4163 146.703 16.8986 146.654 16.8986 146.654C16.8986 146.654 17.0469 139.044 16.8492 130.099C16.701 124.564 14.3787 121.154 8.99284 121.154C3.11291 121.154 0.543529 125.058 0.790584 130.346C4.49642 130.395 6.96698 130.296 6.96698 130.296C6.91757 127.43 7.41168 125.898 8.74578 125.898C9.88223 125.898 10.2775 126.887 10.3763 129.802C10.3763 130.494 10.4258 131.384 10.4258 131.384C3.75525 131.878 0 134.892 0 140.279C0 144.282 2.6682 146.605 6.32463 146.605ZM10.7222 136.671C10.7222 140.773 9.63518 141.91 8.35049 141.91C6.96698 141.91 6.42345 140.823 6.42345 139.34C6.42345 137.264 7.5105 135.238 10.6728 134.744C10.7222 135.337 10.7222 136.029 10.7222 136.671Z" fill="#D70F82"/>
<path d="M18.2374 127.776C18.2374 127.776 19.522 127.727 20.5597 127.776C20.5103 131.137 20.5597 134.892 20.6091 138.945C20.6585 144.084 23.1785 146.11 27.329 146.11C28.5643 146.11 29.9478 145.913 31.4796 145.517L31.0843 139.439C30.4913 139.587 29.9478 139.637 29.5031 139.637C27.8725 139.637 27.082 138.796 27.0325 137.017C26.9337 133.904 26.9337 130.741 26.9337 127.776C28.2184 127.776 29.5525 127.776 30.9854 127.825C30.9854 127.825 30.936 126.738 31.0349 122.093C31.0349 122.093 29.4043 122.142 26.9337 122.093C26.9831 118.337 27.082 115.718 27.082 115.718C27.082 115.718 25.2537 115.767 20.7079 115.668C20.7079 115.668 20.6585 118.139 20.6091 121.994C19.8185 121.994 19.0279 121.994 18.1879 121.945C18.1879 121.945 18.2868 123.378 18.2374 127.776Z" fill="#D70F82"/>
<path d="M40.9163 128.369H43.2386C43.1892 131.68 43.2386 135.485 43.2881 139.538C43.3375 144.677 45.9563 146.555 50.008 146.555C51.2433 146.555 52.6762 146.407 54.1585 146.11L53.7632 140.032C53.2197 140.131 52.7256 140.18 52.2809 140.18C50.6009 140.18 49.7609 139.439 49.7115 137.61C49.6127 134.497 49.6127 131.334 49.6127 128.369L53.6644 128.419C53.6644 128.419 53.615 127.331 53.7138 122.686H49.6127C49.6621 119.177 49.7609 116.756 49.7609 116.756C49.7609 116.756 47.9327 116.805 43.3869 116.706C43.3869 116.706 43.3375 118.979 43.2881 122.587C42.4975 122.587 41.7069 122.587 40.8669 122.538C40.8669 122.538 40.9657 123.971 40.9163 128.369Z" fill="#D70F82"/>
<path d="M55.9462 145.32C60.3932 145.221 62.5179 145.27 62.5179 145.27C62.5179 145.27 62.5179 137.808 62.5673 130.692C62.5673 128.32 63.4073 127.035 64.5437 127.035C65.5814 127.035 65.9273 127.677 65.9767 129.506C66.0755 137.363 65.9767 146.852 65.9767 146.852C70.2754 146.852 72.5483 146.901 72.5483 146.901C72.5483 146.901 72.6966 136.029 72.4495 128.073C72.3013 123.773 70.819 121.055 67.5578 121.055C65.0379 121.006 63.3085 122.488 62.172 124.712C62.1226 117.744 62.3202 112.604 62.3202 112.604C58.0215 112.703 55.9462 112.654 55.9462 112.654C56.1438 130.791 55.9462 145.32 55.9462 145.32Z" fill="#D70F82"/>
<path d="M83.3613 146.654C88.3024 146.654 91.5141 143.294 92.0577 137.61C88.7471 137.512 85.3872 137.462 85.3872 137.462C85.2883 140.477 84.646 141.91 83.4107 141.91C81.9284 141.91 81.2366 140.081 81.0884 135.683C87.6107 135.584 91.86 135.535 91.86 135.535C92.3541 127.282 90.4765 121.006 83.2625 121.006C76.7896 121.006 74.319 126.491 74.319 133.558C74.319 141.07 76.2461 146.654 83.3613 146.654ZM83.2131 125.404C84.5966 125.404 85.1401 127.727 85.0907 131.73C83.7072 131.779 82.4225 131.828 81.0884 131.828C81.2366 127.578 81.8295 125.404 83.2131 125.404Z" fill="#D70F82"/>
<path d="M102.951 145.913C102.951 145.913 111.894 146.012 116.786 146.11C116.786 146.11 116.786 143.738 116.835 139.982C116.835 139.982 114.266 139.983 109.572 139.834C109.275 118.98 109.374 112.061 109.374 112.061C104.828 112.16 102.654 112.061 102.654 112.061C102.901 132.273 102.951 145.913 102.951 145.913Z" fill="#D70F82"/>
<path d="M126.304 146.605C132.184 146.605 135.396 142.75 135.396 133.657C135.396 126.244 132.827 120.956 126.403 120.956C120.227 120.956 117.361 126.096 117.361 133.459C117.361 141.366 119.535 146.605 126.304 146.605ZM126.403 142.206C124.822 142.206 124.278 140.23 124.278 133.459C124.278 128.023 124.822 125.503 126.403 125.503C127.885 125.503 128.478 127.974 128.478 133.706C128.478 139.933 127.885 142.206 126.403 142.206Z" fill="#D70F82"/>
<path d="M147.426 147C147.426 147 151.675 146.951 154.047 146.951C154.047 146.951 154.047 130.494 153.948 127.875C153.8 123.526 152.169 121.104 148.76 121.104C146.042 121.104 143.72 123.032 142.682 125.602C142.633 123.872 142.732 121.895 142.732 121.895C139.767 122.043 137.543 121.945 137.543 121.945C137.642 135.98 137.445 145.419 137.445 145.419C141.002 145.369 144.066 145.419 144.066 145.419C144.066 145.419 144.016 134.201 144.115 130.494C144.115 128.517 144.807 127.035 146.141 127.035C147.129 127.035 147.475 127.825 147.475 129.456C147.475 137.264 147.426 147 147.426 147Z" fill="#D70F82"/>
<path d="M173.755 147C173.607 127.727 173.804 112.259 173.804 112.259C168.32 112.407 166.936 112.308 166.936 112.308C167.183 117.497 167.282 121.253 167.331 123.921C166.393 122.192 164.861 120.956 162.835 120.956C157.844 120.956 155.819 126.343 155.819 133.509C155.819 142.503 158.734 146.358 163.23 146.358C165.503 146.358 167.43 145.171 168.418 142.651C168.369 145.221 168.32 146.951 168.32 146.951C171.729 146.951 173.755 147 173.755 147ZM165.058 141.959C163.675 141.959 162.934 139.538 162.934 133.756C162.934 128.468 163.576 125.651 164.91 125.651C166.393 125.651 167.134 128.27 167.134 133.904C167.134 140.328 166.195 141.959 165.058 141.959Z" fill="#D70F82"/>
<path d="M185.082 121.5C179.449 121.5 175.892 126.195 175.892 134.201C175.892 141.91 179.153 146.703 184.983 146.703C190.814 146.703 194.075 141.86 194.075 134.398C194.075 125.997 190.765 121.5 185.082 121.5ZM184.983 125.997C186.515 125.997 187.158 128.27 187.158 134.497C187.158 140.279 186.268 142.206 185.033 142.206C183.649 142.206 182.809 140.131 182.809 134.25C182.809 128.616 183.501 125.997 184.983 125.997Z" fill="#D70F82"/>
<path d="M206.101 145.913C206.101 145.913 210.351 145.814 212.722 145.863C212.722 145.863 212.722 131.137 212.624 128.517C212.475 124.168 210.845 121.747 207.435 121.747C204.718 121.747 202.396 123.674 201.358 126.244C201.309 124.465 201.407 122.389 201.407 122.389C198.443 122.488 196.219 122.439 196.219 122.439C196.318 136.474 196.12 146.407 196.12 146.407C199.678 146.358 202.741 146.407 202.741 146.407C202.741 146.407 202.692 134.892 202.791 131.137C202.791 129.16 203.483 127.677 204.817 127.677C205.805 127.677 206.151 128.517 206.151 130.099C206.151 137.907 206.101 145.913 206.101 145.913Z" fill="#D70F82"/>
<path d="M232.619 146.951C238.153 147 242.007 143.491 241.809 131.68C241.809 131.68 238.449 131.68 234.546 131.828C234.793 139.735 233.953 141.317 232.717 141.317C231.037 141.317 230.494 138.5 230.494 128.962C230.395 119.82 230.939 116.509 232.668 116.509C234.101 116.509 234.496 118.683 234.447 124.91C234.447 124.91 237.214 125.058 241.611 125.107C241.809 116.756 239.684 110.875 233.014 110.875C225.849 110.875 223.132 116.805 223.132 129.012C223.132 141.959 225.899 146.951 232.619 146.951Z" fill="#D70F82"/>
<path d="M252.1 146.605C257.98 146.605 261.192 142.75 261.192 133.657C261.192 126.244 258.622 120.956 252.199 120.956C246.023 120.956 243.157 126.096 243.157 133.459C243.157 141.366 245.331 146.605 252.1 146.605ZM252.199 142.206C250.618 142.206 250.074 140.23 250.074 133.459C250.074 128.023 250.618 125.503 252.199 125.503C253.681 125.503 254.274 127.974 254.274 133.706C254.274 139.933 253.681 142.206 252.199 142.206Z" fill="#D70F82"/>
<path d="M269.911 145.468C269.911 145.468 269.763 137.759 269.96 112.703C269.96 112.703 267.737 112.703 263.389 112.555C263.389 112.555 263.537 123.477 263.339 145.369C263.339 145.369 265.612 145.369 269.911 145.468Z" fill="#D70F82"/>
<path d="M272.803 146.061C276.607 146.012 279.374 146.012 279.374 146.012C279.127 130.296 279.177 121.203 279.177 121.203C274.828 121.302 272.654 121.253 272.654 121.253C272.852 139.389 272.803 146.061 272.803 146.061ZM275.965 118.831C278.633 118.831 279.967 117.003 279.967 114.631C279.967 112.357 278.584 110.628 276.014 110.628C273.396 110.628 271.864 112.061 271.864 114.581C271.864 117.25 273.247 118.831 275.965 118.831Z" fill="#D70F82"/>
<path d="M289.477 146.753C293.775 146.753 297.432 144.776 297.432 139.637C297.432 136.474 296.196 134.25 291.404 132.125C288.241 130.741 287.302 129.703 287.302 127.974C287.302 126.788 287.945 125.75 289.23 125.75C290.86 125.75 291.305 127.628 291.058 130.445C294.418 130.445 297.036 130.593 297.036 130.593C297.382 124.663 294.813 120.759 289.279 120.759C283.992 120.759 281.175 123.971 281.175 127.875C281.175 131.828 283.004 134.201 287.055 135.831C290.811 137.363 291.255 138.451 291.255 139.637C291.255 141.267 290.415 141.91 289.477 141.91C287.797 141.91 287.253 140.477 287.451 137.512C283.3 137.264 281.175 137.215 281.175 137.215C280.83 143.788 283.992 146.753 289.477 146.753Z" fill="#D70F82"/>
<path d="M307.642 146.654C312.583 146.654 315.795 143.294 316.338 137.61C313.028 137.512 309.668 137.462 309.668 137.462C309.569 140.477 308.926 141.91 307.691 141.91C306.209 141.91 305.517 140.081 305.369 135.683C311.891 135.584 316.14 135.535 316.14 135.535C316.635 127.282 314.757 121.006 307.543 121.006C301.07 121.006 298.599 126.491 298.599 133.558C298.599 141.07 300.527 146.654 307.642 146.654ZM307.493 125.404C308.877 125.404 309.421 127.727 309.371 131.73C307.988 131.779 306.703 131.828 305.369 131.828C305.517 127.578 306.11 125.404 307.493 125.404Z" fill="#D70F82"/>
<path d="M324.325 146.506C326.45 146.506 328.525 145.073 329.514 142.453C329.464 144.974 329.415 146.901 329.415 146.901C333.121 146.852 334.751 146.951 334.751 146.951C334.603 131.977 334.652 120.956 334.652 120.956C329.909 121.006 327.982 120.857 327.982 120.857C327.982 120.857 328.377 128.715 328.328 136.82C328.328 139.192 327.586 140.823 326.549 140.823C325.264 140.823 324.523 139.34 324.523 130.692C324.523 128.27 324.622 124.86 324.918 121.895C320.471 121.698 318.742 121.45 318.742 121.45C318.297 125.305 318.1 129.16 318.1 132.965C318.1 143.244 320.175 146.506 324.325 146.506Z" fill="#D70F82"/>
<path d="M337.409 145.369C340.571 145.32 344.03 145.32 344.03 145.32C344.03 145.32 343.832 136.869 343.882 131.038C343.882 128.814 344.623 127.035 345.957 127.035C346.995 127.035 347.341 128.073 347.341 129.852C347.439 135.98 347.291 144.826 347.291 144.826C350.849 144.776 354.011 144.776 354.011 144.776C354.011 144.776 353.912 137.314 354.011 130.791C354.011 128.666 354.604 127.134 355.987 127.134C356.926 127.134 357.272 128.023 357.322 129.753C357.42 137.017 357.47 146.852 357.47 146.852C361.769 146.802 363.992 146.852 363.992 146.852C363.992 146.852 364.041 136.424 363.893 128.073C363.844 124.267 362.559 121.45 358.952 121.45C356.383 121.45 354.357 122.982 353.319 125.256C352.776 122.933 351.343 121.104 348.526 121.104C345.858 121.104 343.783 122.785 342.597 125.355C342.597 123.328 342.696 121.796 342.696 121.796C339.534 121.796 337.261 121.747 337.261 121.747C337.409 135.535 337.409 145.369 337.409 145.369Z" fill="#D70F82"/>
</svg>
