<svg width="268" height="46" viewBox="0 0 268 46" fill="none" xmlns="http://www.w3.org/2000/svg">
<path d="M0.149147 17.9826C0.149147 17.9826 4.64843 18.0334 7.10936 18.0842C7.10936 18.0842 7.10936 16.865 7.13422 14.9347C7.13422 14.9347 5.84161 14.9347 3.48011 14.8585C3.33096 4.14007 3.38068 0.584183 3.38068 0.584183C1.09375 0.63498 0 0.584183 0 0.584183C0.12429 10.9724 0.149147 17.9826 0.149147 17.9826Z" fill="#EB008B"/>
<path d="M8.04212 18.1096C10.2545 18.0842 11.4477 18.1096 11.4477 18.1096C11.3731 8.94051 11.3234 0.431787 11.3234 0.431787C9.11101 0.457187 7.94269 0.457188 7.94269 0.457188C8.06698 10.3375 8.04212 18.1096 8.04212 18.1096Z" fill="#EB008B"/>
<path d="M12.6665 17.754C14.1331 17.7794 16.2212 17.8302 16.2212 17.8302C16.1714 12.9282 16.1963 7.56895 16.2212 4.52105C17.2155 10.9724 17.6878 14.8077 17.6878 14.8077C19.3035 14.8839 21.1182 14.9093 21.1182 14.9093C21.5905 10.8708 22.2368 6.57839 22.6594 3.86068C22.9328 12.4202 22.8334 18.5414 22.8334 18.5414C24.5486 18.4906 26.3383 18.389 26.3383 18.389C25.7914 7.28956 25.7417 0.177793 25.7417 0.177793C23.3802 0.101597 20.7701 0.0254014 20.7701 0.0254014C20.3476 4.03847 19.7758 8.05154 19.3532 10.7439C18.5827 5.56242 18.0358 0.761976 18.0358 0.761976C15.4008 0.888972 13.2133 0.863574 13.2133 0.863574C13.0145 10.4899 12.6665 17.754 12.6665 17.754Z" fill="#EB008B"/>
<path d="M27.6566 17.7032C29.8689 17.6778 31.0621 17.7032 31.0621 17.7032C30.9875 8.53412 30.9378 0.965167 30.9378 0.965167C28.7255 0.990566 27.5571 0.990568 27.5571 0.990568C27.6814 10.8708 27.6566 17.7032 27.6566 17.7032Z" fill="#EB008B"/>
<path d="M32.0323 3.73368L34.5927 3.70828C34.6673 12.5218 34.6424 18.2112 34.6424 18.2112C36.8796 18.1604 38.0231 18.1858 38.0231 18.1858C37.9237 10.5153 37.9237 6.2228 37.9237 3.70828C39.44 3.70828 40.4592 3.73368 40.4592 3.73368C40.4343 1.60015 40.5089 0.355591 40.5089 0.355591C34.6176 0.457188 32.0075 0.431787 32.0075 0.431787C32.0572 2.81931 32.0323 3.73368 32.0323 3.73368Z" fill="#EB008B"/>
<path d="M41.4426 17.7794C45.1713 17.8302 48.2785 17.881 48.2785 17.881C48.2785 15.7729 48.3283 14.6807 48.3283 14.6807C46.1656 14.7061 44.7736 14.6807 44.7736 14.6807C44.7239 13.487 44.699 12.3694 44.6741 11.3534C46.4391 11.328 47.7565 11.3534 47.7565 11.3534C47.7317 9.47389 47.7565 8.20393 47.7565 8.20393C45.9916 8.25473 44.6244 8.25473 44.6244 8.25473C44.5996 5.58782 44.5996 4.06387 44.5996 4.06387C46.4639 3.96227 48.2537 3.93687 48.2537 3.93687C48.1791 1.95574 48.204 0.558781 48.204 0.558781C43.2572 0.711178 41.2438 0.711178 41.2438 0.711178C41.3929 10.947 41.4426 17.7794 41.4426 17.7794Z" fill="#EB008B"/>
<path d="M52.7104 15.5951C52.7104 15.5951 52.5862 9.3215 52.5613 3.2003C54.0776 2.9717 54.7239 4.67345 54.7239 9.42309C54.7239 15.0871 53.9782 15.6967 52.7104 15.5951ZM49.2303 18.1858C50.1749 18.3382 51.0698 18.4144 51.8653 18.4144C56.1657 18.4144 58.3532 16.1285 58.3532 9.65168C58.3532 3.20029 56.5883 0.228592 51.7907 0.228592C51.0201 0.228592 50.1749 0.304791 49.2303 0.482585C49.2303 0.482585 49.28 9.1437 49.2303 18.1858Z" fill="#EB008B"/>
<path d="M67.9237 18.4652C70.5835 18.4652 72.4478 17.1952 72.4478 13.6647C72.4478 11.2518 71.6524 9.85488 69.3654 8.28013C67.4762 6.98477 66.9294 6.1212 66.9294 4.87664C66.9294 3.60668 67.2277 2.84471 67.8988 2.84471C68.6446 2.84471 69.092 3.83527 68.7937 6.45138C70.5089 6.50218 72.1744 6.65458 72.1744 6.65458C72.6218 2.36212 71.2298 0.076196 67.9485 0.076196C65.2639 0.076196 63.3995 1.42236 63.3995 4.69885C63.3995 6.98477 64.1701 8.61032 66.4073 10.2359C68.4706 11.7344 68.8931 12.5726 68.8931 13.7409C68.8931 15.2141 68.57 15.6967 67.9485 15.6967C67.0785 15.6967 66.7305 14.5029 66.9542 11.836C64.8413 11.8106 63.4741 11.7598 63.4741 11.7598C63.0764 16.2047 64.3939 18.4652 67.9237 18.4652Z" fill="#EB008B"/>
<path d="M73.486 18.008C77.2147 18.0588 80.3717 18.1604 80.3717 18.1604C80.3717 16.0523 80.4214 14.9601 80.4214 14.9601C78.2587 14.9093 76.817 14.8077 76.817 14.8077C76.7673 13.487 76.7424 12.2424 76.7176 11.0994C78.5073 11.0994 79.8745 11.1248 79.8745 11.1248C79.8497 9.24529 79.8496 7.89914 79.8496 7.89914C77.9604 7.94994 76.8667 7.92454 76.6678 7.92454C76.6181 5.35923 76.643 3.80988 76.643 3.80988C78.3085 3.75908 80.3468 3.73368 80.3468 3.73368C80.2971 1.75254 80.322 0.355591 80.322 0.355591C75.3007 0.431787 73.2872 0.457188 73.2872 0.457188C73.4363 10.6931 73.486 18.008 73.486 18.008Z" fill="#EB008B"/>
<path d="M80.7748 17.7032C83.0866 17.7032 84.1307 17.754 84.1307 17.754L84.3544 15.0109C85.4481 15.0109 86.2684 15.0363 86.8402 15.0363C87.0639 17.373 87.1633 18.4906 87.1633 18.4906C89.326 18.4144 90.718 18.4652 90.718 18.4652C89.2017 9.1183 88.0085 0.253993 88.0085 0.253993C88.0085 0.253993 85.9204 0.228595 83.2109 0.355591C81.8189 10.9978 80.7748 17.7032 80.7748 17.7032ZM85.5724 3.2003C85.995 6.95937 86.3181 9.88027 86.5419 12.1916C85.2741 12.217 84.6278 12.1916 84.6278 12.1916C85.0255 7.97534 85.3984 4.67345 85.5724 3.2003Z" fill="#EB008B"/>
<path d="M95.2583 18.4398C98.2164 18.4398 99.7824 16.5857 99.7824 13.6902C99.7824 11.709 99.2355 10.0835 96.4266 8.35632C94.6865 7.28956 94.2639 6.34979 94.2639 5.35922C94.2639 4.08927 94.5622 3.42889 95.2334 3.42889C95.9791 3.42889 96.4266 4.19087 96.1283 6.73078C97.9181 6.65459 99.5338 6.73078 99.5338 6.73078C99.9564 2.74311 98.6887 0.660379 95.2831 0.660379C92.673 0.660379 90.7341 1.95573 90.7341 5.18143C90.7341 7.74675 91.7782 9.1691 93.8662 10.566C95.7554 11.836 96.2277 12.6234 96.2277 13.7663C96.2277 15.0109 95.9046 15.6713 95.2831 15.6713C94.5374 15.6713 94.0402 14.8839 94.2639 12.2932C92.1013 12.3694 90.7838 12.344 90.7838 12.344C90.411 16.4587 91.9024 18.4398 95.2583 18.4398Z" fill="#EB008B"/>
<path d="M105.195 18.4906C108.427 18.4906 109.968 16.2809 110.017 9.2453C110.017 3.83528 109.098 0.101597 105.195 0.101597C101.342 0.101597 100.397 4.16546 100.397 9.27069C100.422 15.3665 101.615 18.4906 105.195 18.4906ZM105.245 15.7983C104.375 15.7983 104.076 14.4775 104.076 9.0929C104.076 4.52105 104.325 2.87011 105.195 2.87011C105.99 2.87011 106.338 4.26706 106.338 9.1183C106.338 14.6553 105.99 15.7983 105.245 15.7983Z" fill="#EB008B"/>
<path d="M111.11 17.6778C112.974 17.6778 114.317 17.7286 114.317 17.7286C114.093 13.6394 113.993 10.0073 113.969 7.72135C115.982 14.3759 117.225 18.516 117.225 18.516C119.363 18.3636 120.382 18.2112 120.382 18.2112C120.133 6.88318 120.034 0.0507987 120.034 0.0507987C118.12 0.0761975 116.951 0 116.951 0C117.275 5.02903 117.424 9.1945 117.498 11.709C115.634 5.66401 114.341 0.863574 114.341 0.863574C112.353 0.914371 111.035 1.01597 111.035 1.01597C111.184 11.328 111.11 17.6778 111.11 17.6778Z" fill="#EB008B"/>
<path d="M126.163 18.008C127.108 18.135 127.978 18.2112 128.774 18.2112C132.726 18.2112 135.063 16.8142 135.063 13.1822C135.063 10.947 134.068 9.44849 132.403 8.81351C133.795 8.25473 134.739 6.90857 134.739 5.00364C134.739 1.77794 133.149 0.101597 129.42 0.101597C128.426 0.101597 127.257 0.228594 125.965 0.482585C126.139 9.77868 126.163 18.008 126.163 18.008ZM129.47 15.5951L129.395 10.3883C130.961 10.3883 131.707 11.328 131.707 13.106C131.707 15.0871 130.862 15.6713 129.47 15.5951ZM129.37 2.81931C130.936 2.69231 131.582 3.58128 131.582 5.33382C131.582 7.03557 130.862 7.87374 129.37 7.82294V2.81931Z" fill="#EB008B"/>
<path d="M136.019 18.008C139.748 18.0588 142.905 18.1604 142.905 18.1604C142.905 16.0523 142.955 14.9601 142.955 14.9601C140.792 14.9093 139.35 14.8077 139.35 14.8077C139.3 13.487 139.276 12.2424 139.251 11.0994C141.041 11.0994 142.408 11.1248 142.408 11.1248C142.383 9.24529 142.383 7.89914 142.383 7.89914C140.494 7.94994 139.4 7.92454 139.201 7.92454C139.151 5.35923 139.176 3.80988 139.176 3.80988C140.842 3.75908 142.88 3.73368 142.88 3.73368C142.83 1.75254 142.855 0.355591 142.855 0.355591C137.834 0.431787 135.82 0.457188 135.82 0.457188C135.97 10.6931 136.019 18.008 136.019 18.008Z" fill="#EB008B"/>
<path d="M148.332 18.4906C151.39 18.4906 153.229 16.7127 152.906 8.94051C150.768 8.99131 147.984 8.96591 147.984 8.96591C148.034 10.7439 148.009 11.836 148.009 11.836C148.009 11.836 148.631 11.7852 149.501 11.7598C149.575 14.7061 149.277 15.7983 148.481 15.7983C147.537 15.7983 147.139 14.4775 147.114 9.2453C147.114 4.80045 147.413 2.9717 148.307 2.9717C149.053 2.9717 149.376 4.19086 149.327 7.21336C150.097 7.23876 152.732 7.26416 152.732 7.26416C152.931 3.0479 151.613 0.101597 148.357 0.101597C144.976 0.101597 143.535 3.1495 143.535 9.1945C143.535 16.3825 145.3 18.4906 148.332 18.4906Z" fill="#EB008B"/>
<path d="M154.252 18.1096C156.465 18.0842 157.658 18.1096 157.658 18.1096C157.583 8.94051 157.534 0.431787 157.534 0.431787C155.321 0.457187 154.153 0.457188 154.153 0.457188C154.277 10.3375 154.252 18.1096 154.252 18.1096Z" fill="#EB008B"/>
<path d="M159.175 17.6778C161.039 17.6778 162.382 17.7286 162.382 17.7286C162.158 13.6394 162.058 10.0073 162.034 7.72135C164.047 14.3759 165.29 18.516 165.29 18.516C167.428 18.3636 168.447 18.2112 168.447 18.2112C168.198 6.88318 168.099 0.0507987 168.099 0.0507987C166.185 0.0761975 165.017 0 165.017 0C165.34 5.02903 165.489 9.1945 165.563 11.709C163.699 5.66401 162.406 0.863574 162.406 0.863574C160.418 0.914371 159.1 1.01597 159.1 1.01597C159.25 11.328 159.175 17.6778 159.175 17.6778Z" fill="#EB008B"/>
<path d="M173.885 18.4652C176.545 18.4652 178.41 17.1952 178.41 13.6647C178.41 11.2518 177.614 9.85488 175.327 8.28013C173.438 6.98477 172.891 6.1212 172.891 4.87664C172.891 3.60668 173.189 2.84471 173.861 2.84471C174.606 2.84471 175.054 3.83527 174.755 6.45138C176.471 6.50218 178.136 6.65458 178.136 6.65458C178.584 2.36212 177.191 0.076196 173.91 0.076196C171.226 0.076196 169.361 1.42236 169.361 4.69885C169.361 6.98477 170.132 8.61032 172.369 10.2359C174.432 11.7344 174.855 12.5726 174.855 13.7409C174.855 15.2141 174.532 15.6967 173.91 15.6967C173.04 15.6967 172.692 14.5029 172.916 11.836C170.803 11.8106 169.436 11.7598 169.436 11.7598C169.038 16.2047 170.356 18.4652 173.885 18.4652Z" fill="#EB008B"/>
<path d="M182.78 17.7032C185.091 17.7032 186.135 17.754 186.135 17.754L186.359 15.0109C187.453 15.0109 188.273 15.0363 188.845 15.0363C189.069 17.373 189.168 18.4906 189.168 18.4906C191.331 18.4144 192.723 18.4652 192.723 18.4652C191.207 9.1183 190.013 0.253993 190.013 0.253993C190.013 0.253993 187.925 0.228595 185.216 0.355591C183.824 10.9978 182.78 17.7032 182.78 17.7032ZM187.577 3.2003C188 6.95937 188.323 9.88027 188.547 12.1916C187.279 12.217 186.633 12.1916 186.633 12.1916C187.03 7.97534 187.403 4.67345 187.577 3.2003Z" fill="#EB008B"/>
<path d="M193.426 17.9572C195.465 17.881 196.906 17.9318 196.906 17.9318L196.807 13.8171C200.188 13.6902 202.226 11.328 202.226 7.18797C202.226 2.74311 200.287 0.431787 195.489 0.431787C194.868 0.431787 194.172 0.482585 193.451 0.558781C193.526 11.2772 193.426 17.9572 193.426 17.9572ZM196.732 3.50508C198.1 3.42889 198.771 4.74965 198.771 7.28956C198.771 10.0835 198 10.9216 196.757 11.0486C196.707 7.26416 196.732 5.81641 196.732 3.50508Z" fill="#EB008B"/>
<path d="M208.98 18.5668C211.193 18.4144 212.485 18.2874 212.485 18.2874C210.994 13.8425 210.174 11.2772 209.975 10.5915C211.292 9.70248 212.088 8.25473 212.088 5.9942C212.088 2.20972 210.248 0.076196 206.37 0.076196C205.401 0.076196 204.307 0.203194 203.064 0.431787C203.139 11.1502 203.039 17.754 203.039 17.754C205.028 17.7286 206.519 17.7286 206.519 17.7286C206.47 14.8839 206.42 12.8266 206.42 11.7598C206.644 11.7344 206.892 11.709 207.116 11.6582C208.309 15.9507 208.98 18.5668 208.98 18.5668ZM206.42 9.37229C206.42 9.37229 206.37 6.50218 206.345 3.0733C206.345 3.0733 206.569 3.0479 206.669 3.0479C207.986 3.0479 208.558 4.29246 208.558 6.2482C208.558 8.48332 207.638 9.29609 206.42 9.37229Z" fill="#EB008B"/>
<path d="M213.241 18.1096C215.454 18.0842 216.647 18.1096 216.647 18.1096C216.572 8.94051 216.523 0.431787 216.523 0.431787C214.31 0.457187 213.142 0.457188 213.142 0.457188C213.266 10.3375 213.241 18.1096 213.241 18.1096Z" fill="#EB008B"/>
<path d="M218.239 17.9826C218.239 17.9826 222.738 18.0334 225.199 18.0842C225.199 18.0842 225.199 16.865 225.224 14.9347C225.224 14.9347 223.931 14.9347 221.57 14.8585C221.42 4.14007 221.47 0.584183 221.47 0.584183C219.183 0.63498 218.089 0.584183 218.089 0.584183C218.214 10.9724 218.239 17.9826 218.239 17.9826Z" fill="#EB008B"/>
<path d="M237.772 18.1096C237.772 18.1096 237.747 17.3222 237.747 14.7061C237.747 14.7061 236.429 14.7569 233.297 14.7315C236.231 12.3694 238.095 8.91511 238.095 5.28303C238.095 2.08273 236.777 0.126995 233.869 0.126995C230.364 0.126995 228.997 2.76851 229.519 7.92454C231.781 7.82295 232.775 7.82294 232.775 7.82294C232.502 4.29246 232.85 3.0479 233.77 3.0479C234.341 3.0479 234.689 3.78448 234.689 5.18143C234.689 8.76271 232.353 11.6074 229.444 14.0965C229.444 14.0965 229.469 15.7475 229.569 17.9826C229.569 17.9826 233.024 17.9826 237.772 18.1096Z" fill="#EB008B"/>
<path d="M243.564 18.7192C247.044 18.7192 248.337 15.4935 248.337 9.1945C248.337 3.1749 246.895 0.304788 243.539 0.304788C240.283 0.304788 238.767 3.1749 238.767 9.3469C238.767 15.7221 240.308 18.7192 243.564 18.7192ZM243.539 15.9761C242.719 15.9761 242.346 14.3759 242.346 9.2453C242.346 4.44486 242.694 3.0733 243.515 3.0733C244.31 3.0733 244.658 4.82584 244.658 9.1437C244.658 14.8331 244.335 15.9761 243.539 15.9761Z" fill="#EB008B"/>
<path d="M257.435 18.008C257.435 18.008 257.41 17.2206 257.41 14.6045C257.41 14.6045 256.092 14.6553 252.985 14.6299C255.993 12.217 257.758 9.0421 257.758 5.61321C257.758 2.56531 256.44 0.457188 253.532 0.457188C250.052 0.457188 248.66 3.1495 249.182 8.25473C251.444 8.17853 252.438 8.17853 252.438 8.17853C252.165 4.64805 252.513 3.40349 253.433 3.40349C254.004 3.40349 254.352 4.11466 254.352 5.53702C254.352 8.9151 252.09 11.4296 249.107 13.9949C249.107 13.9949 249.132 15.6459 249.232 17.881C249.232 17.881 252.687 17.881 257.435 18.008Z" fill="#EB008B"/>
<path d="M263.202 0.584183C259.623 0.584183 258.43 3.88607 258.43 9.85488C258.43 16.0777 259.971 18.4906 263.227 18.4906C266.136 18.4906 268 16.4587 268 9.70248C268 3.65748 266.558 0.584183 263.202 0.584183ZM263.227 3.27649C264.097 3.27649 264.396 4.87664 264.396 9.77868C264.396 14.8331 263.923 15.6713 263.252 15.6713C262.556 15.6713 262.109 14.6045 262.109 9.85488C262.109 4.44485 262.432 3.27649 263.227 3.27649Z" fill="#EB008B"/>
<path d="M56.4281 45.8222C57.5156 45.8222 58.5379 45.3999 58.9729 44.2221C58.9512 45.1555 58.8859 45.8889 58.8859 45.8889C60.4302 45.8667 61.0827 45.8444 61.0827 45.8444C61.0827 45.8444 61.148 42.4219 61.061 38.3993C60.9958 35.9102 59.9735 34.3767 57.6026 34.3767C55.0143 34.3767 53.8833 36.1324 53.992 38.5104C55.6233 38.5326 56.7109 38.4882 56.7109 38.4882C56.6891 37.1992 56.9066 36.5102 57.4939 36.5102C57.9942 36.5102 58.1682 36.9547 58.2117 38.266C58.2117 38.5771 58.2334 38.9771 58.2334 38.9771C55.2971 39.1994 53.644 40.5551 53.644 42.9775C53.644 44.7777 54.8186 45.8222 56.4281 45.8222ZM58.3639 41.3551C58.3639 43.1997 57.8854 43.7109 57.3199 43.7109C56.7109 43.7109 56.4716 43.222 56.4716 42.5552C56.4716 41.6218 56.9501 40.7106 58.3422 40.4884C58.3639 40.7551 58.3639 41.0662 58.3639 41.3551Z" fill="#EB008B"/>
<path d="M61.6721 37.3548C61.6721 37.3548 62.2376 37.3325 62.6943 37.3548C62.6726 38.866 62.6943 40.5551 62.7161 42.3774C62.7378 44.6888 63.8471 45.6 65.6742 45.6C66.2179 45.6 66.827 45.5111 67.5012 45.3333L67.3272 42.5997C67.0662 42.6664 66.827 42.6886 66.6312 42.6886C65.9134 42.6886 65.5654 42.3108 65.5437 41.5107C65.5002 40.1106 65.5002 38.6882 65.5002 37.3548C66.0657 37.3548 66.653 37.3548 67.2837 37.377C67.2837 37.377 67.262 36.8881 67.3055 34.799C67.3055 34.799 66.5877 34.8212 65.5002 34.799C65.5219 33.1099 65.5654 31.932 65.5654 31.932C65.5654 31.932 64.7607 31.9543 62.7596 31.9098C62.7596 31.9098 62.7378 33.021 62.7161 34.7545C62.3681 34.7545 62.0201 34.7545 61.6503 34.7323C61.6503 34.7323 61.6938 35.3768 61.6721 37.3548Z" fill="#EB008B"/>
<path d="M71.6553 37.6215H72.6776C72.6558 39.1105 72.6776 40.8218 72.6993 42.6441C72.7211 44.9555 73.8738 45.8 75.6574 45.8C76.2012 45.8 76.8319 45.7333 77.4845 45.6L77.3105 42.8664C77.0712 42.9108 76.8537 42.9331 76.6579 42.9331C75.9184 42.9331 75.5487 42.5997 75.5269 41.7774C75.4834 40.3773 75.4834 38.9549 75.4834 37.6215L77.267 37.6437C77.267 37.6437 77.2452 37.1547 77.2887 35.0657H75.4834C75.5051 33.4877 75.5487 32.3988 75.5487 32.3988C75.5487 32.3988 74.7439 32.421 72.7428 32.3765C72.7428 32.3765 72.7211 33.3988 72.6993 35.0212C72.3513 35.0212 72.0033 35.0212 71.6335 34.999C71.6335 34.999 71.677 35.6435 71.6553 37.6215Z" fill="#EB008B"/>
<path d="M78.2714 45.2444C80.229 45.1999 81.1642 45.2221 81.1642 45.2221C81.1642 45.2221 81.1642 41.8663 81.186 38.666C81.186 37.5992 81.5557 37.0214 82.056 37.0214C82.5128 37.0214 82.665 37.3103 82.6868 38.1326C82.7303 41.6663 82.6868 45.9333 82.6868 45.9333C84.5791 45.9333 85.5796 45.9556 85.5796 45.9556C85.5796 45.9556 85.6449 41.0662 85.5361 37.4881C85.4709 35.5546 84.8184 34.3323 83.3828 34.3323C82.2735 34.31 81.5122 34.9768 81.012 35.9769C80.9902 32.8432 81.0772 30.5319 81.0772 30.5319C79.1849 30.5764 78.2714 30.5541 78.2714 30.5541C78.3584 38.7104 78.2714 45.2444 78.2714 45.2444Z" fill="#EB008B"/>
<path d="M90.3395 45.8444C92.5145 45.8444 93.9283 44.3332 94.1676 41.7774C92.7103 41.7329 91.2312 41.7107 91.2312 41.7107C91.1877 43.0664 90.905 43.7109 90.3612 43.7109C89.7087 43.7109 89.4042 42.8886 89.3389 40.9106C92.21 40.8662 94.0806 40.844 94.0806 40.844C94.2981 37.1325 93.4715 34.31 90.296 34.31C87.4466 34.31 86.3591 36.7769 86.3591 39.955C86.3591 43.3331 87.2074 45.8444 90.3395 45.8444ZM90.2742 36.288C90.8832 36.288 91.1225 37.3325 91.1007 39.1327C90.4917 39.1549 89.9262 39.1772 89.3389 39.1772C89.4042 37.2659 89.6652 36.288 90.2742 36.288Z" fill="#EB008B"/>
<path d="M98.9626 45.5111C98.9626 45.5111 102.899 45.5555 105.053 45.6C105.053 45.6 105.053 44.5332 105.075 42.8442C105.075 42.8442 103.943 42.8442 101.877 42.7775C101.747 33.3988 101.79 30.2874 101.79 30.2874C99.7891 30.3319 98.8321 30.2874 98.8321 30.2874C98.9408 39.3772 98.9626 45.5111 98.9626 45.5111Z" fill="#EB008B"/>
<path d="M109.243 45.8222C111.831 45.8222 113.245 44.0887 113.245 39.9995C113.245 36.6658 112.114 34.2878 109.286 34.2878C106.567 34.2878 105.306 36.5991 105.306 39.9106C105.306 43.4664 106.263 45.8222 109.243 45.8222ZM109.286 43.8443C108.59 43.8443 108.351 42.9553 108.351 39.9106C108.351 37.4659 108.59 36.3324 109.286 36.3324C109.939 36.3324 110.2 37.4437 110.2 40.0217C110.2 42.8219 109.939 43.8443 109.286 43.8443Z" fill="#EB008B"/>
<path d="M118.54 46C118.54 46 120.411 45.9778 121.455 45.9778C121.455 45.9778 121.455 38.5771 121.411 37.3992C121.346 35.4435 120.628 34.3545 119.128 34.3545C117.931 34.3545 116.909 35.2212 116.452 36.3769C116.431 35.599 116.474 34.7101 116.474 34.7101C115.169 34.7767 114.19 34.7323 114.19 34.7323C114.234 41.044 114.147 45.2888 114.147 45.2888C115.713 45.2666 117.061 45.2888 117.061 45.2888C117.061 45.2888 117.04 40.2439 117.083 38.5771C117.083 37.6881 117.388 37.0214 117.975 37.0214C118.41 37.0214 118.562 37.377 118.562 38.1104C118.562 41.6218 118.54 46 118.54 46Z" fill="#EB008B"/>
<path d="M130.13 46C130.065 37.3325 130.152 30.3763 130.152 30.3763C127.738 30.443 127.129 30.3986 127.129 30.3986C127.238 32.7321 127.281 34.4212 127.303 35.6213C126.89 34.8434 126.215 34.2878 125.324 34.2878C123.127 34.2878 122.235 36.7103 122.235 39.9328C122.235 43.9776 123.518 45.7111 125.498 45.7111C126.498 45.7111 127.346 45.1777 127.781 44.0443C127.76 45.1999 127.738 45.9778 127.738 45.9778C129.239 45.9778 130.13 46 130.13 46ZM126.302 43.7331C125.693 43.7331 125.367 42.6441 125.367 40.0439C125.367 37.6659 125.65 36.3991 126.237 36.3991C126.89 36.3991 127.216 37.577 127.216 40.1106C127.216 42.9997 126.803 43.7331 126.302 43.7331Z" fill="#EB008B"/>
<path d="M135.117 34.5323C132.637 34.5323 131.071 36.6436 131.071 40.2439C131.071 43.7109 132.507 45.8667 135.073 45.8667C137.64 45.8667 139.075 43.6887 139.075 40.3328C139.075 36.5547 137.618 34.5323 135.117 34.5323ZM135.073 36.5547C135.748 36.5547 136.03 37.577 136.03 40.3773C136.03 42.9775 135.639 43.8443 135.095 43.8443C134.486 43.8443 134.116 42.9108 134.116 40.2661C134.116 37.7326 134.421 36.5547 135.073 36.5547Z" fill="#EB008B"/>
<path d="M144.369 45.5111C144.369 45.5111 146.24 45.4666 147.284 45.4888C147.284 45.4888 147.284 38.866 147.24 37.6881C147.175 35.7324 146.457 34.6434 144.957 34.6434C143.76 34.6434 142.738 35.5101 142.281 36.6658C142.26 35.8657 142.303 34.9323 142.303 34.9323C140.998 34.9768 140.019 34.9545 140.019 34.9545C140.063 41.2662 139.976 45.7333 139.976 45.7333C141.542 45.7111 142.89 45.7333 142.89 45.7333C142.89 45.7333 142.869 40.5551 142.912 38.866C142.912 37.977 143.217 37.3103 143.804 37.3103C144.239 37.3103 144.391 37.6881 144.391 38.3993C144.391 41.9107 144.369 45.5111 144.369 45.5111Z" fill="#EB008B"/>
<path d="M156.042 45.9778C158.478 46 160.175 44.4221 160.088 39.1105C160.088 39.1105 158.609 39.1105 156.89 39.1772C156.999 42.733 156.629 43.4442 156.086 43.4442C155.346 43.4442 155.107 42.1774 155.107 37.8881C155.063 33.7767 155.303 32.2876 156.064 32.2876C156.695 32.2876 156.869 33.2655 156.847 36.0658C156.847 36.0658 158.065 36.1324 160.001 36.1546C160.088 32.3987 159.152 29.7541 156.216 29.7541C153.062 29.7541 151.866 32.421 151.866 37.9104C151.866 43.7331 153.084 45.9778 156.042 45.9778Z" fill="#EB008B"/>
<path d="M164.618 45.8222C167.206 45.8222 168.62 44.0887 168.62 39.9995C168.62 36.6658 167.489 34.2878 164.661 34.2878C161.943 34.2878 160.681 36.5991 160.681 39.9106C160.681 43.4664 161.638 45.8222 164.618 45.8222ZM164.661 43.8443C163.965 43.8443 163.726 42.9553 163.726 39.9106C163.726 37.4659 163.965 36.3324 164.661 36.3324C165.314 36.3324 165.575 37.4437 165.575 40.0217C165.575 42.8219 165.314 43.8443 164.661 43.8443Z" fill="#EB008B"/>
<path d="M172.458 45.311C172.458 45.311 172.393 41.8441 172.48 30.5764C172.48 30.5764 171.501 30.5764 169.587 30.5097C169.587 30.5097 169.652 35.4212 169.565 45.2666C169.565 45.2666 170.566 45.2666 172.458 45.311Z" fill="#EB008B"/>
<path d="M173.731 45.5777C175.406 45.5555 176.624 45.5555 176.624 45.5555C176.515 38.4882 176.537 34.3989 176.537 34.3989C174.623 34.4434 173.666 34.4212 173.666 34.4212C173.753 42.5775 173.731 45.5777 173.731 45.5777ZM175.123 33.3322C176.298 33.3322 176.885 32.5099 176.885 31.4431C176.885 30.4208 176.276 29.6429 175.145 29.6429C173.992 29.6429 173.318 30.2874 173.318 31.4209C173.318 32.621 173.927 33.3322 175.123 33.3322Z" fill="#EB008B"/>
<path d="M181.071 45.8889C182.963 45.8889 184.573 44.9999 184.573 42.6886C184.573 41.2662 184.029 40.2661 181.919 39.3105C180.527 38.6882 180.114 38.2215 180.114 37.4437C180.114 36.9103 180.397 36.4436 180.962 36.4436C181.68 36.4436 181.876 37.2881 181.767 38.5549C183.246 38.5549 184.399 38.6215 184.399 38.6215C184.551 35.9546 183.42 34.1989 180.984 34.1989C178.657 34.1989 177.417 35.6435 177.417 37.3992C177.417 39.1772 178.222 40.2439 180.005 40.9773C181.658 41.6663 181.854 42.1552 181.854 42.6886C181.854 43.422 181.484 43.7109 181.071 43.7109C180.331 43.7109 180.092 43.0664 180.179 41.7329C178.352 41.6218 177.417 41.5996 177.417 41.5996C177.264 44.5554 178.657 45.8889 181.071 45.8889Z" fill="#EB008B"/>
<path d="M189.067 45.8444C191.242 45.8444 192.656 44.3332 192.895 41.7774C191.438 41.7329 189.959 41.7107 189.959 41.7107C189.915 43.0664 189.633 43.7109 189.089 43.7109C188.436 43.7109 188.132 42.8886 188.067 40.9106C190.938 40.8662 192.808 40.844 192.808 40.844C193.026 37.1325 192.199 34.31 189.024 34.31C186.174 34.31 185.087 36.7769 185.087 39.955C185.087 43.3331 185.935 45.8444 189.067 45.8444ZM189.002 36.288C189.611 36.288 189.85 37.3325 189.828 39.1327C189.219 39.1549 188.654 39.1772 188.067 39.1772C188.132 37.2659 188.393 36.288 189.002 36.288Z" fill="#EB008B"/>
<path d="M196.411 45.7778C197.346 45.7778 198.26 45.1333 198.695 43.9554C198.673 45.0888 198.652 45.9556 198.652 45.9556C200.283 45.9333 201.001 45.9778 201.001 45.9778C200.935 39.2438 200.957 34.2878 200.957 34.2878C198.869 34.31 198.021 34.2434 198.021 34.2434C198.021 34.2434 198.195 37.777 198.173 41.4218C198.173 42.4886 197.847 43.222 197.39 43.222C196.824 43.222 196.498 42.5552 196.498 38.666C196.498 37.577 196.542 36.0435 196.672 34.7101C194.715 34.6212 193.953 34.5101 193.953 34.5101C193.758 36.2435 193.671 37.977 193.671 39.6883C193.671 44.311 194.584 45.7778 196.411 45.7778Z" fill="#EB008B"/>
<path d="M202.171 45.2666C203.563 45.2444 205.085 45.2444 205.085 45.2444C205.085 45.2444 204.998 41.444 205.02 38.8216C205.02 37.8215 205.346 37.0214 205.933 37.0214C206.39 37.0214 206.542 37.4881 206.542 38.2882C206.586 41.044 206.521 45.0221 206.521 45.0221C208.087 44.9999 209.479 44.9999 209.479 44.9999C209.479 44.9999 209.435 41.644 209.479 38.7104C209.479 37.7548 209.74 37.0658 210.349 37.0658C210.762 37.0658 210.914 37.4659 210.936 38.2437C210.98 41.5107 211.001 45.9333 211.001 45.9333C212.894 45.9111 213.872 45.9333 213.872 45.9333C213.872 45.9333 213.894 41.244 213.829 37.4881C213.807 35.7768 213.242 34.5101 211.654 34.5101C210.523 34.5101 209.631 35.199 209.174 36.2213C208.935 35.1768 208.304 34.3545 207.064 34.3545C205.89 34.3545 204.976 35.1101 204.454 36.2658C204.454 35.3546 204.498 34.6656 204.498 34.6656C203.106 34.6656 202.105 34.6434 202.105 34.6434C202.171 40.844 202.171 45.2666 202.171 45.2666Z" fill="#EB008B"/>
</svg>
