<svg width="312" height="30" viewBox="0 0 312 30" fill="none" xmlns="http://www.w3.org/2000/svg">
<path d="M5.02835 4.72754H11.4682L21.7454 18.2916V15.1546C21.7454 12.1502 21.7013 9.67599 21.6131 8.70397C21.569 7.73195 21.6131 5.8321 19.9811 5.8321V4.72754H26.0681V5.78792C23.4657 5.78792 23.7303 9.41089 23.6421 14.8012C23.598 17.4079 23.598 25.1399 23.598 25.1399H21.966L9.13044 8.35051V13.5199C9.13044 17.187 9.17454 18.9543 9.30687 20.4565C9.39509 21.782 9.57152 24.2563 10.8948 24.0795V25.1841H5.07246V24.0795C7.54253 24.0795 7.23377 20.1473 7.27788 13.3873L7.23377 8.30633C7.23377 7.37849 7.18966 6.58321 6.8368 6.31811C6.48393 6.00883 5.91052 5.8321 5.02835 5.8321V4.72754Z" fill="#4F4F4F"/>
<path d="M28.7587 27.4816H2.55827V2.47424H28.7587V27.4816ZM3.83742 26.2445H27.4795V3.71135H3.83742V26.2445Z" fill="#4F4F4F"/>
<path d="M31.317 30H0V0H31.317V30ZM1.27914 28.7187H30.0378V1.23711H1.27914V28.7187Z" fill="#4F4F4F"/>
<path d="M54.7827 15.1546C54.7827 16.8778 54.4298 18.38 53.7682 19.6613C53.1065 20.9426 52.1803 21.9587 51.1217 22.7982C50.0189 23.5935 48.7839 24.2121 47.4165 24.6097C46.0492 25.0074 44.6377 25.2283 43.138 25.2283H34.2722V24.2121C34.581 24.2121 34.9339 24.1679 35.4191 24.1237C35.9043 24.0795 36.213 23.9912 36.3453 23.947C36.6541 23.8144 36.8746 23.6377 37.007 23.3726C37.1393 23.1075 37.2275 22.8424 37.2275 22.4889V7.82031C37.2275 7.51103 37.1834 7.20176 37.0511 6.93666C36.9187 6.67156 36.6982 6.45065 36.3453 6.3181C36.0366 6.18556 35.6837 6.05301 35.3308 6.00883C34.978 5.96464 34.6692 5.92046 34.4046 5.87628V4.86008H43.7555C45.0347 4.86008 46.3138 5.03681 47.5489 5.43445C48.7839 5.83209 49.8866 6.3181 50.8129 6.98084C52.0479 7.82031 53.0624 8.96906 53.7682 10.3387C54.4298 11.6642 54.7827 13.299 54.7827 15.1546ZM51.0775 15.1546C51.0775 13.785 50.9011 12.5479 50.5041 11.4433C50.1072 10.3387 49.5779 9.3667 48.828 8.57142C48.1223 7.77613 47.2842 7.15757 46.2697 6.71575C45.2552 6.27392 44.1525 6.05301 42.9175 6.05301C42.5205 6.05301 42.0353 6.05301 41.506 6.05301C40.9767 6.05301 40.6239 6.09719 40.3592 6.09719V21.7378C40.3592 22.6215 40.6239 23.1959 41.1532 23.5493C41.6825 23.9028 42.5205 24.0353 43.6232 24.0353C44.9024 24.0353 46.0051 23.8144 46.9755 23.3726C47.9459 22.9308 48.6957 22.3564 49.3132 21.5611C49.9307 20.7658 50.3718 19.838 50.6806 18.7776C50.9452 17.7614 51.0775 16.5243 51.0775 15.1546Z" fill="#4F4F4F"/>
<path d="M72.2937 9.94108C73.0877 10.7364 73.7052 11.7084 74.1904 12.8129C74.6314 13.9617 74.852 15.1988 74.852 16.5685C74.852 17.9381 74.6315 19.1752 74.1463 20.324C73.6611 21.4727 73.0435 22.4006 72.2496 23.1959C71.4556 23.9912 70.5294 24.5655 69.4708 25.0074C68.4122 25.4492 67.3094 25.6259 66.1185 25.6259C64.8394 25.6259 63.6926 25.405 62.634 24.9632C61.5754 24.5213 60.6491 23.9028 59.8992 23.0633C59.1494 22.268 58.5319 21.296 58.0908 20.1914C57.6497 19.0869 57.4292 17.8498 57.4292 16.5685C57.4292 15.1546 57.6497 13.9175 58.1349 12.8129C58.6201 11.7084 59.2376 10.7364 60.0316 9.94108C60.8255 9.14579 61.7518 8.52724 62.8104 8.12959C63.869 7.68776 64.9717 7.51103 66.1626 7.51103C67.3536 7.51103 68.5004 7.73195 69.559 8.17377C70.6176 8.57142 71.5439 9.18997 72.2937 9.94108ZM70.397 22.2238C70.8822 21.4727 71.2351 20.6333 71.4557 19.7054C71.6762 18.7776 71.7644 17.7172 71.7644 16.5685C71.7644 15.3755 71.6321 14.271 71.4115 13.299C71.1469 12.3269 70.794 11.4433 70.3529 10.7805C69.8677 10.0736 69.2943 9.54344 68.5886 9.14579C67.8829 8.74815 67.0889 8.57142 66.1626 8.57142C65.1481 8.57142 64.266 8.79233 63.5602 9.23416C62.8545 9.67598 62.2811 10.2945 61.7959 11.0456C61.3548 11.7526 61.0461 12.592 60.8255 13.5641C60.605 14.5361 60.5168 15.5523 60.5168 16.5685C60.5168 17.7614 60.6491 18.7776 60.8696 19.7496C61.0902 20.6775 61.443 21.5169 61.9282 22.268C62.3693 22.975 62.9868 23.5493 63.6485 23.947C64.3101 24.3446 65.1922 24.5655 66.1626 24.5655C67.0889 24.5655 67.8829 24.3446 68.6327 23.947C69.3384 23.5493 69.956 22.975 70.397 22.2238Z" fill="#4F4F4F"/>
<path d="M98.4941 25.2283H90.4664V24.3446C90.7751 24.3446 91.128 24.3004 91.5691 24.2563C92.0102 24.2121 92.3189 24.1237 92.4954 24.0353C92.76 23.9028 92.9364 23.7261 93.0688 23.5051C93.2011 23.2842 93.2452 23.0633 93.2452 22.754V10.2062H93.0688L86.8936 24.9632H86.232L80.3214 9.8969H80.145V20.2356C80.145 21.2518 80.1891 22.0029 80.3214 22.5331C80.4538 23.0633 80.6743 23.4168 80.9389 23.6377C81.1154 23.8144 81.5124 23.9912 82.0858 24.1237C82.6592 24.2562 83.0561 24.3446 83.2326 24.3888V25.2725H75.9106V24.3888C76.3076 24.3446 76.7045 24.3004 77.1015 24.2121C77.5426 24.1237 77.8514 23.9912 78.0719 23.8144C78.3807 23.5935 78.5571 23.2401 78.6894 22.754C78.8217 22.268 78.8659 21.4727 78.8659 20.3682V11.4875C78.8659 10.9573 78.8217 10.5596 78.6894 10.2504C78.5571 9.94108 78.3807 9.67599 78.1601 9.45507C77.8955 9.23416 77.5867 9.05743 77.1897 8.96906C76.7928 8.8807 76.4399 8.79233 76.0429 8.79233V7.90868H82.2181L87.4229 20.8984L91.8778 10.0294C92.0543 9.6318 92.1866 9.23416 92.2748 8.79233C92.4071 8.35051 92.4512 8.08541 92.4512 7.90868H98.3618V8.79233C98.1412 8.79233 97.8325 8.83652 97.4355 8.8807C97.0385 8.92488 96.7739 9.01325 96.6415 9.05743C96.3328 9.14579 96.1564 9.32253 96.0681 9.54344C95.9799 9.76435 95.9358 10.0294 95.9358 10.2945V22.7982C95.9358 23.0633 95.9799 23.3284 96.0681 23.5051C96.1564 23.6819 96.3769 23.8586 96.6415 24.0353C96.7739 24.1237 97.0826 24.2121 97.4796 24.2563C97.8766 24.3446 98.1853 24.3446 98.4059 24.3888V25.2283H98.4941Z" fill="#4F4F4F"/>
<path d="M109.08 25.2283H100.92V24.3446C101.141 24.3446 101.493 24.3004 101.935 24.2563C102.376 24.2121 102.684 24.1679 102.861 24.1237C103.126 24.0353 103.346 23.8586 103.478 23.6819C103.611 23.5051 103.655 23.24 103.655 22.9308V10.3829C103.655 10.1178 103.611 9.85271 103.522 9.67598C103.434 9.49925 103.214 9.32252 102.861 9.18998C102.596 9.10161 102.287 9.01325 101.89 8.92488C101.493 8.83652 101.185 8.79233 100.92 8.79233V7.90868H109.08V8.79233C108.815 8.79233 108.507 8.83652 108.154 8.8807C107.801 8.92488 107.448 9.01325 107.183 9.10161C106.875 9.18998 106.654 9.36671 106.522 9.58762C106.39 9.80853 106.345 10.0294 106.345 10.3387V22.8866C106.345 23.1517 106.39 23.3726 106.522 23.5935C106.654 23.8144 106.875 23.947 107.139 24.0795C107.316 24.1237 107.625 24.2121 108.022 24.3004C108.418 24.3888 108.771 24.433 109.036 24.433V25.2283H109.08Z" fill="#4F4F4F"/>
<path d="M130.649 8.79233C130.429 8.79233 130.032 8.8807 129.546 8.96907C129.061 9.10161 128.708 9.23416 128.488 9.36671C128.179 9.58762 127.959 9.94108 127.87 10.5596C127.782 11.1782 127.694 11.8851 127.694 12.7688V25.4492H126.591L115.564 11.2224V20.1473C115.564 21.1635 115.608 21.9146 115.741 22.4448C115.873 22.975 116.093 23.3726 116.358 23.5935C116.534 23.7702 116.976 23.947 117.593 24.0795C118.211 24.2121 118.608 24.3004 118.828 24.3446V25.2283H111.374V24.3446C111.594 24.3446 111.991 24.2563 112.521 24.1237C113.05 23.9912 113.403 23.8586 113.535 23.7261C113.844 23.5051 114.02 23.1517 114.153 22.6657C114.285 22.1797 114.329 21.3844 114.329 20.2798V11.7526C114.329 11.3991 114.241 11.0015 114.109 10.648C113.976 10.2945 113.8 9.98527 113.579 9.76435C113.27 9.49926 112.873 9.27834 112.344 9.05743C111.815 8.8807 111.374 8.74815 111.065 8.74815V7.8645H116.27L126.459 21.0751V12.8571C126.459 11.8409 126.371 11.0898 126.238 10.5155C126.106 9.98527 125.885 9.6318 125.665 9.45507C125.444 9.32253 125.047 9.1458 124.474 9.01325C123.945 8.8807 123.504 8.79234 123.239 8.74815V7.8645H130.605V8.79233H130.649Z" fill="#4F4F4F"/>
<path d="M140.75 25.2283H132.59V24.3446C132.81 24.3446 133.163 24.3004 133.604 24.2563C134.045 24.2121 134.354 24.1679 134.531 24.1237C134.795 24.0353 135.016 23.8586 135.148 23.6819C135.281 23.5051 135.325 23.24 135.325 22.9308V10.3829C135.325 10.1178 135.281 9.85271 135.192 9.67598C135.104 9.49925 134.884 9.32252 134.531 9.18998C134.266 9.10161 133.957 9.01325 133.56 8.92488C133.163 8.83652 132.855 8.79233 132.59 8.79233V7.90868H140.75V8.79233C140.485 8.79233 140.177 8.83652 139.824 8.8807C139.471 8.92488 139.118 9.01325 138.853 9.10161C138.545 9.18998 138.324 9.36671 138.192 9.58762C138.059 9.80853 138.015 10.0294 138.015 10.3387V22.8866C138.015 23.1517 138.059 23.3726 138.192 23.5935C138.324 23.8144 138.545 23.947 138.809 24.0795C138.986 24.1237 139.294 24.2121 139.691 24.3004C140.088 24.3888 140.441 24.433 140.706 24.433V25.2283H140.75Z" fill="#4F4F4F"/>
<path d="M157.07 9.94108C157.864 10.7364 158.482 11.7084 158.967 12.8129C159.408 13.9617 159.628 15.1988 159.628 16.5685C159.628 17.9381 159.408 19.1752 158.923 20.324C158.437 21.4727 157.82 22.4006 157.026 23.1959C156.232 23.9912 155.306 24.5655 154.247 25.0074C153.189 25.4492 152.086 25.6259 150.895 25.6259C149.616 25.6259 148.469 25.405 147.41 24.9632C146.352 24.5213 145.425 23.9028 144.676 23.0633C143.926 22.268 143.308 21.296 142.867 20.1914C142.426 19.0869 142.206 17.8498 142.206 16.5685C142.206 15.1546 142.426 13.9175 142.911 12.8129C143.397 11.7084 144.014 10.7364 144.808 9.94108C145.602 9.14579 146.528 8.52724 147.587 8.12959C148.645 7.68776 149.748 7.51103 150.939 7.51103C152.13 7.51103 153.277 7.73195 154.335 8.17377C155.35 8.57142 156.276 9.18997 157.07 9.94108ZM155.129 22.2238C155.615 21.4727 155.967 20.6333 156.188 19.7054C156.408 18.7776 156.497 17.7172 156.497 16.5685C156.497 15.3755 156.364 14.271 156.144 13.299C155.879 12.3269 155.526 11.4433 155.085 10.7805C154.6 10.0736 154.027 9.54344 153.321 9.14579C152.615 8.74815 151.821 8.57142 150.895 8.57142C149.88 8.57142 148.998 8.79233 148.293 9.23416C147.587 9.67598 147.013 10.2945 146.528 11.0456C146.087 11.7526 145.778 12.592 145.558 13.5641C145.337 14.5361 145.249 15.5523 145.249 16.5685C145.249 17.7614 145.381 18.7776 145.602 19.7496C145.822 20.6775 146.175 21.5169 146.661 22.268C147.102 22.975 147.719 23.5493 148.381 23.947C149.042 24.3446 149.925 24.5655 150.895 24.5655C151.821 24.5655 152.615 24.3446 153.365 23.947C154.071 23.5493 154.688 22.975 155.129 22.2238Z" fill="#4F4F4F"/>
<path d="M180.051 8.79233C179.83 8.79233 179.433 8.8807 178.948 8.96907C178.463 9.10161 178.11 9.23416 177.889 9.36671C177.581 9.58762 177.36 9.94108 177.272 10.5596C177.184 11.134 177.095 11.8851 177.095 12.7688V25.4492H175.993L165.01 11.2666V20.1915C165.01 21.2077 165.054 21.9588 165.186 22.4889C165.318 23.0191 165.539 23.4168 165.804 23.6377C165.98 23.8144 166.421 23.9912 167.039 24.1237C167.656 24.2563 168.053 24.3446 168.274 24.3888V25.2725H160.819V24.3888C161.04 24.3888 161.437 24.3004 161.966 24.1679C162.495 24.0353 162.848 23.9028 162.981 23.7702C163.289 23.5493 163.466 23.1959 163.598 22.7099C163.731 22.2239 163.775 21.4286 163.775 20.324V11.7526C163.775 11.3991 163.686 11.0015 163.554 10.648C163.422 10.2945 163.245 9.98527 163.025 9.76435C162.716 9.49926 162.319 9.27834 161.79 9.05743C161.26 8.8807 160.819 8.74815 160.511 8.74815V7.8645H165.715L175.904 21.0751V12.8571C175.904 11.8409 175.816 11.0898 175.684 10.5155C175.552 9.98527 175.331 9.6318 175.11 9.45507C174.89 9.32253 174.493 9.1458 173.92 9.01325C173.346 8.8807 172.949 8.79234 172.685 8.74815V7.8645H180.051V8.79233Z" fill="#4F4F4F"/>
<path d="M200.252 10.3829H199.194C199.105 10.0294 198.929 9.6318 198.708 9.14579C198.488 8.65978 198.223 8.21796 197.915 7.82031C197.606 7.37849 197.297 6.98084 196.944 6.67156C196.591 6.36229 196.238 6.14137 195.93 6.09719C195.621 6.05301 195.224 6.00883 194.739 6.00883C194.254 6.00883 193.812 5.96464 193.415 5.96464H192.533V22.268C192.533 22.5773 192.622 22.8866 192.754 23.1517C192.886 23.4168 193.151 23.6377 193.504 23.7702C193.68 23.8586 194.077 23.947 194.65 24.0353C195.224 24.1679 195.665 24.2121 196.018 24.2121V25.2283H185.917V24.2121C186.182 24.2121 186.623 24.1679 187.196 24.0795C187.77 24.0353 188.167 23.947 188.387 23.8586C188.74 23.7261 188.96 23.5493 189.137 23.3284C189.313 23.1075 189.357 22.7982 189.357 22.4006V5.96464H188.475C188.167 5.96464 187.77 5.96464 187.329 5.96464C186.887 5.96464 186.446 6.00883 186.005 6.05301C185.652 6.09719 185.344 6.27392 184.991 6.62738C184.638 6.98084 184.285 7.3343 184.02 7.77613C183.712 8.21796 183.447 8.65978 183.226 9.14579C183.006 9.6318 182.829 10.0294 182.741 10.3387H181.683V4.86008H200.252V10.3829Z" fill="#4F4F4F"/>
<path d="M221.292 25.2283H213.749V24.3446C213.97 24.3446 214.235 24.3004 214.632 24.2562C215.029 24.2121 215.293 24.1679 215.426 24.1237C215.69 24.0353 215.867 23.8586 215.999 23.6819C216.131 23.461 216.175 23.24 216.175 22.8866V16.7452H207.662V22.754C207.662 23.0191 207.707 23.2842 207.795 23.461C207.883 23.6377 208.104 23.8144 208.368 23.9912C208.501 24.0795 208.765 24.1237 209.162 24.2121C209.515 24.3004 209.824 24.3446 210.044 24.3446V25.2283H202.502V24.3446C202.722 24.3446 202.987 24.3004 203.384 24.2562C203.781 24.2121 204.046 24.1679 204.178 24.1237C204.443 24.0353 204.619 23.8586 204.751 23.6819C204.884 23.461 204.928 23.24 204.928 22.8866V10.4271C204.928 10.162 204.884 9.94108 204.751 9.72016C204.619 9.49925 204.443 9.32252 204.178 9.23416C203.957 9.14579 203.649 9.01324 203.34 8.96906C203.031 8.92488 202.722 8.83651 202.502 8.83651V7.95286H210.044V8.83651C209.824 8.83651 209.515 8.8807 209.162 8.92488C208.809 8.96906 208.545 9.05743 208.368 9.10161C208.059 9.18997 207.883 9.3667 207.795 9.58762C207.707 9.80853 207.662 10.0736 207.662 10.3387V15.729H216.175V10.4271C216.175 10.162 216.131 9.94108 215.999 9.72016C215.867 9.49925 215.69 9.32252 215.426 9.23416C215.205 9.14579 214.896 9.01324 214.588 8.96906C214.279 8.92488 213.97 8.83651 213.749 8.83651V7.95286H221.292V8.83651C221.071 8.83651 220.763 8.8807 220.41 8.92488C220.057 8.96906 219.792 9.05743 219.616 9.10161C219.307 9.18997 219.131 9.3667 219.042 9.58762C218.954 9.80853 218.91 10.0736 218.91 10.3387V22.8424C218.91 23.1075 218.954 23.3726 219.042 23.5493C219.131 23.7261 219.351 23.9028 219.616 24.0795C219.748 24.1679 220.013 24.2121 220.41 24.3004C220.763 24.3888 221.071 24.433 221.292 24.433V25.2283Z" fill="#4F4F4F"/>
<path d="M239.2 20.1031L238.847 25.1841H223.762V24.3004C224.027 24.3004 224.38 24.2562 224.777 24.2121C225.174 24.1679 225.482 24.1237 225.615 24.0353C225.879 23.9028 226.056 23.7702 226.188 23.5493C226.276 23.3726 226.364 23.1075 226.364 22.7982V10.4271C226.364 10.162 226.32 9.94108 226.232 9.72017C226.144 9.49925 225.923 9.32252 225.659 9.23416C225.438 9.14579 225.129 9.01324 224.732 8.96906C224.335 8.92488 224.027 8.83651 223.806 8.83651V7.95286H237.833V12.106H236.862C236.686 11.4875 236.333 10.8247 235.76 10.1178C235.186 9.41089 234.657 9.05743 234.128 8.96906C233.863 8.92488 233.554 8.92488 233.201 8.8807C232.848 8.8807 232.407 8.83651 231.966 8.83651H229.099V15.729H231.128C231.79 15.729 232.275 15.6848 232.584 15.5523C232.892 15.4197 233.157 15.243 233.378 14.9779C233.554 14.757 233.731 14.4477 233.863 14.0501C233.995 13.6524 234.083 13.299 234.128 12.9455H235.098V19.7496H234.128C234.083 19.352 233.995 18.9543 233.863 18.5125C233.731 18.0707 233.554 17.7614 233.378 17.5847C233.113 17.2754 232.804 17.0545 232.496 16.9661C232.187 16.8778 231.702 16.8336 231.172 16.8336H229.143V22.0029C229.143 22.5331 229.187 22.9308 229.276 23.24C229.364 23.5493 229.496 23.7702 229.717 23.9028C229.937 24.0353 230.246 24.1679 230.643 24.2121C231.04 24.2562 231.569 24.3004 232.275 24.3004C232.54 24.3004 232.937 24.3004 233.378 24.3004C233.819 24.3004 234.216 24.3004 234.525 24.2563C234.833 24.2121 235.186 24.1679 235.539 24.0795C235.892 23.9912 236.112 23.8586 236.289 23.7261C236.686 23.3284 237.083 22.754 237.524 21.9588C237.965 21.1635 238.23 20.5891 238.362 20.1914H239.2V20.1031Z" fill="#4F4F4F"/>
<path d="M259.181 25.2283H251.639V24.3446C252.3 24.3004 252.874 24.2121 253.315 24.0795C253.756 23.947 253.976 23.8144 253.976 23.6377C253.976 23.5493 253.976 23.461 253.932 23.3726C253.932 23.2842 253.888 23.1517 253.844 23.1075L252.344 19.2194H245.993C245.772 19.7938 245.552 20.2798 245.419 20.7216C245.287 21.1635 245.155 21.5169 245.022 21.9146C244.89 22.268 244.846 22.5331 244.802 22.754C244.758 22.9749 244.758 23.1517 244.758 23.2842C244.758 23.5935 245.022 23.8586 245.552 24.0353C246.081 24.2121 246.698 24.3004 247.36 24.3446V25.2283H240.523V24.3446C240.744 24.3446 241.008 24.3004 241.361 24.2121C241.714 24.1237 241.979 24.0353 242.199 23.9028C242.552 23.6819 242.817 23.461 242.993 23.1959C243.17 22.9749 243.346 22.6215 243.523 22.1797C244.449 20.0147 245.419 17.5847 246.522 14.8453C247.625 12.1502 248.595 9.72016 249.477 7.5994H250.492L256.535 22.5331C256.667 22.8424 256.799 23.1075 256.976 23.2842C257.152 23.461 257.373 23.6819 257.637 23.8586C257.814 23.9911 258.078 24.0795 258.387 24.1237C258.696 24.2121 258.961 24.2562 259.181 24.2562V25.2283ZM251.903 18.159L249.169 11.4433L246.478 18.159H251.903Z" fill="#4F4F4F"/>
<path d="M273.384 12.592C273.296 12.2828 273.164 11.9735 272.987 11.5317C272.767 11.134 272.546 10.7364 272.325 10.3829C272.061 10.0294 271.796 9.67598 271.487 9.41089C271.179 9.14579 270.87 8.96906 270.605 8.92488C270.341 8.8807 269.988 8.8807 269.591 8.83652C269.194 8.83652 268.797 8.79233 268.488 8.79233H267.738V22.6215C267.738 22.8866 267.782 23.1517 267.915 23.3726C268.047 23.5935 268.223 23.7702 268.532 23.9028C268.664 23.947 269.017 24.0353 269.503 24.1237C269.988 24.2121 270.385 24.2562 270.649 24.3004V25.1841H262.092V24.3004C262.313 24.3004 262.71 24.2562 263.195 24.2121C263.68 24.1679 264.033 24.1237 264.21 24.0353C264.474 23.947 264.695 23.7702 264.827 23.5935C264.959 23.3726 265.003 23.1075 265.003 22.7982V8.83652H264.254C263.989 8.83652 263.68 8.83652 263.283 8.83652C262.886 8.83652 262.533 8.8807 262.136 8.92488C261.872 8.96906 261.563 9.10161 261.254 9.41089C260.945 9.72017 260.681 10.0294 260.416 10.3829C260.151 10.7364 259.931 11.134 259.755 11.5317C259.578 11.9293 259.402 12.2828 259.358 12.5479H258.475V7.90868H274.31V12.592H273.384Z" fill="#4F4F4F"/>
<path d="M289.087 25.2283C287.984 23.5935 287.014 22.2239 286.175 21.0309C285.293 19.838 284.367 18.6451 283.353 17.3638H281.5V22.8424C281.5 23.1075 281.544 23.3726 281.632 23.5935C281.721 23.8144 281.941 23.9912 282.25 24.0795C282.382 24.1237 282.691 24.1679 283.044 24.2563C283.397 24.3446 283.75 24.3446 284.014 24.3446V25.2283H276.339V24.3446C276.56 24.3446 276.824 24.3004 277.221 24.2563C277.618 24.2121 277.883 24.1679 278.015 24.0795C278.28 23.9912 278.456 23.8144 278.589 23.6377C278.721 23.4168 278.765 23.1959 278.765 22.8424V10.3387C278.765 10.0736 278.721 9.80854 278.633 9.58762C278.545 9.36671 278.368 9.18998 278.015 9.10161C277.795 9.01325 277.53 8.96907 277.177 8.8807C276.824 8.79234 276.56 8.79234 276.295 8.74815V7.8645H284.676C285.426 7.8645 286.175 7.95287 286.837 8.08541C287.499 8.21796 288.116 8.48306 288.646 8.79233C289.175 9.10161 289.616 9.54344 289.925 10.0736C290.233 10.6038 290.41 11.2224 290.41 11.9735C290.41 12.6362 290.322 13.2106 290.101 13.7408C289.881 14.271 289.572 14.7128 289.175 15.0663C288.778 15.4197 288.337 15.729 287.807 15.9941C287.278 16.2592 286.661 16.4801 286.043 16.6568C286.925 17.8056 287.675 18.7334 288.293 19.5287C288.866 20.324 289.616 21.2518 290.454 22.3564C290.807 22.8424 291.16 23.1959 291.468 23.4168C291.777 23.6377 292.086 23.8586 292.351 23.9912C292.571 24.0795 292.836 24.1679 293.189 24.2563C293.542 24.3446 293.806 24.3446 294.027 24.3446V25.2283H289.087ZM287.278 12.3269C287.278 11.2666 286.969 10.4271 286.352 9.85272C285.734 9.23416 284.808 8.92488 283.661 8.92488H281.5V16.3476H283.176C284.367 16.3476 285.337 15.9941 286.131 15.2872C286.881 14.5361 287.278 13.5641 287.278 12.3269Z" fill="#4F4F4F"/>
<path d="M311.053 20.1031L310.7 25.1841H295.615V24.3004C295.879 24.3004 296.232 24.2562 296.629 24.2121C297.026 24.1679 297.335 24.1237 297.467 24.0353C297.732 23.9028 297.908 23.7702 298.041 23.5493C298.129 23.3726 298.217 23.1075 298.217 22.7982V10.4271C298.217 10.162 298.173 9.94108 298.085 9.72017C297.997 9.49925 297.776 9.32252 297.511 9.23416C297.291 9.14579 296.982 9.01324 296.585 8.96906C296.188 8.92488 295.879 8.83651 295.659 8.83651V7.95286H309.685V12.106H308.715C308.538 11.4875 308.186 10.8247 307.612 10.1178C307.039 9.41089 306.509 9.05743 305.98 8.96906C305.715 8.92488 305.407 8.92488 305.054 8.8807C304.701 8.8807 304.26 8.83651 303.819 8.83651H300.952V15.729H302.981C303.642 15.729 304.128 15.6848 304.436 15.5523C304.745 15.4197 305.01 15.243 305.23 14.9779C305.407 14.757 305.583 14.4477 305.715 14.0501C305.848 13.6524 305.936 13.299 305.98 12.9455H306.951V19.7496H305.98C305.936 19.352 305.848 18.9543 305.715 18.5125C305.583 18.0707 305.407 17.7614 305.23 17.5847C304.966 17.2754 304.657 17.0545 304.348 16.9661C304.039 16.8778 303.554 16.8336 303.025 16.8336H300.996V22.0029C300.996 22.5331 301.04 22.9308 301.128 23.24C301.216 23.5493 301.349 23.7702 301.569 23.9028C301.79 24.0353 302.099 24.1679 302.496 24.2121C302.893 24.2562 303.422 24.3004 304.128 24.3004C304.392 24.3004 304.789 24.3004 305.23 24.3004C305.671 24.3004 306.068 24.3004 306.377 24.2563C306.686 24.2121 307.039 24.1679 307.392 24.0795C307.744 23.9912 307.965 23.8586 308.141 23.7261C308.538 23.3284 308.935 22.754 309.376 21.9588C309.818 21.1635 310.082 20.5891 310.215 20.1914H311.053V20.1031Z" fill="#4F4F4F"/>
</svg>
