<svg width="285" height="69" viewBox="0 0 285 69" fill="none" xmlns="http://www.w3.org/2000/svg">
<path d="M221.716 8.38763L218.963 65.1252L256.334 62.988L252.083 11.2911L221.716 8.38763Z" fill="black"/>
<path d="M93.0024 8.54898L92.719 59.0361L117.62 60.4072L118.834 7.17792L93.0024 8.54898Z" fill="#EB7EAF"/>
<path d="M154.91 9.03284L154.221 67.7867L190.783 68.5932L191.674 5.80682L154.91 9.03284Z" fill="#269DDF"/>
<path d="M35.2253 4.59711L67.3329 7.54085L69.7622 59.3588L33.9297 60.0443L35.2253 4.59711Z" fill="#EE741F"/>
<path d="M37.6951 42.5834C37.6951 34.5184 43.0801 29.639 54.7003 30.1229C54.7003 30.1229 54.7003 29.1955 54.6598 28.4696C54.4979 24.4371 53.4857 22.5015 51.2993 22.5015C48.9914 22.5015 47.8577 24.7194 47.6958 28.389C47.6958 28.389 44.2542 28.3083 38.8692 28.1067C39.1122 20.1223 43.8089 14.6381 51.5017 14.6381C60.4092 14.6381 64.1342 20.1223 64.2961 29.881C64.5391 41.8173 64.3366 52.7454 64.3366 52.7454C64.3366 52.7454 61.5024 52.7454 56.6438 52.826C56.6438 52.826 56.8057 50.6082 56.8867 47.1402C55.1052 51.1727 51.4207 52.826 47.6553 52.826C41.663 52.9067 37.6951 48.9548 37.6951 42.5834ZM55.1457 35.6878C49.2748 35.4862 47.2099 38.1477 47.2099 41.4543C47.2099 43.9545 48.3841 45.4869 50.5705 45.4869C52.9593 45.4869 55.1457 43.6319 55.1457 37.0589V35.6878Z" fill="white"/>
<path d="M74.3777 6.04878C74.3777 2.29854 76.4021 0 80.289 0C84.2164 0 86.0384 2.50016 86.0384 6.04878C86.0384 9.63773 84.2569 12.2992 80.289 12.2992C76.3211 12.2992 74.3777 10.162 74.3777 6.04878ZM75.4709 15.7672C75.4709 15.7672 78.9529 15.8478 84.9452 15.6865C84.9452 15.6865 84.9047 32.0989 85.1072 51.6566C85.1072 51.6566 81.0583 51.576 75.6328 51.7373C75.6328 51.7373 75.6733 42.1802 75.4709 15.7672Z" fill="black"/>
<path d="M96.363 16.2511C96.363 16.2511 98.7924 16.3317 104.177 16.1704C104.177 16.1704 104.056 18.9932 104.056 22.5822C105.878 17.6222 110.21 14.5171 115.19 14.88C115.19 14.88 115.028 18.7109 114.907 25.8082C108.267 26.3727 106.08 29.6794 105.878 38.3493C105.756 43.7529 105.999 51.818 105.999 51.818C105.999 51.818 102.801 51.818 96.4035 51.8986C96.444 51.8986 96.525 33.6716 96.363 16.2511Z" fill="black"/>
<path d="M196.775 16.2511C196.775 16.2511 199.204 16.3317 204.589 16.1704C204.589 16.1704 204.468 18.9932 204.468 22.5822C206.29 17.6222 210.622 14.5171 215.602 14.88C215.602 14.88 215.44 18.7109 215.319 25.8082C208.679 26.3727 206.492 29.6794 206.29 38.3493C206.169 43.7529 206.411 51.818 206.411 51.818C206.411 51.818 203.213 51.818 196.816 51.8986C196.856 51.8986 196.937 33.6716 196.775 16.2511Z" fill="black"/>
<path d="M123.369 38.9945L132.398 39.1961C132.439 43.4303 133.937 45.3659 136.771 45.3659C138.674 45.3659 140.01 44.1964 140.01 42.0592C140.01 39.9623 138.957 38.6719 133.329 37.0992C126.689 35.2442 123.734 31.5746 123.734 25.2436C123.734 18.8319 128.187 14.2348 135.961 14.2348C144.423 14.2348 148.715 20.1223 148.837 28.3486C148.837 28.3486 145.638 28.268 140.131 28.5099C140.091 24.7597 138.714 22.3402 136.164 22.3402C133.896 22.3402 132.884 23.8322 132.884 25.5259C132.884 27.8244 134.18 29.1955 139.16 30.7278C147.096 33.107 149.241 36.4137 149.241 41.8979C149.241 49.8823 143.856 53.4309 136.811 53.4309C128.592 53.3099 123.45 48.7935 123.369 38.9945Z" fill="#183A86"/>
<path d="M158.918 16.1301C161.631 16.2108 167.178 16.0495 167.178 16.0495C167.137 18.227 167.056 19.3561 167.056 20.7272C168.878 16.9769 171.915 14.6784 175.964 14.6784C183.333 14.6784 187.422 23.187 187.422 33.8732C187.422 46.4144 182.685 52.6648 175.923 52.6648C172.765 52.6648 169.931 51.2131 168.271 48.1887C168.271 57.7861 168.878 63.23 168.878 63.23C164.506 63.0283 158.959 63.3106 158.959 63.3106C159.121 38.3896 158.918 16.1301 158.918 16.1301ZM177.381 33.8329C177.381 26.413 175.842 22.2999 173.008 22.2999C170.053 22.2999 168.514 26.3324 168.514 33.8329C168.514 41.7366 169.931 45.3659 173.089 45.3659C175.883 45.3256 177.381 41.9383 177.381 33.8329Z" fill="white"/>
<path d="M223.214 42.5834C223.214 34.5184 228.599 29.639 240.219 30.1229C240.219 30.1229 240.219 29.1955 240.179 28.4696C240.017 24.4371 239.005 22.5015 236.818 22.5015C234.51 22.5015 233.377 24.7194 233.215 28.389C233.215 28.389 229.773 28.3083 224.388 28.1067C224.631 20.1223 229.287 14.6381 237.021 14.6381C245.928 14.6381 249.653 20.1223 249.815 29.881C250.058 41.8173 249.856 52.7454 249.856 52.7454C249.856 52.7454 247.021 52.7454 242.163 52.826C242.163 52.826 242.325 50.6082 242.406 47.1402C240.624 51.1727 236.94 52.826 233.174 52.826C227.182 52.9067 223.214 48.9548 223.214 42.5834ZM240.665 35.6878C234.794 35.4862 232.729 38.1477 232.729 41.4543C232.729 43.9545 233.903 45.4869 236.09 45.4869C238.478 45.4869 240.665 43.6319 240.665 37.0589V35.6878Z" fill="white"/>
<path d="M0 2.94375C0 2.94375 3.32007 2.94375 9.75778 2.8631C9.75778 2.8631 9.55533 10.162 9.63631 20.2836C11.3773 16.6947 14.333 14.2751 18.4224 14.2751C23.9693 14.2751 26.8845 19.1545 27.1274 26.9373C27.4513 39.5994 27.1679 54.681 27.1679 54.681C27.1679 54.681 23.3215 54.5197 17.3697 54.5197C17.3697 54.5197 17.6126 41.7366 17.4506 30.2843C17.3292 26.6147 16.6004 24.679 14.3735 24.679C11.5798 24.679 10.1222 28.0664 10.0412 32.5425C9.91973 41.535 10.0412 51.576 10.0412 51.576C10.0412 51.576 6.15428 51.4953 0.0404887 51.6566C0 51.6566 0.242932 30.7278 0 2.94375Z" fill="#D70F82"/>
<path d="M285 42.3818C284.757 19.5981 285 11.412 285 11.412C279.412 11.533 275.849 11.4927 275.849 11.4927C275.849 11.4927 275.971 18.5093 275.849 25.8888C275.809 29.5584 274.432 32.3408 271.882 32.3408C269.857 32.3408 269.169 30.7278 269.047 27.7438C268.885 18.348 269.088 13.9929 269.088 13.9929C263.581 13.9929 260.099 13.8719 260.099 13.8719C260.099 13.8719 259.856 20.1223 260.14 30.5262C260.383 36.8976 263.015 40.9301 268.116 40.9301C271.841 40.9301 274.554 38.9542 276.133 36.0104C276.173 39.0752 276.133 40.0833 276.133 42.4221V44.2368C276.133 48.7935 275.04 49.6 272.934 49.8017C270.991 50.0033 269.614 48.7935 269.007 45.2449L260.302 44.6804C260.302 44.761 260.302 45.7288 260.302 45.8095C261.193 54.3181 265.565 58.6732 273.663 57.907C281.153 57.1812 284.676 53.7535 284.959 44.2368L285 42.3818Z" fill="#4C378F"/>
</svg>
