<svg width="449" height="78" viewBox="0 0 449 78" fill="none" xmlns="http://www.w3.org/2000/svg">
<path d="M4.75327 29.1986H19.4658V33.7256H0V0.452697H4.75327V29.1986Z" fill="black"/>
<path d="M38.9315 0C48.4381 0 55.4548 7.46942 55.4548 17.2023C55.4548 26.9352 48.2117 34.4046 38.9315 34.4046C29.6514 34.4046 22.4083 26.9352 22.4083 17.2023C22.4083 7.46942 29.6514 0 38.9315 0ZM38.9315 29.6513C45.7219 29.6513 50.7015 24.219 50.7015 16.976C50.7015 9.73288 45.7219 4.30058 38.9315 4.30058C32.1412 4.30058 27.1615 9.95923 27.1615 17.2023C27.1615 24.4454 32.1412 29.6513 38.9315 29.6513Z" fill="black"/>
<path d="M66.3192 9.28019V33.7256H61.5659V0.452697H64.9611L84.8796 24.8981V0.452697H89.6328V33.7256H86.2376L66.3192 9.28019Z" fill="black"/>
<path d="M97.3288 0.452697H107.288C112.494 0.452697 115.889 1.58443 118.605 3.62154C122.68 6.56404 125.169 11.5437 125.169 17.2023C125.169 22.861 122.68 27.6142 118.605 30.7831C115.889 32.8202 112.494 33.9519 107.062 33.9519H97.3288V0.452697ZM116.795 7.69577C114.757 5.885 112.041 4.97962 107.288 4.97962H102.308V29.1986H107.288C112.041 29.1986 114.757 28.2933 116.795 26.4825C119.284 24.219 120.869 20.8238 120.869 17.2023C120.869 13.5808 119.284 9.95923 116.795 7.69577Z" fill="black"/>
<path d="M147.125 0C156.632 0 163.648 7.46942 163.648 17.2023C163.648 26.9352 156.405 34.4046 147.125 34.4046C137.845 34.4046 130.602 26.9352 130.602 17.2023C130.602 7.46942 137.619 0 147.125 0ZM147.125 29.6513C153.915 29.6513 158.895 24.219 158.895 16.976C158.895 9.95923 153.915 4.52692 147.125 4.52692C140.335 4.52692 135.355 9.95923 135.355 17.2023C135.129 24.4454 140.335 29.6513 147.125 29.6513Z" fill="black"/>
<path d="M174.513 9.28019V33.7256H169.759V0.452697H173.155L193.073 24.8981V0.452697H197.826V33.7256H194.431L174.513 9.28019Z" fill="black"/>
<path d="M235.173 0C239.927 0 244.454 2.03711 247.396 5.20596L244.227 8.3748C242.19 6.33769 238.795 4.52692 235.173 4.52692C228.383 4.52692 223.177 9.95923 223.177 17.2023C223.177 24.6717 228.609 29.8777 235.626 29.8777C240.153 29.8777 243.322 27.3879 245.133 25.1244L248.528 28.0669C245.585 31.6884 240.832 34.1783 235.626 34.1783C225.667 34.1783 218.424 26.9352 218.424 16.976C218.424 7.46942 225.667 0 235.173 0Z" fill="black"/>
<path d="M268.899 0C278.406 0 285.422 7.46942 285.422 17.2023C285.422 26.9352 278.179 34.4046 268.899 34.4046C259.619 34.4046 252.376 26.9352 252.376 17.2023C252.376 7.46942 259.393 0 268.899 0ZM268.899 29.6513C275.69 29.6513 280.669 24.219 280.669 16.976C280.669 9.73288 275.69 4.30058 268.899 4.30058C262.109 4.30058 257.129 9.73288 257.129 16.976C256.903 24.4454 262.109 29.6513 268.899 29.6513Z" fill="black"/>
<path d="M296.061 29.1986H310.773V33.7256H291.307V0.452697H296.061V29.1986Z" fill="black"/>
<path d="M317.111 0.452697H321.864V33.7256H317.111V0.452697Z" fill="black"/>
<path d="M331.597 25.3508C333.634 27.6142 336.35 29.6513 339.746 29.6513C342.914 29.6513 345.631 27.6142 345.631 24.6717C345.631 19.6921 338.614 19.0131 334.087 16.0706C331.823 14.4861 329.786 12.2227 329.786 8.8275C329.786 4.07423 334.087 0 339.972 0C344.272 0 347.215 1.81077 348.799 3.39519L345.857 6.79038C344.046 5.20596 342.009 4.52692 339.972 4.52692C337.256 4.52692 334.54 6.11134 334.54 9.05384C334.54 13.3544 341.556 14.2598 345.857 16.976C348.12 18.5604 350.157 20.8238 350.157 24.6717C350.157 30.5567 345.631 34.4046 339.746 34.4046C335.219 34.4046 331.144 32.3675 328.202 28.7459L331.597 25.3508Z" fill="black"/>
<path d="M372.113 13.5808V18.1077H361.248V29.1986H375.961V33.7256H356.495V0.452697H375.508V4.97962H361.248V13.5808H372.113Z" fill="black"/>
<path d="M385.467 29.8777C383.43 27.6142 382.072 24.4454 382.072 19.9185V0.452697H386.825V20.1448C386.825 23.3136 387.504 25.1244 388.862 26.7088C390.447 28.5196 392.937 29.6513 395.879 29.6513C398.822 29.6513 401.085 28.5196 402.896 26.7088C404.254 25.1244 404.933 23.3136 404.933 20.1448V0.452697H409.686V19.9185C409.686 24.4454 408.328 27.3879 406.291 29.8777C403.801 32.5938 399.953 34.1783 395.879 34.1783C391.805 34.1783 387.957 32.5938 385.467 29.8777Z" fill="black"/>
<path d="M433.905 26.7088H430.51L420.777 11.3173V33.7256H416.024V0.452697H419.419L432.321 20.8238L445.223 0.452697H448.618V33.7256H443.638V11.3173L433.905 26.7088Z" fill="black"/>
<path d="M14.4861 59.9817H2.9425V69.7146H0V49.1171H2.9425V57.2656H14.4861V49.1171H17.4286V69.7146H14.4861V59.9817Z" fill="black"/>
<path d="M28.5197 55.6812C32.5939 55.6812 35.7628 58.85 35.7628 62.9242C35.7628 66.9985 32.5939 70.1673 28.5197 70.1673C24.4454 70.1673 21.2766 66.9985 21.2766 62.9242C21.5029 58.85 24.4454 55.6812 28.5197 55.6812ZM28.5197 67.4511C31.0095 67.4511 32.8203 65.414 32.8203 62.9242C32.8203 60.4344 31.0095 58.3973 28.5197 58.3973C26.0299 58.3973 24.2191 60.4344 24.2191 62.9242C24.2191 65.414 26.0299 67.4511 28.5197 67.4511Z" fill="black"/>
<path d="M42.3266 55.9075V57.2656C42.7793 56.5865 44.5901 55.6812 46.4009 55.6812C48.438 55.6812 50.2487 56.5865 51.3805 57.9446C52.7385 56.5865 54.0966 55.6812 56.5864 55.6812C58.6235 55.6812 60.4343 56.5865 61.566 57.9446C62.4714 59.0763 62.9241 60.4344 62.9241 62.6979V69.7146H60.208V62.2452C60.208 60.8871 59.9816 59.9817 59.3026 59.529C58.6235 58.85 57.7182 58.3973 56.8128 58.3973C54.7757 58.3973 53.4176 59.529 52.5122 60.4344C52.7385 61.1135 52.7385 62.0188 52.7385 62.9242V69.941H49.796V62.4715C49.796 61.1135 49.5697 60.2081 48.8907 59.7554C48.2116 59.0763 47.3062 58.6237 46.1745 58.6237C44.3637 58.6237 43.0057 59.7554 42.3266 60.6608V70.1673H39.6105V56.3602H42.3266V55.9075Z" fill="black"/>
<path d="M68.809 63.377C69.0354 65.6404 70.8462 67.4512 73.336 67.4512C75.3731 67.4512 76.5048 66.5458 77.4102 65.6404L79.221 67.4512C78.0892 68.8093 76.2785 69.941 73.336 69.941C69.2617 69.941 66.0929 66.7722 66.0929 62.698C66.0929 58.6237 68.809 55.4549 72.8833 55.4549C76.7312 55.4549 79.4473 58.6237 79.4473 62.698C79.4473 62.9243 79.4473 62.9243 79.4473 63.377H68.809ZM69.0354 61.1135H76.5048C76.0521 59.3028 74.4677 58.171 72.8833 58.171C71.2988 58.171 69.4881 59.3028 69.0354 61.1135Z" fill="black"/>
<path d="M98.4607 55.6812C102.535 55.6812 105.704 58.85 105.704 62.9242C105.704 66.9985 102.535 70.1673 98.4607 70.1673C94.3864 70.1673 91.2176 66.9985 91.2176 62.9242C91.444 58.85 94.3864 55.6812 98.4607 55.6812ZM98.4607 67.4511C100.95 67.4511 102.761 65.414 102.761 62.9242C102.761 60.4344 100.95 58.3973 98.4607 58.3973C95.9709 58.3973 94.1601 60.4344 94.1601 62.9242C94.1601 65.414 95.9709 67.4511 98.4607 67.4511Z" fill="black"/>
<path d="M117.247 51.3806C117.021 51.3806 116.568 51.1542 116.116 51.1542C115.21 51.1542 114.531 51.6069 114.078 52.0596C113.626 52.5123 113.626 53.1914 113.626 54.5494V55.9075H117.926V58.3973H113.626V69.7146H110.91V58.3973H107.741V55.9075H110.91V54.7758C110.91 52.965 111.136 51.8333 111.815 50.9279C112.72 49.5698 114.531 48.6644 116.342 48.6644C117.021 48.6644 117.7 48.6644 117.926 48.8908L117.247 51.3806Z" fill="black"/>
<path d="M140.335 57.2656V59.9817H133.544V66.9985H142.598V69.7146H130.602V49.1171H142.372V52.0596H133.544V57.2656H140.335Z" fill="black"/>
<path d="M149.162 57.2656C149.841 56.5865 151.199 55.6812 153.236 55.6812C155.273 55.6812 157.084 56.5865 158.216 58.171C159.121 59.3027 159.574 60.6608 159.574 63.1506V69.941H156.858V62.9242C156.858 61.1135 156.631 60.4344 155.952 59.7554C155.273 58.85 154.142 58.3973 153.01 58.3973C151.199 58.3973 149.841 59.3027 148.936 60.4344V69.941H146.219V56.1338H148.936V57.2656H149.162Z" fill="black"/>
<path d="M170.212 70.1673C169.08 70.1673 167.722 69.7146 166.817 69.2619C164.78 68.1302 163.195 65.6404 163.195 62.9242C163.195 60.2081 164.553 57.9446 166.817 56.5865C167.722 56.1338 168.854 55.6812 170.212 55.6812C171.797 55.6812 173.381 56.1338 174.513 57.2656V55.9075H177.229V69.2619C177.229 71.299 177.003 72.6571 176.324 73.7888C175.192 75.8259 173.155 77.184 170.439 77.184C166.817 77.184 164.554 75.3733 163.648 74.0152L165.685 72.2044C166.591 73.5625 167.949 74.6942 170.212 74.6942C171.797 74.6942 172.928 74.2415 173.607 73.1098C174.06 72.4308 174.286 71.299 174.286 69.4883V68.8092C173.155 69.4883 171.797 70.1673 170.212 70.1673ZM174.286 60.2081C173.381 59.0763 172.023 58.171 170.439 58.171C167.722 58.171 165.912 60.2081 165.912 62.6979C165.912 65.1877 167.722 67.2248 170.439 67.2248C171.797 67.2248 173.381 66.5458 174.286 65.1877V60.2081Z" fill="black"/>
<path d="M182.208 48.8908H184.925V69.7147H182.208V48.8908Z" fill="black"/>
<path d="M191.263 49.1171C192.394 49.1171 193.073 50.0225 193.073 50.9279C193.073 51.8333 192.168 52.7387 191.263 52.7387C190.131 52.7387 189.452 51.8333 189.452 50.9279C189.452 50.0225 190.357 49.1171 191.263 49.1171ZM189.905 55.9075H192.621V69.7146H189.905V55.9075Z" fill="black"/>
<path d="M197.826 66.0931C199.185 66.9985 200.543 67.6775 201.901 67.6775C203.032 67.6775 204.391 66.9985 204.391 65.8667C204.391 64.2823 202.127 64.2823 200.09 63.6033C198.506 63.1506 196.921 62.0188 196.921 59.9817C196.921 57.0392 199.637 55.6812 202.127 55.6812C204.164 55.6812 205.522 56.3602 206.654 57.2656L205.296 59.3027C204.39 58.6237 203.485 58.171 202.353 58.171C200.995 58.171 199.864 58.85 199.864 59.9817C199.864 60.8871 200.995 61.3398 202.353 61.5662C204.617 62.0188 207.333 63.1506 207.333 65.8667C207.333 68.5829 204.843 70.1673 202.127 70.1673C199.864 70.1673 198.053 69.4883 196.468 68.3565L197.826 66.0931Z" fill="black"/>
<path d="M213.897 57.2656C214.576 56.5865 215.934 55.6812 217.971 55.6812C220.009 55.6812 221.819 56.5865 222.951 58.171C223.856 59.3027 224.309 60.6608 224.309 63.1506V69.941H221.593V62.9242C221.593 61.1135 221.367 60.4344 220.688 59.7554C220.009 58.85 218.877 58.3973 217.745 58.3973C215.934 58.3973 214.576 59.3027 213.671 60.4344V69.941H210.955V49.1171H213.671V57.2656H213.897Z" fill="black"/>
<path d="M241.285 54.5494V69.7146H238.342V49.1171H240.38L252.829 64.2823V49.1171H255.771V69.7146H253.734L241.285 54.5494Z" fill="black"/>
<path d="M270.936 68.5829C269.804 69.4883 268.22 70.1673 266.636 70.1673C265.504 70.1673 264.146 69.7146 263.24 69.2619C261.203 68.1302 259.619 65.6404 259.619 62.9242C259.619 60.2081 260.977 57.9446 263.24 56.5865C264.146 56.1338 265.278 55.6812 266.636 55.6812C268.22 55.6812 269.804 56.1338 270.936 57.2656V55.9075H273.652V69.7146H270.936V68.5829ZM270.936 60.2081C270.031 59.0763 268.673 58.171 267.088 58.171C264.372 58.171 262.561 60.2081 262.561 62.6979C262.561 65.1877 264.372 67.2248 267.088 67.2248C268.446 67.2248 270.031 66.5458 270.936 65.1877V60.2081Z" fill="black"/>
<path d="M287.233 69.7146C286.78 69.9409 285.875 69.9409 284.97 69.9409C283.159 69.9409 282.027 69.2619 281.122 68.3565C280.216 67.4511 279.99 66.093 279.99 64.735V58.3973H276.368V55.9075H279.99V52.0596H282.706V55.9075H287.007V58.3973H282.706V64.9613C282.706 65.6403 282.706 66.3194 283.159 66.7721C283.612 67.2248 284.291 67.4511 284.97 67.4511C285.422 67.4511 286.101 67.4511 286.554 67.2248L287.233 69.7146Z" fill="black"/>
<path d="M292.439 49.1171C293.571 49.1171 294.25 50.0225 294.25 50.9279C294.25 51.8333 293.345 52.7387 292.439 52.7387C291.308 52.7387 290.628 51.8333 290.628 50.9279C290.628 50.0225 291.308 49.1171 292.439 49.1171ZM291.081 55.9075H293.797V69.7146H291.081V55.9075Z" fill="black"/>
<path d="M304.888 55.6812C308.962 55.6812 312.131 58.85 312.131 62.9242C312.131 66.9985 308.962 70.1673 304.888 70.1673C300.814 70.1673 297.645 66.9985 297.645 62.9242C297.645 58.85 300.588 55.6812 304.888 55.6812ZM304.888 67.4511C307.378 67.4511 309.189 65.414 309.189 62.9242C309.189 60.4344 307.378 58.3973 304.888 58.3973C302.398 58.3973 300.588 60.4344 300.588 62.9242C300.361 65.414 302.172 67.4511 304.888 67.4511Z" fill="black"/>
<path d="M318.469 57.2656C319.148 56.5865 320.506 55.6812 322.543 55.6812C324.581 55.6812 326.391 56.5865 327.523 58.171C328.428 59.3027 328.881 60.6608 328.881 63.1506V69.941H326.165V62.9242C326.165 61.1135 325.939 60.4344 325.26 59.7554C324.581 58.85 323.449 58.3973 322.317 58.3973C320.506 58.3973 319.148 59.3027 318.243 60.4344V69.941H315.527V56.1338H318.243V57.2656H318.469Z" fill="black"/>
<path d="M343.82 68.5829C342.688 69.4883 341.104 70.1673 339.519 70.1673C338.388 70.1673 337.03 69.7146 336.124 69.2619C334.087 68.1302 332.503 65.6404 332.503 62.9242C332.503 60.2081 333.861 57.9446 336.124 56.5865C337.03 56.1338 338.161 55.6812 339.519 55.6812C341.104 55.6812 342.688 56.1338 343.82 57.2656V55.9075H346.536V69.7146H343.82V68.5829ZM343.82 60.2081C342.915 59.0763 341.556 58.171 339.972 58.171C337.256 58.171 335.445 60.2081 335.445 62.6979C335.445 65.1877 337.256 67.2248 339.972 67.2248C341.33 67.2248 342.915 66.5458 343.82 65.1877V60.2081Z" fill="black"/>
<path d="M351.516 48.8908H354.232V69.7147H351.516V48.8908Z" fill="black"/>
<path d="M377.093 48.8908C382.978 48.8908 387.278 53.4178 387.278 59.5291C387.278 65.6404 382.751 70.1674 377.093 70.1674C371.208 70.1674 366.681 65.6404 366.681 59.5291C366.907 53.4178 371.208 48.8908 377.093 48.8908ZM377.093 67.2249C381.393 67.2249 384.336 63.8297 384.336 59.5291C384.336 55.0022 381.167 51.8333 377.093 51.8333C372.792 51.8333 369.623 55.2285 369.623 59.5291C369.85 64.056 372.792 67.2249 377.093 67.2249Z" fill="black"/>
<path d="M391.126 76.7313V55.9075H393.842V57.2656C395.201 56.1338 396.559 55.6812 398.143 55.6812C399.501 55.6812 400.633 55.9075 401.538 56.5865C403.575 57.7183 405.16 60.2081 405.16 62.9242C405.16 65.6404 403.802 67.9038 401.538 69.2619C400.633 69.7146 399.275 70.1673 398.143 70.1673C396.559 70.1673 394.974 69.7146 394.069 68.5829V76.7313H391.126ZM393.842 65.414C394.748 66.7721 396.332 67.4511 397.69 67.4511C400.406 67.4511 402.217 65.414 402.217 62.9242C402.217 60.4344 400.406 58.3973 397.69 58.3973C396.106 58.3973 394.522 59.3027 393.842 60.4344V65.414Z" fill="black"/>
<path d="M410.365 63.377C410.592 65.6404 412.402 67.4512 414.892 67.4512C416.929 67.4512 418.061 66.5458 418.966 65.6404L420.777 67.4512C419.645 68.8093 417.835 69.941 414.892 69.941C410.818 69.941 407.649 66.7722 407.649 62.698C407.649 58.6237 410.365 55.4549 414.44 55.4549C418.287 55.4549 421.004 58.6237 421.004 62.698C421.004 62.9243 421.004 62.9243 421.004 63.377H410.365ZM410.592 61.1135H418.061C417.608 59.3028 416.024 58.171 414.44 58.171C412.629 58.171 411.044 59.3028 410.592 61.1135Z" fill="black"/>
<path d="M432.321 58.3974C432.094 58.3974 431.642 58.171 431.189 58.171C429.831 58.171 428.247 59.0764 427.341 60.4345V69.4883H424.625V55.6812H427.341V57.2656C428.02 56.3603 429.378 55.4549 431.415 55.4549C431.642 55.4549 432.094 55.4549 432.547 55.4549L432.321 58.3974Z" fill="black"/>
<path d="M445.675 68.5829C444.544 69.4883 442.959 70.1673 441.375 70.1673C440.243 70.1673 438.885 69.7146 437.98 69.2619C435.943 68.1302 434.358 65.6404 434.358 62.9242C434.358 60.2081 435.716 57.9446 437.98 56.5865C438.885 56.1338 440.017 55.6812 441.375 55.6812C442.959 55.6812 444.544 56.1338 445.675 57.2656V55.9075H448.392V69.7146H445.675V68.5829ZM445.449 60.2081C444.544 59.0763 443.186 58.171 441.601 58.171C438.885 58.171 437.074 60.2081 437.074 62.6979C437.074 65.1877 438.885 67.2248 441.601 67.2248C442.959 67.2248 444.544 66.5458 445.449 65.1877V60.2081Z" fill="black"/>
</svg>
