<svg width="543" height="72" viewBox="0 0 543 72" fill="none" xmlns="http://www.w3.org/2000/svg">
<path d="M1.44475 68.616C1.44475 68.616 18.8208 68.808 28.3248 69C28.3248 69 28.3248 64.392 28.4208 57.096C28.4208 57.096 23.4288 57.096 14.3088 56.808C13.7328 16.296 13.9248 2.856 13.9248 2.856C5.09275 3.048 0.86875 2.856 0.86875 2.856C1.34875 42.12 1.44475 68.616 1.44475 68.616ZM47.5015 70.536C59.9815 70.536 65.9335 62.184 66.1255 35.592C66.1255 15.144 62.5735 1.032 47.5015 1.032C32.6215 1.032 28.9735 16.392 28.9735 35.688C29.0695 58.728 33.6775 70.536 47.5015 70.536ZM47.6935 60.36C44.3335 60.36 43.1815 55.368 43.1815 35.016C43.1815 17.736 44.1415 11.496 47.5015 11.496C50.5735 11.496 51.9175 16.776 51.9175 35.112C51.9175 56.04 50.5735 60.36 47.6935 60.36ZM87.9123 1.704C74.3763 1.704 69.2883 11.688 69.1923 35.592C69.1923 59.4 74.0883 69.384 87.9123 69.384C99.8163 69.384 106.536 60.648 106.536 35.496C106.44 12.264 101.448 1.704 87.9123 1.704ZM87.7203 12.168C90.8883 12.168 92.3282 16.488 92.3282 36.552C92.3282 56.232 90.6963 59.208 87.9123 59.208C85.1283 59.208 83.4003 55.944 83.4003 36.456C83.4003 16.584 84.6483 12.168 87.7203 12.168ZM133.695 71.4C133.695 71.4 140.223 70.92 147.807 70.632C147.807 70.632 143.199 56.616 136.863 34.728C138.879 28.392 142.623 16.584 147.711 1.032C147.711 1.032 142.719 1.032 134.175 0.551994C134.175 0.551994 130.815 13.32 123.519 39.048C123.519 29.448 123.519 18.024 123.711 3.816C123.711 3.816 119.199 3.816 110.463 3.72C110.463 3.72 110.655 30.6 110.463 67.848C110.463 67.848 114.398 67.656 123.807 67.752C123.807 67.752 123.711 64.584 123.615 58.44C124.287 56.328 125.631 52.584 127.743 47.112C129.087 52.2 131.103 60.072 133.695 71.4ZM197.616 71.496C197.616 71.496 202.608 71.784 215.952 71.016C215.952 71.016 217.488 47.304 221.424 1.89599C221.424 1.89599 215.088 1.89599 207.504 1.512C207.504 1.512 207.408 14.856 205.872 58.056C204.72 49.8 202.416 32.712 199.44 7.17599C199.44 7.17599 195.024 6.792 187.632 6.888C187.632 6.888 186.576 13.32 180.912 52.68C180.912 52.68 180.144 36.936 179.472 3.432L165.36 3.816C165.36 3.816 167.664 25.416 170.64 66.696C170.64 66.696 174.576 66.504 187.536 67.272C187.536 67.272 188.784 56.904 193.392 24.648C194.352 34.728 195.792 50.28 197.616 71.496ZM245.103 70.824C253.071 70.536 258.255 70.92 258.255 70.92C257.871 31.56 257.967 0.647999 257.967 0.647999C249.423 0.839996 244.719 0.743998 244.719 0.743998C244.815 13.704 245.007 25.512 245.007 35.592C241.071 35.592 238.671 35.496 237.519 35.496C237.327 16.584 237.231 3.72 237.231 3.72C227.631 3.912 224.463 3.816 224.463 3.816C224.847 42.12 224.847 67.464 224.847 67.464C232.335 67.176 237.903 67.368 237.903 67.368L237.615 46.728C241.263 46.632 243.471 46.632 245.103 46.632C245.295 61.032 245.103 70.824 245.103 70.824ZM280.658 70.536C293.138 70.536 299.09 62.184 299.282 35.592C299.282 15.144 295.73 1.032 280.658 1.032C265.778 1.032 262.13 16.392 262.13 35.688C262.226 58.728 266.834 70.536 280.658 70.536ZM280.85 60.36C277.49 60.36 276.338 55.368 276.338 35.016C276.338 17.736 277.298 11.496 280.658 11.496C283.73 11.496 285.074 16.776 285.074 35.112C285.074 56.04 283.73 60.36 280.85 60.36ZM306.488 23.688C311.576 19.176 315.704 13.8 315.704 7.944C315.704 3.62399 313.304 0.167999 309.272 0.167999C304.952 0.167999 302.552 3.144 302.552 7.272C302.552 10.152 304.088 12.552 306.104 13.512C305.528 14.76 304.088 17.16 301.496 20.04C301.496 20.04 303.512 21.288 306.488 23.688ZM335.093 70.44C345.365 70.44 352.565 65.64 352.565 52.296C352.565 43.176 349.493 37.896 340.661 31.944C333.365 27.048 331.253 23.784 331.253 19.08C331.253 14.28 332.405 11.4 334.997 11.4C337.877 11.4 339.605 15.144 338.453 25.032C345.077 25.224 351.509 25.8 351.509 25.8C353.237 9.576 347.861 0.935995 335.189 0.935995C324.821 0.935995 317.621 6.024 317.621 18.408C317.621 27.048 320.597 33.192 329.237 39.336C337.205 45 338.837 48.168 338.837 52.584C338.837 58.152 337.589 59.976 335.189 59.976C331.829 59.976 330.485 55.464 331.349 45.384C323.189 45.288 317.909 45.096 317.909 45.096C316.373 61.896 321.461 70.44 335.093 70.44ZM373.355 68.712C377.004 69.192 380.364 69.48 383.436 69.48C398.7 69.48 407.724 64.2 407.724 50.472C407.724 42.024 403.884 36.36 397.452 33.96C402.828 31.848 406.476 26.76 406.476 19.56C406.476 7.368 400.332 1.032 385.932 1.032C382.092 1.032 377.58 1.512 372.588 2.472C373.26 37.608 373.355 68.712 373.355 68.712ZM386.124 59.592L385.836 39.912C391.884 39.912 394.764 43.464 394.764 50.184C394.764 57.672 391.5 59.88 386.124 59.592ZM385.74 11.304C391.788 10.824 394.284 14.184 394.284 20.808C394.284 27.24 391.5 30.408 385.74 30.216V11.304ZM407.973 67.56C416.901 67.56 420.933 67.752 420.933 67.752L421.797 57.384C426.021 57.384 429.189 57.48 431.397 57.48C432.261 66.312 432.645 70.536 432.645 70.536C440.997 70.248 446.373 70.44 446.373 70.44C440.517 35.112 435.909 1.608 435.909 1.608C435.909 1.608 427.845 1.512 417.381 1.992C412.005 42.216 407.973 67.56 407.973 67.56ZM426.501 12.744C428.133 26.952 429.381 37.992 430.245 46.728C425.349 46.824 422.853 46.728 422.853 46.728C424.389 30.792 425.829 18.312 426.501 12.744ZM465.156 70.632C475.908 70.728 483.396 63.912 483.012 40.968C483.012 40.968 476.484 40.968 468.9 41.256C469.38 56.616 467.748 59.688 465.348 59.688C462.084 59.688 461.028 54.216 461.028 35.688C460.836 17.928 461.892 11.496 465.252 11.496C468.036 11.496 468.804 15.72 468.708 27.816C468.708 27.816 474.084 28.104 482.628 28.2C483.012 11.976 478.884 0.551994 465.924 0.551994C452.004 0.551994 446.724 12.072 446.724 35.784C446.724 60.936 452.1 70.632 465.156 70.632ZM509.726 71.4C509.726 71.4 516.254 70.92 523.838 70.632C523.838 70.632 519.23 56.616 512.894 34.728C514.91 28.392 518.654 16.584 523.742 1.032C523.742 1.032 518.75 1.032 510.206 0.551994C510.206 0.551994 506.846 13.32 499.55 39.048C499.55 29.448 499.55 18.024 499.742 3.816C499.742 3.816 495.23 3.816 486.494 3.72C486.494 3.72 486.686 30.6 486.494 67.848C486.494 67.848 490.43 67.656 499.838 67.752C499.838 67.752 499.742 64.584 499.646 58.44C500.318 56.328 501.662 52.584 503.774 47.112C505.118 52.2 507.134 60.072 509.726 71.4ZM533.922 69.96C538.818 69.96 542.274 66.696 542.274 61.416C542.274 56.904 539.682 52.68 533.826 52.68C528.354 52.68 525.186 56.232 525.186 61.224C525.186 66.696 528.642 69.96 533.922 69.96ZM528.354 48.936C534.882 48.744 539.394 48.936 539.394 48.936C539.97 23.304 540.738 1.992 540.738 1.992C532.098 2.184 526.434 1.992 526.434 1.992C527.682 25.512 528.354 48.936 528.354 48.936Z" fill="#4C378F"/>
</svg>
