<svg width="160" height="67" viewBox="0 0 160 67" fill="none" xmlns="http://www.w3.org/2000/svg">
<path d="M45.7761 65.4209C45.9614 65.4209 46.1467 65.4209 46.2703 65.3591C46.3938 65.2973 46.5174 65.2356 46.6409 65.112C46.7645 64.9885 46.8263 64.8649 46.888 64.6796C46.9498 64.4943 46.9498 64.3707 46.9498 64.1236V61.0348H47.8764V64.1236C47.8764 64.4325 47.8147 64.7414 47.7529 64.9885C47.6293 65.2356 47.5058 65.4827 47.3205 65.668C47.1351 65.8533 46.888 65.9769 46.6409 66.1004C46.3938 66.224 46.0849 66.2858 45.7761 66.2858C45.4672 66.2858 45.1583 66.224 44.9112 66.1004C44.6641 65.9769 44.417 65.8533 44.2317 65.668C44.0463 65.4827 43.9228 65.2356 43.7992 64.9885C43.6757 64.7414 43.6757 64.4325 43.6757 64.1236V61.0348H44.6023V64.1236C44.6023 64.3089 44.6023 64.4943 44.6641 64.6796C44.7259 64.8649 44.7876 64.9885 44.9112 65.112C45.0347 65.2356 45.1583 65.2973 45.2819 65.3591C45.4054 65.3591 45.5907 65.4209 45.7761 65.4209Z" fill="white"/>
<path d="M50.1622 61.0348H50.2239C50.2239 61.0348 50.2857 61.0348 50.2857 61.0966L50.3475 61.1583L53.0656 64.6178C53.0656 64.556 53.0656 64.4325 53.0656 64.3707C53.0656 64.3089 53.0656 64.1854 53.0656 64.1236V61.0348H53.9305V66.1622H53.4363C53.3745 66.1622 53.3127 66.1622 53.251 66.1004C53.1892 66.1004 53.1274 66.0387 53.1274 65.9769L50.471 62.5792C50.471 62.641 50.471 62.7027 50.471 62.8263C50.471 62.8881 50.471 62.9498 50.471 63.0116V66.1622H49.6062V61.0348H50.0386C50.1004 61.0348 50.1004 61.0348 50.1622 61.0348Z" fill="white"/>
<path d="M56.5251 61.0348H55.5367V66.1622H56.5251V61.0348Z" fill="white"/>
<path d="M61.7143 61.0348V61.8379H60.1699V66.1622H59.2432V61.8379H57.6988V61.0348H61.7143Z" fill="white"/>
<path d="M66.1004 61.0348V61.7761H63.8147V63.197H65.6062V63.9383H63.8147V65.4209H66.1004V66.1622H62.888V61.0348H66.1004Z" fill="white"/>
<path d="M72.0309 63.6294C72.0309 64 71.9691 64.3707 71.8456 64.6796C71.722 64.9885 71.5367 65.2356 71.2896 65.4827C71.0425 65.7298 70.7954 65.9151 70.4865 66.0386C70.1776 66.1622 69.807 66.224 69.4363 66.224H67.4595V61.0966H69.4363C69.807 61.0966 70.1776 61.1583 70.4865 61.2819C70.7954 61.4054 71.1042 61.5908 71.2896 61.8379C71.5367 62.085 71.722 62.3321 71.8456 62.641C71.9691 62.8881 72.0309 63.2587 72.0309 63.6294ZM71.0425 63.6294C71.0425 63.3205 70.9807 63.0734 70.9189 62.8881C70.8571 62.641 70.7336 62.4556 70.61 62.3321C70.4865 62.1468 70.3012 62.085 70.1158 61.9614C69.9305 61.8996 69.6834 61.8379 69.4363 61.8379H68.4479V65.4209H69.4363C69.6834 65.4209 69.9305 65.3591 70.1158 65.2973C70.3012 65.2356 70.4865 65.112 70.61 64.9267C70.7336 64.8031 70.8571 64.556 70.9189 64.3707C71.0425 64.1236 71.0425 63.8765 71.0425 63.6294Z" fill="white"/>
<path d="M76.6641 63.197H76.9112C76.973 63.197 77.0965 63.197 77.1583 63.1352C77.2201 63.1352 77.2819 63.0734 77.2819 63.0116L78.7027 61.2201C78.7645 61.1584 78.8263 61.0966 78.888 61.0348C78.9498 61.0348 79.0116 60.973 79.1351 60.973H79.9382L78.2085 63.0734C78.0849 63.197 78.0232 63.3205 77.8996 63.3205C77.9614 63.3205 78.0232 63.3823 78.0849 63.4441C78.1467 63.5059 78.2085 63.5676 78.2703 63.6294L80.0618 66.0387H79.1969C79.0734 66.0387 79.0116 66.0387 78.9498 65.9769C78.888 65.9151 78.8263 65.9151 78.8263 65.8533L77.4054 63.9383C77.3436 63.8765 77.2819 63.8147 77.2201 63.8147C77.1583 63.8147 77.0965 63.753 76.973 63.753H76.6641V66.0387H75.7375V60.9113H76.6641V63.197" fill="white"/>
<path d="M82.1622 61.0348H81.1737V66.1622H82.1622V61.0348Z" fill="white"/>
<path d="M84.3861 61.0348H84.4479C84.4479 61.0348 84.5096 61.0348 84.5096 61.0966L84.5714 61.1583L87.2896 64.6178C87.2896 64.556 87.2896 64.4325 87.2896 64.3707C87.2896 64.3089 87.2896 64.1854 87.2896 64.1236V61.0348H88.1544V66.1622H87.6602C87.5984 66.1622 87.5367 66.1622 87.4749 66.1004C87.4131 66.1004 87.3513 66.0387 87.3513 65.9769L84.695 62.5792C84.695 62.641 84.695 62.7027 84.695 62.8263C84.695 62.8881 84.695 62.9498 84.695 63.0116V66.1622H83.8301V61.0348H84.3243C84.3243 61.0348 84.3861 61.0348 84.3861 61.0348Z" fill="white"/>
<path d="M93.2201 66.1004C92.9112 66.1622 92.6023 66.224 92.2934 66.224C91.861 66.224 91.4903 66.1622 91.1815 66.0387C90.8726 65.9151 90.5637 65.7298 90.3166 65.4827C90.0695 65.2356 89.8842 64.9885 89.7606 64.6796C89.6371 64.3707 89.5753 64 89.5753 63.6294C89.5753 63.2587 89.6371 62.8881 89.7606 62.5792C89.8842 62.2703 90.0695 61.9614 90.3166 61.7761C90.5637 61.529 90.8108 61.3437 91.1815 61.2201C91.5521 61.0966 91.861 61.0348 92.2934 61.0348C92.4788 61.0348 92.7259 61.0348 92.8494 61.0966C92.973 61.1583 93.2201 61.1583 93.3436 61.2201C93.529 61.2819 93.6525 61.3437 93.7761 61.4054C93.8996 61.4672 94.0232 61.5908 94.1467 61.6526L93.8996 62.085C93.8378 62.1468 93.7761 62.2085 93.7143 62.2085C93.6525 62.2085 93.5907 62.2085 93.4672 62.1468C93.4054 62.085 93.2818 62.085 93.2201 62.0232C93.1583 61.9614 93.0347 61.9614 92.973 61.8997C92.8494 61.8379 92.7876 61.8379 92.6641 61.8379C92.5405 61.8379 92.417 61.7761 92.2317 61.7761C91.9846 61.7761 91.7374 61.8379 91.5521 61.8997C91.3668 61.9614 91.1815 62.085 91.0579 62.2703C90.9344 62.4556 90.8108 62.641 90.749 62.8263C90.6873 63.0734 90.6255 63.3205 90.6255 63.5676C90.6255 63.8765 90.6873 64.1236 90.749 64.3707C90.8108 64.6178 90.9344 64.8031 91.1197 64.9267C91.2432 65.112 91.4286 65.2356 91.6757 65.2973C91.861 65.3591 92.1081 65.4209 92.417 65.4209C92.6023 65.4209 92.7876 65.4209 92.9112 65.3591C93.0347 65.2973 93.2201 65.2356 93.3436 65.1738V64.2471H92.7259C92.6641 64.2471 92.6023 64.2471 92.6023 64.1854C92.5405 64.1236 92.5405 64.1236 92.5405 64.0618V63.5676H94.2703V65.668C93.7761 65.8533 93.529 65.9769 93.2201 66.1004Z" fill="white"/>
<path d="M100.139 63.6294C100.139 64 100.077 64.3707 99.9537 64.6796C99.8301 64.9885 99.6448 65.2356 99.3977 65.4827C99.1506 65.7298 98.9035 65.9151 98.5946 66.0386C98.2857 66.1622 97.9151 66.224 97.5444 66.224H95.5676V61.0966H97.5444C97.9151 61.0966 98.2857 61.1583 98.5946 61.2819C98.9035 61.4054 99.2124 61.5908 99.3977 61.8379C99.6448 62.085 99.8301 62.3321 99.9537 62.641C100.077 62.8881 100.139 63.2587 100.139 63.6294ZM99.1506 63.6294C99.1506 63.3205 99.0888 63.0734 99.027 62.8881C98.9653 62.641 98.8417 62.4556 98.7182 62.3321C98.5946 62.1468 98.4093 62.085 98.2239 61.9614C98.0386 61.8996 97.7915 61.8379 97.5444 61.8379H96.556V65.4209H97.5444C97.7915 65.4209 98.0386 65.3591 98.2239 65.2973C98.4093 65.2356 98.5946 65.112 98.7182 64.9267C98.8417 64.8031 98.9653 64.556 99.027 64.3707C99.1506 64.1236 99.1506 63.8765 99.1506 63.6294Z" fill="white"/>
<path d="M106.44 63.6294C106.44 64 106.378 64.3707 106.255 64.6796C106.131 64.9885 105.946 65.2973 105.699 65.4827C105.452 65.7298 105.205 65.9151 104.896 66.0387C104.587 66.1622 104.216 66.224 103.846 66.224C103.475 66.224 103.104 66.1622 102.795 66.0387C102.486 65.9151 102.178 65.7298 101.992 65.4827C101.745 65.2356 101.56 64.9885 101.436 64.6796C101.313 64.3707 101.251 64 101.251 63.6294C101.251 63.2587 101.313 62.8881 101.436 62.5792C101.56 62.2703 101.745 61.9614 101.992 61.7761C102.239 61.529 102.486 61.3437 102.795 61.2201C103.104 61.0966 103.475 61.0348 103.846 61.0348C104.093 61.0348 104.34 61.0966 104.587 61.0966C104.834 61.1583 105.019 61.2201 105.205 61.3437C105.39 61.4672 105.575 61.5908 105.699 61.7143C105.822 61.8997 106.008 62.0232 106.069 62.2703C106.131 62.5174 106.255 62.7027 106.317 62.8881C106.44 63.1352 106.44 63.3823 106.44 63.6294ZM105.452 63.6294C105.452 63.3205 105.39 63.0734 105.328 62.8881C105.266 62.641 105.143 62.4556 105.019 62.3321C104.896 62.2085 104.71 62.085 104.525 61.9614C104.34 61.8997 104.093 61.8379 103.846 61.8379C103.598 61.8379 103.351 61.8997 103.166 61.9614C102.981 62.0232 102.795 62.1468 102.672 62.3321C102.548 62.5174 102.425 62.7027 102.363 62.8881C102.301 63.1352 102.239 63.3823 102.239 63.6294C102.239 63.9383 102.301 64.1854 102.363 64.3707C102.425 64.6178 102.548 64.8031 102.672 64.9267C102.795 65.112 102.981 65.1738 103.166 65.2973C103.351 65.3591 103.598 65.4209 103.846 65.4209C104.093 65.4209 104.34 65.3591 104.525 65.2973C104.71 65.2356 104.896 65.112 105.019 64.9267C105.143 64.8031 105.266 64.556 105.328 64.3707C105.452 64.1236 105.452 63.8765 105.452 63.6294Z" fill="white"/>
<path d="M110.517 64.2471C110.579 64.3089 110.579 64.4325 110.641 64.4942C110.703 64.4325 110.703 64.3089 110.764 64.2471C110.826 64.1854 110.826 64.0618 110.888 64L112.432 61.1583C112.432 61.0966 112.494 61.0966 112.494 61.0966L112.556 61.0348H112.618C112.618 61.0348 112.68 61.0348 112.741 61.0348H113.483V66.1622H112.618V62.8263C112.618 62.7645 112.618 62.7027 112.618 62.641C112.618 62.5792 112.618 62.5174 112.618 62.3939L111.073 65.2973C111.012 65.4209 110.888 65.4827 110.764 65.4827H110.579C110.456 65.4827 110.332 65.4209 110.27 65.2973L108.726 62.3939C108.726 62.4556 108.726 62.5174 108.726 62.641C108.726 62.7027 108.726 62.7645 108.726 62.8263V66.1622H107.861V61.0348H108.602C108.664 61.0348 108.664 61.0348 108.726 61.0348H108.788C108.788 61.0348 108.849 61.0348 108.849 61.0966L108.911 61.1583L110.456 64C110.456 64.1236 110.517 64.1854 110.517 64.2471Z" fill="white"/>
<path d="M69.8687 46.5792V47.0117C69.8687 47.197 69.6834 47.3823 69.4981 47.3823H66.7181C66.5328 47.3823 66.3475 47.197 66.3475 47.0117V46.5792C66.3475 46.3939 66.5328 46.2086 66.7181 46.2086H69.4981C69.7452 46.2086 69.8687 46.3939 69.8687 46.5792ZM63.1969 43.1815C63.444 44.0464 63.6293 44.973 63.6293 46.085V47.3823H54.1776C54.1776 48.4325 54.3012 49.2974 54.4865 50.0387C54.6718 50.78 54.9189 51.3978 55.2896 51.892C55.6602 52.3862 56.0927 52.6951 56.5869 52.9422C57.0811 53.1893 57.6988 53.251 58.3784 53.251C58.8726 53.251 59.305 53.1893 59.7374 53.0657C60.1699 52.9422 60.5405 52.8186 60.8494 52.6333C61.2201 52.448 61.4672 52.2626 61.7761 52.0155C62.0232 51.7684 62.2703 51.5213 62.3938 51.2742C62.5174 51.336 62.6409 51.4595 62.7645 51.6449C62.888 51.8302 62.9498 52.0155 62.9498 52.2626C62.9498 52.5715 62.8263 52.8804 62.6409 53.1893C62.4556 53.4981 62.1467 53.807 61.7143 54.1159C61.2819 54.363 60.7876 54.6101 60.1699 54.7954C59.5521 54.9808 58.8108 55.0425 58.0077 55.0425C56.9575 55.0425 56.0927 54.8572 55.2278 54.5483C54.4247 54.1777 53.7452 53.6835 53.1892 53.0657C52.6332 52.3862 52.2008 51.5831 51.8919 50.6564C51.583 49.668 51.4595 48.6178 51.4595 47.3823C51.4595 44.7259 52.0154 42.7491 53.0656 41.4518C54.1776 40.0927 55.722 39.475 57.6988 39.475C58.6255 39.475 59.4286 39.5985 60.1699 39.9074C60.9112 40.2163 61.529 40.5869 62.0232 41.2047C62.5174 41.6371 62.888 42.3167 63.1969 43.1815ZM60.7259 45.8997C60.7259 45.1584 60.6641 44.4788 60.5405 43.8611C60.417 43.2433 60.2317 42.6873 60.0463 42.2549C59.7992 41.8225 59.4903 41.4518 59.1197 41.2047C58.749 40.9576 58.2548 40.834 57.6988 40.834C56.6486 40.834 55.8456 41.2665 55.2896 42.1314C54.7336 42.9962 54.3629 44.2317 54.3012 45.8379H60.7259V45.8997ZM11.1197 50.78L5.25097 34.5947H0V35.7684C1.2973 35.7684 1.48263 36.2008 1.48263 37.1893V52.0773C1.48263 53.0657 1.2973 53.4981 0 53.4981V54.6719H4.75676V53.4981C3.45946 53.4981 3.27413 53.0657 3.27413 52.0773V36.7568L9.82239 54.7337H11.3668L17.8533 36.6951V52.1391C17.8533 53.1275 17.668 53.5599 16.3707 53.5599V54.7337H22.1158V53.5599C20.8185 53.5599 20.6332 53.1275 20.6332 52.1391V37.251C20.6332 36.2626 20.8185 35.8302 22.1158 35.8302V34.6564H17.0502L11.1197 50.78ZM50.1622 53.0039C49.668 52.6333 49.1737 52.0155 48.6795 51.2742L44.9112 45.7144L46.888 43.4904C47.6293 42.6256 48.3089 42.0078 48.9266 41.5754C49.5444 41.1429 50.2239 40.8958 50.8417 40.8958V39.7221H45.2201V40.8958C46.5174 40.8958 46.8263 41.2665 46.0232 42.1931C45.2201 43.058 44.5405 43.7993 44.417 43.9846L41.2046 47.4441V33.2974H37.0656V34.4711C38.3629 34.4711 38.5483 34.9035 38.5483 35.892V52.1391C38.5483 53.1275 38.3629 53.5599 37.0656 53.5599V54.7337H42.749V53.5599C41.4517 53.5599 41.2664 53.1275 41.2664 52.1391V49.668L43.1197 47.6294L45.8378 51.7684C46.2085 52.3862 46.5792 52.8804 46.888 53.251C47.8764 54.4248 48.3089 55.1043 49.9151 55.1043C51.6448 55.1043 51.8919 53.6217 51.8919 53.6217H51.8301C51.2124 53.5599 50.6564 53.3746 50.1622 53.0039ZM36.2625 53.5599V53.6217C36.2625 53.9306 36.0772 55.0425 34.3475 55.0425C32.4942 55.0425 32.0618 52.7568 32 52.3862V52.3244C31.6911 52.6951 31.0734 55.0425 27.3668 55.0425C26.749 55.0425 26.1313 54.9808 25.6371 54.7954C25.0811 54.6101 24.6486 54.363 24.2162 53.9924C23.8456 53.6217 23.5367 53.1275 23.2896 52.5715C23.0425 52.0155 22.9807 51.336 22.9807 50.5947C22.9807 49.112 23.5367 48.0001 24.5869 47.2588C26.749 45.7761 29.7761 45.9615 31.7529 45.9615V44.2935C31.7529 43.7993 31.7529 43.3051 31.6911 42.8727C31.6293 42.4402 31.5058 42.0696 31.3205 41.7607C31.1351 41.4518 30.888 41.2047 30.5174 41.0194C30.1467 40.8341 29.7143 40.7723 29.1583 40.7723C28.6023 40.7723 28.1699 40.8341 27.861 41.0194C27.5521 41.2047 27.2432 41.39 27.0579 41.6371C26.8726 41.8842 26.749 42.2549 26.6873 42.6256C26.6255 42.9962 26.5637 43.4286 26.5637 43.8611C25.7606 43.8611 25.2046 43.7375 24.7722 43.4904C24.3398 43.2433 24.1544 42.7491 24.1544 42.1314C24.1544 41.6371 24.278 41.2047 24.5251 40.8958C24.7722 40.5252 25.1429 40.2781 25.6371 40.031C26.1313 39.8456 26.6255 39.6603 27.2432 39.5368C27.861 39.4132 28.5405 39.4132 29.2201 39.4132C30.0849 39.4132 30.8263 39.475 31.5058 39.6603C32.1236 39.8456 32.6795 40.0927 33.112 40.5252C33.5444 40.8958 33.8533 41.39 34.1004 42.0078C34.2857 42.6256 34.4093 43.3669 34.4093 44.2935V51.6449C34.4093 52.0155 34.4093 52.3244 34.471 52.5715C34.7799 54.1159 36.2625 53.5599 36.2625 53.5599ZM31.7529 47.1352C30.3938 47.1352 27.9228 46.9499 26.6255 48.1236C26.3166 48.4325 26.0695 48.7414 25.9459 49.1738C25.8224 49.6063 25.7606 50.1005 25.7606 50.6564C25.7606 51.5213 25.9459 52.2008 26.3166 52.6333C26.6873 53.0657 27.2432 53.3128 28.0463 53.3128C28.6023 53.3128 29.1583 53.251 29.5907 53.0657C30.0849 52.8804 30.4556 52.6333 30.7645 52.2626C31.0734 51.892 31.3205 51.5213 31.5058 51.0271C31.6911 50.5329 31.7529 49.9769 31.7529 49.4209V47.1352V47.1352ZM153.452 51.9537V44.8495C153.452 41.3283 151.969 39.3514 148.51 39.3514C146.656 39.3514 145.112 40.0927 144.247 41.7607V33.2974H140.108V34.4711C141.405 34.4711 141.591 34.9035 141.591 35.892C141.591 40.5869 141.591 50.1622 141.591 52.0773C141.591 53.0657 141.405 53.4981 140.108 53.4981V54.6719H145.792V53.4981C144.494 53.4981 144.309 53.0657 144.309 52.0773V46.0232C144.309 43.4904 145.359 41.1429 147.707 41.1429C150.054 41.1429 150.795 42.6256 150.795 44.973V52.5715C150.795 53.5599 151.413 55.1043 153.514 55.1043C155.058 55.1043 155.305 53.9306 155.305 53.9306C155.305 53.9306 153.452 54.2395 153.452 51.9537ZM158.826 53.7452C158.888 54.0541 158.95 54.1159 158.95 54.1777H158.517C158.456 54.1159 158.456 53.9306 158.394 53.7452C158.332 53.5599 158.27 53.4364 158.023 53.4364H157.838V54.1777H157.405V52.3244C157.591 52.3244 157.838 52.2626 158.147 52.2626C158.517 52.2626 158.641 52.3244 158.764 52.3862C158.888 52.448 158.95 52.6333 158.95 52.7568C158.95 53.0039 158.764 53.1275 158.579 53.1893C158.703 53.3746 158.764 53.4981 158.826 53.7452ZM158.394 52.8804C158.394 52.6951 158.27 52.5715 158.023 52.5715C157.9 52.5715 157.838 52.5715 157.776 52.5715V53.1275H157.961C158.208 53.1893 158.394 53.0657 158.394 52.8804ZM91.861 53.8688H92.2317V55.0425H84.4479V53.8688H85.0656C86.5483 53.8688 86.9807 53.0657 86.6718 52.0155C86.61 51.8302 86.5483 51.6449 86.4865 51.4595L85.6834 49.1738C84.4479 49.6063 83.027 49.8534 81.4826 49.8534C80.0618 49.8534 78.7645 49.6063 77.5907 49.2356L76.8494 51.2742C76.7876 51.5213 76.7259 51.7066 76.6641 51.9537C76.4788 52.8804 76.7259 53.3128 77.0347 53.5599C77.3436 53.807 77.8378 53.8688 78.4556 53.8688H79.1351V55.0425H72.2162V53.8688H72.7722C73.0193 53.8688 73.2664 53.8688 73.4517 53.807C73.8842 53.6835 74.193 53.251 74.4402 52.8186C74.5637 52.5097 74.749 52.1391 74.9344 51.7066L76.1081 48.6178C72.1544 46.5175 69.9923 42.2549 69.9923 37.807C69.9923 25.6371 83.5212 21.6835 95.0734 21.6835C105.205 21.6835 115.151 25.4518 120.649 29.5908C120.71 29.6526 120.71 29.6526 120.649 29.7144C120.649 29.7761 120.587 29.7761 120.525 29.7761C116.51 27.6757 107.799 23.5985 95.6911 23.5985C85.1274 23.5985 71.8456 26.9344 71.8456 38.1159C71.8456 41.8842 73.6988 45.2202 76.6023 47.0734L81.112 34.9035H83.3359L87.722 46.9499C89.5135 45.8379 90.8108 44.17 91.6139 42.1931C91.6139 42.1313 91.6757 42.1314 91.7374 42.1314C91.7992 42.1314 91.7992 42.1931 91.7992 42.2549C91.4903 44.4788 90.1313 46.5174 88.0927 47.9383L89.6988 52.3862C89.8224 52.6951 89.9459 52.9422 90.0077 53.1275C90.6255 53.7452 91.1815 53.8688 91.861 53.8688ZM85.4363 48.1236L81.8533 37.9306L78.2703 47.8147C79.444 48.309 80.8031 48.5561 82.1622 48.5561C83.3359 48.5561 84.4479 48.3707 85.4363 48.1236ZM160 53.251C160 54.3012 159.135 55.1043 158.085 55.1043C157.035 55.1043 156.17 54.3012 156.17 53.251C156.17 52.2008 157.035 51.3978 158.085 51.3978C159.135 51.3978 160 52.2008 160 53.251ZM159.629 53.251C159.629 52.3862 158.95 51.7066 158.085 51.7066C157.22 51.7066 156.479 52.3862 156.479 53.251C156.479 54.1159 157.158 54.7954 158.085 54.7954C158.95 54.7954 159.629 54.1159 159.629 53.251ZM126.332 30.7646C126.27 30.7028 126.208 30.5792 126.208 30.4557L126.579 28.5406C126.579 28.4171 126.456 28.2935 126.332 28.3553L124.602 29.2819C124.479 29.3437 124.355 29.3437 124.293 29.2819L122.625 28.2935C122.502 28.2317 122.378 28.3553 122.378 28.4788L122.687 30.3939C122.687 30.5174 122.687 30.641 122.564 30.7028L121.143 32.0001C121.019 32.0619 121.081 32.2472 121.205 32.2472L123.12 32.4943C123.243 32.4943 123.367 32.6178 123.367 32.6796L124.17 34.4711C124.232 34.5947 124.355 34.5947 124.417 34.4711L125.282 32.7414C125.344 32.6178 125.467 32.5561 125.529 32.5561L127.444 32.3707C127.568 32.3707 127.629 32.1854 127.506 32.1236L126.332 30.7646ZM137.884 47.8147C137.514 47.4441 137.081 47.1352 136.587 46.8263C136.031 46.5175 135.413 46.2086 134.672 45.8997C134.054 45.6526 133.498 45.4055 133.066 45.2202C132.633 45.0348 132.263 44.7877 131.954 44.6024C131.645 44.3553 131.459 44.17 131.336 43.8611C131.212 43.614 131.151 43.3051 131.151 42.9344C131.151 42.6256 131.212 42.3167 131.274 42.0078C131.336 41.6989 131.521 41.5136 131.768 41.2665C132.015 41.0812 132.263 40.8958 132.633 40.7723C132.942 40.6487 133.375 40.5869 133.869 40.5869C134.734 40.5869 135.29 40.8341 135.722 41.39C136.093 41.8842 136.278 42.6256 136.278 43.614C136.958 43.614 137.452 43.4904 137.761 43.1815C138.131 42.8727 138.317 42.4402 138.317 41.946C138.317 41.5754 138.255 41.2665 138.069 40.9576C137.884 40.6487 137.637 40.3398 137.266 40.1545C136.896 39.9074 136.463 39.7221 135.969 39.5985C135.475 39.475 134.857 39.4132 134.178 39.4132C133.375 39.4132 132.633 39.475 132.015 39.6603C131.336 39.8456 130.78 40.0927 130.347 40.4016C129.853 40.7105 129.544 41.1429 129.236 41.6371C128.988 42.1313 128.865 42.6873 128.865 43.3669C128.865 43.9846 128.927 44.5406 129.112 44.973C129.297 45.4055 129.544 45.8379 129.915 46.1468C130.286 46.5175 130.718 46.8263 131.274 47.1352C131.83 47.4441 132.448 47.753 133.189 48.0619C133.869 48.3707 134.425 48.6178 134.857 48.8649C135.29 49.112 135.66 49.2974 135.907 49.5445C136.154 49.7916 136.34 49.9769 136.463 50.224C136.587 50.4711 136.649 50.78 136.649 51.1507C136.649 51.5213 136.587 51.892 136.463 52.2008C136.34 52.5097 136.154 52.8186 135.846 53.0039C135.598 53.251 135.29 53.3746 134.857 53.4981C134.486 53.6217 134.054 53.6835 133.498 53.6835C132.942 53.6835 132.448 53.5599 132.077 53.3746C131.707 53.1893 131.398 52.9422 131.151 52.6333C130.903 52.3244 130.718 51.9537 130.656 51.5213C130.533 51.0889 130.533 50.6564 130.533 50.1005C130.347 50.1005 130.162 50.1005 129.977 50.1622C129.791 50.224 129.606 50.3476 129.421 50.4711C129.236 50.5947 129.112 50.8418 128.988 51.0889C128.865 51.336 128.803 51.6449 128.803 52.0155C128.803 52.5097 128.927 52.9422 129.112 53.3128C129.359 53.6835 129.668 53.9924 130.039 54.2395C130.471 54.4866 130.903 54.6719 131.521 54.7954C132.077 54.919 132.757 54.9808 133.436 54.9808C134.301 54.9808 135.042 54.919 135.722 54.7337C136.402 54.5483 137.019 54.3012 137.452 53.9306C137.946 53.5599 138.317 53.0657 138.564 52.5715C138.811 52.0155 138.934 51.3978 138.934 50.6564C138.934 50.0387 138.873 49.5445 138.687 49.112C138.502 48.6178 138.255 48.1854 137.884 47.8147ZM95.7529 46.2086H92.973C92.7876 46.2086 92.6023 46.3939 92.6023 46.5792V47.0117C92.6023 47.197 92.7876 47.3823 92.973 47.3823H95.7529C95.9382 47.3823 96.1236 47.197 96.1236 47.0117V46.5792C96.1236 46.3939 96 46.2086 95.7529 46.2086ZM122.317 34.9035H116.324V36.0773H116.942C117.56 36.0773 117.992 36.2008 118.301 36.3862C118.61 36.5715 118.734 36.9422 118.734 37.4364C118.734 37.7452 118.486 38.6101 118.425 38.919L114.903 51.2742L110.208 35.0889H108.17L103.722 51.7066L99.9537 38.4248C99.8919 38.2395 99.8301 38.0541 99.8301 37.8688C99.7066 37.3746 99.7683 36.6951 100.201 36.3862C100.448 36.2008 100.88 36.0773 101.436 36.0773H102.054V34.9035H94.3938V36.0773C94.9498 36.0773 95.5676 36.0773 96 36.3862C96.3706 36.6333 96.556 37.1275 96.6795 37.5599L101.807 54.7954H104.402L108.664 39.1661L113.236 54.7954H115.768L120.525 38.2395C120.649 37.807 120.772 37.4364 120.958 37.1275C121.328 36.3244 121.761 36.1391 122.378 36.0773V34.9035H122.317ZM126.023 52.1391C126.023 51.9537 126.023 39.5985 126.023 39.5985H122.193L121.822 40.7723C123.12 40.7723 123.305 41.2047 123.305 42.1931V52.0773C123.305 53.0657 123.12 53.4981 121.822 53.4981V54.6719H127.444V53.4981C126.208 53.5599 126.085 53.1275 126.023 52.1391Z" fill="white"/>
<path d="M51.8919 0H50.3475V6.54826H51.8919V0Z" fill="white"/>
<path d="M60.6641 0V6.54826H59.861C59.7375 6.54826 59.6757 6.54826 59.5521 6.48649C59.4903 6.42471 59.3668 6.36293 59.305 6.30116L56.2162 2.40927C56.2162 2.53282 56.2162 2.65637 56.2162 2.77992C56.2162 2.90347 56.2162 2.96525 56.2162 3.0888V6.61004H54.8571V0H55.6602C55.722 0 55.7838 0 55.8456 0C55.9073 0 55.9073 0 55.9691 0.0617761C56.0309 0.0617761 56.0309 0.123552 56.0927 0.123552C56.1544 0.123552 56.1544 0.185328 56.2162 0.247104L59.305 4.20077C59.305 4.07722 59.305 3.95367 59.2432 3.83012C59.2432 3.70656 59.2432 3.58301 59.2432 3.52124V0H60.6641Z" fill="white"/>
<path d="M73.1429 6.54826H71.9691C71.8456 6.54826 71.722 6.48649 71.6602 6.42471C71.5984 6.36293 71.5367 6.30116 71.4749 6.17761L71.1042 5.06564H68.6332L68.2625 6.17761C68.2008 6.23938 68.2008 6.36293 68.0772 6.42471C68.0154 6.48649 67.8919 6.54826 67.7683 6.54826H66.5946L69.1274 0H70.6718L73.1429 6.54826ZM70.7336 4.07722L70.1158 2.28571C70.054 2.16216 69.9923 2.03861 69.9923 1.85328C69.9305 1.72973 69.8687 1.5444 69.8687 1.35907C69.8069 1.5444 69.7452 1.72973 69.7452 1.85328C69.6834 2.03861 69.6216 2.16216 69.6216 2.28571L69.0039 4.07722H70.7336V4.07722Z" fill="white"/>
<path d="M77.0347 0H75.4903V6.54826H77.0347V0Z" fill="white"/>
<path d="M86.0541 3.27413C86.0541 3.76834 85.9923 4.20077 85.8069 4.57143C85.6216 4.94208 85.4363 5.31274 85.1274 5.62162C84.8185 5.9305 84.4479 6.11583 84.0772 6.30116C83.6448 6.48649 83.2124 6.54826 82.6564 6.54826H80.1236V0H82.6564C83.1506 0 83.6448 0.0617761 84.0772 0.247104C84.5097 0.432432 84.8803 0.617761 85.1274 0.926641C85.4363 1.23552 85.6834 1.5444 85.8069 1.97683C85.9305 2.40927 86.0541 2.8417 86.0541 3.27413ZM84.4479 3.27413C84.4479 2.96525 84.3861 2.65637 84.3243 2.40927C84.2625 2.16216 84.139 1.91506 83.9537 1.72973C83.7683 1.5444 83.583 1.42085 83.3977 1.2973C83.1506 1.17375 82.9035 1.17375 82.5946 1.17375H81.6062V5.37452H82.5946C82.9035 5.37452 83.1506 5.31274 83.3977 5.25096C83.6448 5.12741 83.8301 5.00386 83.9537 4.81853C84.139 4.6332 84.2008 4.3861 84.3243 4.139C84.4479 3.89189 84.4479 3.58301 84.4479 3.27413Z" fill="white"/>
<path d="M99.027 3.27413C99.027 3.76834 98.9652 4.20077 98.7799 4.57143C98.5946 5.00386 98.4093 5.31274 98.1004 5.62162C97.7915 5.9305 97.4208 6.17761 97.0502 6.30116C96.6178 6.48649 96.1853 6.54826 95.6293 6.54826C95.1351 6.54826 94.6409 6.48649 94.2085 6.30116C93.7761 6.11583 93.4054 5.86872 93.1583 5.62162C92.8494 5.31274 92.6023 4.94208 92.4788 4.57143C92.2934 4.139 92.2317 3.70656 92.2317 3.27413C92.2317 2.77992 92.2934 2.34749 92.4788 1.97683C92.6641 1.5444 92.8494 1.23552 93.1583 0.926641C93.4672 0.617761 93.8378 0.370656 94.2085 0.247104C94.6409 0.0617761 95.0734 0 95.6293 0C96.1236 0 96.6178 0.0617761 97.0502 0.247104C97.4826 0.432432 97.8533 0.679537 98.1004 0.926641C98.4093 1.23552 98.6564 1.60618 98.7799 1.97683C98.9652 2.34749 99.027 2.8417 99.027 3.27413ZM97.4826 3.27413C97.4826 2.96525 97.4208 2.65637 97.3591 2.40927C97.2973 2.16216 97.1737 1.91506 96.9884 1.72973C96.8031 1.5444 96.6178 1.42085 96.4324 1.2973C96.1853 1.17375 95.9382 1.17375 95.6293 1.17375C95.3205 1.17375 95.0734 1.23552 94.8263 1.2973C94.5791 1.42085 94.3938 1.5444 94.2703 1.72973C94.1467 1.91506 94.0232 2.16216 93.8996 2.40927C93.8378 2.65637 93.7761 2.96525 93.7761 3.27413C93.7761 3.58301 93.8378 3.89189 93.8996 4.139C93.9614 4.3861 94.0849 4.6332 94.2703 4.81853C94.4556 5.00386 94.6409 5.12741 94.8263 5.25096C95.0734 5.37452 95.3205 5.37452 95.6293 5.37452C95.9382 5.37452 96.1853 5.31274 96.4324 5.25096C96.6795 5.18919 96.8649 5.00386 96.9884 4.81853C97.1737 4.6332 97.2355 4.44788 97.3591 4.139C97.4208 3.89189 97.4826 3.58301 97.4826 3.27413Z" fill="white"/>
<path d="M103.29 1.17375V2.8417H105.514V4.01544H103.29V6.54826H101.745V0H105.946V1.17375H103.29Z" fill="white"/>
</svg>
