<svg width="1040" height="66" viewBox="0 0 1040 66" fill="none" xmlns="http://www.w3.org/2000/svg">
<path d="M16.07 64.9747C25.5178 64.9747 32.1401 60.5365 32.1401 48.1984C32.1401 39.7659 29.3146 34.884 21.1913 29.3806C14.4807 24.8537 12.5382 21.8358 12.5382 17.4864C12.5382 13.0482 13.5977 10.3853 15.9817 10.3853C18.6307 10.3853 20.22 13.8471 19.1604 22.9897C25.2529 23.1672 31.1688 23.6998 31.1688 23.6998C32.7582 8.6988 27.8135 0.710102 16.1583 0.710102C6.62227 0.710102 0 5.41456 0 16.865C0 24.8537 2.7372 30.5346 10.6839 36.2154C18.0126 41.4524 19.5136 44.3816 19.5136 48.4647C19.5136 53.613 18.3658 55.2995 16.1583 55.2995C13.0679 55.2995 11.8318 51.1276 12.6265 41.8075C5.12122 41.7187 0.264891 41.5412 0.264891 41.5412C-1.14786 57.0748 3.53188 64.9747 16.07 64.9747Z" fill="#D70F82"/>
<path d="M54.1053 65.3297C61.434 65.0635 66.202 65.4185 66.202 65.4185C65.8488 29.0256 65.9371 0.443816 65.9371 0.443816C58.0787 0.62134 53.7521 0.532578 53.7521 0.532578C53.8404 12.5156 54.017 23.4335 54.017 32.7536C50.3969 32.7536 48.1894 32.6649 47.1299 32.6649C46.9533 15.1785 46.865 3.28424 46.865 3.28424C38.0353 3.46176 35.1215 3.373 35.1215 3.373C35.4747 38.7895 35.4747 62.223 35.4747 62.223C42.3618 61.9567 47.4831 62.1343 47.4831 62.1343L47.2182 43.0502C50.5735 42.9614 52.6043 42.9614 54.1053 42.9614C54.2819 56.2759 54.1053 65.3297 54.1053 65.3297Z" fill="#D70F82"/>
<path d="M71.2674 63.377C84.5119 63.5545 95.7256 63.9095 95.7256 63.9095C95.7256 56.5422 95.9022 52.7254 95.9022 52.7254C88.2204 52.5478 83.0991 52.1928 83.0991 52.1928C82.9226 47.5771 82.8343 43.2277 82.746 39.2334C89.1033 39.2334 93.9597 39.3221 93.9597 39.3221C93.8714 32.7536 93.8714 28.0492 93.8714 28.0492C87.1608 28.2267 83.2757 28.1379 82.5694 28.1379C82.3928 19.1729 82.4811 13.7583 82.4811 13.7583C88.397 13.5808 95.6373 13.492 95.6373 13.492C95.4607 6.56848 95.549 1.6865 95.549 1.6865C77.713 1.95279 70.561 2.04155 70.561 2.04155C71.0908 37.8131 71.2674 63.377 71.2674 63.377Z" fill="#D70F82"/>
<path d="M102.201 21.747C106.881 17.5751 110.677 12.6044 110.677 7.18982C110.677 3.19547 108.47 0 104.762 0C100.788 0 98.5808 2.75166 98.5808 6.56848C98.5808 9.23137 99.9935 11.4505 101.848 12.3381C101.318 13.492 99.9935 15.7111 97.6095 18.374C97.6095 18.374 99.4637 19.5279 102.201 21.747Z" fill="#D70F82"/>
<path d="M128.599 64.8859C139.106 64.8859 144.669 58.4062 144.669 48.2872C144.669 41.3637 142.726 35.6828 132.749 29.6469C126.568 25.9189 125.067 22.6346 125.067 19.1729C125.067 14.7347 126.127 12.4269 128.511 12.4269C131.16 12.4269 132.749 15.0897 131.689 23.9661C138.047 23.6998 143.786 23.9661 143.786 23.9661C145.287 10.0302 140.784 2.75166 128.687 2.75166C119.416 2.75166 112.529 7.27858 112.529 18.5515C112.529 27.5166 116.237 32.4873 123.654 37.3693C130.365 41.8075 132.043 44.5591 132.043 48.5535C132.043 52.9029 130.895 55.2107 128.687 55.2107C126.038 55.2107 124.272 52.4591 125.067 43.4052C117.385 43.6715 112.706 43.5828 112.706 43.5828C111.381 57.9624 116.679 64.8859 128.599 64.8859Z" fill="#D70F82"/>
<path d="M163.789 63.377C167.145 63.8208 170.235 64.0871 173.061 64.0871C187.1 64.0871 195.4 59.2051 195.4 46.5119C195.4 38.7008 191.868 33.4637 185.952 31.2447C190.897 29.2919 194.252 24.5874 194.252 17.9302C194.252 6.65724 188.601 0.798869 175.356 0.798869C171.824 0.798869 167.675 1.24269 163.083 2.13032C163.701 34.6177 163.789 63.377 163.789 63.377ZM175.533 54.9444L175.268 36.748C180.831 36.748 183.48 40.0322 183.48 46.2456C183.48 53.1692 180.478 55.2107 175.533 54.9444ZM175.18 10.2965C180.742 9.85272 183.038 12.9594 183.038 19.0841C183.038 25.0312 180.478 27.9604 175.18 27.7829V10.2965Z" fill="#D70F82"/>
<path d="M195.629 62.3118C203.841 62.3118 207.55 62.4893 207.55 62.4893L208.344 52.9029C212.229 52.9029 215.143 52.9917 217.174 52.9917C217.969 61.1579 218.322 65.0635 218.322 65.0635C226.004 64.7972 230.948 64.9747 230.948 64.9747C225.562 32.3098 221.324 1.33145 221.324 1.33145C221.324 1.33145 213.907 1.24269 204.283 1.6865C199.338 38.8783 195.629 62.3118 195.629 62.3118ZM212.671 11.628C214.172 24.7649 215.32 34.9727 216.114 43.0502C211.611 43.1389 209.316 43.0502 209.316 43.0502C210.728 28.3155 212.053 16.7763 212.671 11.628Z" fill="#D70F82"/>
<path d="M248.223 65.1522C258.113 65.241 265 58.9388 264.647 37.7244C264.647 37.7244 258.642 37.7244 251.667 37.9907C252.108 52.1928 250.607 55.0332 248.4 55.0332C245.398 55.0332 244.427 49.9737 244.427 32.8424C244.25 16.4212 245.221 10.4741 248.312 10.4741C250.872 10.4741 251.579 14.3796 251.49 25.5638C251.49 25.5638 256.435 25.8301 264.293 25.9189C264.647 10.9179 260.85 0.355048 248.93 0.355048C236.127 0.355048 231.27 11.0066 231.27 32.9312C231.27 56.1871 236.215 65.1522 248.223 65.1522Z" fill="#D70F82"/>
<path d="M289.217 65.8623C289.217 65.8623 295.222 65.4185 302.197 65.1522C302.197 65.1522 297.959 52.1928 292.131 31.9548C293.985 26.0964 297.429 15.1785 302.109 0.798869C302.109 0.798869 297.517 0.798869 289.659 0.355048C289.659 0.355048 286.568 12.1606 279.858 35.9491C279.858 27.0728 279.858 16.51 280.034 3.373C280.034 3.373 275.884 3.373 267.849 3.28424C267.849 3.28424 268.026 28.1379 267.849 62.5781C267.849 62.5781 271.47 62.4006 280.123 62.4893C280.123 62.4893 280.034 59.5601 279.946 53.8793C280.564 51.9265 281.8 48.4647 283.743 43.4052C284.979 48.1097 286.833 55.3883 289.217 65.8623Z" fill="#D70F82"/>
<path d="M317.391 13.492L326.486 13.4032C326.75 44.2041 326.662 64.0871 326.662 64.0871C334.609 63.9095 338.671 63.9983 338.671 63.9983C338.317 37.1918 338.317 22.1908 338.317 13.4032C343.703 13.4032 347.324 13.492 347.324 13.492C347.235 6.0359 347.5 1.6865 347.5 1.6865C326.574 2.04155 317.303 1.95279 317.303 1.95279C317.479 10.2965 317.391 13.492 317.391 13.492Z" fill="#D70F82"/>
<path d="M365.064 65.0635C376.542 65.0635 382.017 57.3411 382.193 32.7536C382.193 13.8471 378.926 0.798869 365.064 0.798869C351.378 0.798869 348.022 15.001 348.022 32.8424C348.111 54.1456 352.349 65.0635 365.064 65.0635ZM365.24 55.6546C362.15 55.6546 361.09 51.0389 361.09 32.2211C361.09 16.2437 361.973 10.4741 365.064 10.4741C367.889 10.4741 369.125 15.356 369.125 32.3098C369.125 51.6602 367.889 55.6546 365.24 55.6546Z" fill="#D70F82"/>
<path d="M416.166 64.9747C425.613 64.9747 432.236 60.5365 432.236 48.1984C432.236 39.7659 429.41 34.884 421.287 29.3806C414.576 24.8537 412.634 21.8358 412.634 17.4864C412.634 13.0482 413.693 10.3853 416.077 10.3853C418.726 10.3853 420.316 13.8471 419.256 22.9897C425.348 23.1672 431.264 23.6998 431.264 23.6998C432.854 8.6988 427.909 0.710102 416.254 0.710102C406.718 0.710102 400.096 5.41456 400.096 16.865C400.096 24.8537 402.833 30.5346 410.779 36.2154C418.108 41.4524 419.609 44.3816 419.609 48.4647C419.609 53.613 418.461 55.2995 416.254 55.2995C413.163 55.2995 411.927 51.1276 412.722 41.8075C405.217 41.7187 400.36 41.5412 400.36 41.5412C398.948 57.0748 403.627 64.9747 416.166 64.9747Z" fill="#D70F82"/>
<path d="M454.201 65.3297C461.529 65.0635 466.298 65.4185 466.298 65.4185C465.944 29.0256 466.033 0.443816 466.033 0.443816C458.174 0.62134 453.848 0.532578 453.848 0.532578C453.936 12.5156 454.113 23.4335 454.113 32.7536C450.492 32.7536 448.285 32.6649 447.225 32.6649C447.049 15.1785 446.96 3.28424 446.96 3.28424C438.131 3.46176 435.217 3.373 435.217 3.373C435.57 38.7895 435.57 62.223 435.57 62.223C442.457 61.9567 447.579 62.1343 447.579 62.1343L447.314 43.0502C450.669 42.9614 452.7 42.9614 454.201 42.9614C454.377 56.2759 454.201 65.3297 454.201 65.3297Z" fill="#D70F82"/>
<path d="M468.626 62.3118C476.837 62.3118 480.546 62.4893 480.546 62.4893L481.34 52.9029C485.225 52.9029 488.139 52.9917 490.17 52.9917C490.965 61.1579 491.318 65.0635 491.318 65.0635C499 64.7972 503.944 64.9747 503.944 64.9747C498.558 32.3098 494.32 1.33145 494.32 1.33145C494.32 1.33145 486.903 1.24269 477.279 1.6865C472.334 38.8783 468.626 62.3118 468.626 62.3118ZM485.667 11.628C487.168 24.7649 488.316 34.9727 489.111 43.0502C484.607 43.1389 482.312 43.0502 482.312 43.0502C483.724 28.3155 485.049 16.7763 485.667 11.628Z" fill="#D70F82"/>
<path d="M527.723 65.8623C527.723 65.8623 533.727 65.4185 540.702 65.1522C540.702 65.1522 536.464 52.1928 530.636 31.9548C532.491 26.0964 535.934 15.1785 540.614 0.798869C540.614 0.798869 536.022 0.798869 528.164 0.355048C528.164 0.355048 525.074 12.1606 518.363 35.9491C518.363 27.0728 518.363 16.51 518.54 3.373C518.54 3.373 514.39 3.373 506.355 3.28424C506.355 3.28424 506.531 28.1379 506.355 62.5781C506.355 62.5781 509.975 62.4006 518.628 62.4893C518.628 62.4893 518.54 59.5601 518.451 53.8793C519.069 51.9265 520.306 48.4647 522.248 43.4052C523.484 48.1097 525.339 55.3883 527.723 65.8623Z" fill="#D70F82"/>
<path d="M543.277 63.377C556.521 63.5545 567.735 63.9095 567.735 63.9095C567.735 56.5422 567.911 52.7254 567.911 52.7254C560.23 52.5478 555.108 52.1928 555.108 52.1928C554.932 47.5771 554.844 43.2277 554.755 39.2334C561.113 39.2334 565.969 39.3221 565.969 39.3221C565.881 32.7536 565.881 28.0492 565.881 28.0492C559.17 28.2267 555.285 28.1379 554.579 28.1379C554.402 19.1729 554.49 13.7583 554.49 13.7583C560.406 13.5808 567.647 13.492 567.647 13.492C567.47 6.56848 567.558 1.6865 567.558 1.6865C549.722 1.95279 542.57 2.04155 542.57 2.04155C543.1 37.8131 543.277 63.377 543.277 63.377Z" fill="#D70F82"/>
<path d="M602.261 64.8859C614.181 64.8859 618.773 55.122 618.773 31.9548C618.773 22.0133 617.625 10.6516 616.035 0.355048C608.53 1.24269 603.939 1.33145 603.939 1.33145C605.351 11.8943 606.234 22.9897 606.234 32.4873C606.234 50.3288 604.733 53.0804 602.173 53.0804C599.612 53.0804 597.493 47.4883 597.493 28.0492C597.493 21.4807 598.023 14.3796 599.082 4.43816C590.959 3.46176 587.515 2.84042 587.515 2.84042C586.279 11.628 585.661 21.1257 585.661 30.8008C585.661 53.7018 589.899 64.8859 602.261 64.8859Z" fill="#D70F82"/>
<path d="M622.16 63.1994C629.401 62.9331 634.522 63.1107 634.522 63.1107L634.169 48.731C646.177 48.2872 653.417 40.0322 653.417 25.5638C653.417 10.0302 646.53 1.95279 629.489 1.95279C627.281 1.95279 624.809 2.13032 622.249 2.3966C622.513 39.8547 622.16 63.1994 622.16 63.1994ZM633.904 12.6931C638.76 12.4269 641.144 17.0425 641.144 25.9189C641.144 35.6828 638.407 38.612 633.992 39.0558C633.815 25.8301 633.904 20.7706 633.904 12.6931Z" fill="#D70F82"/>
<path d="M669.113 13.492L678.207 13.4032C678.472 44.2041 678.384 64.0871 678.384 64.0871C686.331 63.9095 690.392 63.9983 690.392 63.9983C690.039 37.1918 690.039 22.1908 690.039 13.4032C695.425 13.4032 699.046 13.492 699.046 13.492C698.957 6.0359 699.222 1.6865 699.222 1.6865C678.296 2.04155 669.025 1.95279 669.025 1.95279C669.201 10.2965 669.113 13.492 669.113 13.492Z" fill="#D70F82"/>
<path d="M720.816 65.3297C728.145 65.0635 732.913 65.4185 732.913 65.4185C732.56 29.0256 732.648 0.443816 732.648 0.443816C724.79 0.62134 720.463 0.532578 720.463 0.532578C720.551 12.5156 720.728 23.4335 720.728 32.7536C717.108 32.7536 714.9 32.6649 713.841 32.6649C713.664 15.1785 713.576 3.28424 713.576 3.28424C704.746 3.46176 701.832 3.373 701.832 3.373C702.186 38.7895 702.186 62.223 702.186 62.223C709.073 61.9567 714.194 62.1343 714.194 62.1343L713.929 43.0502C717.284 42.9614 719.315 42.9614 720.816 42.9614C720.993 56.2759 720.816 65.3297 720.816 65.3297Z" fill="#D70F82"/>
<path d="M737.978 63.377C751.223 63.5545 762.437 63.9095 762.437 63.9095C762.437 56.5422 762.613 52.7254 762.613 52.7254C754.931 52.5478 749.81 52.1928 749.81 52.1928C749.633 47.5771 749.545 43.2277 749.457 39.2334C755.814 39.2334 760.671 39.3221 760.671 39.3221C760.582 32.7536 760.582 28.0492 760.582 28.0492C753.872 28.2267 749.987 28.1379 749.28 28.1379C749.104 19.1729 749.192 13.7583 749.192 13.7583C755.108 13.5808 762.348 13.492 762.348 13.492C762.172 6.56848 762.26 1.6865 762.26 1.6865C744.424 1.95279 737.272 2.04155 737.272 2.04155C737.802 37.8131 737.978 63.377 737.978 63.377Z" fill="#D70F82"/>
<path d="M809.413 65.9511C809.413 65.9511 814.004 66.2174 826.277 65.5073C826.277 65.5073 827.69 43.5828 831.31 1.59773C831.31 1.59773 825.483 1.59773 818.507 1.24269C818.507 1.24269 818.419 13.5808 817.006 53.5242C815.947 45.8906 813.827 30.0907 811.09 6.47971C811.09 6.47971 807.029 6.12466 800.23 6.21343C800.23 6.21343 799.258 12.1606 794.049 48.5535C794.049 48.5535 793.343 33.9963 792.724 3.01795L779.745 3.373C779.745 3.373 781.864 23.3447 784.601 61.5129C784.601 61.5129 788.221 61.3354 800.141 62.0455C800.141 62.0455 801.289 52.4591 805.527 22.6346C806.41 31.9548 807.735 46.3344 809.413 65.9511Z" fill="#D70F82"/>
<path d="M834.812 62.5781C848.056 62.7556 859.093 62.9331 859.093 62.9331C859.093 55.5658 859.27 51.749 859.27 51.749C851.588 51.8377 846.643 51.749 846.643 51.749C846.467 47.5771 846.379 43.6715 846.29 40.121C852.559 40.0322 857.239 40.121 857.239 40.121C857.151 33.5525 857.239 29.1143 857.239 29.1143C850.97 29.2919 846.114 29.2919 846.114 29.2919C846.025 19.9717 846.025 14.6459 846.025 14.6459C852.648 14.2909 859.005 14.2021 859.005 14.2021C858.74 7.27858 858.829 2.3966 858.829 2.3966C841.257 2.92919 834.105 2.92919 834.105 2.92919C834.635 38.7008 834.812 62.5781 834.812 62.5781Z" fill="#D70F82"/>
<path d="M877.396 64.9747C886.844 64.9747 893.466 60.5365 893.466 48.1984C893.466 39.7659 890.641 34.884 882.518 29.3806C875.807 24.8537 873.865 21.8358 873.865 17.4864C873.865 13.0482 874.924 10.3853 877.308 10.3853C879.957 10.3853 881.546 13.8471 880.487 22.9897C886.579 23.1672 892.495 23.6998 892.495 23.6998C894.084 8.6988 889.14 0.710102 877.485 0.710102C867.949 0.710102 861.326 5.41456 861.326 16.865C861.326 24.8537 864.064 30.5346 872.01 36.2154C879.339 41.4524 880.84 44.3816 880.84 48.4647C880.84 53.613 879.692 55.2995 877.485 55.2995C874.394 55.2995 873.158 51.1276 873.953 41.8075C866.448 41.7187 861.591 41.5412 861.591 41.5412C860.178 57.0748 864.858 64.9747 877.396 64.9747Z" fill="#D70F82"/>
<path d="M894.339 13.492L903.434 13.4032C903.698 44.2041 903.61 64.0871 903.61 64.0871C911.557 63.9095 915.619 63.9983 915.619 63.9983C915.265 37.1918 915.265 22.1908 915.265 13.4032C920.652 13.4032 924.272 13.492 924.272 13.492C924.183 6.0359 924.448 1.6865 924.448 1.6865C903.522 2.04155 894.251 1.95279 894.251 1.95279C894.427 10.2965 894.339 13.492 894.339 13.492Z" fill="#D70F82"/>
<path d="M942.337 62.5781C955.582 62.7556 966.619 62.9331 966.619 62.9331C966.619 55.5658 966.796 51.749 966.796 51.749C959.114 51.8377 954.169 51.749 954.169 51.749C953.993 47.5771 953.904 43.6715 953.816 40.121C960.085 40.0322 964.765 40.121 964.765 40.121C964.677 33.5525 964.765 29.1143 964.765 29.1143C958.496 29.2919 953.639 29.2919 953.639 29.2919C953.551 19.9717 953.551 14.6459 953.551 14.6459C960.173 14.2909 966.531 14.2021 966.531 14.2021C966.266 7.27858 966.354 2.3966 966.354 2.3966C948.783 2.92919 941.631 2.92919 941.631 2.92919C942.161 38.7008 942.337 62.5781 942.337 62.5781Z" fill="#D70F82"/>
<path d="M970.265 62.223C976.887 62.223 981.655 62.4006 981.655 62.4006C980.86 48.1097 980.507 35.4165 980.419 27.4278C987.571 50.6838 991.986 65.1522 991.986 65.1522C999.579 64.6196 1003.2 64.0871 1003.2 64.0871C1002.32 24.4987 1001.96 0.62134 1001.96 0.62134C995.164 0.710102 991.015 0.443816 991.015 0.443816C992.162 18.0189 992.692 32.5761 992.957 41.3637C986.335 20.238 981.743 3.46176 981.743 3.46176C974.68 3.63929 970 3.99434 970 3.99434C970.53 40.0322 970.265 62.223 970.265 62.223Z" fill="#D70F82"/>
<path d="M1019.96 54.9444C1019.96 54.9444 1019.52 33.0199 1019.43 11.628C1024.81 10.8291 1027.11 16.7763 1027.11 33.375C1027.11 53.1692 1024.46 55.2995 1019.96 54.9444ZM1007.6 63.9983C1010.95 64.5309 1014.13 64.7972 1016.95 64.7972C1032.23 64.7972 1040 56.8085 1040 34.1738C1040 11.628 1033.73 1.24269 1016.69 1.24269C1013.95 1.24269 1010.95 1.50897 1007.6 2.13032C1007.6 2.13032 1007.77 32.3986 1007.6 63.9983Z" fill="#D70F82"/>
</svg>
