<svg width="1093" height="131" viewBox="0 0 1093 131" fill="none" xmlns="http://www.w3.org/2000/svg">
<g filter="url(#filter0_d)">
<path d="M49.8483 37.984C54.3923 42.08 60.6003 44.768 69.6883 44.768C81.1443 44.768 88.1203 39.328 88.1203 29.92C88.1203 20.064 77.6883 18.016 70.6483 16.8C66.1042 16.032 64.3763 15.456 64.3763 13.792C64.3763 12.704 65.0803 11.552 68.2803 11.552C71.6723 11.552 76.4723 12.96 80.1843 15.776L87.0963 6.624C82.2323 2.656 75.9603 0.671997 68.9843 0.671997C57.2723 0.671997 51.2563 7.264 51.2563 14.496C51.2563 25.184 62.0083 26.848 69.0483 28.128C73.2723 28.896 75.0643 29.728 75.0643 31.392C75.0643 33.056 72.7603 33.888 70.3283 33.888C64.5683 33.888 59.7683 31.456 56.5683 28.384L49.8483 37.984ZM92.3623 44H105.29V1.312H92.3623V44ZM109.871 22.688C109.871 36.32 120.431 44.768 133.359 44.768C141.743 44.768 148.143 41.376 152.879 36.128V18.976H132.079V29.6H140.335V31.456C138.671 32.672 136.111 33.376 133.359 33.376C127.151 33.376 122.991 28.64 122.991 22.688C122.991 16.736 127.151 12 133.359 12C137.007 12 139.823 14.048 141.231 16.672L152.111 11.104C149.167 5.6 143.279 0.607998 133.359 0.607998C120.431 0.607998 109.871 8.992 109.871 22.688ZM187.284 44H199.7V1.312H186.772V22.816L171.924 1.312H158.612V44H171.54V21.088L187.284 44ZM222.925 26.464C222.925 37.024 229.069 44.768 243.469 44.768C257.869 44.768 263.949 37.024 263.949 26.4V1.312H250.829V26.016C250.829 30.112 248.717 33.376 243.469 33.376C238.157 33.376 236.045 30.112 236.045 26.016V1.312H222.925V26.464ZM270.862 44H283.79V30.304H293.646C303.63 30.304 309.006 23.904 309.006 15.968C309.006 7.968 303.63 1.312 293.646 1.312H270.862V44ZM295.886 15.84C295.886 18.08 294.158 19.552 291.982 19.552H283.79V12.064H291.982C294.158 12.064 295.886 13.536 295.886 15.84ZM329.55 44H342.478V27.808H361.486V17.056H342.478V12.064H361.934V1.312H329.55V44ZM365.121 22.688C365.121 35.808 375.297 44.768 388.481 44.768C401.665 44.768 411.841 35.808 411.841 22.688C411.841 9.568 401.665 0.607998 388.481 0.607998C375.297 0.607998 365.121 9.568 365.121 22.688ZM398.721 22.688C398.721 28.64 394.689 33.376 388.481 33.376C382.273 33.376 378.241 28.64 378.241 22.688C378.241 16.736 382.273 12 388.481 12C394.689 12 398.721 16.736 398.721 22.688ZM439.913 44H454.633L446.889 28.896C450.281 27.232 454.569 23.328 454.569 15.968C454.569 7.968 449.193 1.312 439.209 1.312H416.425V44H429.353V30.304H434.025L439.913 44ZM441.449 15.776C441.449 18.144 439.401 19.552 437.225 19.552H429.353V12.064H437.225C439.401 12.064 441.449 13.472 441.449 15.776ZM505.232 44H519.248L503.504 1.312H487.248L471.504 44H485.52L487.184 38.496H503.568L505.232 44ZM495.376 12.704L500.24 27.744H490.512L495.376 12.704ZM521.55 44H550.67V32.736H534.478V1.312H521.55V44ZM555.862 44H584.982V32.736H568.79V1.312H555.862V44ZM615.639 44H628.567V12.576H639.959V1.312H604.183V12.576H615.639V44ZM672.774 44H685.702V1.312H672.774V16.416H657.478V1.312H644.55V44H657.478V27.68H672.774V44ZM692.612 44H724.996V33.248H705.54V27.808H724.548V17.056H705.54V12.064H724.996V1.312H692.612V44ZM775.722 44H788.138V1.312H775.21V22.816L760.362 1.312H747.05V44H759.978V21.088L775.722 44ZM795.05 44H827.434V33.248H807.978V27.808H826.986V17.056H807.978V12.064H827.434V1.312H795.05V44ZM865.751 44H879.319L891.543 1.312H877.015L871.575 27.424L865.111 1.312H855.383L848.919 27.424L843.415 1.312H828.951L841.175 44H854.743L860.247 19.808L865.751 44ZM890.973 37.984C895.517 42.08 901.725 44.768 910.813 44.768C922.269 44.768 929.245 39.328 929.245 29.92C929.245 20.064 918.813 18.016 911.773 16.8C907.229 16.032 905.501 15.456 905.501 13.792C905.501 12.704 906.205 11.552 909.405 11.552C912.797 11.552 917.597 12.96 921.309 15.776L928.221 6.624C923.357 2.656 917.085 0.671997 910.109 0.671997C898.397 0.671997 892.381 7.264 892.381 14.496C892.381 25.184 903.133 26.848 910.173 28.128C914.397 28.896 916.189 29.728 916.189 31.392C916.189 33.056 913.885 33.888 911.453 33.888C905.693 33.888 900.893 31.456 897.693 28.384L890.973 37.984ZM947.496 22.688C947.496 35.808 957.672 44.768 970.856 44.768C984.04 44.768 994.216 35.808 994.216 22.688C994.216 9.568 984.04 0.607998 970.856 0.607998C957.672 0.607998 947.496 9.568 947.496 22.688ZM981.096 22.688C981.096 28.64 977.064 33.376 970.856 33.376C964.648 33.376 960.616 28.64 960.616 22.688C960.616 16.736 964.648 12 970.856 12C977.064 12 981.096 16.736 981.096 22.688ZM1027.47 44H1039.89V1.312H1026.96V22.816L1012.11 1.312H998.8V44H1011.73V21.088L1027.47 44ZM33.0863 122H46.0143V79.312H33.0863V94.416H17.7903V79.312H4.86225V122H17.7903V105.68H33.0863V122ZM82.0448 122H96.0608L80.3168 79.312H64.0608L48.3167 122H62.3328L63.9968 116.496H80.3808L82.0448 122ZM72.1888 90.704L77.0528 105.744H67.3248L72.1888 90.704ZM98.3623 122H111.29V79.312H98.3623V122ZM141.663 122H156.383L148.639 106.896C152.031 105.232 156.319 101.328 156.319 93.968C156.319 85.968 150.943 79.312 140.959 79.312H118.175V122H131.103V108.304H135.775L141.663 122ZM143.199 93.776C143.199 96.144 141.151 97.552 138.975 97.552H131.103V90.064H138.975C141.151 90.064 143.199 91.472 143.199 93.776ZM158.286 115.984C162.83 120.08 169.038 122.768 178.126 122.768C189.582 122.768 196.558 117.328 196.558 107.92C196.558 98.064 186.126 96.016 179.086 94.8C174.542 94.032 172.814 93.456 172.814 91.792C172.814 90.704 173.518 89.552 176.718 89.552C180.11 89.552 184.91 90.96 188.622 93.776L195.534 84.624C190.67 80.656 184.398 78.672 177.422 78.672C165.71 78.672 159.694 85.264 159.694 92.496C159.694 103.184 170.446 104.848 177.486 106.128C181.71 106.896 183.502 107.728 183.502 109.392C183.502 111.056 181.198 111.888 178.766 111.888C173.006 111.888 168.206 109.456 165.006 106.384L158.286 115.984ZM200.8 122H213.728V108.304H223.584C233.568 108.304 238.944 101.904 238.944 93.968C238.944 85.968 233.568 79.312 223.584 79.312H200.8V122ZM225.824 93.84C225.824 96.08 224.096 97.552 221.92 97.552H213.728V90.064H221.92C224.096 90.064 225.824 91.536 225.824 93.84ZM266.663 122H281.383L273.639 106.896C277.031 105.232 281.319 101.328 281.319 93.968C281.319 85.968 275.943 79.312 265.959 79.312H243.175V122H256.103V108.304H260.775L266.663 122ZM268.199 93.776C268.199 96.144 266.151 97.552 263.975 97.552H256.103V90.064H263.975C266.151 90.064 268.199 91.472 268.199 93.776ZM315.67 122H329.686L313.942 79.312H297.686L281.942 122H295.958L297.622 116.496H314.006L315.67 122ZM305.814 90.704L310.678 105.744H300.95L305.814 90.704ZM338.879 122H351.807V105.04L367.679 79.312H353.151L345.343 93.712L337.407 79.312H322.879L338.879 105.04V122ZM374.787 101.008C379.779 97.488 382.787 92.56 382.787 86.928C382.787 81.68 379.267 78.672 375.363 78.672C371.779 78.672 368.707 81.68 368.707 85.392C368.707 88.976 371.203 91.344 374.275 91.344C374.979 91.344 375.619 91.216 375.939 91.088C375.107 93.52 372.163 96.336 370.115 97.232L374.787 101.008ZM384.723 115.984C389.267 120.08 395.475 122.768 404.563 122.768C416.019 122.768 422.995 117.328 422.995 107.92C422.995 98.064 412.563 96.016 405.523 94.8C400.979 94.032 399.251 93.456 399.251 91.792C399.251 90.704 399.955 89.552 403.155 89.552C406.547 89.552 411.347 90.96 415.059 93.776L421.971 84.624C417.107 80.656 410.835 78.672 403.859 78.672C392.147 78.672 386.131 85.264 386.131 92.496C386.131 103.184 396.883 104.848 403.923 106.128C408.147 106.896 409.939 107.728 409.939 109.392C409.939 111.056 407.635 111.888 405.203 111.888C399.443 111.888 394.643 109.456 391.443 106.384L384.723 115.984ZM467.038 122H481.758L474.014 106.896C477.406 105.232 481.694 101.328 481.694 93.968C481.694 85.968 476.318 79.312 466.334 79.312H443.55V122H456.478V108.304H461.15L467.038 122ZM468.574 93.776C468.574 96.144 466.526 97.552 464.35 97.552H456.478V90.064H464.35C466.526 90.064 468.574 91.472 468.574 93.776ZM486.925 122H519.309V111.248H499.853V105.808H518.861V95.056H499.853V90.064H519.309V79.312H486.925V122ZM534.202 122H547.13V90.576H558.522V79.312H522.746V90.576H534.202V122ZM563.112 104.464C563.112 115.024 569.256 122.768 583.656 122.768C598.056 122.768 604.136 115.024 604.136 104.4V79.312H591.016V104.016C591.016 108.112 588.904 111.376 583.656 111.376C578.344 111.376 576.232 108.112 576.232 104.016V79.312H563.112V104.464ZM634.538 122H649.258L641.514 106.896C644.906 105.232 649.194 101.328 649.194 93.968C649.194 85.968 643.818 79.312 633.834 79.312H611.05V122H623.978V108.304H628.65L634.538 122ZM636.074 93.776C636.074 96.144 634.026 97.552 631.85 97.552H623.978V90.064H631.85C634.026 90.064 636.074 91.472 636.074 93.776ZM683.097 122H695.513V79.312H682.585V100.816L667.737 79.312H654.425V122H667.353V99.088L683.097 122ZM727.889 122H740.817V90.576H752.209V79.312H716.433V90.576H727.889V122ZM753.246 100.688C753.246 113.808 763.422 122.768 776.606 122.768C789.79 122.768 799.966 113.808 799.966 100.688C799.966 87.568 789.79 78.608 776.606 78.608C763.422 78.608 753.246 87.568 753.246 100.688ZM786.846 100.688C786.846 106.64 782.814 111.376 776.606 111.376C770.398 111.376 766.366 106.64 766.366 100.688C766.366 94.736 770.398 90 776.606 90C782.814 90 786.846 94.736 786.846 100.688ZM820.862 122H849.982V110.736H833.79V79.312H820.862V122ZM851.621 100.688C851.621 113.808 861.797 122.768 874.981 122.768C888.165 122.768 898.341 113.808 898.341 100.688C898.341 87.568 888.165 78.608 874.981 78.608C861.797 78.608 851.621 87.568 851.621 100.688ZM885.221 100.688C885.221 106.64 881.189 111.376 874.981 111.376C868.773 111.376 864.741 106.64 864.741 100.688C864.741 94.736 868.773 90 874.981 90C881.189 90 885.221 94.736 885.221 100.688ZM931.597 122H944.013V79.312H931.085V100.816L916.237 79.312H902.925V122H915.853V99.088L931.597 122ZM950.925 122H970.061C983.437 122 993.421 114.256 993.421 100.624C993.421 86.992 983.437 79.312 969.997 79.312H950.925V122ZM963.853 110.736V90.576H970.061C976.973 90.576 980.301 94.864 980.301 100.624C980.301 106 976.461 110.736 969.997 110.736H963.853ZM995.746 100.688C995.746 113.808 1005.92 122.768 1019.11 122.768C1032.29 122.768 1042.47 113.808 1042.47 100.688C1042.47 87.568 1032.29 78.608 1019.11 78.608C1005.92 78.608 995.746 87.568 995.746 100.688ZM1029.35 100.688C1029.35 106.64 1025.31 111.376 1019.11 111.376C1012.9 111.376 1008.87 106.64 1008.87 100.688C1008.87 94.736 1012.9 90 1019.11 90C1025.31 90 1029.35 94.736 1029.35 100.688ZM1075.72 122H1088.14V79.312H1075.21V100.816L1060.36 79.312H1047.05V122H1059.98V99.088L1075.72 122Z" fill="#633E97"/>
</g>
<defs>
<filter id="filter0_d" x="0.862244" y="0.608002" width="1091.28" height="130.16" filterUnits="userSpaceOnUse" color-interpolation-filters="sRGB">
<feFlood flood-opacity="0" result="BackgroundImageFix"/>
<feColorMatrix in="SourceAlpha" type="matrix" values="0 0 0 0 0 0 0 0 0 0 0 0 0 0 0 0 0 0 127 0"/>
<feOffset dy="4"/>
<feGaussianBlur stdDeviation="2"/>
<feColorMatrix type="matrix" values="0 0 0 0 0 0 0 0 0 0 0 0 0 0 0 0 0 0 0.25 0"/>
<feBlend mode="normal" in2="BackgroundImageFix" result="effect1_dropShadow"/>
<feBlend mode="normal" in="SourceGraphic" in2="effect1_dropShadow" result="shape"/>
</filter>
</defs>
</svg>
