<svg width="946" height="168" viewBox="0 0 946 168" fill="none" xmlns="http://www.w3.org/2000/svg">
<path d="M49.9678 70.44C60.2398 70.44 67.4398 65.64 67.4398 52.296C67.4398 43.176 64.3678 37.896 55.5358 31.944C48.2398 27.048 46.1278 23.784 46.1278 19.08C46.1278 14.28 47.2798 11.4 49.8718 11.4C52.7518 11.4 54.4798 15.144 53.3278 25.032C59.9518 25.224 66.3838 25.8 66.3838 25.8C68.1118 9.576 62.7358 0.935995 50.0638 0.935995C39.6958 0.935995 32.4958 6.024 32.4958 18.408C32.4958 27.048 35.4718 33.192 44.1118 39.336C52.0798 45 53.7118 48.168 53.7118 52.584C53.7118 58.152 52.4638 59.976 50.0638 59.976C46.7038 59.976 45.3598 55.464 46.2238 45.384C38.0638 45.288 32.7838 45.096 32.7838 45.096C31.2477 61.896 36.3358 70.44 49.9678 70.44ZM71.8333 69.096C80.3773 69 84.9853 69.096 84.9853 69.096C84.6973 34.44 84.5053 2.27999 84.5053 2.27999C75.9613 2.376 71.4492 2.376 71.4492 2.376C71.9293 39.72 71.8333 69.096 71.8333 69.096ZM108.22 70.536C120.028 70.536 127.132 63.816 125.884 34.44C117.628 34.632 106.876 34.536 106.876 34.536C107.068 41.256 106.972 45.384 106.972 45.384C106.972 45.384 109.372 45.192 112.732 45.096C113.02 56.232 111.868 60.36 108.796 60.36C105.148 60.36 103.612 55.368 103.516 35.592C103.516 18.792 104.668 11.88 108.124 11.88C111.004 11.88 112.252 16.488 112.06 27.912C115.036 28.008 125.212 28.104 125.212 28.104C125.98 12.168 120.892 1.032 108.316 1.032C95.2603 1.032 89.6923 12.552 89.6923 35.4C89.6923 62.568 96.5083 70.536 108.22 70.536ZM130.219 67.464C137.419 67.464 142.603 67.656 142.603 67.656C141.739 52.2 141.355 38.472 141.259 29.832C149.035 54.984 153.835 70.632 153.835 70.632C162.091 70.056 166.027 69.48 166.027 69.48C165.067 26.664 164.683 0.839996 164.683 0.839996C157.291 0.935995 152.779 0.647999 152.779 0.647999C154.027 19.656 154.603 35.4 154.891 44.904C147.691 22.056 142.699 3.912 142.699 3.912C135.019 4.10399 129.931 4.488 129.931 4.488C130.507 43.464 130.219 67.464 130.219 67.464ZM204.58 70.344C217.54 70.344 222.532 59.784 222.532 34.728C222.532 23.976 221.284 11.688 219.556 0.551994C211.396 1.512 206.404 1.608 206.404 1.608C207.94 13.032 208.9 25.032 208.9 35.304C208.9 54.6 207.268 57.576 204.484 57.576C201.7 57.576 199.396 51.528 199.396 30.504C199.396 23.4 199.972 15.72 201.124 4.96799C192.292 3.912 188.548 3.23999 188.548 3.23999C187.204 12.744 186.532 23.016 186.532 33.48C186.532 58.248 191.14 70.344 204.58 70.344ZM226.215 68.52C234.087 68.232 239.655 68.424 239.655 68.424L239.271 52.872C252.327 52.392 260.199 43.464 260.199 27.816C260.199 11.016 252.711 2.27999 234.183 2.27999C231.783 2.27999 229.095 2.472 226.311 2.75999C226.599 43.272 226.215 68.52 226.215 68.52ZM238.983 13.896C244.263 13.608 246.855 18.6 246.855 28.2C246.855 38.76 243.879 41.928 239.079 42.408C238.887 28.104 238.983 22.632 238.983 13.896ZM280.793 68.808C280.793 68.808 286.169 68.616 293.753 68.712L293.369 46.248C301.817 46.056 306.041 46.248 306.041 46.248C305.945 38.76 305.945 33.576 305.945 33.576C298.841 33.864 294.521 33.768 293.177 33.768C293.081 21.384 293.081 15.048 293.081 15.048C302.393 14.76 307.289 14.856 307.289 14.856C307.289 6.408 307.385 1.992 307.385 1.992C292.505 2.27999 280.025 2.376 280.025 2.376C280.697 41.16 280.793 68.808 280.793 68.808ZM327.97 70.536C340.45 70.536 346.402 62.184 346.594 35.592C346.594 15.144 343.042 1.032 327.97 1.032C313.09 1.032 309.442 16.392 309.442 35.688C309.538 58.728 314.146 70.536 327.97 70.536ZM328.162 60.36C324.802 60.36 323.65 55.368 323.65 35.016C323.65 17.736 324.61 11.496 327.97 11.496C331.042 11.496 332.386 16.776 332.386 35.112C332.386 56.04 331.042 60.36 328.162 60.36ZM373.565 70.824C382.109 70.248 387.101 69.768 387.101 69.768C381.341 52.968 378.173 43.272 377.405 40.68C382.493 37.32 385.565 31.848 385.565 23.304C385.565 9 378.461 0.935995 363.485 0.935995C359.741 0.935995 355.517 1.41599 350.717 2.27999C351.005 42.792 350.621 67.752 350.621 67.752C358.301 67.656 364.061 67.656 364.061 67.656C363.869 56.904 363.677 49.128 363.677 45.096C364.541 45 365.501 44.904 366.365 44.712C370.973 60.936 373.565 70.824 373.565 70.824ZM363.677 36.072C363.677 36.072 363.485 25.224 363.389 12.264C363.389 12.264 364.253 12.168 364.637 12.168C369.725 12.168 371.933 16.872 371.933 24.264C371.933 32.712 368.381 35.784 363.677 36.072ZM402.505 67.56C411.433 67.56 415.465 67.752 415.465 67.752L416.329 57.384C420.553 57.384 423.721 57.48 425.929 57.48C426.793 66.312 427.177 70.536 427.177 70.536C435.529 70.248 440.905 70.44 440.905 70.44C435.049 35.112 430.441 1.608 430.441 1.608C430.441 1.608 422.377 1.512 411.913 1.992C406.537 42.216 402.505 67.56 402.505 67.56ZM421.033 12.744C422.665 26.952 423.913 37.992 424.777 46.728C419.881 46.824 417.385 46.728 417.385 46.728C418.921 30.792 420.361 18.312 421.033 12.744ZM444.101 68.616C444.101 68.616 461.477 68.808 470.981 69C470.981 69 470.981 64.392 471.077 57.096C471.077 57.096 466.085 57.096 456.965 56.808C456.389 16.296 456.581 2.856 456.581 2.856C447.749 3.048 443.525 2.856 443.525 2.856C444.005 42.12 444.101 68.616 444.101 68.616ZM474.007 67.464C474.007 67.464 484.471 67.464 500.215 67.944C500.215 67.944 500.215 63.24 500.311 55.944C500.311 55.944 495.895 56.04 486.871 55.848C486.295 15.336 486.487 3.912 486.487 3.912C477.655 4.008 473.431 3.912 473.431 3.912C473.911 43.08 474.007 67.464 474.007 67.464ZM514.826 14.76L524.714 14.664C525.002 47.976 524.906 69.48 524.906 69.48C533.546 69.288 537.962 69.384 537.962 69.384C537.578 40.392 537.578 24.168 537.578 14.664C543.434 14.664 547.37 14.76 547.37 14.76C547.274 6.696 547.562 1.992 547.562 1.992C524.81 2.376 514.73 2.27999 514.73 2.27999C514.922 11.304 514.826 14.76 514.826 14.76ZM571.04 70.824C579.008 70.536 584.192 70.92 584.192 70.92C583.808 31.56 583.904 0.647999 583.904 0.647999C575.36 0.839996 570.656 0.743998 570.656 0.743998C570.752 13.704 570.944 25.512 570.944 35.592C567.008 35.592 564.608 35.496 563.456 35.496C563.264 16.584 563.168 3.72 563.168 3.72C553.568 3.912 550.4 3.816 550.4 3.816C550.784 42.12 550.784 67.464 550.784 67.464C558.272 67.176 563.84 67.368 563.84 67.368L563.552 46.728C567.2 46.632 569.408 46.632 571.04 46.632C571.232 61.032 571.04 70.824 571.04 70.824ZM589.699 68.712C604.099 68.904 616.291 69.288 616.291 69.288C616.291 61.32 616.483 57.192 616.483 57.192C608.131 57 602.563 56.616 602.563 56.616C602.371 51.624 602.275 46.92 602.179 42.6C609.091 42.6 614.371 42.696 614.371 42.696C614.275 35.592 614.275 30.504 614.275 30.504C606.979 30.696 602.755 30.6 601.987 30.6C601.795 20.904 601.891 15.048 601.891 15.048C608.323 14.856 616.195 14.76 616.195 14.76C616.003 7.272 616.099 1.992 616.099 1.992C596.707 2.27999 588.931 2.376 588.931 2.376C589.507 41.064 589.699 68.712 589.699 68.712ZM637.126 67.464C644.326 67.464 649.51 67.656 649.51 67.656C648.646 52.2 648.262 38.472 648.166 29.832C655.942 54.984 660.742 70.632 660.742 70.632C668.998 70.056 672.934 69.48 672.934 69.48C671.974 26.664 671.59 0.839996 671.59 0.839996C664.198 0.935995 659.686 0.647999 659.686 0.647999C660.934 19.656 661.51 35.4 661.798 44.904C654.598 22.056 649.606 3.912 649.606 3.912C641.926 4.10399 636.838 4.488 636.838 4.488C637.414 43.464 637.126 67.464 637.126 67.464ZM678.48 67.848C692.881 68.04 704.881 68.232 704.881 68.232C704.881 60.264 705.073 56.136 705.073 56.136C696.721 56.232 691.345 56.136 691.345 56.136C691.153 51.624 691.057 47.4 690.961 43.56C697.777 43.464 702.865 43.56 702.865 43.56C702.769 36.456 702.865 31.656 702.865 31.656C696.049 31.848 690.769 31.848 690.769 31.848C690.673 21.768 690.673 16.008 690.673 16.008C697.873 15.624 704.785 15.528 704.785 15.528C704.497 8.04 704.593 2.75999 704.593 2.75999C685.489 3.336 677.713 3.336 677.713 3.336C678.289 42.024 678.48 67.848 678.48 67.848ZM739.084 71.496C739.084 71.496 744.076 71.784 757.42 71.016C757.42 71.016 758.956 47.304 762.892 1.89599C762.892 1.89599 756.556 1.89599 748.972 1.512C748.972 1.512 748.876 14.856 747.34 58.056C746.188 49.8 743.884 32.712 740.908 7.17599C740.908 7.17599 736.492 6.792 729.1 6.888C729.1 6.888 728.044 13.32 722.38 52.68C722.38 52.68 721.612 36.936 720.94 3.432L706.828 3.816C706.828 3.816 709.132 25.416 712.108 66.696C712.108 66.696 716.044 66.504 729.004 67.272C729.004 67.272 730.252 56.904 734.86 24.648C735.82 34.728 737.26 50.28 739.084 71.496ZM781.687 70.44C791.959 70.44 799.159 65.64 799.159 52.296C799.159 43.176 796.087 37.896 787.255 31.944C779.959 27.048 777.847 23.784 777.847 19.08C777.847 14.28 778.999 11.4 781.591 11.4C784.471 11.4 786.199 15.144 785.047 25.032C791.671 25.224 798.103 25.8 798.103 25.8C799.831 9.576 794.455 0.935995 781.783 0.935995C771.415 0.935995 764.215 6.024 764.215 18.408C764.215 27.048 767.191 33.192 775.831 39.336C783.799 45 785.431 48.168 785.431 52.584C785.431 58.152 784.183 59.976 781.783 59.976C778.423 59.976 777.079 55.464 777.943 45.384C769.783 45.288 764.503 45.096 764.503 45.096C762.966 61.896 768.055 70.44 781.687 70.44ZM836.845 70.536C849.325 70.536 855.277 62.184 855.469 35.592C855.469 15.144 851.917 1.032 836.845 1.032C821.965 1.032 818.317 16.392 818.317 35.688C818.413 58.728 823.021 70.536 836.845 70.536ZM837.037 60.36C833.677 60.36 832.525 55.368 832.525 35.016C832.525 17.736 833.485 11.496 836.845 11.496C839.917 11.496 841.261 16.776 841.261 35.112C841.261 56.04 839.917 60.36 837.037 60.36ZM859.688 67.464C866.888 67.464 872.072 67.656 872.072 67.656C871.208 52.2 870.824 38.472 870.728 29.832C878.504 54.984 883.304 70.632 883.304 70.632C891.56 70.056 895.496 69.48 895.496 69.48C894.536 26.664 894.152 0.839996 894.152 0.839996C886.76 0.935995 882.248 0.647999 882.248 0.647999C883.496 19.656 884.072 35.4 884.36 44.904C877.16 22.056 872.168 3.912 872.168 3.912C864.488 4.10399 859.4 4.488 859.4 4.488C859.976 43.464 859.688 67.464 859.688 67.464ZM21.5244 166.824C29.4924 166.536 34.6764 166.92 34.6764 166.92C34.2924 127.56 34.3884 96.648 34.3884 96.648C25.8444 96.84 21.1404 96.744 21.1404 96.744C21.2364 109.704 21.4284 121.512 21.4284 131.592C17.4924 131.592 15.0924 131.496 13.9404 131.496C13.7484 112.584 13.6524 99.72 13.6524 99.72C4.05238 99.912 0.884375 99.816 0.884375 99.816C1.26838 138.12 1.26838 163.464 1.26838 163.464C8.75638 163.176 14.3244 163.368 14.3244 163.368L14.0364 142.728C17.6844 142.632 19.8924 142.632 21.5244 142.632C21.7164 157.032 21.5244 166.824 21.5244 166.824ZM37.2076 163.56C46.1356 163.56 50.1676 163.752 50.1676 163.752L51.0316 153.384C55.2556 153.384 58.4236 153.48 60.6316 153.48C61.4956 162.312 61.8796 166.536 61.8796 166.536C70.2316 166.248 75.6076 166.44 75.6076 166.44C69.7516 131.112 65.1436 97.608 65.1436 97.608C65.1436 97.608 57.0796 97.512 46.6156 97.992C41.2396 138.216 37.2076 163.56 37.2076 163.56ZM55.7356 108.744C57.3676 122.952 58.6156 133.992 59.4796 142.728C54.5836 142.824 52.0876 142.728 52.0876 142.728C53.6236 126.792 55.0636 114.312 55.7356 108.744ZM79.3801 165.096C87.9241 165 92.5321 165.096 92.5321 165.096C92.2441 130.44 92.0521 98.28 92.0521 98.28C83.5081 98.376 78.9961 98.376 78.9961 98.376C79.4761 135.72 79.3801 165.096 79.3801 165.096ZM121.143 166.824C129.687 166.248 134.679 165.768 134.679 165.768C128.919 148.968 125.751 139.272 124.983 136.68C130.071 133.32 133.143 127.848 133.143 119.304C133.143 105 126.039 96.936 111.063 96.936C107.319 96.936 103.095 97.416 98.2951 98.28C98.5831 138.792 98.1991 163.752 98.1991 163.752C105.879 163.656 111.639 163.656 111.639 163.656C111.447 152.904 111.255 145.128 111.255 141.096C112.119 141 113.079 140.904 113.943 140.712C118.551 156.936 121.143 166.824 121.143 166.824ZM111.255 132.072C111.255 132.072 111.063 121.224 110.967 108.264C110.967 108.264 111.831 108.168 112.215 108.168C117.303 108.168 119.511 112.872 119.511 120.264C119.511 128.712 115.959 131.784 111.255 132.072ZM152.671 166.44C162.943 166.44 170.143 161.64 170.143 148.296C170.143 139.176 167.071 133.896 158.239 127.944C150.943 123.048 148.831 119.784 148.831 115.08C148.831 110.28 149.983 107.4 152.575 107.4C155.455 107.4 157.183 111.144 156.031 121.032C162.655 121.224 169.087 121.8 169.087 121.8C170.815 105.576 165.439 96.936 152.767 96.936C142.399 96.936 135.199 102.024 135.199 114.408C135.199 123.048 138.175 129.192 146.815 135.336C154.783 141 156.415 144.168 156.415 148.584C156.415 154.152 155.167 155.976 152.767 155.976C149.407 155.976 148.063 151.464 148.927 141.384C140.767 141.288 135.487 141.096 135.487 141.096C133.951 157.896 139.039 166.44 152.671 166.44ZM173.48 164.52C181.352 164.232 186.92 164.424 186.92 164.424L186.536 148.872C199.592 148.392 207.464 139.464 207.464 123.816C207.464 107.016 199.976 98.28 181.448 98.28C179.048 98.28 176.36 98.472 173.576 98.76C173.864 139.272 173.48 164.52 173.48 164.52ZM186.248 109.896C191.528 109.608 194.12 114.6 194.12 124.2C194.12 134.76 191.144 137.928 186.344 138.408C186.152 124.104 186.248 118.632 186.248 109.896ZM234.125 167.016C241.421 165.864 247.373 165.288 247.373 165.288L237.293 136.488C242.861 132.936 245.549 127.464 245.549 119.88C245.549 106.632 239.309 98.76 221.357 98.76C218.189 98.76 214.637 99.048 210.701 99.624C210.989 140.04 210.605 165.096 210.605 165.096C218.285 164.904 224.045 165 224.045 165C223.853 153.672 223.661 144.84 223.661 140.616C224.621 140.616 226.349 140.328 226.349 140.328C231.053 156.264 234.125 167.016 234.125 167.016ZM223.661 131.976C223.661 131.976 223.469 122.664 223.373 109.704C229.805 109.224 231.917 113.544 231.917 120.456C231.917 128.328 228.749 131.688 223.661 131.976ZM246.926 163.56C255.854 163.56 259.886 163.752 259.886 163.752L260.75 153.384C264.974 153.384 268.142 153.48 270.35 153.48C271.214 162.312 271.598 166.536 271.598 166.536C279.95 166.248 285.326 166.44 285.326 166.44C279.47 131.112 274.862 97.608 274.862 97.608C274.862 97.608 266.798 97.512 256.334 97.992C250.958 138.216 246.926 163.56 246.926 163.56ZM265.454 108.744C267.086 122.952 268.334 133.992 269.198 142.728C264.302 142.824 261.806 142.728 261.806 142.728C263.342 126.792 264.782 114.312 265.454 108.744ZM295.324 166.248C305.788 165.96 308.572 166.152 308.572 166.152C308.092 152.808 308.284 150.792 308.284 150.792C315.964 118.056 321.148 97.992 321.148 97.992C311.452 97.992 307.708 97.704 307.708 97.704C304.636 117.384 301.948 132.456 301.948 132.456C298.492 113.544 296.476 99.624 296.476 99.624C284.86 100.104 282.364 100.104 282.364 100.104C292.252 137.256 295.228 150.984 295.228 150.984C295.612 163.08 295.324 166.248 295.324 166.248ZM327.41 119.688C332.498 115.176 336.626 109.8 336.626 103.944C336.626 99.624 334.226 96.168 330.194 96.168C325.874 96.168 323.474 99.144 323.474 103.272C323.474 106.152 325.01 108.552 327.026 109.512C326.45 110.76 325.01 113.16 322.418 116.04C322.418 116.04 324.434 117.288 327.41 119.688ZM356.015 166.44C366.287 166.44 373.487 161.64 373.487 148.296C373.487 139.176 370.415 133.896 361.583 127.944C354.287 123.048 352.175 119.784 352.175 115.08C352.175 110.28 353.327 107.4 355.919 107.4C358.799 107.4 360.527 111.144 359.375 121.032C365.999 121.224 372.431 121.8 372.431 121.8C374.159 105.576 368.783 96.936 356.111 96.936C345.743 96.936 338.543 102.024 338.543 114.408C338.543 123.048 341.519 129.192 350.159 135.336C358.127 141 359.759 144.168 359.759 148.584C359.759 154.152 358.511 155.976 356.111 155.976C352.751 155.976 351.407 151.464 352.271 141.384C344.111 141.288 338.831 141.096 338.831 141.096C337.295 157.896 342.383 166.44 356.015 166.44ZM416.549 166.824C425.093 166.248 430.085 165.768 430.085 165.768C424.325 148.968 421.157 139.272 420.389 136.68C425.477 133.32 428.549 127.848 428.549 119.304C428.549 105 421.445 96.936 406.469 96.936C402.725 96.936 398.501 97.416 393.701 98.28C393.989 138.792 393.605 163.752 393.605 163.752C401.285 163.656 407.045 163.656 407.045 163.656C406.853 152.904 406.661 145.128 406.661 141.096C407.525 141 408.485 140.904 409.349 140.712C413.957 156.936 416.549 166.824 416.549 166.824ZM406.661 132.072C406.661 132.072 406.469 121.224 406.373 108.264C406.373 108.264 407.237 108.168 407.621 108.168C412.709 108.168 414.917 112.872 414.917 120.264C414.917 128.712 411.365 131.784 406.661 132.072ZM432.621 164.712C447.021 164.904 459.213 165.288 459.213 165.288C459.213 157.32 459.405 153.192 459.405 153.192C451.053 153 445.485 152.616 445.485 152.616C445.293 147.624 445.197 142.92 445.101 138.6C452.013 138.6 457.293 138.696 457.293 138.696C457.197 131.592 457.197 126.504 457.197 126.504C449.901 126.696 445.677 126.6 444.909 126.6C444.717 116.904 444.813 111.048 444.813 111.048C451.245 110.856 459.117 110.76 459.117 110.76C458.925 103.272 459.021 97.992 459.021 97.992C439.629 98.28 431.853 98.376 431.853 98.376C432.429 137.064 432.621 164.712 432.621 164.712ZM461.154 112.2L470.658 112.104C471.042 144.936 470.85 163.944 470.85 163.944C479.586 163.752 483.906 163.848 483.906 163.848C483.522 135.912 483.522 121.128 483.522 112.104C488.61 112.008 493.026 112.104 493.026 112.104C492.93 104.136 493.218 99.336 493.218 99.336C470.466 99.816 461.058 99.72 461.058 99.72C461.25 108.648 461.154 112.2 461.154 112.2ZM513.064 166.344C526.024 166.344 531.016 155.784 531.016 130.728C531.016 119.976 529.768 107.688 528.04 96.552C519.88 97.512 514.888 97.608 514.888 97.608C516.424 109.032 517.384 121.032 517.384 131.304C517.384 150.6 515.752 153.576 512.968 153.576C510.184 153.576 507.88 147.528 507.88 126.504C507.88 119.4 508.456 111.72 509.608 100.968C500.776 99.912 497.032 99.24 497.032 99.24C495.688 108.744 495.016 119.016 495.016 129.48C495.016 154.248 499.624 166.344 513.064 166.344ZM558.219 167.016C565.515 165.864 571.467 165.288 571.467 165.288L561.387 136.488C566.955 132.936 569.643 127.464 569.643 119.88C569.643 106.632 563.403 98.76 545.451 98.76C542.283 98.76 538.731 99.048 534.795 99.624C535.083 140.04 534.699 165.096 534.699 165.096C542.379 164.904 548.139 165 548.139 165C547.947 153.672 547.755 144.84 547.755 140.616C548.715 140.616 550.443 140.328 550.443 140.328C555.147 156.264 558.219 167.016 558.219 167.016ZM547.755 131.976C547.755 131.976 547.563 122.664 547.467 109.704C553.899 109.224 556.011 113.544 556.011 120.456C556.011 128.328 552.843 131.688 547.755 131.976ZM573.516 163.464C580.716 163.464 585.9 163.656 585.9 163.656C585.036 148.2 584.652 134.472 584.556 125.832C592.332 150.984 597.132 166.632 597.132 166.632C605.388 166.056 609.324 165.48 609.324 165.48C608.364 122.664 607.98 96.84 607.98 96.84C600.588 96.936 596.076 96.648 596.076 96.648C597.324 115.656 597.9 131.4 598.188 140.904C590.988 118.056 585.996 99.912 585.996 99.912C578.316 100.104 573.228 100.488 573.228 100.488C573.804 139.464 573.516 163.464 573.516 163.464ZM628.123 110.76L638.011 110.664C638.299 143.976 638.203 165.48 638.203 165.48C646.843 165.288 651.259 165.384 651.259 165.384C650.875 136.392 650.875 120.168 650.875 110.664C656.731 110.664 660.667 110.76 660.667 110.76C660.571 102.696 660.859 97.992 660.859 97.992C638.107 98.376 628.027 98.28 628.027 98.28C628.219 107.304 628.123 110.76 628.123 110.76ZM679.955 166.536C692.435 166.536 698.387 158.184 698.579 131.592C698.579 111.144 695.027 97.032 679.955 97.032C665.075 97.032 661.427 112.392 661.427 131.688C661.523 154.728 666.131 166.536 679.955 166.536ZM680.147 156.36C676.787 156.36 675.635 151.368 675.635 131.016C675.635 113.736 676.595 107.496 679.955 107.496C683.027 107.496 684.371 112.776 684.371 131.112C684.371 152.04 683.027 156.36 680.147 156.36ZM719.867 164.616C719.867 164.616 737.243 164.808 746.747 165C746.747 165 746.747 160.392 746.843 153.096C746.843 153.096 741.851 153.096 732.731 152.808C732.155 112.296 732.347 98.856 732.347 98.856C723.515 99.048 719.291 98.856 719.291 98.856C719.771 138.12 719.867 164.616 719.867 164.616ZM766.115 97.704C752.579 97.704 747.491 107.688 747.395 131.592C747.395 155.4 752.291 165.384 766.115 165.384C778.019 165.384 784.739 156.648 784.739 131.496C784.643 108.264 779.651 97.704 766.115 97.704ZM765.923 108.168C769.091 108.168 770.531 112.488 770.531 132.552C770.531 152.232 768.899 155.208 766.115 155.208C763.331 155.208 761.603 151.944 761.603 132.456C761.603 112.584 762.851 108.168 765.923 108.168ZM788.954 163.464C796.154 163.464 801.338 163.656 801.338 163.656C800.474 148.2 800.09 134.472 799.994 125.832C807.77 150.984 812.57 166.632 812.57 166.632C820.826 166.056 824.762 165.48 824.762 165.48C823.802 122.664 823.418 96.84 823.418 96.84C816.026 96.936 811.514 96.648 811.514 96.648C812.762 115.656 813.338 131.4 813.626 140.904C806.426 118.056 801.434 99.912 801.434 99.912C793.754 100.104 788.666 100.488 788.666 100.488C789.242 139.464 788.954 163.464 788.954 163.464ZM842.981 155.592C842.981 155.592 842.501 131.88 842.405 108.744C848.261 107.88 850.757 114.312 850.757 132.264C850.757 153.672 847.877 155.976 842.981 155.592ZM829.541 165.384C833.189 165.96 836.645 166.248 839.717 166.248C856.325 166.248 864.773 157.608 864.773 133.128C864.773 108.744 857.957 97.512 839.429 97.512C836.453 97.512 833.189 97.8 829.541 98.472C829.541 98.472 829.733 131.208 829.541 165.384ZM886.392 166.536C898.872 166.536 904.824 158.184 905.016 131.592C905.016 111.144 901.464 97.032 886.392 97.032C871.512 97.032 867.864 112.392 867.864 131.688C867.96 154.728 872.568 166.536 886.392 166.536ZM886.584 156.36C883.224 156.36 882.072 151.368 882.072 131.016C882.072 113.736 883.032 107.496 886.392 107.496C889.464 107.496 890.808 112.776 890.808 131.112C890.808 152.04 889.464 156.36 886.584 156.36ZM909.235 165.672C916.435 165.672 921.619 165.96 921.619 165.96C920.659 149.64 920.371 133.704 920.179 123.912C927.955 148.872 932.563 164.712 932.563 164.712C940.819 163.944 945.139 163.848 945.139 163.848C944.179 121.032 943.795 98.088 943.795 98.088C936.307 98.184 931.795 97.896 931.795 97.896C933.043 116.232 933.715 130.152 934.003 138.792C926.611 116.328 921.907 98.568 921.907 98.568C913.843 98.76 908.947 98.568 908.947 98.568C909.523 137.544 909.235 165.672 909.235 165.672Z" fill="white"/>
</svg>
