<svg width="239" height="97" viewBox="0 0 239 97" fill="none" xmlns="http://www.w3.org/2000/svg">
<path d="M46.8629 12.932C48.4249 14.34 50.5589 15.264 53.6829 15.264C57.6209 15.264 60.0189 13.394 60.0189 10.16C60.0189 6.772 56.4329 6.068 54.0129 5.65C52.4509 5.386 51.8569 5.188 51.8569 4.616C51.8569 4.242 52.0989 3.846 53.1989 3.846C54.3649 3.846 56.0149 4.33 57.2909 5.298L59.6669 2.152C57.9949 0.787999 55.8389 0.105999 53.4409 0.105999C49.4149 0.105999 47.3469 2.372 47.3469 4.858C47.3469 8.532 51.0429 9.104 53.4629 9.544C54.9149 9.808 55.5309 10.094 55.5309 10.666C55.5309 11.238 54.7389 11.524 53.9029 11.524C51.9229 11.524 50.2729 10.688 49.1729 9.632L46.8629 12.932ZM61.4771 15H65.9211V0.325999H61.4771V15ZM67.4956 7.674C67.4956 12.36 71.1256 15.264 75.5696 15.264C78.4516 15.264 80.6516 14.098 82.2796 12.294V6.398H75.1296V10.05H77.9676V10.688C77.3956 11.106 76.5156 11.348 75.5696 11.348C73.4356 11.348 72.0056 9.72 72.0056 7.674C72.0056 5.628 73.4356 4 75.5696 4C76.8236 4 77.7916 4.704 78.2756 5.606L82.0156 3.692C81.0036 1.8 78.9796 0.0839993 75.5696 0.0839993C71.1256 0.0839993 67.4956 2.966 67.4956 7.674ZM94.1065 15H98.3745V0.325999H93.9305V7.718L88.8265 0.325999H84.2505V15H88.6945V7.124L94.1065 15ZM106.358 8.972C106.358 12.602 108.47 15.264 113.42 15.264C118.37 15.264 120.46 12.602 120.46 8.95V0.325999H115.95V8.818C115.95 10.226 115.224 11.348 113.42 11.348C111.594 11.348 110.868 10.226 110.868 8.818V0.325999H106.358V8.972ZM122.836 15H127.28V10.292H130.668C134.1 10.292 135.948 8.092 135.948 5.364C135.948 2.614 134.1 0.325999 130.668 0.325999H122.836V15ZM131.438 5.32C131.438 6.09 130.844 6.596 130.096 6.596H127.28V4.022H130.096C130.844 4.022 131.438 4.528 131.438 5.32ZM143.01 15H147.454V9.434H153.988V5.738H147.454V4.022H154.142V0.325999H143.01V15ZM155.238 7.674C155.238 12.184 158.736 15.264 163.268 15.264C167.8 15.264 171.298 12.184 171.298 7.674C171.298 3.164 167.8 0.0839993 163.268 0.0839993C158.736 0.0839993 155.238 3.164 155.238 7.674ZM166.788 7.674C166.788 9.72 165.402 11.348 163.268 11.348C161.134 11.348 159.748 9.72 159.748 7.674C159.748 5.628 161.134 4 163.268 4C165.402 4 166.788 5.628 166.788 7.674ZM180.948 15H186.008L183.346 9.808C184.512 9.236 185.986 7.894 185.986 5.364C185.986 2.614 184.138 0.325999 180.706 0.325999H172.874V15H177.318V10.292H178.924L180.948 15ZM181.476 5.298C181.476 6.112 180.772 6.596 180.024 6.596H177.318V4.022H180.024C180.772 4.022 181.476 4.506 181.476 5.298ZM32.6111 42H37.4291L32.0171 27.326H26.4291L21.0171 42H25.8351L26.4071 40.108H32.0391L32.6111 42ZM29.2231 31.242L30.8951 36.412H27.5511L29.2231 31.242ZM38.2202 42H48.2302V38.128H42.6642V27.326H38.2202V42ZM50.0151 42H60.0251V38.128H54.4591V27.326H50.0151V42ZM70.5635 42H75.0075V31.198H78.9235V27.326H66.6255V31.198H70.5635V42ZM90.2035 42H94.6475V27.326H90.2035V32.518H84.9455V27.326H80.5015V42H84.9455V36.39H90.2035V42ZM97.023 42H108.155V38.304H101.467V36.434H108.001V32.738H101.467V31.022H108.155V27.326H97.023V42ZM125.592 42H129.86V27.326H125.416V34.718L120.312 27.326H115.736V42H120.18V34.124L125.592 42ZM132.236 42H143.368V38.304H136.68V36.434H143.214V32.738H136.68V31.022H143.368V27.326H132.236V42ZM156.539 42H161.203L165.405 27.326H160.411L158.541 36.302L156.319 27.326H152.975L150.753 36.302L148.861 27.326H143.889L148.091 42H152.755L154.647 33.684L156.539 42ZM165.21 39.932C166.772 41.34 168.906 42.264 172.03 42.264C175.968 42.264 178.366 40.394 178.366 37.16C178.366 33.772 174.78 33.068 172.36 32.65C170.798 32.386 170.204 32.188 170.204 31.616C170.204 31.242 170.446 30.846 171.546 30.846C172.712 30.846 174.362 31.33 175.638 32.298L178.014 29.152C176.342 27.788 174.186 27.106 171.788 27.106C167.762 27.106 165.694 29.372 165.694 31.858C165.694 35.532 169.39 36.104 171.81 36.544C173.262 36.808 173.878 37.094 173.878 37.666C173.878 38.238 173.086 38.524 172.25 38.524C170.27 38.524 168.62 37.688 167.52 36.632L165.21 39.932ZM184.639 34.674C184.639 39.184 188.137 42.264 192.669 42.264C197.201 42.264 200.699 39.184 200.699 34.674C200.699 30.164 197.201 27.084 192.669 27.084C188.137 27.084 184.639 30.164 184.639 34.674ZM196.189 34.674C196.189 36.72 194.803 38.348 192.669 38.348C190.535 38.348 189.149 36.72 189.149 34.674C189.149 32.628 190.535 31 192.669 31C194.803 31 196.189 32.628 196.189 34.674ZM212.131 42H216.399V27.326H211.955V34.718L206.851 27.326H202.275V42H206.719V34.124L212.131 42ZM10.4964 69H14.9404V54.326H10.4964V59.518H5.23845V54.326H0.794445V69H5.23845V63.39H10.4964V69ZM27.3259 69H32.1439L26.7319 54.326H21.1439L15.7319 69H20.5499L21.1219 67.108H26.7539L27.3259 69ZM23.9379 58.242L25.6099 63.412H22.2659L23.9379 58.242ZM32.9351 69H37.3791V54.326H32.9351V69ZM47.8196 69H52.8796L50.2176 63.808C51.3836 63.236 52.8576 61.894 52.8576 59.364C52.8576 56.614 51.0096 54.326 47.5776 54.326H39.7456V69H44.1896V64.292H45.7956L47.8196 69ZM48.3476 59.298C48.3476 60.112 47.6436 60.596 46.8956 60.596H44.1896V58.022H46.8956C47.6436 58.022 48.3476 58.506 48.3476 59.298ZM53.5338 66.932C55.0958 68.34 57.2298 69.264 60.3538 69.264C64.2918 69.264 66.6898 67.394 66.6898 64.16C66.6898 60.772 63.1038 60.068 60.6838 59.65C59.1218 59.386 58.5278 59.188 58.5278 58.616C58.5278 58.242 58.7698 57.846 59.8698 57.846C61.0358 57.846 62.6858 58.33 63.9618 59.298L66.3378 56.152C64.6658 54.788 62.5098 54.106 60.1118 54.106C56.0858 54.106 54.0178 56.372 54.0178 58.858C54.0178 62.532 57.7138 63.104 60.1338 63.544C61.5858 63.808 62.2018 64.094 62.2018 64.666C62.2018 65.238 61.4098 65.524 60.5738 65.524C58.5938 65.524 56.9438 64.688 55.8438 63.632L53.5338 66.932ZM68.148 69H72.592V64.292H75.98C79.412 64.292 81.26 62.092 81.26 59.364C81.26 56.614 79.412 54.326 75.98 54.326H68.148V69ZM76.75 59.32C76.75 60.09 76.156 60.596 75.408 60.596H72.592V58.022H75.408C76.156 58.022 76.75 58.528 76.75 59.32ZM90.7884 69H95.8484L93.1864 63.808C94.3524 63.236 95.8264 61.894 95.8264 59.364C95.8264 56.614 93.9784 54.326 90.5464 54.326H82.7144V69H87.1584V64.292H88.7644L90.7884 69ZM91.3164 59.298C91.3164 60.112 90.6124 60.596 89.8644 60.596H87.1584V58.022H89.8644C90.6124 58.022 91.3164 58.506 91.3164 59.298ZM107.635 69H112.453L107.041 54.326H101.453L96.0405 69H100.859L101.431 67.108H107.063L107.635 69ZM104.247 58.242L105.919 63.412H102.575L104.247 58.242ZM115.613 69H120.057V63.17L125.513 54.326H120.519L117.835 59.276L115.107 54.326H110.113L115.613 63.17V69ZM127.956 61.784C129.672 60.574 130.706 58.88 130.706 56.944C130.706 55.14 129.496 54.106 128.154 54.106C126.922 54.106 125.866 55.14 125.866 56.416C125.866 57.648 126.724 58.462 127.78 58.462C128.022 58.462 128.242 58.418 128.352 58.374C128.066 59.21 127.054 60.178 126.35 60.486L127.956 61.784ZM131.372 66.932C132.934 68.34 135.068 69.264 138.192 69.264C142.13 69.264 144.528 67.394 144.528 64.16C144.528 60.772 140.942 60.068 138.522 59.65C136.96 59.386 136.366 59.188 136.366 58.616C136.366 58.242 136.608 57.846 137.708 57.846C138.874 57.846 140.524 58.33 141.8 59.298L144.176 56.152C142.504 54.788 140.348 54.106 137.95 54.106C133.924 54.106 131.856 56.372 131.856 58.858C131.856 62.532 135.552 63.104 137.972 63.544C139.424 63.808 140.04 64.094 140.04 64.666C140.04 65.238 139.248 65.524 138.412 65.524C136.432 65.524 134.782 64.688 133.682 63.632L131.372 66.932ZM159.667 69H164.727L162.065 63.808C163.231 63.236 164.705 61.894 164.705 59.364C164.705 56.614 162.857 54.326 159.425 54.326H151.593V69H156.037V64.292H157.643L159.667 69ZM160.195 59.298C160.195 60.112 159.491 60.596 158.743 60.596H156.037V58.022H158.743C159.491 58.022 160.195 58.506 160.195 59.298ZM166.503 69H177.635V65.304H170.947V63.434H177.481V59.738H170.947V58.022H177.635V54.326H166.503V69ZM182.755 69H187.199V58.198H191.115V54.326H178.817V58.198H182.755V69ZM192.693 62.972C192.693 66.602 194.805 69.264 199.755 69.264C204.705 69.264 206.795 66.602 206.795 62.95V54.326H202.285V62.818C202.285 64.226 201.559 65.348 199.755 65.348C197.929 65.348 197.203 64.226 197.203 62.818V54.326H192.693V62.972ZM217.245 69H222.305L219.643 63.808C220.809 63.236 222.283 61.894 222.283 59.364C222.283 56.614 220.435 54.326 217.003 54.326H209.171V69H213.615V64.292H215.221L217.245 69ZM217.773 59.298C217.773 60.112 217.069 60.596 216.321 60.596H213.615V58.022H216.321C217.069 58.022 217.773 58.506 217.773 59.298ZM233.938 69H238.206V54.326H233.762V61.718L228.658 54.326H224.082V69H228.526V61.124L233.938 69ZM59.1553 96H63.5993V85.198H67.5153V81.326H55.2173V85.198H59.1553V96ZM67.8716 88.674C67.8716 93.184 71.3696 96.264 75.9016 96.264C80.4336 96.264 83.9316 93.184 83.9316 88.674C83.9316 84.164 80.4336 81.084 75.9016 81.084C71.3696 81.084 67.8716 84.164 67.8716 88.674ZM79.4216 88.674C79.4216 90.72 78.0356 92.348 75.9016 92.348C73.7676 92.348 72.3816 90.72 72.3816 88.674C72.3816 86.628 73.7676 85 75.9016 85C78.0356 85 79.4216 86.628 79.4216 88.674ZM91.1148 96H101.125V92.128H95.5588V81.326H91.1148V96ZM101.688 88.674C101.688 93.184 105.186 96.264 109.718 96.264C114.25 96.264 117.748 93.184 117.748 88.674C117.748 84.164 114.25 81.084 109.718 81.084C105.186 81.084 101.688 84.164 101.688 88.674ZM113.238 88.674C113.238 90.72 111.852 92.348 109.718 92.348C107.584 92.348 106.198 90.72 106.198 88.674C106.198 86.628 107.584 85 109.718 85C111.852 85 113.238 86.628 113.238 88.674ZM129.18 96H133.448V81.326H129.004V88.718L123.9 81.326H119.324V96H123.768V88.124L129.18 96ZM135.824 96H142.402C147 96 150.432 93.338 150.432 88.652C150.432 83.966 147 81.326 142.38 81.326H135.824V96ZM140.268 92.128V85.198H142.402C144.778 85.198 145.922 86.672 145.922 88.652C145.922 90.5 144.602 92.128 142.38 92.128H140.268ZM151.231 88.674C151.231 93.184 154.729 96.264 159.261 96.264C163.793 96.264 167.291 93.184 167.291 88.674C167.291 84.164 163.793 81.084 159.261 81.084C154.729 81.084 151.231 84.164 151.231 88.674ZM162.781 88.674C162.781 90.72 161.395 92.348 159.261 92.348C157.127 92.348 155.741 90.72 155.741 88.674C155.741 86.628 157.127 85 159.261 85C161.395 85 162.781 86.628 162.781 88.674ZM178.723 96H182.991V81.326H178.547V88.718L173.443 81.326H168.867V96H173.311V88.124L178.723 96Z" fill="#633E97"/>
</svg>
