<svg width="609" height="359" viewBox="0 0 609 359" fill="none" xmlns="http://www.w3.org/2000/svg">
<path d="M154.062 70.44C164.334 70.44 171.534 65.64 171.534 52.296C171.534 43.176 168.462 37.896 159.63 31.944C152.334 27.048 150.222 23.784 150.222 19.08C150.222 14.28 151.374 11.4 153.966 11.4C156.846 11.4 158.574 15.144 157.422 25.032C164.046 25.224 170.478 25.8 170.478 25.8C172.206 9.57601 166.83 0.936003 154.158 0.936003C143.79 0.936003 136.59 6.02401 136.59 18.408C136.59 27.048 139.566 33.192 148.206 39.336C156.174 45 157.806 48.168 157.806 52.584C157.806 58.152 156.558 59.976 154.158 59.976C150.798 59.976 149.454 55.464 150.318 45.384C142.158 45.288 136.878 45.096 136.878 45.096C135.342 61.896 140.43 70.44 154.062 70.44Z" fill="white"/>
<path d="M175.927 69.096C184.471 69 189.079 69.096 189.079 69.096C188.791 34.44 188.599 2.28 188.599 2.28C180.055 2.37601 175.543 2.37601 175.543 2.37601C176.023 39.72 175.927 69.096 175.927 69.096Z" fill="white"/>
<path d="M212.314 70.536C224.122 70.536 231.226 63.816 229.978 34.44C221.722 34.632 210.97 34.536 210.97 34.536C211.162 41.256 211.066 45.384 211.066 45.384C211.066 45.384 213.466 45.192 216.826 45.096C217.114 56.232 215.962 60.36 212.89 60.36C209.242 60.36 207.706 55.368 207.61 35.592C207.61 18.792 208.762 11.88 212.218 11.88C215.098 11.88 216.346 16.488 216.154 27.912C219.13 28.008 229.306 28.104 229.306 28.104C230.074 12.168 224.986 1.03201 212.41 1.03201C199.354 1.03201 193.786 12.552 193.786 35.4C193.786 62.568 200.602 70.536 212.314 70.536Z" fill="white"/>
<path d="M234.313 67.464C241.513 67.464 246.697 67.656 246.697 67.656C245.833 52.2 245.449 38.472 245.353 29.832C253.129 54.984 257.929 70.632 257.929 70.632C266.185 70.056 270.121 69.48 270.121 69.48C269.161 26.664 268.777 0.840004 268.777 0.840004C261.385 0.936003 256.873 0.648006 256.873 0.648006C258.121 19.656 258.697 35.4 258.985 44.904C251.785 22.056 246.793 3.912 246.793 3.912C239.113 4.104 234.025 4.488 234.025 4.488C234.601 43.464 234.313 67.464 234.313 67.464Z" fill="white"/>
<path d="M308.673 70.344C321.633 70.344 326.625 59.784 326.625 34.728C326.625 23.976 325.377 11.688 323.649 0.552002C315.489 1.51201 310.497 1.60801 310.497 1.60801C312.033 13.032 312.993 25.032 312.993 35.304C312.993 54.6 311.361 57.576 308.577 57.576C305.793 57.576 303.489 51.528 303.489 30.504C303.489 23.4 304.065 15.72 305.217 4.968C296.385 3.912 292.641 3.24 292.641 3.24C291.297 12.744 290.625 23.016 290.625 33.48C290.625 58.248 295.233 70.344 308.673 70.344Z" fill="white"/>
<path d="M330.309 68.52C338.181 68.232 343.749 68.424 343.749 68.424L343.365 52.872C356.421 52.392 364.293 43.464 364.293 27.816C364.293 11.016 356.805 2.28 338.277 2.28C335.877 2.28 333.189 2.47201 330.405 2.76C330.693 43.272 330.309 68.52 330.309 68.52ZM343.077 13.896C348.357 13.608 350.949 18.6 350.949 28.2C350.949 38.76 347.973 41.928 343.173 42.408C342.981 28.104 343.077 22.632 343.077 13.896Z" fill="white"/>
<path d="M384.887 68.808C384.887 68.808 390.263 68.616 397.847 68.712L397.463 46.248C405.911 46.056 410.135 46.248 410.135 46.248C410.039 38.76 410.039 33.576 410.039 33.576C402.935 33.864 398.615 33.768 397.271 33.768C397.175 21.384 397.175 15.048 397.175 15.048C406.487 14.76 411.383 14.856 411.383 14.856C411.383 6.40801 411.479 1.99201 411.479 1.99201C396.599 2.28 384.119 2.37601 384.119 2.37601C384.791 41.16 384.887 68.808 384.887 68.808Z" fill="white"/>
<path d="M432.064 70.536C444.544 70.536 450.496 62.184 450.688 35.592C450.688 15.144 447.136 1.03201 432.064 1.03201C417.184 1.03201 413.536 16.392 413.536 35.688C413.632 58.728 418.24 70.536 432.064 70.536ZM432.256 60.36C428.896 60.36 427.744 55.368 427.744 35.016C427.744 17.736 428.704 11.496 432.064 11.496C435.136 11.496 436.48 16.776 436.48 35.112C436.48 56.04 435.136 60.36 432.256 60.36Z" fill="white"/>
<path d="M477.659 70.824C486.203 70.248 491.195 69.768 491.195 69.768C485.435 52.968 482.267 43.272 481.499 40.68C486.587 37.32 489.659 31.848 489.659 23.304C489.659 9.00001 482.555 0.936003 467.579 0.936003C463.835 0.936003 459.611 1.416 454.811 2.28C455.099 42.792 454.715 67.752 454.715 67.752C462.395 67.656 468.155 67.656 468.155 67.656C467.963 56.904 467.771 49.128 467.771 45.096C468.635 45 469.595 44.904 470.459 44.712C475.067 60.936 477.659 70.824 477.659 70.824ZM467.771 36.072C467.771 36.072 467.579 25.224 467.483 12.264C467.483 12.264 468.347 12.168 468.731 12.168C473.819 12.168 476.027 16.872 476.027 24.264C476.027 32.712 472.475 35.784 467.771 36.072Z" fill="white"/>
<path d="M57.0201 163.56C65.9481 163.56 69.9801 163.752 69.9801 163.752L70.8441 153.384C75.0681 153.384 78.2361 153.48 80.4441 153.48C81.3081 162.312 81.6921 166.536 81.6921 166.536C90.0441 166.248 95.4202 166.44 95.4202 166.44C89.5642 131.112 84.9561 97.608 84.9561 97.608C84.9561 97.608 76.8921 97.512 66.4281 97.992C61.0521 138.216 57.0201 163.56 57.0201 163.56ZM75.5481 108.744C77.1801 122.952 78.4282 133.992 79.2922 142.728C74.3962 142.824 71.9001 142.728 71.9001 142.728C73.4361 126.792 74.8761 114.312 75.5481 108.744Z" fill="white"/>
<path d="M98.6166 164.616C98.6166 164.616 115.993 164.808 125.497 165C125.497 165 125.497 160.392 125.593 153.096C125.593 153.096 120.601 153.096 111.481 152.808C110.905 112.296 111.097 98.856 111.097 98.856C102.265 99.048 98.0406 98.856 98.0406 98.856C98.5206 138.12 98.6166 164.616 98.6166 164.616Z" fill="white"/>
<path d="M128.523 163.464C128.523 163.464 138.987 163.464 154.731 163.944C154.731 163.944 154.731 159.24 154.827 151.944C154.827 151.944 150.411 152.04 141.387 151.848C140.811 111.336 141.003 99.912 141.003 99.912C132.171 100.008 127.947 99.912 127.947 99.912C128.427 139.08 128.523 163.464 128.523 163.464Z" fill="white"/>
<path d="M169.342 110.76L179.23 110.664C179.518 143.976 179.422 165.48 179.422 165.48C188.062 165.288 192.478 165.384 192.478 165.384C192.094 136.392 192.094 120.168 192.094 110.664C197.95 110.664 201.886 110.76 201.886 110.76C201.79 102.696 202.078 97.992 202.078 97.992C179.326 98.376 169.246 98.28 169.246 98.28C169.438 107.304 169.342 110.76 169.342 110.76Z" fill="white"/>
<path d="M225.556 166.824C233.524 166.536 238.708 166.92 238.708 166.92C238.324 127.56 238.42 96.648 238.42 96.648C229.876 96.84 225.172 96.744 225.172 96.744C225.268 109.704 225.46 121.512 225.46 131.592C221.524 131.592 219.124 131.496 217.972 131.496C217.78 112.584 217.684 99.72 217.684 99.72C208.084 99.912 204.916 99.816 204.916 99.816C205.3 138.12 205.3 163.464 205.3 163.464C212.788 163.176 218.356 163.368 218.356 163.368L218.068 142.728C221.716 142.632 223.924 142.632 225.556 142.632C225.748 157.032 225.556 166.824 225.556 166.824Z" fill="white"/>
<path d="M244.215 164.712C258.615 164.904 270.807 165.288 270.807 165.288C270.807 157.32 270.999 153.192 270.999 153.192C262.647 153 257.079 152.616 257.079 152.616C256.887 147.624 256.791 142.92 256.695 138.6C263.607 138.6 268.887 138.696 268.887 138.696C268.791 131.592 268.791 126.504 268.791 126.504C261.495 126.696 257.271 126.6 256.503 126.6C256.311 116.904 256.407 111.048 256.407 111.048C262.839 110.856 270.711 110.76 270.711 110.76C270.519 103.272 270.615 97.992 270.615 97.992C251.223 98.28 243.447 98.376 243.447 98.376C244.023 137.064 244.215 164.712 244.215 164.712Z" fill="white"/>
<path d="M291.641 163.464C298.841 163.464 304.025 163.656 304.025 163.656C303.161 148.2 302.777 134.472 302.681 125.832C310.457 150.984 315.257 166.632 315.257 166.632C323.513 166.056 327.449 165.48 327.449 165.48C326.489 122.664 326.105 96.84 326.105 96.84C318.713 96.936 314.201 96.648 314.201 96.648C315.449 115.656 316.025 131.4 316.313 140.904C309.113 118.056 304.121 99.912 304.121 99.912C296.441 100.104 291.353 100.488 291.353 100.488C291.929 139.464 291.641 163.464 291.641 163.464Z" fill="white"/>
<path d="M332.996 163.848C347.396 164.04 359.396 164.232 359.396 164.232C359.396 156.264 359.588 152.136 359.588 152.136C351.236 152.232 345.86 152.136 345.86 152.136C345.668 147.624 345.572 143.4 345.476 139.56C352.292 139.464 357.38 139.56 357.38 139.56C357.284 132.456 357.38 127.656 357.38 127.656C350.564 127.848 345.284 127.848 345.284 127.848C345.188 117.768 345.188 112.008 345.188 112.008C352.388 111.624 359.3 111.528 359.3 111.528C359.012 104.04 359.108 98.76 359.108 98.76C340.004 99.336 332.228 99.336 332.228 99.336C332.804 138.024 332.996 163.848 332.996 163.848Z" fill="white"/>
<path d="M393.6 167.496C393.6 167.496 398.592 167.784 411.936 167.016C411.936 167.016 413.472 143.304 417.408 97.896C417.408 97.896 411.072 97.896 403.488 97.512C403.488 97.512 403.392 110.856 401.856 154.056C400.704 145.8 398.4 128.712 395.424 103.176C395.424 103.176 391.008 102.792 383.616 102.888C383.616 102.888 382.56 109.32 376.896 148.68C376.896 148.68 376.128 132.936 375.456 99.432L361.344 99.816C361.344 99.816 363.648 121.416 366.624 162.696C366.624 162.696 370.56 162.504 383.52 163.272C383.52 163.272 384.768 152.904 389.376 120.648C390.336 130.728 391.776 146.28 393.6 167.496Z" fill="white"/>
<path d="M436.202 166.44C446.474 166.44 453.674 161.64 453.674 148.296C453.674 139.176 450.602 133.896 441.77 127.944C434.474 123.048 432.362 119.784 432.362 115.08C432.362 110.28 433.514 107.4 436.106 107.4C438.986 107.4 440.714 111.144 439.562 121.032C446.186 121.224 452.618 121.8 452.618 121.8C454.346 105.576 448.97 96.936 436.298 96.936C425.93 96.936 418.73 102.024 418.73 114.408C418.73 123.048 421.706 129.192 430.346 135.336C438.314 141 439.946 144.168 439.946 148.584C439.946 154.152 438.698 155.976 436.298 155.976C432.938 155.976 431.594 151.464 432.458 141.384C424.298 141.288 419.018 141.096 419.018 141.096C417.482 157.896 422.57 166.44 436.202 166.44Z" fill="white"/>
<path d="M491.361 166.536C503.841 166.536 509.793 158.184 509.985 131.592C509.985 111.144 506.433 97.032 491.361 97.032C476.481 97.032 472.833 112.392 472.833 131.688C472.929 154.728 477.537 166.536 491.361 166.536ZM491.553 156.36C488.193 156.36 487.041 151.368 487.041 131.016C487.041 113.736 488.001 107.496 491.361 107.496C494.433 107.496 495.777 112.776 495.777 131.112C495.777 152.04 494.433 156.36 491.553 156.36Z" fill="white"/>
<path d="M514.204 163.464C521.404 163.464 526.588 163.656 526.588 163.656C525.724 148.2 525.34 134.472 525.244 125.832C533.02 150.984 537.82 166.632 537.82 166.632C546.076 166.056 550.012 165.48 550.012 165.48C549.052 122.664 548.668 96.84 548.668 96.84C541.276 96.936 536.764 96.648 536.764 96.648C538.012 115.656 538.588 131.4 538.876 140.904C531.676 118.056 526.684 99.912 526.684 99.912C519.004 100.104 513.916 100.488 513.916 100.488C514.492 139.464 514.204 163.464 514.204 163.464Z" fill="white"/>
<path d="M21.04 262.824C29.008 262.536 34.192 262.92 34.192 262.92C33.808 223.56 33.904 192.648 33.904 192.648C25.36 192.84 20.656 192.744 20.656 192.744C20.752 205.704 20.944 217.512 20.944 227.592C17.008 227.592 14.608 227.496 13.456 227.496C13.264 208.584 13.168 195.72 13.168 195.72C3.56803 195.912 0.400024 195.816 0.400024 195.816C0.784024 234.12 0.784024 259.464 0.784024 259.464C8.27203 259.176 13.84 259.368 13.84 259.368L13.552 238.728C17.2 238.632 19.408 238.632 21.04 238.632C21.232 253.032 21.04 262.824 21.04 262.824Z" fill="white"/>
<path d="M36.7233 259.56C45.6513 259.56 49.6833 259.752 49.6833 259.752L50.5473 249.384C54.7713 249.384 57.9393 249.48 60.1473 249.48C61.0113 258.312 61.3953 262.536 61.3953 262.536C69.7473 262.248 75.1233 262.44 75.1233 262.44C69.2673 227.112 64.6593 193.608 64.6593 193.608C64.6593 193.608 56.5953 193.512 46.1313 193.992C40.7553 234.216 36.7233 259.56 36.7233 259.56ZM55.2513 204.744C56.8833 218.952 58.1313 229.992 58.9953 238.728C54.0993 238.824 51.6033 238.728 51.6033 238.728C53.1393 222.792 54.5793 210.312 55.2513 204.744Z" fill="white"/>
<path d="M78.8958 261.096C87.4398 261 92.0478 261.096 92.0478 261.096C91.7598 226.44 91.5678 194.28 91.5678 194.28C83.0238 194.376 78.5118 194.376 78.5118 194.376C78.9918 231.72 78.8958 261.096 78.8958 261.096Z" fill="white"/>
<path d="M120.659 262.824C129.203 262.248 134.195 261.768 134.195 261.768C128.435 244.968 125.267 235.272 124.499 232.68C129.587 229.32 132.659 223.848 132.659 215.304C132.659 201 125.555 192.936 110.579 192.936C106.835 192.936 102.611 193.416 97.8108 194.28C98.0988 234.792 97.7148 259.752 97.7148 259.752C105.395 259.656 111.155 259.656 111.155 259.656C110.963 248.904 110.771 241.128 110.771 237.096C111.635 237 112.595 236.904 113.459 236.712C118.067 252.936 120.659 262.824 120.659 262.824ZM110.771 228.072C110.771 228.072 110.579 217.224 110.483 204.264C110.483 204.264 111.347 204.168 111.731 204.168C116.819 204.168 119.027 208.872 119.027 216.264C119.027 224.712 115.475 227.784 110.771 228.072Z" fill="white"/>
<path d="M152.187 262.44C162.459 262.44 169.659 257.64 169.659 244.296C169.659 235.176 166.587 229.896 157.755 223.944C150.459 219.048 148.347 215.784 148.347 211.08C148.347 206.28 149.499 203.4 152.091 203.4C154.971 203.4 156.699 207.144 155.547 217.032C162.171 217.224 168.603 217.8 168.603 217.8C170.331 201.576 164.955 192.936 152.283 192.936C141.915 192.936 134.715 198.024 134.715 210.408C134.715 219.048 137.691 225.192 146.331 231.336C154.299 237 155.931 240.168 155.931 244.584C155.931 250.152 154.683 251.976 152.283 251.976C148.923 251.976 147.579 247.464 148.443 237.384C140.283 237.288 135.003 237.096 135.003 237.096C133.467 253.896 138.555 262.44 152.187 262.44Z" fill="white"/>
<path d="M172.996 260.52C180.868 260.232 186.436 260.424 186.436 260.424L186.052 244.872C199.108 244.392 206.98 235.464 206.98 219.816C206.98 203.016 199.492 194.28 180.964 194.28C178.564 194.28 175.876 194.472 173.092 194.76C173.38 235.272 172.996 260.52 172.996 260.52ZM185.764 205.896C191.044 205.608 193.636 210.6 193.636 220.2C193.636 230.76 190.66 233.928 185.86 234.408C185.668 220.104 185.764 214.632 185.764 205.896Z" fill="white"/>
<path d="M233.641 263.016C240.937 261.864 246.889 261.288 246.889 261.288L236.809 232.488C242.377 228.936 245.065 223.464 245.065 215.88C245.065 202.632 238.825 194.76 220.873 194.76C217.705 194.76 214.153 195.048 210.217 195.624C210.505 236.04 210.121 261.096 210.121 261.096C217.801 260.904 223.561 261 223.561 261C223.369 249.672 223.177 240.84 223.177 236.616C224.137 236.616 225.865 236.328 225.865 236.328C230.569 252.264 233.641 263.016 233.641 263.016ZM223.177 227.976C223.177 227.976 222.985 218.664 222.889 205.704C229.321 205.224 231.433 209.544 231.433 216.456C231.433 224.328 228.265 227.688 223.177 227.976Z" fill="white"/>
<path d="M246.442 259.56C255.37 259.56 259.402 259.752 259.402 259.752L260.266 249.384C264.49 249.384 267.658 249.48 269.866 249.48C270.73 258.312 271.114 262.536 271.114 262.536C279.466 262.248 284.842 262.44 284.842 262.44C278.986 227.112 274.378 193.608 274.378 193.608C274.378 193.608 266.314 193.512 255.85 193.992C250.474 234.216 246.442 259.56 246.442 259.56ZM264.97 204.744C266.602 218.952 267.85 229.992 268.714 238.728C263.818 238.824 261.322 238.728 261.322 238.728C262.858 222.792 264.298 210.312 264.97 204.744Z" fill="white"/>
<path d="M294.84 262.248C305.304 261.96 308.088 262.152 308.088 262.152C307.608 248.808 307.8 246.792 307.8 246.792C315.48 214.056 320.664 193.992 320.664 193.992C310.968 193.992 307.224 193.704 307.224 193.704C304.152 213.384 301.464 228.456 301.464 228.456C298.008 209.544 295.992 195.624 295.992 195.624C284.376 196.104 281.88 196.104 281.88 196.104C291.768 233.256 294.744 246.984 294.744 246.984C295.128 259.08 294.84 262.248 294.84 262.248Z" fill="white"/>
<path d="M326.925 215.688C332.013 211.176 336.141 205.8 336.141 199.944C336.141 195.624 333.741 192.168 329.709 192.168C325.389 192.168 322.989 195.144 322.989 199.272C322.989 202.152 324.525 204.552 326.541 205.512C325.965 206.76 324.525 209.16 321.933 212.04C321.933 212.04 323.949 213.288 326.925 215.688Z" fill="white"/>
<path d="M355.53 262.44C365.802 262.44 373.002 257.64 373.002 244.296C373.002 235.176 369.93 229.896 361.098 223.944C353.802 219.048 351.69 215.784 351.69 211.08C351.69 206.28 352.842 203.4 355.434 203.4C358.314 203.4 360.042 207.144 358.89 217.032C365.514 217.224 371.946 217.8 371.946 217.8C373.674 201.576 368.298 192.936 355.626 192.936C345.258 192.936 338.058 198.024 338.058 210.408C338.058 219.048 341.034 225.192 349.674 231.336C357.642 237 359.274 240.168 359.274 244.584C359.274 250.152 358.026 251.976 355.626 251.976C352.266 251.976 350.922 247.464 351.786 237.384C343.626 237.288 338.346 237.096 338.346 237.096C336.81 253.896 341.898 262.44 355.53 262.44Z" fill="white"/>
<path d="M416.065 262.824C424.609 262.248 429.601 261.768 429.601 261.768C423.841 244.968 420.673 235.272 419.905 232.68C424.993 229.32 428.065 223.848 428.065 215.304C428.065 201 420.961 192.936 405.985 192.936C402.241 192.936 398.017 193.416 393.217 194.28C393.505 234.792 393.121 259.752 393.121 259.752C400.801 259.656 406.561 259.656 406.561 259.656C406.369 248.904 406.177 241.128 406.177 237.096C407.041 237 408.001 236.904 408.865 236.712C413.473 252.936 416.065 262.824 416.065 262.824ZM406.177 228.072C406.177 228.072 405.985 217.224 405.889 204.264C405.889 204.264 406.753 204.168 407.137 204.168C412.225 204.168 414.433 208.872 414.433 216.264C414.433 224.712 410.881 227.784 406.177 228.072Z" fill="white"/>
<path d="M432.137 260.712C446.537 260.904 458.729 261.288 458.729 261.288C458.729 253.32 458.921 249.192 458.921 249.192C450.569 249 445.001 248.616 445.001 248.616C444.809 243.624 444.713 238.92 444.617 234.6C451.529 234.6 456.809 234.696 456.809 234.696C456.713 227.592 456.713 222.504 456.713 222.504C449.417 222.696 445.193 222.6 444.425 222.6C444.233 212.904 444.329 207.048 444.329 207.048C450.761 206.856 458.633 206.76 458.633 206.76C458.441 199.272 458.537 193.992 458.537 193.992C439.145 194.28 431.369 194.376 431.369 194.376C431.945 233.064 432.137 260.712 432.137 260.712Z" fill="white"/>
<path d="M460.67 208.2L470.174 208.104C470.558 240.936 470.366 259.944 470.366 259.944C479.102 259.752 483.422 259.848 483.422 259.848C483.038 231.912 483.038 217.128 483.038 208.104C488.126 208.008 492.542 208.104 492.542 208.104C492.446 200.136 492.734 195.336 492.734 195.336C469.982 195.816 460.574 195.72 460.574 195.72C460.766 204.648 460.67 208.2 460.67 208.2Z" fill="white"/>
<path d="M512.58 262.344C525.54 262.344 530.531 251.784 530.531 226.728C530.531 215.976 529.283 203.688 527.555 192.552C519.395 193.512 514.404 193.608 514.404 193.608C515.94 205.032 516.899 217.032 516.899 227.304C516.899 246.6 515.268 249.576 512.484 249.576C509.7 249.576 507.396 243.528 507.396 222.504C507.396 215.4 507.972 207.72 509.124 196.968C500.292 195.912 496.548 195.24 496.548 195.24C495.204 204.744 494.532 215.016 494.532 225.48C494.532 250.248 499.14 262.344 512.58 262.344Z" fill="white"/>
<path d="M557.735 263.016C565.031 261.864 570.983 261.288 570.983 261.288L560.903 232.488C566.471 228.936 569.159 223.464 569.159 215.88C569.159 202.632 562.919 194.76 544.967 194.76C541.799 194.76 538.247 195.048 534.311 195.624C534.599 236.04 534.215 261.096 534.215 261.096C541.895 260.904 547.655 261 547.655 261C547.463 249.672 547.271 240.84 547.271 236.616C548.231 236.616 549.959 236.328 549.959 236.328C554.663 252.264 557.735 263.016 557.735 263.016ZM547.271 227.976C547.271 227.976 547.079 218.664 546.983 205.704C553.415 205.224 555.527 209.544 555.527 216.456C555.527 224.328 552.359 227.688 547.271 227.976Z" fill="white"/>
<path d="M573.032 259.464C580.232 259.464 585.416 259.656 585.416 259.656C584.552 244.2 584.168 230.472 584.072 221.832C591.848 246.984 596.648 262.632 596.648 262.632C604.904 262.056 608.84 261.48 608.84 261.48C607.88 218.664 607.496 192.84 607.496 192.84C600.104 192.936 595.592 192.648 595.592 192.648C596.84 211.656 597.416 227.4 597.704 236.904C590.504 214.056 585.512 195.912 585.512 195.912C577.832 196.104 572.744 196.488 572.744 196.488C573.32 235.464 573.032 259.464 573.032 259.464Z" fill="white"/>
<path d="M153.592 302.76L163.48 302.664C163.768 335.976 163.672 357.48 163.672 357.48C172.312 357.288 176.728 357.384 176.728 357.384C176.344 328.392 176.344 312.168 176.344 302.664C182.2 302.664 186.136 302.76 186.136 302.76C186.04 294.696 186.328 289.992 186.328 289.992C163.576 290.376 153.496 290.28 153.496 290.28C153.688 299.304 153.592 302.76 153.592 302.76Z" fill="white"/>
<path d="M205.423 358.536C217.903 358.536 223.855 350.184 224.047 323.592C224.047 303.144 220.495 289.032 205.423 289.032C190.543 289.032 186.895 304.392 186.895 323.688C186.991 346.728 191.599 358.536 205.423 358.536ZM205.615 348.36C202.255 348.36 201.103 343.368 201.103 323.016C201.103 305.736 202.063 299.496 205.423 299.496C208.495 299.496 209.839 304.776 209.839 323.112C209.839 344.04 208.495 348.36 205.615 348.36Z" fill="white"/>
<path d="M245.335 356.616C245.335 356.616 262.711 356.808 272.215 357C272.215 357 272.215 352.392 272.311 345.096C272.311 345.096 267.319 345.096 258.199 344.808C257.623 304.296 257.815 290.856 257.815 290.856C248.983 291.048 244.759 290.856 244.759 290.856C245.239 330.12 245.335 356.616 245.335 356.616Z" fill="white"/>
<path d="M291.584 289.704C278.048 289.704 272.96 299.688 272.864 323.592C272.864 347.4 277.76 357.384 291.584 357.384C303.488 357.384 310.208 348.648 310.208 323.496C310.112 300.264 305.12 289.704 291.584 289.704ZM291.392 300.168C294.56 300.168 296 304.488 296 324.552C296 344.232 294.368 347.208 291.584 347.208C288.8 347.208 287.072 343.944 287.072 324.456C287.072 304.584 288.32 300.168 291.392 300.168Z" fill="white"/>
<path d="M314.422 355.464C321.622 355.464 326.806 355.656 326.806 355.656C325.942 340.2 325.558 326.472 325.462 317.832C333.238 342.984 338.038 358.632 338.038 358.632C346.294 358.056 350.23 357.48 350.23 357.48C349.27 314.664 348.886 288.84 348.886 288.84C341.494 288.936 336.982 288.648 336.982 288.648C338.23 307.656 338.806 323.4 339.094 332.904C331.894 310.056 326.902 291.912 326.902 291.912C319.222 292.104 314.134 292.488 314.134 292.488C314.71 331.464 314.422 355.464 314.422 355.464Z" fill="white"/>
<path d="M368.449 347.592C368.449 347.592 367.969 323.88 367.873 300.744C373.729 299.88 376.225 306.312 376.225 324.264C376.225 345.672 373.345 347.976 368.449 347.592ZM355.009 357.384C358.657 357.96 362.113 358.248 365.185 358.248C381.793 358.248 390.241 349.608 390.241 325.128C390.241 300.744 383.425 289.512 364.897 289.512C361.921 289.512 358.657 289.8 355.009 290.472C355.009 290.472 355.201 323.208 355.009 357.384Z" fill="white"/>
<path d="M411.861 358.536C424.341 358.536 430.293 350.184 430.485 323.592C430.485 303.144 426.933 289.032 411.861 289.032C396.981 289.032 393.333 304.392 393.333 323.688C393.429 346.728 398.037 358.536 411.861 358.536ZM412.053 348.36C408.693 348.36 407.541 343.368 407.541 323.016C407.541 305.736 408.501 299.496 411.861 299.496C414.933 299.496 416.277 304.776 416.277 323.112C416.277 344.04 414.933 348.36 412.053 348.36Z" fill="white"/>
<path d="M434.704 357.672C441.904 357.672 447.088 357.96 447.088 357.96C446.128 341.64 445.84 325.704 445.648 315.912C453.424 340.872 458.032 356.712 458.032 356.712C466.288 355.944 470.608 355.848 470.608 355.848C469.648 313.032 469.264 290.088 469.264 290.088C461.776 290.184 457.264 289.896 457.264 289.896C458.512 308.232 459.184 322.152 459.472 330.792C452.08 308.328 447.376 290.568 447.376 290.568C439.312 290.76 434.416 290.568 434.416 290.568C434.992 329.544 434.704 357.672 434.704 357.672Z" fill="white"/>
</svg>
