<svg width="335" height="154" viewBox="0 0 335 154" fill="none" xmlns="http://www.w3.org/2000/svg">
<path d="M117.005 34.3773C122.009 34.3773 125.516 32.0323 125.516 25.5133C125.516 21.0579 124.02 18.4784 119.717 15.5706C116.163 13.1788 115.134 11.5842 115.134 9.2861C115.134 6.94112 115.696 5.53414 116.958 5.53414C118.361 5.53414 119.203 7.36322 118.642 12.1939C121.869 12.2877 125.002 12.5691 125.002 12.5691C125.844 4.64305 123.225 0.422102 117.052 0.422102C112.001 0.422102 108.494 2.90777 108.494 8.9578C108.494 13.1788 109.943 16.1803 114.152 19.1819C118.034 21.949 118.829 23.4966 118.829 25.654C118.829 28.3742 118.221 29.2653 117.052 29.2653C115.415 29.2653 114.76 27.061 115.181 22.1366C111.206 22.0897 108.634 21.9959 108.634 21.9959C107.886 30.2033 110.364 34.3773 117.005 34.3773Z" fill="#EB008B"/>
<path d="M126.207 16.2741C126.207 16.2741 127.423 16.2272 128.405 16.2741C128.358 19.4633 128.405 23.0276 128.452 26.8734C128.498 31.7509 130.883 33.6738 134.812 33.6738C135.981 33.6738 137.29 33.4862 138.74 33.111L138.366 27.3424C137.805 27.4831 137.29 27.53 136.869 27.53C135.326 27.53 134.578 26.7327 134.531 25.0443C134.438 22.0897 134.438 19.0881 134.438 16.2741C135.654 16.2741 136.916 16.2741 138.272 16.321C138.272 16.321 138.226 15.2892 138.319 10.8807C138.319 10.8807 136.776 10.9276 134.438 10.8807C134.484 7.31632 134.578 4.83065 134.578 4.83065C134.578 4.83065 132.848 4.87755 128.545 4.78375C128.545 4.78375 128.498 7.12872 128.452 10.7869C127.703 10.7869 126.955 10.7869 126.16 10.74C126.16 10.74 126.254 12.1001 126.207 16.2741Z" fill="#EB008B"/>
<path d="M145.576 34.1428C147.914 34.1428 150.112 33.2517 151.048 30.7661C151.001 32.7358 150.861 34.2835 150.861 34.2835C154.181 34.2366 155.584 34.1897 155.584 34.1897C155.584 34.1897 155.724 26.9672 155.537 18.4784C155.397 13.2257 153.199 9.98959 148.102 9.98959C142.536 9.98959 140.105 13.6946 140.338 18.7129C143.846 18.7598 146.184 18.666 146.184 18.666C146.137 15.9458 146.605 14.4919 147.868 14.4919C148.943 14.4919 149.317 15.4299 149.411 18.197C149.411 18.8536 149.458 19.6978 149.458 19.6978C143.144 20.1668 139.59 23.0276 139.59 28.1397C139.59 31.9385 142.116 34.1428 145.576 34.1428ZM149.738 24.716C149.738 28.6087 148.71 29.6874 147.494 29.6874C146.184 29.6874 145.67 28.6556 145.67 27.2486C145.67 25.2788 146.699 23.3559 149.692 22.8869C149.738 23.4497 149.738 24.1063 149.738 24.716Z" fill="#EB008B"/>
<path d="M157.833 33.7676C162.416 33.7207 164.1 33.7207 164.1 33.7207C164.1 33.7207 163.913 27.3893 164.006 22.9807C164.147 18.7598 165.643 16.6493 168.87 16.0396C168.963 11.4435 169.104 9.6613 169.104 9.6613C166.532 9.7551 163.819 11.678 162.744 14.4919C162.744 12.0532 162.884 10.3648 162.884 10.3648C158.815 10.5055 157.74 10.4117 157.74 10.4117C157.88 21.7614 157.833 33.7676 157.833 33.7676Z" fill="#EB008B"/>
<path d="M170.529 32.8765C175.112 32.7827 176.796 32.8296 176.796 32.8296C176.796 32.8296 176.609 27.0141 176.702 22.6055C176.843 18.6191 178.199 16.2741 181.566 15.6644C181.66 11.0683 181.8 9.2861 181.8 9.2861C179.228 9.333 176.515 11.4435 175.44 14.4919C175.486 12.3346 175.58 11.0214 175.58 11.0214C171.511 11.1621 170.436 11.0683 170.436 11.0683C170.576 22.4179 170.529 32.8765 170.529 32.8765Z" fill="#EB008B"/>
<path d="M183.459 33.6269C187.06 33.58 189.679 33.58 189.679 33.58C189.445 18.666 189.492 10.0365 189.492 10.0365C185.377 10.1303 183.319 10.0834 183.319 10.0834C183.506 27.2955 183.459 33.6269 183.459 33.6269ZM186.452 7.78531C188.978 7.78531 190.24 6.05004 190.24 3.79887C190.24 1.64149 188.931 0 186.499 0C184.02 0 182.571 1.36009 182.571 3.75197C182.571 6.28454 183.88 7.78531 186.452 7.78531Z" fill="#EB008B"/>
<path d="M201.438 34.518C201.438 34.518 205.46 34.4711 207.705 34.4711C207.705 34.4711 207.705 18.8536 207.611 16.3679C207.471 12.2408 205.928 9.9427 202.701 9.9427C200.129 9.9427 197.931 11.7718 196.949 14.2105C196.902 12.5691 196.996 10.6931 196.996 10.6931C194.19 10.8338 192.085 10.74 192.085 10.74C192.179 24.0594 191.992 33.0172 191.992 33.0172C195.359 32.9703 198.258 33.0172 198.258 33.0172C198.258 33.0172 198.212 22.371 198.305 18.8536C198.305 16.9776 198.96 15.5706 200.222 15.5706C201.158 15.5706 201.485 16.321 201.485 17.8687C201.485 25.2788 201.438 34.518 201.438 34.518Z" fill="#EB008B"/>
<path d="M217.239 45.4925C222.055 45.4925 226.545 43.0537 226.545 37.9417C226.545 34.2366 224.253 32.173 218.267 31.282C216.397 31.0006 215.695 30.6254 215.695 29.9688C215.695 29.6874 215.836 29.3591 216.163 29.0308C216.631 29.1246 217.145 29.1246 217.706 29.1246C222.009 29.1246 225.329 26.0292 225.329 19.1819C225.329 15.7113 224.253 12.616 222.009 10.9276C224.16 6.23763 225.563 3.47056 225.563 3.47056C221.681 2.57947 219.904 2.01669 219.904 2.01669C219.296 5.72174 218.782 8.20741 218.548 9.5675C218.548 9.5675 217.8 9.47369 217.379 9.47369C211.814 9.47369 209.195 13.9292 209.195 19.1819C209.195 23.778 210.551 26.7796 213.263 28.1866C211.673 29.2184 210.832 30.5316 210.832 31.7978C210.832 33.1579 211.533 34.4242 213.03 35.2215C210.551 36.0657 208.961 37.9886 208.961 40.146C208.961 43.6165 212.141 45.4925 217.239 45.4925ZM217.332 25.185C216.023 25.185 215.321 23.5904 215.321 19.4633C215.321 15.6175 216.023 13.7885 217.332 13.7885C218.642 13.7885 219.249 15.9458 219.249 19.4633C219.249 23.5904 218.548 25.185 217.332 25.185ZM220.652 39.0673C220.652 40.615 219.203 41.506 217.426 41.506C215.836 41.506 214.713 40.7556 214.713 39.3956C214.713 38.4576 215.274 37.4727 216.584 36.7223C219.249 37.0037 220.652 37.7072 220.652 39.0673Z" fill="#EB008B"/>
<path d="M0 106.328C4.73 106.408 11.4642 106.569 11.4642 106.569C11.3039 91.052 11.3841 74.0878 11.4642 64.4399C14.671 84.8613 16.1942 97.0015 16.1942 97.0015C21.4052 97.2427 27.2576 97.3231 27.2576 97.3231C28.7808 84.5396 30.8652 70.9522 32.2281 62.3495C33.11 89.444 32.7893 108.82 32.7893 108.82C38.321 108.659 44.0932 108.338 44.0932 108.338C42.3295 73.2034 42.1691 50.6916 42.1691 50.6916C34.553 50.4504 26.1352 50.2092 26.1352 50.2092C24.7724 62.9123 22.9285 75.6154 21.5656 84.1377C19.0803 67.7362 17.3166 52.5408 17.3166 52.5408C8.81864 52.9428 1.76373 52.8624 1.76373 52.8624C1.12237 83.3336 0 106.328 0 106.328Z" fill="#EB008B"/>
<path d="M48.3447 107.453C55.4798 107.373 59.3279 107.453 59.3279 107.453C59.0874 78.4293 58.9271 51.4956 58.9271 51.4956C51.792 51.576 48.024 51.576 48.024 51.576C48.4249 82.8513 48.3447 107.453 48.3447 107.453Z" fill="#EB008B"/>
<path d="M78.6513 108.74C87.6302 108.82 93.8835 103.112 93.5628 83.8965C93.5628 83.8965 88.1113 83.8965 81.7779 84.1377C82.1787 97.0015 80.8158 99.5743 78.8116 99.5743C76.0858 99.5743 75.204 94.9915 75.204 79.4745C75.0436 64.6007 75.9255 59.2139 78.7314 59.2139C81.0563 59.2139 81.6977 62.7515 81.6175 72.8818C81.6175 72.8818 86.107 73.123 93.2421 73.2034C93.5628 59.6159 90.1155 50.0484 79.2926 50.0484C67.668 50.0484 63.2587 59.6963 63.2587 79.5549C63.2587 100.619 67.7482 108.74 78.6513 108.74Z" fill="#EB008B"/>
<path d="M113.707 108.901C120.361 108.659 124.69 108.981 124.69 108.981C124.37 76.0173 124.45 50.1288 124.45 50.1288C117.315 50.2896 113.387 50.2092 113.387 50.2092C113.467 61.0631 113.627 70.9522 113.627 79.3941C110.34 79.3941 108.336 79.3137 107.374 79.3137C107.214 63.4751 107.133 52.7016 107.133 52.7016C99.1164 52.8624 96.4708 52.782 96.4708 52.782C96.7915 84.8613 96.7915 106.087 96.7915 106.087C103.045 105.845 107.695 106.006 107.695 106.006L107.454 88.7204C110.5 88.64 112.344 88.64 113.707 88.64C113.868 100.7 113.707 108.901 113.707 108.901Z" fill="#EB008B"/>
<path d="M126.804 106.167C134.26 106.167 137.627 106.328 137.627 106.328L138.349 97.6447C141.876 97.6447 144.522 97.7251 146.366 97.7251C147.087 105.122 147.408 108.659 147.408 108.659C154.383 108.418 158.872 108.579 158.872 108.579C153.982 78.9921 150.134 50.9328 150.134 50.9328C150.134 50.9328 143.399 50.8524 134.661 51.2544C130.171 84.9417 126.804 106.167 126.804 106.167ZM142.277 60.2591C143.64 72.1582 144.682 81.4041 145.404 88.7204C141.315 88.8008 139.231 88.7204 139.231 88.7204C140.513 75.3742 141.716 64.9223 142.277 60.2591Z" fill="#EB008B"/>
<path d="M161.702 107.132C173.727 107.293 183.909 107.614 183.909 107.614C183.909 100.941 184.069 97.4839 184.069 97.4839C177.094 97.3231 172.445 97.0015 172.445 97.0015C172.284 92.8208 172.204 88.8812 172.124 85.2632C177.896 85.2632 182.305 85.3436 182.305 85.3436C182.225 79.3941 182.225 75.1329 182.225 75.1329C176.132 75.2937 172.605 75.2134 171.964 75.2134C171.803 67.093 171.883 62.1887 171.883 62.1887C177.255 62.0279 183.829 61.9475 183.829 61.9475C183.668 55.6764 183.748 51.2544 183.748 51.2544C167.554 51.4956 161.06 51.576 161.06 51.576C161.541 83.9769 161.702 107.132 161.702 107.132Z" fill="#EB008B"/>
<path d="M187.534 106.087C187.534 106.087 196.272 106.087 209.42 106.489C209.42 106.489 209.42 102.549 209.5 96.4387C209.5 96.4387 205.813 96.5191 198.277 96.3583C197.796 62.4299 197.956 52.8624 197.956 52.8624C190.58 52.9428 187.053 52.8624 187.053 52.8624C187.454 85.6652 187.534 106.087 187.534 106.087Z" fill="#EB008B"/>
<path d="M224.569 107.132C227.616 107.534 230.421 107.775 232.987 107.775C245.734 107.775 253.27 103.353 253.27 91.856C253.27 84.7809 250.063 80.0373 244.692 78.0273C249.181 76.2585 252.228 71.9974 252.228 65.9675C252.228 55.7568 247.097 50.4504 235.071 50.4504C231.865 50.4504 228.097 50.8524 223.928 51.6564C224.489 81.0825 224.569 107.132 224.569 107.132ZM235.232 99.4939L234.991 83.0121C240.042 83.0121 242.447 85.9868 242.447 91.6148C242.447 97.8859 239.721 99.7351 235.232 99.4939ZM234.911 59.0531C239.962 58.6511 242.046 61.4651 242.046 67.0126C242.046 72.3994 239.721 75.0526 234.911 74.8918V59.0531Z" fill="#EB008B"/>
<path d="M253.478 107.373C260.934 107.293 264.301 107.534 264.301 107.534L265.103 98.2075C268.791 98.2075 271.436 98.2879 273.28 98.2879L274.082 107.051C281.137 106.81 285.466 106.971 285.466 106.971C280.495 77.3841 276.968 51.978 276.968 51.978C276.968 51.978 270.394 51.8172 261.575 52.1388C256.845 86.3888 253.478 107.373 253.478 107.373ZM269.272 60.9023C270.635 73.123 271.677 82.5297 272.398 89.5244C272.398 89.5244 270.715 89.6048 265.985 89.5244C267.348 75.9369 268.711 65.4047 269.272 60.9023Z" fill="#EB008B"/>
<path d="M288.059 107.051C288.059 107.051 302.57 107.212 310.506 107.373C310.506 107.373 310.506 103.514 310.587 97.4035C310.587 97.4035 306.418 97.4035 298.802 97.1623C298.321 63.2339 298.481 51.978 298.481 51.978C291.105 52.1388 287.578 51.978 287.578 51.978C287.979 84.8612 288.059 107.051 288.059 107.051Z" fill="#EB008B"/>
<path d="M313.034 106.087C313.034 106.087 321.772 106.087 334.92 106.489C334.92 106.489 334.92 102.549 335 96.4387C335 96.4387 331.312 96.5191 323.776 96.3583C323.295 62.4299 323.456 52.8624 323.456 52.8624C316.08 52.9428 312.553 52.8624 312.553 52.8624C312.953 85.6652 313.034 106.087 313.034 106.087Z" fill="#EB008B"/>
<path d="M50.6066 153.625C52.9449 153.625 55.1428 152.734 56.0782 150.248C56.0314 152.218 55.8911 153.766 55.8911 153.766C59.2114 153.719 60.6144 153.672 60.6144 153.672C60.6144 153.672 60.7547 146.449 60.5676 137.96C60.4273 132.708 58.2294 129.472 53.1319 129.472C47.5668 129.472 45.135 133.177 45.3688 138.195C48.8763 138.242 51.2145 138.148 51.2145 138.148C51.1678 135.428 51.6354 133.974 52.8981 133.974C53.9737 133.974 54.3478 134.912 54.4414 137.679C54.4414 138.336 54.4881 139.18 54.4881 139.18C48.1748 139.649 44.6206 142.51 44.6206 147.622C44.6206 151.421 47.1459 153.625 50.6066 153.625ZM54.7687 144.198C54.7687 148.091 53.7399 149.169 52.524 149.169C51.2145 149.169 50.7001 148.138 50.7001 146.731C50.7001 144.761 51.729 142.838 54.722 142.369C54.7687 142.932 54.7687 143.588 54.7687 144.198Z" fill="#EB008B"/>
<path d="M70.0187 153.766C74.0873 153.766 77.5479 151.89 77.5479 147.012C77.5479 144.01 76.3788 141.9 71.8425 139.883C68.8495 138.57 67.961 137.585 67.961 135.944C67.961 134.818 68.5689 133.833 69.7848 133.833C71.3281 133.833 71.749 135.615 71.5152 138.289C74.6952 138.289 77.1738 138.429 77.1738 138.429C77.5012 132.801 75.0693 129.096 69.8316 129.096C64.8277 129.096 62.1621 132.145 62.1621 135.85C62.1621 139.602 63.8924 141.853 67.7271 143.401C71.2813 144.855 71.7022 145.886 71.7022 147.012C71.7022 148.56 70.9072 149.169 70.0187 149.169C68.4286 149.169 67.9142 147.809 68.1013 144.995C64.173 144.761 62.1621 144.714 62.1621 144.714C61.8347 150.952 64.8277 153.766 70.0187 153.766Z" fill="#EB008B"/>
<path d="M87.623 153.015C94.6378 153.109 100.577 153.297 100.577 153.297C100.577 149.404 100.671 147.387 100.671 147.387C96.6019 147.293 93.8895 147.106 93.8895 147.106C93.796 144.667 93.7492 142.369 93.7025 140.258C97.0696 140.258 99.6417 140.305 99.6417 140.305C99.5949 136.835 99.5949 134.349 99.5949 134.349C96.0408 134.443 93.9831 134.396 93.6089 134.396C93.5154 129.659 93.5622 126.798 93.5622 126.798C96.6955 126.705 100.53 126.658 100.53 126.658C100.437 122.999 100.483 120.42 100.483 120.42C91.0368 120.561 87.2488 120.608 87.2488 120.608C87.5294 139.508 87.623 153.015 87.623 153.015Z" fill="#EB008B"/>
<path d="M118.738 154C118.597 135.709 118.785 121.03 118.785 121.03C113.594 121.17 112.284 121.077 112.284 121.077C112.518 126.001 112.611 129.565 112.658 132.098C111.77 130.456 110.32 129.284 108.403 129.284C103.679 129.284 101.762 134.396 101.762 141.196C101.762 149.732 104.521 153.39 108.777 153.39C110.928 153.39 112.752 152.265 113.687 149.873C113.64 152.312 113.594 153.953 113.594 153.953C116.82 153.953 118.738 154 118.738 154ZM110.507 149.216C109.198 149.216 108.496 146.918 108.496 141.431C108.496 136.413 109.104 133.739 110.367 133.739C111.77 133.739 112.471 136.225 112.471 141.572C112.471 147.669 111.583 149.216 110.507 149.216Z" fill="#EB008B"/>
<path d="M130.628 154C130.628 154 134.65 153.953 136.894 153.953C136.894 153.953 136.894 138.336 136.801 135.85C136.661 131.723 135.117 129.425 131.891 129.425C129.318 129.425 127.12 131.254 126.138 133.693C126.092 132.051 126.185 130.175 126.185 130.175C123.379 130.316 121.275 130.222 121.275 130.222C121.368 143.541 121.181 152.499 121.181 152.499C124.548 152.452 127.448 152.499 127.448 152.499C127.448 152.499 127.401 141.853 127.495 138.336C127.495 136.46 128.149 135.053 129.412 135.053C130.347 135.053 130.675 135.803 130.675 137.351C130.675 144.761 130.628 154 130.628 154Z" fill="#EB008B"/>
<path d="M144.183 153.625C146.522 153.625 148.72 152.734 149.655 150.248C149.608 152.218 149.468 153.766 149.468 153.766C152.788 153.719 154.191 153.672 154.191 153.672C154.191 153.672 154.331 146.449 154.144 137.96C154.004 132.708 151.806 129.472 146.709 129.472C141.144 129.472 138.712 133.177 138.946 138.195C142.453 138.242 144.791 138.148 144.791 138.148C144.744 135.428 145.212 133.974 146.475 133.974C147.55 133.974 147.925 134.912 148.018 137.679C148.018 138.336 148.065 139.18 148.065 139.18C141.751 139.649 138.197 142.51 138.197 147.622C138.197 151.421 140.723 153.625 144.183 153.625ZM148.345 144.198C148.345 148.091 147.317 149.169 146.101 149.169C144.791 149.169 144.277 148.138 144.277 146.731C144.277 144.761 145.306 142.838 148.299 142.369C148.345 142.932 148.345 143.588 148.345 144.198Z" fill="#EB008B"/>
<path d="M163.176 126.658L167.993 126.611C168.133 142.885 168.087 153.39 168.087 153.39C172.296 153.297 174.447 153.343 174.447 153.343C174.26 139.18 174.26 131.254 174.26 126.611C177.112 126.611 179.03 126.658 179.03 126.658C178.983 122.718 179.123 120.42 179.123 120.42C168.04 120.608 163.13 120.561 163.13 120.561C163.223 124.969 163.176 126.658 163.176 126.658Z" fill="#EB008B"/>
<path d="M183.882 153.531C185.893 153.531 187.857 152.171 188.792 149.685C188.746 152.077 188.699 153.906 188.699 153.906C192.206 153.859 193.75 153.953 193.75 153.953C193.609 139.743 193.656 129.284 193.656 129.284C189.167 129.331 187.343 129.19 187.343 129.19C187.343 129.19 187.717 136.647 187.67 144.339C187.67 146.59 186.969 148.138 185.987 148.138C184.771 148.138 184.069 146.731 184.069 138.523C184.069 136.225 184.163 132.989 184.443 130.175C180.234 129.987 178.598 129.753 178.598 129.753C178.177 133.411 177.99 137.069 177.99 140.681C177.99 150.436 179.954 153.531 183.882 153.531Z" fill="#EB008B"/>
<path d="M196.218 153.25C200.801 153.203 202.485 153.203 202.485 153.203C202.485 153.203 202.298 146.871 202.391 142.463C202.532 138.242 204.028 136.131 207.255 135.522C207.349 130.925 207.489 129.143 207.489 129.143C204.917 129.237 202.204 131.16 201.129 133.974C201.129 131.535 201.269 129.847 201.269 129.847C197.2 129.987 196.125 129.894 196.125 129.894C196.265 141.243 196.218 153.25 196.218 153.25Z" fill="#EB008B"/>
<path d="M218.268 154C218.268 154 222.289 153.953 224.534 153.953C224.534 153.953 224.534 138.336 224.441 135.85C224.3 131.723 222.757 129.425 219.53 129.425C216.958 129.425 214.76 131.254 213.778 133.693C213.731 132.051 213.825 130.175 213.825 130.175C211.019 130.316 208.914 130.222 208.914 130.222C209.008 143.541 208.821 152.499 208.821 152.499C212.188 152.452 215.088 152.499 215.088 152.499C215.088 152.499 215.041 141.853 215.134 138.336C215.134 136.46 215.789 135.053 217.052 135.053C217.987 135.053 218.314 135.803 218.314 137.351C218.314 144.761 218.268 154 218.268 154Z" fill="#EB008B"/>
<path d="M226.726 153.859C229.906 153.812 231.683 153.812 231.683 153.812C231.636 152.499 231.589 151.327 231.589 150.248C232.384 152.171 234.208 153.25 236.687 153.25C240.708 153.25 243.608 149.357 243.608 141.525C243.608 133.739 241.644 129.472 237.482 129.472C235.237 129.472 233.694 130.597 232.712 132.52C232.805 125.86 232.992 121.17 232.992 121.17C228.549 121.17 226.632 121.123 226.632 121.123C226.772 143.729 226.726 153.859 226.726 153.859ZM234.956 149.404C233.507 149.404 232.945 147.153 232.945 141.384C232.945 136.413 233.553 133.786 234.91 133.786C236.312 133.786 236.874 136.647 236.874 141.431C236.874 146.637 236.219 149.404 234.956 149.404Z" fill="#EB008B"/>
<path d="M251.853 152.546C251.853 152.546 251.712 145.23 251.899 121.452C251.899 121.452 249.795 121.452 245.679 121.311C245.679 121.311 245.82 131.676 245.633 152.452C245.633 152.452 247.784 152.452 251.853 152.546Z" fill="#EB008B"/>
<path d="M259.453 153.625C261.791 153.625 263.989 152.734 264.925 150.248C264.878 152.218 264.738 153.766 264.738 153.766C268.058 153.719 269.461 153.672 269.461 153.672C269.461 153.672 269.601 146.449 269.414 137.96C269.274 132.708 267.076 129.472 261.978 129.472C256.413 129.472 253.981 133.177 254.215 138.195C257.723 138.242 260.061 138.148 260.061 138.148C260.014 135.428 260.482 133.974 261.745 133.974C262.82 133.974 263.194 134.912 263.288 137.679C263.288 138.336 263.335 139.18 263.335 139.18C257.021 139.649 253.467 142.51 253.467 147.622C253.467 151.421 255.992 153.625 259.453 153.625ZM263.615 144.198C263.615 148.091 262.586 149.169 261.37 149.169C260.061 149.169 259.547 148.138 259.547 146.731C259.547 144.761 260.575 142.838 263.568 142.369C263.615 142.932 263.615 143.588 263.615 144.198Z" fill="#EB008B"/>
<path d="M288.171 154C288.031 135.709 288.218 121.03 288.218 121.03C283.027 121.17 281.718 121.077 281.718 121.077C281.952 126.001 282.045 129.565 282.092 132.098C281.203 130.456 279.754 129.284 277.836 129.284C273.113 129.284 271.196 134.396 271.196 141.196C271.196 149.732 273.955 153.39 278.21 153.39C280.362 153.39 282.185 152.265 283.121 149.873C283.074 152.312 283.027 153.953 283.027 153.953C286.254 153.953 288.171 154 288.171 154ZM279.941 149.216C278.631 149.216 277.93 146.918 277.93 141.431C277.93 136.413 278.538 133.739 279.8 133.739C281.203 133.739 281.905 136.225 281.905 141.572C281.905 147.669 281.016 149.216 279.941 149.216Z" fill="#EB008B"/>
</svg>
