<svg width="245" height="45" viewBox="0 0 245 45" fill="none" xmlns="http://www.w3.org/2000/svg">
<path d="M99.7419 16.0873C102.027 16.0873 103.629 14.9899 103.629 11.9392C103.629 9.85427 102.945 8.64717 100.981 7.28645C99.3575 6.16715 98.8876 5.42094 98.8876 4.34553C98.8876 3.24818 99.1439 2.58976 99.7205 2.58976C100.361 2.58976 100.746 3.4457 100.489 5.70625C101.963 5.75015 103.394 5.88184 103.394 5.88184C103.778 2.17277 102.582 0.197527 99.7632 0.197527C97.4568 0.197527 95.8551 1.36072 95.8551 4.19191C95.8551 6.16715 96.5171 7.57177 98.4391 8.97638C100.212 10.2713 100.575 10.9955 100.575 12.0051C100.575 13.278 100.297 13.695 99.7632 13.695C99.0158 13.695 98.7168 12.6635 98.909 10.3591C97.0937 10.3371 95.9191 10.2932 95.9191 10.2932C95.5774 14.134 96.7093 16.0873 99.7419 16.0873Z" fill="#EB008B"/>
<path d="M103.944 7.61566C103.944 7.61566 104.499 7.59371 104.948 7.61566C104.926 9.10806 104.948 10.776 104.969 12.5757C104.99 14.8582 106.08 15.758 107.874 15.758C108.407 15.758 109.005 15.6703 109.667 15.4947L109.497 12.7952C109.24 12.861 109.005 12.883 108.813 12.883C108.108 12.883 107.767 12.5099 107.745 11.7198C107.703 10.3371 107.703 8.93249 107.703 7.61566C108.258 7.61566 108.835 7.61566 109.454 7.63761C109.454 7.63761 109.433 7.15477 109.475 5.09174C109.475 5.09174 108.771 5.11369 107.703 5.09174C107.724 3.42375 107.767 2.26056 107.767 2.26056C107.767 2.26056 106.977 2.28251 105.012 2.23861C105.012 2.23861 104.99 3.33597 104.969 5.04784C104.627 5.04784 104.286 5.04784 103.923 5.0259C103.923 5.0259 103.965 5.66236 103.944 7.61566Z" fill="#EB008B"/>
<path d="M112.789 15.9775C113.857 15.9775 114.861 15.5605 115.288 14.3973C115.267 15.3191 115.203 16.0434 115.203 16.0434C116.719 16.0214 117.36 15.9995 117.36 15.9995C117.36 15.9995 117.424 12.6196 117.338 8.64717C117.274 6.18909 116.27 4.67474 113.943 4.67474C111.401 4.67474 110.291 6.40857 110.397 8.75691C111.999 8.77886 113.067 8.73496 113.067 8.73496C113.046 7.46203 113.259 6.78167 113.836 6.78167C114.327 6.78167 114.498 7.22061 114.54 8.51549C114.54 8.82275 114.562 9.2178 114.562 9.2178C111.679 9.43727 110.056 10.7761 110.056 13.1683C110.056 14.946 111.209 15.9775 112.789 15.9775ZM114.69 11.5661C114.69 13.3878 114.22 13.8925 113.665 13.8925C113.067 13.8925 112.832 13.4097 112.832 12.7513C112.832 11.8295 113.302 10.9297 114.669 10.7102C114.69 10.9736 114.69 11.2808 114.69 11.5661Z" fill="#EB008B"/>
<path d="M118.387 15.8019C120.479 15.78 121.248 15.78 121.248 15.78C121.248 15.78 121.163 12.8171 121.206 10.7541C121.27 8.77886 121.953 7.79123 123.427 7.50592C123.469 5.3551 123.533 4.52111 123.533 4.52111C122.359 4.56501 121.12 5.46484 120.629 6.78167C120.629 5.64042 120.693 4.85032 120.693 4.85032C118.835 4.91616 118.344 4.87227 118.344 4.87227C118.408 10.1835 118.387 15.8019 118.387 15.8019Z" fill="#EB008B"/>
<path d="M124.184 15.3849C126.277 15.341 127.046 15.363 127.046 15.363C127.046 15.363 126.961 12.6416 127.003 10.5785C127.068 8.71302 127.687 7.61566 129.224 7.33034C129.267 5.17952 129.331 4.34553 129.331 4.34553C128.157 4.36748 126.918 5.35511 126.427 6.78167C126.448 5.7721 126.491 5.15758 126.491 5.15758C124.633 5.22342 124.142 5.17953 124.142 5.17953C124.206 10.4907 124.184 15.3849 124.184 15.3849Z" fill="#EB008B"/>
<path d="M130.089 15.7361C131.734 15.7141 132.929 15.7142 132.929 15.7142C132.823 8.73496 132.844 4.69669 132.844 4.69669C130.965 4.74058 130.025 4.71864 130.025 4.71864C130.11 12.7732 130.089 15.7361 130.089 15.7361ZM131.456 3.64322C132.609 3.64322 133.186 2.83118 133.186 1.77772C133.186 0.768154 132.588 0 131.477 0C130.345 0 129.683 0.636471 129.683 1.75578C129.683 2.94092 130.281 3.64322 131.456 3.64322Z" fill="#EB008B"/>
<path d="M138.299 16.1531C138.299 16.1531 140.136 16.1312 141.161 16.1312C141.161 16.1312 141.161 8.82275 141.119 7.65955C141.054 5.72821 140.35 4.6528 138.876 4.6528C137.702 4.6528 136.698 5.50873 136.249 6.64998C136.228 5.88183 136.271 5.00395 136.271 5.00395C134.989 5.06979 134.028 5.0259 134.028 5.0259C134.071 11.2589 133.986 15.4508 133.986 15.4508C135.523 15.4288 136.847 15.4508 136.847 15.4508C136.847 15.4508 136.826 10.4688 136.869 8.82275C136.869 7.94487 137.168 7.28645 137.744 7.28645C138.171 7.28645 138.321 7.6376 138.321 8.36186C138.321 11.8295 138.299 16.1531 138.299 16.1531Z" fill="#EB008B"/>
<path d="M145.515 21.2887C147.715 21.2887 149.765 20.1475 149.765 17.7552C149.765 16.0214 148.718 15.0557 145.985 14.6387C145.13 14.5071 144.81 14.3315 144.81 14.0242C144.81 13.8925 144.874 13.7389 145.024 13.5853C145.237 13.6292 145.472 13.6292 145.728 13.6292C147.693 13.6292 149.209 12.1807 149.209 8.97638C149.209 7.3523 148.718 5.90378 147.693 5.11368C148.676 2.91897 149.316 1.62409 149.316 1.62409C147.544 1.20709 146.732 0.943731 146.732 0.943731C146.455 2.67755 146.22 3.84075 146.113 4.47722C146.113 4.47722 145.771 4.43332 145.579 4.43332C143.038 4.43332 141.842 6.5183 141.842 8.97638C141.842 11.1272 142.461 12.5318 143.7 13.1902C142.973 13.6731 142.589 14.2876 142.589 14.8802C142.589 15.5166 142.909 16.1092 143.593 16.4823C142.461 16.8774 141.735 17.7772 141.735 18.7868C141.735 20.4108 143.187 21.2887 145.515 21.2887ZM145.558 11.7856C144.96 11.7856 144.639 11.0394 144.639 9.10807C144.639 7.3084 144.96 6.45246 145.558 6.45246C146.156 6.45246 146.433 7.46203 146.433 9.10807C146.433 11.0394 146.113 11.7856 145.558 11.7856ZM147.074 18.282C147.074 19.0062 146.412 19.4232 145.6 19.4232C144.874 19.4232 144.362 19.0721 144.362 18.4356C144.362 17.9967 144.618 17.5358 145.216 17.1846C146.433 17.3163 147.074 17.6455 147.074 18.282Z" fill="#EB008B"/>
<path d="M0 44.1723C1.44001 44.1974 3.4902 44.2475 3.4902 44.2475C3.44138 39.4066 3.46579 34.1142 3.4902 31.1043C4.46648 37.4753 4.93021 41.2627 4.93021 41.2627C6.51667 41.338 8.29837 41.363 8.29837 41.363C8.76211 37.3749 9.39669 33.136 9.81161 30.4522C10.0801 38.905 9.98246 44.9498 9.98246 44.9498C11.6665 44.8997 13.4238 44.7993 13.4238 44.7993C12.8869 33.8383 12.8381 26.8152 12.8381 26.8152C10.5194 26.74 7.95668 26.6647 7.95668 26.6647C7.54176 30.6278 6.9804 34.5908 6.56548 37.2495C5.80886 32.1327 5.27191 27.3921 5.27191 27.3921C2.68477 27.5175 0.536954 27.4924 0.536954 27.4924C0.341698 36.9987 0 44.1723 0 44.1723Z" fill="#EB008B"/>
<path d="M14.7182 44.5234C16.8904 44.4983 18.0619 44.5234 18.0619 44.5234C17.9887 35.4687 17.9399 27.066 17.9399 27.066C15.7677 27.0911 14.6205 27.0911 14.6205 27.0911C14.7426 36.8482 14.7182 44.5234 14.7182 44.5234Z" fill="#EB008B"/>
<path d="M23.9448 44.9247C26.6784 44.9498 28.5821 43.169 28.4845 37.1743C28.4845 37.1743 26.8248 37.1743 24.8967 37.2495C25.0187 41.2627 24.6038 42.0653 23.9936 42.0653C23.1638 42.0653 22.8953 40.6356 22.8953 35.7947C22.8465 31.1545 23.1149 29.474 23.9692 29.474C24.677 29.474 24.8722 30.5776 24.8478 33.738C24.8478 33.738 26.2146 33.8132 28.3869 33.8383C28.4845 29.5994 27.435 26.6146 24.14 26.6146C20.601 26.6146 19.2586 29.6245 19.2586 35.8198C19.2586 42.3914 20.6254 44.9247 23.9448 44.9247Z" fill="#EB008B"/>
<path d="M34.6173 44.9749C36.6431 44.8997 37.9611 45 37.9611 45C37.8634 34.7162 37.8878 26.6397 37.8878 26.6397C35.7156 26.6898 34.5197 26.6647 34.5197 26.6647C34.5441 30.0509 34.5929 33.136 34.5929 35.7697C33.5922 35.7697 32.982 35.7446 32.6892 35.7446C32.6403 30.8033 32.6159 27.4423 32.6159 27.4423C30.1752 27.4924 29.3698 27.4674 29.3698 27.4674C29.4674 37.4753 29.4674 44.097 29.4674 44.097C31.3712 44.0218 32.7868 44.0719 32.7868 44.0719L32.7136 38.6792C33.641 38.6541 34.2024 38.6541 34.6173 38.6541C34.6661 42.4165 34.6173 44.9749 34.6173 44.9749Z" fill="#EB008B"/>
<path d="M38.6046 44.1221C40.8745 44.1221 41.8996 44.1723 41.8996 44.1723L42.1192 41.4634C43.1931 41.4634 43.9986 41.4885 44.5599 41.4885C44.7796 43.796 44.8772 44.8997 44.8772 44.8997C47.0006 44.8244 48.3674 44.8746 48.3674 44.8746C46.8786 35.6442 45.707 26.8905 45.707 26.8905C45.707 26.8905 43.6569 26.8654 40.9965 26.9908C39.6297 37.5003 38.6046 44.1221 38.6046 44.1221ZM43.3152 29.8C43.7301 33.5122 44.0474 36.3967 44.267 38.6792C43.0223 38.7043 42.3877 38.6792 42.3877 38.6792C42.7782 34.5155 43.1443 31.2548 43.3152 29.8Z" fill="#EB008B"/>
<path d="M49.2289 44.4231C52.8899 44.4733 55.9896 44.5736 55.9896 44.5736C55.9896 42.4917 56.0384 41.4132 56.0384 41.4132C53.915 41.363 52.4994 41.2627 52.4994 41.2627C52.4506 39.9584 52.4262 38.7294 52.4018 37.6007C54.1591 37.6007 55.5015 37.6258 55.5015 37.6258C55.4771 35.7697 55.4771 34.4403 55.4771 34.4403C53.6222 34.4905 52.5482 34.4654 52.353 34.4654C52.3042 31.932 52.3286 30.402 52.3286 30.402C53.9639 30.3519 55.9652 30.3268 55.9652 30.3268C55.9164 28.3703 55.9408 26.9908 55.9408 26.9908C51.0106 27.066 49.0336 27.0911 49.0336 27.0911C49.1801 37.1994 49.2289 44.4231 49.2289 44.4231Z" fill="#EB008B"/>
<path d="M57.0933 44.097C57.0933 44.097 59.7536 44.097 63.7564 44.2224C63.7564 44.2224 63.7564 42.9934 63.7808 41.0871C63.7808 41.0871 62.6581 41.1122 60.3638 41.062C60.2174 30.4773 60.2662 27.4924 60.2662 27.4924C58.0207 27.5175 56.9468 27.4924 56.9468 27.4924C57.0689 37.7261 57.0933 44.097 57.0933 44.097Z" fill="#EB008B"/>
<path d="M68.3684 44.4231C69.2958 44.5485 70.1501 44.6238 70.9311 44.6238C74.8118 44.6238 77.1061 43.2442 77.1061 39.6574C77.1061 37.4502 76.1298 35.9703 74.4945 35.3433C75.8613 34.7914 76.7888 33.4621 76.7888 31.5809C76.7888 28.3954 75.2267 26.74 71.5657 26.74C70.5894 26.74 69.4423 26.8654 68.1731 27.1162C68.3439 36.2964 68.3684 44.4231 68.3684 44.4231ZM71.6145 42.0403L71.5413 36.8984C73.0789 36.8984 73.8111 37.8264 73.8111 39.5822C73.8111 41.5386 72.9813 42.1155 71.6145 42.0403ZM71.5169 29.4238C73.0545 29.2984 73.6891 30.1763 73.6891 31.907C73.6891 33.5875 72.9813 34.4152 71.5169 34.365V29.4238Z" fill="#EB008B"/>
<path d="M77.1696 44.4983C79.4394 44.4733 80.4645 44.5485 80.4645 44.5485L80.7086 41.6389C81.8313 41.6389 82.6367 41.664 83.1981 41.664L83.4422 44.398C85.59 44.3228 86.9079 44.3729 86.9079 44.3729C85.3947 35.1426 84.3208 27.2165 84.3208 27.2165C84.3208 27.2165 82.3194 27.1664 79.6347 27.2667C78.1946 37.9518 77.1696 44.4983 77.1696 44.4983ZM81.9777 30.0007C82.3927 33.8132 82.7099 36.7479 82.9296 38.93C82.9296 38.93 82.4171 38.9551 80.9771 38.93C81.392 34.6911 81.8069 31.4053 81.9777 30.0007Z" fill="#EB008B"/>
<path d="M87.6974 44.398C87.6974 44.398 92.115 44.4482 94.5313 44.4983C94.5313 44.4983 94.5313 43.2944 94.5557 41.3881C94.5557 41.3881 93.2866 41.3881 90.9679 41.3129C90.8215 30.7281 90.8703 27.2165 90.8703 27.2165C88.6248 27.2667 87.5509 27.2165 87.5509 27.2165C87.673 37.4753 87.6974 44.398 87.6974 44.398Z" fill="#EB008B"/>
<path d="M95.3007 44.097C95.3007 44.097 97.9611 44.097 101.964 44.2224C101.964 44.2224 101.964 42.9934 101.988 41.0871C101.988 41.0871 100.866 41.1122 98.5712 41.062C98.4248 30.4773 98.4736 27.4924 98.4736 27.4924C96.2282 27.5175 95.1543 27.4924 95.1543 27.4924C95.2763 37.7261 95.3007 44.097 95.3007 44.097Z" fill="#EB008B"/>
<path d="M109.09 44.7492C110.31 44.7492 111.457 44.2726 111.945 42.9432C111.921 43.9967 111.848 44.8244 111.848 44.8244C113.581 44.7993 114.313 44.7743 114.313 44.7743C114.313 44.7743 114.386 40.9116 114.288 36.3716C114.215 33.5624 113.068 31.8317 110.408 31.8317C107.503 31.8317 106.234 33.8132 106.356 36.497C108.187 36.5221 109.407 36.472 109.407 36.472C109.383 35.0172 109.627 34.2396 110.286 34.2396C110.847 34.2396 111.042 34.7413 111.091 36.2211C111.091 36.5723 111.115 37.0238 111.115 37.0238C107.821 37.2746 105.966 38.8046 105.966 41.5386C105.966 43.5703 107.284 44.7492 109.09 44.7492ZM111.262 39.7076C111.262 41.7894 110.725 42.3663 110.09 42.3663C109.407 42.3663 109.139 41.8145 109.139 41.062C109.139 40.0086 109.675 38.9802 111.238 38.7294C111.262 39.0304 111.262 39.3815 111.262 39.7076Z" fill="#EB008B"/>
<path d="M119.221 44.8244C121.344 44.8244 123.15 43.8211 123.15 41.2125C123.15 39.6073 122.54 38.4786 120.173 37.4C118.611 36.6977 118.147 36.171 118.147 35.2931C118.147 34.6911 118.464 34.1644 119.099 34.1644C119.904 34.1644 120.124 35.1175 120.002 36.5472C121.662 36.5472 122.955 36.6225 122.955 36.6225C123.126 33.6126 121.857 31.6311 119.123 31.6311C116.512 31.6311 115.121 33.2614 115.121 35.2429C115.121 37.2495 116.024 38.4535 118.025 39.2812C119.88 40.0588 120.1 40.6106 120.1 41.2125C120.1 42.0403 119.685 42.3663 119.221 42.3663C118.391 42.3663 118.123 41.6389 118.22 40.134C116.17 40.0086 115.121 39.9835 115.121 39.9835C114.95 43.3195 116.512 44.8244 119.221 44.8244Z" fill="#EB008B"/>
<path d="M128.409 44.4231C132.07 44.4733 135.169 44.5736 135.169 44.5736C135.169 42.4917 135.218 41.4132 135.218 41.4132C133.095 41.363 131.679 41.2627 131.679 41.2627C131.63 39.9584 131.606 38.7294 131.582 37.6007C133.339 37.6007 134.681 37.6258 134.681 37.6258C134.657 35.7697 134.657 34.4403 134.657 34.4403C132.802 34.4905 131.728 34.4654 131.533 34.4654C131.484 31.932 131.508 30.402 131.508 30.402C133.144 30.3519 135.145 30.3268 135.145 30.3268C135.096 28.3703 135.121 26.9908 135.121 26.9908C130.19 27.066 128.213 27.0911 128.213 27.0911C128.36 37.1994 128.409 44.4231 128.409 44.4231Z" fill="#EB008B"/>
<path d="M139.544 42.0403C139.544 42.0403 139.421 35.8449 139.397 29.8C140.886 29.5743 141.52 31.2548 141.52 35.9452C141.52 41.5386 140.788 42.1406 139.544 42.0403ZM136.127 44.5987C137.054 44.7492 137.933 44.8244 138.714 44.8244C142.936 44.8244 145.084 42.567 145.084 36.171C145.084 29.8 143.351 26.8654 138.64 26.8654C137.884 26.8654 137.054 26.9406 136.127 27.1162C136.127 27.1162 136.175 35.6693 136.127 44.5987Z" fill="#EB008B"/>
<path d="M146.163 44.097C147.993 44.097 149.311 44.1472 149.311 44.1472C149.092 40.1089 148.994 36.5221 148.97 34.2647C150.947 40.8363 152.167 44.9247 152.167 44.9247C154.266 44.7743 155.267 44.6238 155.267 44.6238C155.023 33.437 154.925 26.6898 154.925 26.6898C153.046 26.7149 151.898 26.6397 151.898 26.6397C152.216 31.606 152.362 35.7195 152.435 38.2027C150.605 32.233 149.336 27.4924 149.336 27.4924C147.383 27.5426 146.09 27.6429 146.09 27.6429C146.236 37.8264 146.163 44.097 146.163 44.097Z" fill="#EB008B"/>
<path d="M155.92 44.1221C158.19 44.1221 159.215 44.1723 159.215 44.1723L159.435 41.4634C160.509 41.4634 161.314 41.4885 161.876 41.4885C162.095 43.796 162.193 44.8997 162.193 44.8997C164.316 44.8244 165.683 44.8746 165.683 44.8746C164.194 35.6442 163.023 26.8905 163.023 26.8905C163.023 26.8905 160.972 26.8654 158.312 26.9908C156.945 37.5003 155.92 44.1221 155.92 44.1221ZM160.631 29.8C161.046 33.5122 161.363 36.3967 161.583 38.6792C160.338 38.7043 159.703 38.6792 159.703 38.6792C160.094 34.5155 160.46 31.2548 160.631 29.8Z" fill="#EB008B"/>
<path d="M169.675 30.3268L172.189 30.3017C172.262 39.0053 172.238 44.6238 172.238 44.6238C174.435 44.5736 175.557 44.5987 175.557 44.5987C175.46 37.0238 175.46 32.7848 175.46 30.3017C176.949 30.3017 177.949 30.3268 177.949 30.3268C177.925 28.2198 177.998 26.9908 177.998 26.9908C172.214 27.0911 169.651 27.066 169.651 27.066C169.7 29.4238 169.675 30.3268 169.675 30.3268Z" fill="#EB008B"/>
<path d="M183.04 44.8495C186.335 44.8495 187.604 42.0904 187.604 35.5439C187.604 32.7347 187.286 29.5241 186.847 26.6146C184.773 26.8654 183.503 26.8905 183.503 26.8905C183.894 29.8753 184.138 33.0106 184.138 35.6944C184.138 40.736 183.723 41.5135 183.015 41.5135C182.307 41.5135 181.722 39.9333 181.722 34.4403C181.722 32.5842 181.868 30.5776 182.161 27.7684C179.916 27.4924 178.964 27.3169 178.964 27.3169C178.622 29.8 178.451 32.4839 178.451 35.2178C178.451 41.6891 179.623 44.8495 183.04 44.8495Z" fill="#EB008B"/>
<path d="M194.373 44.9749C196.546 44.8244 197.815 44.699 197.815 44.699C196.35 40.3096 195.545 37.7762 195.35 37.099C196.643 36.2211 197.424 34.7914 197.424 32.5591C197.424 28.8218 195.618 26.7149 191.811 26.7149C190.859 26.7149 189.785 26.8403 188.565 27.066C188.638 37.6508 188.54 44.1723 188.54 44.1723C190.493 44.1472 191.957 44.1472 191.957 44.1472C191.908 41.338 191.86 39.3063 191.86 38.2528C192.079 38.2277 192.323 38.2027 192.543 38.1525C193.714 42.3914 194.373 44.9749 194.373 44.9749ZM191.86 35.8951C191.86 35.8951 191.811 33.0608 191.786 29.6746C191.786 29.6746 192.006 29.6495 192.104 29.6495C193.397 29.6495 193.959 30.8786 193.959 32.8099C193.959 35.0172 193.055 35.8198 191.86 35.8951Z" fill="#EB008B"/>
<path d="M198.337 44.097C200.168 44.097 201.486 44.1472 201.486 44.1472C201.266 40.1089 201.169 36.5221 201.144 34.2647C203.121 40.8363 204.342 44.9247 204.342 44.9247C206.441 44.7743 207.441 44.6238 207.441 44.6238C207.197 33.437 207.1 26.6898 207.1 26.6898C205.22 26.7149 204.073 26.6397 204.073 26.6397C204.39 31.606 204.537 35.7195 204.61 38.2027C202.78 32.233 201.51 27.4924 201.51 27.4924C199.558 27.5426 198.264 27.6429 198.264 27.6429C198.411 37.8264 198.337 44.097 198.337 44.097Z" fill="#EB008B"/>
<path d="M208.852 44.4231C209.779 44.5485 210.633 44.6238 211.414 44.6238C215.295 44.6238 217.589 43.2442 217.589 39.6574C217.589 37.4502 216.613 35.9703 214.978 35.3433C216.344 34.7914 217.272 33.4621 217.272 31.5809C217.272 28.3954 215.71 26.74 212.049 26.74C211.073 26.74 209.925 26.8654 208.656 27.1162C208.827 36.2964 208.852 44.4231 208.852 44.4231ZM212.098 42.0403L212.024 36.8984C213.562 36.8984 214.294 37.8264 214.294 39.5822C214.294 41.5386 213.464 42.1155 212.098 42.0403ZM212 29.4238C213.538 29.2984 214.172 30.1763 214.172 31.907C214.172 33.5875 213.464 34.4152 212 34.365V29.4238Z" fill="#EB008B"/>
<path d="M218.48 44.398C218.48 44.398 222.897 44.4482 225.314 44.4983C225.314 44.4983 225.314 43.2944 225.338 41.3881C225.338 41.3881 224.069 41.3881 221.75 41.3129C221.604 30.7281 221.653 27.2165 221.653 27.2165C219.407 27.2667 218.333 27.2165 218.333 27.2165C218.455 37.4753 218.48 44.398 218.48 44.398Z" fill="#EB008B"/>
<path d="M225.614 44.1221C227.883 44.1221 228.909 44.1723 228.909 44.1723L229.128 41.4634C230.202 41.4634 231.008 41.4885 231.569 41.4885C231.789 43.796 231.886 44.8997 231.886 44.8997C234.01 44.8244 235.376 44.8746 235.376 44.8746C233.888 35.6442 232.716 26.8905 232.716 26.8905C232.716 26.8905 230.666 26.8654 228.006 26.9908C226.639 37.5003 225.614 44.1221 225.614 44.1221ZM230.324 29.8C230.739 33.5122 231.056 36.3967 231.276 38.6792C230.031 38.7043 229.397 38.6792 229.397 38.6792C229.787 34.5155 230.153 31.2548 230.324 29.8Z" fill="#EB008B"/>
<path d="M239.46 42.0403C239.46 42.0403 239.338 35.8449 239.313 29.8C240.802 29.5743 241.437 31.2548 241.437 35.9452C241.437 41.5386 240.704 42.1406 239.46 42.0403ZM236.043 44.5987C236.97 44.7492 237.849 44.8244 238.63 44.8244C242.852 44.8244 245 42.567 245 36.171C245 29.8 243.267 26.8654 238.557 26.8654C237.8 26.8654 236.97 26.9406 236.043 27.1162C236.043 27.1162 236.091 35.6693 236.043 44.5987Z" fill="#EB008B"/>
</svg>
