<svg width="60" height="65" viewBox="0 0 60 65" fill="none" xmlns="http://www.w3.org/2000/svg">
<rect x="3.91699" y="62.3286" width="27.107" height="4.51783" transform="rotate(-60 3.91699 62.3286)" fill="#269DDF"/>
<rect x="50.5997" y="64.5875" width="27.107" height="4.51783" transform="rotate(-120 50.5997 64.5875)" fill="#269DDF"/>
<circle cx="29.5312" cy="33.1089" r="26.636" fill="#EB7EAF"/>
<circle cx="29.4154" cy="33.1089" r="21.5404" fill="#4C378F"/>
<path d="M29.6471 15.75V32.8897L38.9118 41.6912" stroke="#EB7EAF" stroke-width="4"/>
<circle cx="29.2995" cy="32.8773" r="4.16912" fill="#EB7EAF"/>
<path d="M57.7508 19.0479C58.6406 17.1107 59.0623 14.9302 58.8632 12.6546C58.2517 5.66502 52.0911 0.495661 45.1015 1.10717C42.8259 1.30626 40.7518 2.10017 38.9985 3.31288L57.7508 19.0479Z" fill="#269DDF"/>
<path d="M1.65911 19.0478C0.769266 17.1107 0.347585 14.9302 0.546674 12.6546C1.15819 5.66498 7.31879 0.495622 14.3084 1.10713C16.584 1.30622 18.6581 2.10013 20.4113 3.31284L1.65911 19.0478Z" fill="#269DDF"/>
</svg>
