<svg width="416" height="30" viewBox="0 0 416 30" fill="none" xmlns="http://www.w3.org/2000/svg">
<path d="M7.03778 4.72754H15.6242L29.3272 18.2916V15.1546C29.3272 12.1502 29.2684 9.67599 29.1508 8.70397C29.092 7.73195 29.1508 5.8321 26.9748 5.8321V4.72754H35.0907V5.78792C31.6209 5.78792 31.9737 9.41089 31.8561 14.8012C31.7973 17.4079 31.7973 25.1399 31.7973 25.1399H29.6213L12.5072 8.35051V13.5199C12.5072 17.187 12.566 18.9543 12.7425 20.4565C12.8601 21.782 13.0953 24.2563 14.8597 24.0795V25.1841H7.09659V24.0795C10.39 24.0795 9.97834 20.1473 10.0372 13.3873L9.97834 8.30633C9.97834 7.37849 9.91953 6.58321 9.44904 6.31811C8.97855 6.00883 8.21401 5.8321 7.03778 5.8321V4.72754Z" fill="#4F4F4F"/>
<path d="M38.6782 27.4816H3.74434V2.47424H38.6782V27.4816ZM5.44987 26.2445H36.9727V3.71135H5.44987V26.2445Z" fill="#4F4F4F"/>
<path d="M42.0893 30H0.333313V0H42.0893V30ZM2.03884 28.7187H40.3838V1.23711H2.03884V28.7187Z" fill="#4F4F4F"/>
<path d="M73.3768 15.1546C73.3768 16.8777 72.9064 18.38 72.0242 19.6613C71.142 20.9426 69.907 21.9587 68.4955 22.7982C67.0252 23.5935 65.3785 24.2121 63.5554 24.6097C61.7322 25.0074 59.8503 25.2283 57.8507 25.2283H46.0296V24.2121C46.4413 24.2121 46.9118 24.1679 47.5587 24.1237C48.2056 24.0795 48.6173 23.9912 48.7938 23.947C49.2054 23.8144 49.4995 23.6377 49.6759 23.3726C49.8524 23.1075 49.97 22.8424 49.97 22.4889V7.82031C49.97 7.51103 49.9112 7.20176 49.7347 6.93666C49.5583 6.67156 49.2642 6.45065 48.7938 6.3181C48.3821 6.18556 47.9116 6.05301 47.4411 6.00883C46.9706 5.96464 46.5589 5.92046 46.2061 5.87628V4.86008H58.674C60.3796 4.86008 62.0851 5.03681 63.7318 5.43445C65.3785 5.83209 66.8488 6.3181 68.0838 6.98084C69.7305 7.82031 71.0832 8.96906 72.0242 10.3387C72.9064 11.6642 73.3768 13.299 73.3768 15.1546ZM68.4367 15.1546C68.4367 13.785 68.2015 12.5479 67.6722 11.4433C67.1429 10.3387 66.4371 9.3667 65.4373 8.57142C64.4963 7.77613 63.3789 7.15757 62.0263 6.71575C60.6736 6.27392 59.2033 6.05301 57.5566 6.05301C57.0273 6.05301 56.3804 6.05301 55.6747 6.05301C54.9689 6.05301 54.4984 6.09719 54.1456 6.09719V21.7378C54.1456 22.6215 54.4984 23.1959 55.2042 23.5493C55.9099 23.9028 57.0273 24.0353 58.4976 24.0353C60.2031 24.0353 61.6734 23.8144 62.9673 23.3726C64.2611 22.9308 65.2609 22.3564 66.0843 21.5611C66.9076 20.7658 67.4957 19.838 67.9074 18.7776C68.2603 17.7614 68.4367 16.5243 68.4367 15.1546Z" fill="#4F4F4F"/>
<path d="M96.7249 9.94108C97.7835 10.7364 98.6069 11.7084 99.2538 12.8129C99.8419 13.9617 100.136 15.1988 100.136 16.5685C100.136 17.9381 99.8419 19.1752 99.195 20.324C98.5481 21.4727 97.7247 22.4006 96.6661 23.1959C95.6075 23.9912 94.3725 24.5655 92.961 25.0074C91.5495 25.4492 90.0792 25.6259 88.4913 25.6259C86.7858 25.6259 85.2567 25.405 83.8452 24.9632C82.4338 24.5213 81.1987 23.9028 80.1989 23.0633C79.1992 22.268 78.3758 21.296 77.7877 20.1914C77.1996 19.0869 76.9055 17.8498 76.9055 16.5685C76.9055 15.1546 77.1996 13.9175 77.8465 12.8129C78.4934 11.7084 79.3168 10.7364 80.3754 9.94108C81.434 9.14579 82.669 8.52723 84.0805 8.12959C85.492 7.68776 86.9622 7.51103 88.5501 7.51103C90.1381 7.51103 91.6671 7.73195 93.0786 8.17377C94.4901 8.57142 95.7251 9.18997 96.7249 9.94108ZM94.196 22.2238C94.843 21.4727 95.3134 20.6333 95.6075 19.7054C95.9016 18.7776 96.0192 17.7172 96.0192 16.5685C96.0192 15.3755 95.8427 14.271 95.5487 13.299C95.1958 12.3269 94.7253 11.4433 94.1372 10.7805C93.4903 10.0736 92.7257 9.54344 91.7848 9.14579C90.8438 8.74815 89.7852 8.57142 88.5501 8.57142C87.1975 8.57142 86.0213 8.79233 85.0803 9.23416C84.1393 9.67598 83.3748 10.2945 82.7278 11.0456C82.1397 11.7526 81.728 12.592 81.434 13.5641C81.1399 14.5361 81.0223 15.5523 81.0223 16.5685C81.0223 17.7614 81.1987 18.7776 81.4928 19.7496C81.7869 20.6775 82.2573 21.5169 82.9043 22.268C83.4924 22.975 84.3157 23.5493 85.1979 23.947C86.0801 24.3446 87.2563 24.5655 88.5501 24.5655C89.7852 24.5655 90.8438 24.3446 91.8436 23.947C92.7846 23.5493 93.6079 22.975 94.196 22.2238Z" fill="#4F4F4F"/>
<path d="M131.659 25.2283H120.955V24.3446C121.367 24.3446 121.837 24.3004 122.425 24.2563C123.014 24.2121 123.425 24.1237 123.66 24.0353C124.013 23.9028 124.249 23.7261 124.425 23.5051C124.601 23.2842 124.66 23.0633 124.66 22.754V10.2062H124.425L116.191 24.9632H115.309L107.429 9.8969H107.193V20.2356C107.193 21.2518 107.252 22.0029 107.429 22.5331C107.605 23.0633 107.899 23.4168 108.252 23.6377C108.487 23.8144 109.016 23.9912 109.781 24.1237C110.546 24.2562 111.075 24.3446 111.31 24.3888V25.2725H101.547V24.3888C102.077 24.3446 102.606 24.3004 103.135 24.2121C103.723 24.1237 104.135 23.9912 104.429 23.8144C104.841 23.5935 105.076 23.2401 105.253 22.754C105.429 22.268 105.488 21.4727 105.488 20.3682V11.4875C105.488 10.9573 105.429 10.5596 105.253 10.2504C105.076 9.94108 104.841 9.67599 104.547 9.45507C104.194 9.23416 103.782 9.05743 103.253 8.96906C102.724 8.8807 102.253 8.79233 101.724 8.79233V7.90868H109.957L116.897 20.8984L122.837 10.0294C123.072 9.6318 123.249 9.23416 123.366 8.79233C123.543 8.35051 123.602 8.08541 123.602 7.90868H131.482V8.79233C131.188 8.79233 130.777 8.83652 130.247 8.8807C129.718 8.92488 129.365 9.01325 129.189 9.05743C128.777 9.14579 128.542 9.32252 128.424 9.54344C128.307 9.76435 128.248 10.0294 128.248 10.2945V22.7982C128.248 23.0633 128.307 23.3284 128.424 23.5051C128.542 23.6819 128.836 23.8586 129.189 24.0353C129.365 24.1237 129.777 24.2121 130.306 24.2563C130.835 24.3446 131.247 24.3446 131.541 24.3888V25.2283H131.659Z" fill="#4F4F4F"/>
<path d="M145.773 25.2283H134.893V24.3446C135.187 24.3446 135.658 24.3004 136.246 24.2563C136.834 24.2121 137.246 24.1679 137.481 24.1237C137.834 24.0353 138.128 23.8586 138.304 23.6819C138.481 23.5051 138.54 23.24 138.54 22.9308V10.3829C138.54 10.1178 138.481 9.85271 138.363 9.67598C138.246 9.49925 137.952 9.32252 137.481 9.18998C137.128 9.10161 136.717 9.01325 136.187 8.92488C135.658 8.83652 135.246 8.79233 134.893 8.79233V7.90868H145.773V8.79233C145.421 8.79233 145.009 8.83652 144.538 8.8807C144.068 8.92488 143.597 9.01325 143.245 9.10161C142.833 9.18998 142.539 9.36671 142.362 9.58762C142.186 9.80853 142.127 10.0294 142.127 10.3387V22.8866C142.127 23.1517 142.186 23.3726 142.362 23.5935C142.539 23.8144 142.833 23.947 143.186 24.0795C143.421 24.1237 143.833 24.2121 144.362 24.3004C144.891 24.3888 145.362 24.433 145.715 24.433V25.2283H145.773Z" fill="#4F4F4F"/>
<path d="M174.532 8.79233C174.238 8.79233 173.709 8.8807 173.062 8.96907C172.415 9.10161 171.944 9.23416 171.65 9.36671C171.239 9.58762 170.945 9.94108 170.827 10.5596C170.709 11.1782 170.592 11.8851 170.592 12.7688V25.4492H169.122L154.419 11.2224V20.1473C154.419 21.1635 154.478 21.9146 154.654 22.4448C154.83 22.975 155.124 23.3726 155.477 23.5935C155.713 23.7702 156.301 23.947 157.124 24.0795C157.947 24.2121 158.477 24.3004 158.771 24.3446V25.2283H148.832V24.3446C149.126 24.3446 149.655 24.2563 150.361 24.1237C151.067 23.9912 151.537 23.8586 151.713 23.7261C152.125 23.5052 152.36 23.1517 152.537 22.6657C152.713 22.1797 152.772 21.3844 152.772 20.2798V11.7526C152.772 11.3991 152.654 11.0015 152.478 10.648C152.302 10.2945 152.066 9.98527 151.772 9.76435C151.361 9.49926 150.831 9.27834 150.126 9.05743C149.42 8.8807 148.832 8.74815 148.42 8.74815V7.8645H155.36L168.945 21.0751V12.8571C168.945 11.8409 168.828 11.0898 168.651 10.5155C168.475 9.98527 168.181 9.6318 167.887 9.45507C167.592 9.32253 167.063 9.1458 166.299 9.01325C165.593 8.8807 165.005 8.79234 164.652 8.74815V7.8645H174.473V8.79233H174.532Z" fill="#4F4F4F"/>
<path d="M188 25.2283H177.12V24.3446C177.414 24.3446 177.884 24.3004 178.472 24.2563C179.061 24.2121 179.472 24.1679 179.708 24.1237C180.06 24.0353 180.354 23.8586 180.531 23.6819C180.707 23.5051 180.766 23.24 180.766 22.9308V10.3829C180.766 10.1178 180.707 9.85271 180.59 9.67598C180.472 9.49925 180.178 9.32252 179.708 9.18998C179.355 9.10161 178.943 9.01325 178.414 8.92488C177.884 8.83652 177.473 8.79233 177.12 8.79233V7.90868H188V8.79233C187.647 8.79233 187.235 8.83652 186.765 8.8807C186.294 8.92488 185.824 9.01325 185.471 9.10161C185.059 9.18998 184.765 9.36671 184.589 9.58762C184.412 9.80853 184.354 10.0294 184.354 10.3387V22.8866C184.354 23.1517 184.412 23.3726 184.589 23.5935C184.765 23.8144 185.059 23.947 185.412 24.0795C185.647 24.1237 186.059 24.2121 186.588 24.3004C187.118 24.3888 187.588 24.433 187.941 24.433V25.2283H188Z" fill="#4F4F4F"/>
<path d="M209.76 9.94108C210.819 10.7364 211.642 11.7084 212.289 12.8129C212.877 13.9617 213.171 15.1988 213.171 16.5685C213.171 17.9381 212.877 19.1752 212.23 20.324C211.583 21.4727 210.76 22.4006 209.701 23.1959C208.643 23.9912 207.408 24.5655 205.996 25.0074C204.585 25.4492 203.114 25.6259 201.527 25.6259C199.821 25.6259 198.292 25.405 196.88 24.9632C195.469 24.5213 194.234 23.9028 193.234 23.0633C192.234 22.268 191.411 21.296 190.823 20.1914C190.235 19.0869 189.941 17.8498 189.941 16.5685C189.941 15.1546 190.235 13.9175 190.882 12.8129C191.529 11.7084 192.352 10.7364 193.411 9.94108C194.469 9.14579 195.704 8.52723 197.116 8.12959C198.527 7.68776 199.997 7.51103 201.585 7.51103C203.173 7.51103 204.702 7.73195 206.114 8.17377C207.466 8.57142 208.702 9.18997 209.76 9.94108ZM207.172 22.2238C207.819 21.4727 208.29 20.6333 208.584 19.7054C208.878 18.7776 208.996 17.7172 208.996 16.5685C208.996 15.3755 208.819 14.271 208.525 13.299C208.172 12.3269 207.702 11.4433 207.114 10.7805C206.467 10.0736 205.702 9.54344 204.761 9.14579C203.82 8.74815 202.762 8.57142 201.527 8.57142C200.174 8.57142 198.998 8.79233 198.057 9.23416C197.116 9.67598 196.351 10.2945 195.704 11.0456C195.116 11.7526 194.704 12.592 194.41 13.5641C194.116 14.5361 193.999 15.5523 193.999 16.5685C193.999 17.7614 194.175 18.7776 194.469 19.7496C194.763 20.6775 195.234 21.5169 195.881 22.268C196.469 22.975 197.292 23.5493 198.174 23.947C199.056 24.3446 200.233 24.5655 201.527 24.5655C202.762 24.5655 203.82 24.3446 204.82 23.947C205.761 23.5493 206.584 22.975 207.172 22.2238Z" fill="#4F4F4F"/>
<path d="M240.401 8.79233C240.107 8.79233 239.577 8.8807 238.931 8.96907C238.284 9.10161 237.813 9.23416 237.519 9.36671C237.107 9.58762 236.813 9.94108 236.696 10.5596C236.578 11.134 236.46 11.8851 236.46 12.7688V25.4492H234.99L220.346 11.2666V20.1915C220.346 21.2077 220.405 21.9588 220.581 22.4889C220.758 23.0191 221.052 23.4168 221.405 23.6377C221.64 23.8144 222.228 23.9912 223.051 24.1237C223.875 24.2563 224.404 24.3446 224.698 24.3888V25.2725H214.759V24.3888C215.053 24.3888 215.582 24.3004 216.288 24.1679C216.994 24.0353 217.464 23.9028 217.641 23.7702C218.053 23.5493 218.288 23.1959 218.464 22.7099C218.641 22.2239 218.699 21.4286 218.699 20.324V11.7526C218.699 11.3991 218.582 11.0015 218.405 10.648C218.229 10.2945 217.994 9.98527 217.7 9.76435C217.288 9.49926 216.759 9.27834 216.053 9.05743C215.347 8.8807 214.759 8.74815 214.347 8.74815V7.8645H221.287L234.873 21.0751V12.8571C234.873 11.8409 234.755 11.0898 234.578 10.5155C234.402 9.98527 234.108 9.6318 233.814 9.45507C233.52 9.32253 232.991 9.1458 232.226 9.01325C231.461 8.8807 230.932 8.79234 230.579 8.74815V7.8645H240.401V8.79233Z" fill="#4F4F4F"/>
<path d="M267.336 10.3829H265.925C265.807 10.0294 265.572 9.6318 265.278 9.14579C264.984 8.65978 264.631 8.21796 264.219 7.82031C263.808 7.37849 263.396 6.98084 262.925 6.67156C262.455 6.36229 261.984 6.14137 261.573 6.09719C261.161 6.05301 260.632 6.00883 259.985 6.00883C259.338 6.00883 258.75 5.96464 258.221 5.96464H257.044V22.268C257.044 22.5773 257.162 22.8866 257.338 23.1517C257.515 23.4168 257.868 23.6377 258.338 23.7702C258.573 23.8586 259.103 23.947 259.867 24.0353C260.632 24.1679 261.22 24.2121 261.69 24.2121V25.2283H248.223V24.2121C248.576 24.2121 249.164 24.1679 249.928 24.0795C250.693 24.0353 251.222 23.947 251.516 23.8586C251.987 23.7261 252.281 23.5493 252.516 23.3284C252.751 23.1075 252.81 22.7982 252.81 22.4006V5.96464H251.634C251.222 5.96464 250.693 5.96464 250.105 5.96464C249.517 5.96464 248.928 6.00883 248.34 6.05301C247.87 6.09719 247.458 6.27392 246.988 6.62738C246.517 6.98084 246.047 7.3343 245.694 7.77613C245.282 8.21796 244.929 8.65978 244.635 9.14579C244.341 9.6318 244.106 10.0294 243.988 10.3387H242.577V4.86008H267.336V10.3829Z" fill="#4F4F4F"/>
<path d="M295.389 25.2283H285.333V24.3446C285.627 24.3446 285.979 24.3004 286.509 24.2562C287.038 24.2121 287.391 24.1679 287.567 24.1237C287.92 24.0353 288.156 23.8586 288.332 23.6819C288.508 23.461 288.567 23.24 288.567 22.8866V16.7452H277.217V22.754C277.217 23.0191 277.275 23.2842 277.393 23.461C277.511 23.6377 277.805 23.8144 278.158 23.9912C278.334 24.0795 278.687 24.1237 279.216 24.2121C279.687 24.3004 280.098 24.3446 280.392 24.3446V25.2283H270.336V24.3446C270.63 24.3446 270.983 24.3004 271.512 24.2562C272.041 24.2121 272.394 24.1679 272.571 24.1237C272.923 24.0353 273.159 23.8586 273.335 23.6819C273.511 23.461 273.57 23.24 273.57 22.8866V10.4271C273.57 10.162 273.511 9.94108 273.335 9.72016C273.159 9.49925 272.923 9.32252 272.571 9.23416C272.276 9.14579 271.865 9.01324 271.453 8.96906C271.041 8.92488 270.63 8.83651 270.336 8.83651V7.95286H280.392V8.83651C280.098 8.83651 279.687 8.8807 279.216 8.92488C278.746 8.96906 278.393 9.05743 278.158 9.10161C277.746 9.18997 277.511 9.3667 277.393 9.58762C277.275 9.80853 277.217 10.0736 277.217 10.3387V15.729H288.567V10.4271C288.567 10.162 288.508 9.94108 288.332 9.72016C288.156 9.49925 287.92 9.32252 287.567 9.23416C287.273 9.14579 286.862 9.01324 286.45 8.96906C286.038 8.92488 285.627 8.83651 285.333 8.83651V7.95286H295.389V8.83651C295.095 8.83651 294.684 8.8807 294.213 8.92488C293.743 8.96906 293.39 9.05743 293.154 9.10161C292.743 9.18997 292.508 9.3667 292.39 9.58762C292.272 9.80853 292.213 10.0736 292.213 10.3387V22.8424C292.213 23.1075 292.272 23.3726 292.39 23.5493C292.508 23.7261 292.802 23.9028 293.154 24.0795C293.331 24.1679 293.684 24.2121 294.213 24.3004C294.684 24.3888 295.095 24.433 295.389 24.433V25.2283Z" fill="#4F4F4F"/>
<path d="M319.267 20.1031L318.796 25.1841H298.683V24.3004C299.036 24.3004 299.506 24.2562 300.035 24.2121C300.565 24.1679 300.976 24.1237 301.153 24.0353C301.506 23.9028 301.741 23.7702 301.917 23.5493C302.035 23.3726 302.153 23.1075 302.153 22.7982V10.4271C302.153 10.162 302.094 9.94108 301.976 9.72017C301.859 9.49925 301.564 9.32252 301.212 9.23416C300.918 9.14579 300.506 9.01324 299.977 8.96906C299.447 8.92488 299.036 8.83651 298.741 8.83651V7.95286H317.443V12.106H316.15C315.914 11.4875 315.444 10.8247 314.679 10.1178C313.915 9.41089 313.209 9.05743 312.503 8.96906C312.15 8.92488 311.739 8.92488 311.268 8.8807C310.798 8.8807 310.21 8.83651 309.622 8.83651H305.799V15.729H308.504C309.386 15.729 310.033 15.6848 310.445 15.5523C310.857 15.4197 311.209 15.243 311.504 14.9779C311.739 14.757 311.974 14.4477 312.15 14.0501C312.327 13.6524 312.445 13.299 312.503 12.9455H313.797V19.7496H312.503C312.445 19.352 312.327 18.9543 312.15 18.5125C311.974 18.0707 311.739 17.7614 311.504 17.5847C311.151 17.2754 310.739 17.0545 310.327 16.9661C309.916 16.8778 309.269 16.8336 308.563 16.8336H305.858V22.0029C305.858 22.5331 305.916 22.9308 306.034 23.24C306.152 23.5493 306.328 23.7702 306.622 23.9028C306.916 24.0353 307.328 24.1679 307.857 24.2121C308.387 24.2562 309.092 24.3004 310.033 24.3004C310.386 24.3004 310.915 24.3004 311.504 24.3004C312.092 24.3004 312.621 24.3004 313.033 24.2563C313.444 24.2121 313.915 24.1679 314.385 24.0795C314.856 23.9912 315.15 23.8586 315.385 23.7261C315.914 23.3284 316.444 22.754 317.032 21.9588C317.62 21.1635 317.973 20.5891 318.149 20.1914H319.267V20.1031Z" fill="#4F4F4F"/>
<path d="M345.908 25.2283H335.851V24.3446C336.734 24.3004 337.498 24.2121 338.086 24.0795C338.674 23.947 338.968 23.8144 338.968 23.6377C338.968 23.5493 338.968 23.461 338.91 23.3726C338.91 23.2842 338.851 23.1517 338.792 23.1075L336.792 19.2194H328.324C328.029 19.7938 327.735 20.2798 327.559 20.7216C327.383 21.1635 327.206 21.5169 327.03 21.9146C326.853 22.268 326.794 22.5331 326.736 22.754C326.677 22.9749 326.677 23.1517 326.677 23.2842C326.677 23.5935 327.03 23.8586 327.735 24.0353C328.441 24.2121 329.265 24.3004 330.147 24.3446V25.2283H321.031V24.3446C321.325 24.3446 321.678 24.3004 322.148 24.2121C322.619 24.1237 322.972 24.0353 323.266 23.9028C323.736 23.6819 324.089 23.461 324.324 23.1959C324.56 22.9749 324.795 22.6215 325.03 22.1797C326.265 20.0147 327.559 17.5847 329.029 14.8453C330.5 12.1502 331.793 9.72016 332.97 7.5994H334.322L342.379 22.5331C342.556 22.8424 342.732 23.1075 342.967 23.2842C343.203 23.461 343.497 23.6819 343.85 23.8586C344.085 23.9911 344.438 24.0795 344.849 24.1237C345.261 24.2121 345.614 24.2562 345.908 24.2562V25.2283ZM336.204 18.159L332.558 11.4433L328.97 18.159H336.204Z" fill="#4F4F4F"/>
<path d="M364.845 12.592C364.728 12.2828 364.551 11.9735 364.316 11.5317C364.022 11.134 363.728 10.7364 363.434 10.3829C363.081 10.0294 362.728 9.67598 362.316 9.41089C361.905 9.14579 361.493 8.96906 361.14 8.92488C360.787 8.8807 360.317 8.8807 359.788 8.83652C359.258 8.83652 358.729 8.79233 358.317 8.79233H357.317V22.6215C357.317 22.8866 357.376 23.1517 357.553 23.3726C357.729 23.5935 357.964 23.7702 358.376 23.9028C358.553 23.947 359.023 24.0353 359.67 24.1237C360.317 24.2121 360.846 24.2562 361.199 24.3004V25.1841H349.79V24.3004C350.084 24.3004 350.613 24.2562 351.26 24.2121C351.907 24.1679 352.377 24.1237 352.613 24.0353C352.965 23.947 353.26 23.7702 353.436 23.5935C353.612 23.3726 353.671 23.1075 353.671 22.7982V8.83652H352.671C352.319 8.83652 351.907 8.83652 351.378 8.83652C350.848 8.83652 350.378 8.8807 349.848 8.92488C349.496 8.96906 349.084 9.10161 348.672 9.41089C348.261 9.72017 347.908 10.0294 347.555 10.3829C347.202 10.7364 346.908 11.134 346.673 11.5317C346.437 11.9293 346.202 12.2828 346.143 12.5479H344.967V7.90868H366.08V12.592H364.845Z" fill="#4F4F4F"/>
<path d="M385.782 25.2283C384.312 23.5935 383.018 22.2239 381.901 21.0309C380.724 19.838 379.489 18.6451 378.137 17.3638H375.667V22.8424C375.667 23.1075 375.725 23.3726 375.843 23.5935C375.961 23.8144 376.255 23.9912 376.666 24.0795C376.843 24.1237 377.254 24.1679 377.725 24.2563C378.195 24.3446 378.666 24.3446 379.019 24.3446V25.2283H368.786V24.3446C369.08 24.3446 369.433 24.3004 369.962 24.2563C370.491 24.2121 370.844 24.1679 371.02 24.0795C371.373 23.9912 371.609 23.8144 371.785 23.6377C371.961 23.4168 372.02 23.1959 372.02 22.8424V10.3387C372.02 10.0736 371.961 9.80854 371.844 9.58762C371.726 9.36671 371.491 9.18998 371.02 9.10161C370.726 9.01325 370.374 8.96907 369.903 8.8807C369.433 8.79234 369.08 8.79234 368.727 8.74815V7.8645H379.901C380.901 7.8645 381.901 7.95287 382.783 8.08541C383.665 8.21796 384.488 8.48306 385.194 8.79233C385.9 9.10161 386.488 9.54344 386.9 10.0736C387.311 10.6038 387.546 11.2224 387.546 11.9735C387.546 12.6362 387.429 13.2106 387.135 13.7408C386.841 14.271 386.429 14.7128 385.9 15.0663C385.37 15.4197 384.782 15.729 384.077 15.9941C383.371 16.2592 382.547 16.4801 381.724 16.6568C382.9 17.8056 383.9 18.7334 384.723 19.5287C385.488 20.324 386.488 21.2518 387.605 22.3564C388.076 22.8424 388.546 23.1959 388.958 23.4168C389.37 23.6377 389.781 23.8586 390.134 23.9912C390.428 24.0795 390.781 24.1679 391.252 24.2563C391.722 24.3446 392.075 24.3446 392.369 24.3446V25.2283H385.782ZM383.371 12.3269C383.371 11.2666 382.959 10.4271 382.136 9.85272C381.312 9.23416 380.077 8.92488 378.548 8.92488H375.667V16.3476H377.901C379.489 16.3476 380.783 15.9941 381.842 15.2872C382.842 14.5361 383.371 13.5641 383.371 12.3269Z" fill="#4F4F4F"/>
<path d="M415.07 20.1031L414.6 25.1841H394.486V24.3004C394.839 24.3004 395.31 24.2562 395.839 24.2121C396.368 24.1679 396.78 24.1237 396.956 24.0353C397.309 23.9028 397.544 23.7702 397.721 23.5493C397.838 23.3726 397.956 23.1075 397.956 22.7982V10.4271C397.956 10.162 397.897 9.94108 397.78 9.72017C397.662 9.49925 397.368 9.32252 397.015 9.23416C396.721 9.14579 396.309 9.01324 395.78 8.96906C395.251 8.92488 394.839 8.83651 394.545 8.83651V7.95286H413.247V12.106H411.953C411.718 11.4875 411.247 10.8247 410.483 10.1178C409.718 9.41089 409.013 9.05743 408.307 8.96906C407.954 8.92488 407.542 8.92488 407.072 8.8807C406.601 8.8807 406.013 8.83651 405.425 8.83651H401.602V15.729H404.308C405.19 15.729 405.837 15.6848 406.248 15.5523C406.66 15.4197 407.013 15.243 407.307 14.9779C407.542 14.757 407.777 14.4477 407.954 14.0501C408.13 13.6524 408.248 13.299 408.307 12.9455H409.601V19.7496H408.307C408.248 19.352 408.13 18.9543 407.954 18.5125C407.777 18.0707 407.542 17.7614 407.307 17.5847C406.954 17.2754 406.542 17.0545 406.131 16.9661C405.719 16.8778 405.072 16.8336 404.366 16.8336H401.661V22.0029C401.661 22.5331 401.72 22.9308 401.838 23.24C401.955 23.5493 402.132 23.7702 402.426 23.9028C402.72 24.0353 403.131 24.1679 403.661 24.2121C404.19 24.2562 404.896 24.3004 405.837 24.3004C406.19 24.3004 406.719 24.3004 407.307 24.3004C407.895 24.3004 408.424 24.3004 408.836 24.2563C409.248 24.2121 409.718 24.1679 410.189 24.0795C410.659 23.9912 410.953 23.8586 411.189 23.7261C411.718 23.3284 412.247 22.754 412.835 21.9588C413.423 21.1635 413.776 20.5891 413.953 20.1914H415.07V20.1031Z" fill="#4F4F4F"/>
</svg>
