<svg width="123" height="133" viewBox="0 0 123 133" fill="none" xmlns="http://www.w3.org/2000/svg">
<g clip-path="url(#clip0)">
<path d="M113.513 124.733L14.7826 130.095L13.6836 56.8554L108.895 53.3741L113.513 124.733Z" fill="white" stroke="#2C4591" stroke-width="4.21031" stroke-miterlimit="10"/>
<path d="M24.6205 84.9379L24.1525 67.7264L35.299 67.4233L35.8034 85.9725L24.6205 84.9379Z" fill="#C5238B"/>
<path d="M33.6509 69.1637L34.0558 84.0566L26.2735 83.3757L25.8929 69.3747L33.6509 69.1637ZM37.034 65.5912L22.3206 65.9913L22.8783 86.5024L37.6402 87.8859L37.034 65.5912Z" fill="#2C4591"/>
<path d="M57.212 85.658L56.7222 67.6439L68.741 66.6032L69.2503 85.3307L57.212 85.658Z" fill="#C5238B"/>
<path d="M67.0978 68.522L67.5076 83.5932L58.8579 83.8284L58.4602 69.2031L67.0978 68.522ZM70.4737 64.6819L54.8928 65.998L55.4747 87.4009L71.0799 86.9766L70.4737 64.6819Z" fill="#2C4591"/>
<path d="M87.0847 84.8458L86.6507 68.8829L99.5128 66.0343L100.015 84.4943L87.0847 84.8458Z" fill="#C5238B"/>
<path d="M97.8768 68.2206L98.2744 82.8459L88.733 83.1053L88.3838 70.2636L97.8768 68.2206ZM101.238 63.8454L84.8261 67.4153L85.3474 86.5887L101.844 86.1401L101.238 63.8454Z" fill="#2C4591"/>
<path d="M87.4435 98.0442L100.354 96.9792L100.793 113.121L87.8824 114.186L87.4435 98.0442Z" fill="#C5238B"/>
<path d="M98.7109 98.8981L99.0552 111.561L89.5259 112.267L89.1815 99.6034L98.7109 98.8981ZM102.087 95.058L85.6141 96.3983L86.1476 116.018L102.62 114.677L102.087 95.058Z" fill="#2C4591"/>
<path d="M56.2289 115.135L55.7657 98.1023L68.4282 97.758L69.9614 114.762L56.2289 115.135Z" fill="#C5238B"/>
<path d="M66.7801 99.4986L68.0404 113.029L57.8747 113.306L57.5061 99.7507L66.7801 99.4986ZM69.9849 95.9309L53.9338 96.3673L54.4915 116.878L71.8802 116.406L69.9849 95.9309Z" fill="#2C4591"/>
<path d="M37.1287 98.6091L24.1095 98.9631L24.5726 115.996L37.5918 115.642L37.1287 98.6091Z" fill="#C5238B"/>
<path d="M35.3912 100.352L35.7598 113.907L26.2183 114.167L25.8498 100.611L35.3912 100.352ZM38.7744 96.7795L22.2775 97.2281L22.8352 117.739L39.3321 117.291L38.7744 96.7795Z" fill="#2C4591"/>
<path d="M2.95178 42.8681L4.20723 56.2207L116.119 53.1777L117.984 39.7403L2.95178 42.8681Z" fill="white" stroke="#2C4591" stroke-width="4.21031" stroke-miterlimit="10"/>
<path d="M108.8 30.1731L12.1371 32.8014L12.4038 42.611L109.067 39.9827L108.8 30.1731Z" fill="white" stroke="#2C4591" stroke-width="4.21031" stroke-miterlimit="10"/>
<path d="M18.2902 32.6341L17.5943 7.03985L101.17 2.26851L102.565 30.6104L18.2902 32.6341Z" fill="#C5238B" stroke="#2C4591" stroke-width="4.21031" stroke-miterlimit="10"/>
<path d="M33.8743 21.5903C33.4285 21.6024 32.4476 21.6291 30.3074 21.6873L30.5348 26.7681C30.5348 26.7681 28.6598 26.7298 26.4329 26.8796C26.4329 26.8796 26.2534 20.2804 25.8951 10.384C25.8951 10.384 27.411 10.3427 29.9079 10.2749C29.9079 10.2749 29.9952 13.4853 30.2153 18.2985C30.6611 18.2864 31.8228 18.344 33.7822 18.2015C33.7119 15.6153 33.6318 12.6724 33.4529 9.37526C33.4529 9.37526 35.1472 9.3292 37.5549 9.26373C37.5549 9.26373 37.7731 17.2898 38.1411 27.5429C38.1411 27.5429 36.3553 27.5022 34.0392 27.6545C34.0368 27.5653 33.9762 25.3358 33.8743 21.5903Z" fill="white"/>
<path d="M41.8175 18.3399C41.5829 12.9916 43.7103 9.18551 48.3473 9.05943C53.0734 8.93092 55.2214 12.4423 55.3717 17.9714C55.5488 24.4814 53.0331 27.1379 48.842 27.2519C44.3809 27.2839 41.9776 24.2257 41.8175 18.3399ZM50.9107 18.0034C50.7992 13.9012 49.9505 12.2286 48.3454 12.2723C46.8295 12.3135 45.9863 14.1213 46.0954 18.1344C46.2118 22.4149 47.0604 24.0875 48.6655 24.0439C50.1814 24.0026 51.0344 22.5515 50.9107 18.0034Z" fill="white"/>
<path d="M57.9875 9.15436C57.9875 9.15436 63.6946 8.99919 69.31 8.75725C69.31 8.75725 69.2669 10.4541 69.4118 12.5028C69.4118 12.5028 67.8959 12.544 65.8449 12.5997C65.9225 15.4535 66.1402 20.1775 66.31 26.42C66.31 26.42 64.6157 26.4661 62.208 26.5315C62.208 26.5315 62.0601 21.0916 61.743 12.7113L58.1761 12.8083C58.0869 12.8107 58.0506 11.473 57.9875 9.15436Z" fill="white"/>
<path d="M72.8866 9.01697C72.8866 9.01697 76.3643 8.92241 82.7823 8.65866C82.7823 8.65866 82.8187 9.99634 82.8769 12.1366C82.8769 12.1366 80.5584 12.1997 76.9939 12.3858C76.9939 12.3858 77.0327 13.8127 77.103 16.3989C77.4597 16.3892 78.7973 16.3528 82.0051 16.1763C82.0051 16.1763 82.0342 17.2465 82.0924 19.3868C82.0924 19.3868 79.9522 19.445 77.1879 19.5201L77.3571 22.4606C77.3571 22.4606 79.5864 22.4 83.1533 22.303C83.1533 22.303 83.1848 23.4623 83.2454 25.6918C83.2454 25.6918 78.6952 25.7263 73.434 25.8693C73.5208 25.7777 73.3389 19.0893 72.8866 9.01697Z" fill="white"/>
<path d="M86.7927 8.46033C86.7927 8.46033 88.0436 8.51556 90.8947 8.34879C90.8947 8.34879 90.8952 11.6508 91.3548 21.9907C94.9242 21.9829 96.886 21.9296 96.886 21.9296C96.8574 24.1614 96.9805 25.4075 96.9805 25.4075C92.252 25.4468 87.5258 25.5754 87.5258 25.5754C87.5258 25.5754 87.1365 17.8217 86.7927 8.46033Z" fill="white"/>
</g>
<defs>
<clipPath id="clip0">
<rect width="119" height="129" fill="white" transform="translate(0 3.2345) rotate(-1.55753)"/>
</clipPath>
</defs>
</svg>
