<svg width="40" height="40" viewBox="0 0 40 40" fill="none" xmlns="http://www.w3.org/2000/svg">
<path fill-rule="evenodd" clip-rule="evenodd" d="M28.3064 0C31.6935 0 34.6774 1.12903 36.7742 3.30645C38.871 5.40322 40 8.30645 40 11.6935V28.3065C40 31.7742 38.871 34.7581 36.6936 36.8548C34.5968 38.871 31.6935 40 28.2258 40H11.7742C8.46774 40 5.56452 38.9516 3.3871 36.8548C1.12903 34.6774 0 31.6935 0 28.2258V11.6935C0 4.67742 4.67742 0 11.6935 0H28.3064ZM19.9998 9.59677C14.3547 9.59677 9.67725 14.1935 9.67725 19.9193C9.67725 25.6452 14.274 30.2419 19.9998 30.2419C25.7256 30.2419 30.3224 25.5645 30.3224 19.9193C30.3224 14.2742 25.645 9.59677 19.9998 9.59677ZM30 9C30 10.6569 31.3431 12 33 12C34.6569 12 36 10.6569 36 9C36 7.34315 34.6569 6 33 6C31.3431 6 30 7.34315 30 9Z" fill="#23408C"/>
</svg>
