<svg width="51" height="74" viewBox="0 0 51 74" fill="none" xmlns="http://www.w3.org/2000/svg">
<path d="M49.795 18.4177C49.5321 17.4298 48.9969 16.3785 48.6021 15.4569C43.8634 4.07914 33.5138 0 25.1565 0C13.9675 0 1.64537 7.49801 0 22.9556V26.1137C0 26.2455 0.0448932 27.4286 0.111164 28.0212C1.03325 35.3874 6.84727 43.2166 11.1905 50.5829C15.8622 58.4762 20.7114 66.2377 25.515 74C28.4758 68.9358 31.4273 63.8054 34.3218 58.8701C35.11 57.4235 36.0271 55.9769 36.8166 54.5944C37.3425 53.6748 38.3473 52.7539 38.8076 51.8984C43.4793 43.3477 51 34.73 51 26.2455V22.7583C51.0007 21.8387 49.8613 18.6157 49.795 18.4177ZM25.3603 34.2692C22.071 34.2692 18.4724 32.6253 16.6952 28.0867C16.4302 27.3638 16.4515 25.9165 16.4515 25.7847V23.7448C16.4515 17.9583 21.3677 15.3265 25.6439 15.3265C30.9093 15.3265 34.981 19.536 34.981 24.7982C34.981 30.0611 30.6249 34.2692 25.3603 34.2692Z" fill="#EB7EAF"/>
</svg>
