<svg width="38" height="53" viewBox="0 0 38 53" fill="none" xmlns="http://www.w3.org/2000/svg">
<path d="M28.4023 35.0015C26.4929 34.5828 24.2078 35.3181 23.3852 37.1054C22.9079 38.137 22.8368 39.5464 21.8009 40.006C21.0595 40.343 20.2064 39.9651 19.4954 39.5668C16.0018 37.6059 8.99411 23.5934 9.52222 19.6C9.62378 18.7931 9.84721 17.874 10.548 17.4756C11.5331 16.9139 12.7011 17.7003 13.8081 17.925C15.7276 18.3335 17.6674 16.9241 18.4798 15.1368C19.2923 13.3495 19.2009 11.2762 18.9267 9.32549C18.6017 7.04794 17.9923 4.70911 16.4893 2.98308C12.2034 -1.91927 5.87621 3.02393 3.34736 7.16028C1.7224 9.82593 0.828668 12.8797 0.402115 15.9539C-0.522083 22.5108 11.1878 45.9399 16.9767 49.1162C19.6884 50.6073 22.654 51.7001 25.7312 51.9759C30.5452 52.4049 38.2638 50.2499 36.913 43.8666C36.4357 41.6197 34.9326 39.7302 33.3076 38.1166C31.9061 36.7276 30.3116 35.4203 28.4023 35.0015Z" fill="#EB7EAF"/>
</svg>
