<svg width="35" height="34" viewBox="0 0 35 34" fill="none" xmlns="http://www.w3.org/2000/svg">
<path d="M33.5716 23.1054C33.2965 22.3352 32.9114 21.565 32.4713 20.8499C32.4163 20.7949 32.4163 20.7398 32.4163 20.6848C32.6364 19.6946 32.7464 18.7044 32.8014 17.6591C32.8564 16.3388 32.7464 14.9635 32.4713 13.6432C31.9212 11.1126 30.8209 8.80205 29.1156 6.82159C27.1351 4.51105 24.7145 2.86067 21.7988 1.92545C20.5886 1.54036 19.3783 1.32031 18.113 1.21028C17.2328 1.15527 16.3526 1.15527 15.4173 1.26529C14.7022 1.32031 14.042 1.43033 13.3819 1.59537C13.2719 1.59537 13.2168 1.59537 13.1068 1.54036C12.5567 1.26529 12.0616 0.935219 11.5114 0.660155C9.97109 5.90224e-07 8.32069 -0.165039 6.61529 0.165038C4.85488 0.495115 3.31453 1.37532 2.10425 2.75064C0.838956 4.18097 0.123779 5.83136 0.013753 7.70179C-0.0412599 8.69203 0.0687691 9.68226 0.343833 10.6175C0.618897 11.4977 1.05901 12.3229 1.55412 13.1481C1.60914 13.2031 1.60914 13.2581 1.60914 13.3131C1.33407 14.5234 1.22404 15.7337 1.22404 16.999C1.22404 17.7691 1.27905 18.5393 1.38907 19.3645C1.60913 20.7948 1.99422 22.2252 2.65438 23.5455C4.08471 26.6262 6.28522 29.0468 9.2009 30.6972C11.5114 32.0175 14.042 32.7326 16.7377 32.7876C18.058 32.7876 19.3783 32.6776 20.6986 32.4026C20.7536 32.4026 20.8636 32.4026 20.9186 32.4576C21.1937 32.6226 21.5238 32.7876 21.7988 32.9527C23.6693 33.9979 25.6497 34.273 27.7402 33.7229C29.5006 33.2828 30.931 32.4026 32.0862 31.0272C33.2415 29.6519 33.9017 28.0565 34.0117 26.2411C34.0667 25.1959 33.9017 24.1506 33.5716 23.1054ZM25.2096 25.0859C24.6045 26.0211 23.7793 26.6812 22.8441 27.2313C21.9089 27.7815 20.8636 28.1116 19.7634 28.2766C18.6081 28.4966 17.4528 28.5517 16.2425 28.4966C14.8122 28.4416 13.4369 28.2216 12.1166 27.6715C11.0163 27.2313 9.97108 26.6262 9.14589 25.746C8.59576 25.1409 8.10065 24.4807 7.93561 23.6555C7.82559 23.1604 7.82557 22.6103 7.99061 22.1152C8.26568 21.455 8.7608 21.1249 9.42095 20.9599C10.1911 20.7398 10.9063 20.9049 11.5114 21.455C11.7315 21.6751 11.9515 21.9501 12.1716 22.1702C12.5017 22.5553 12.7767 22.9954 13.1068 23.3254C13.822 24.0956 14.7022 24.5357 15.6924 24.7558C16.4626 24.9208 17.2328 24.9208 18.003 24.8108C18.9932 24.6457 19.9284 24.2607 20.5886 23.4905C20.9737 23.0504 21.1937 22.5002 21.2487 21.9501C21.2487 21.0699 20.8636 20.4648 20.1485 20.0247C19.7083 19.7496 19.2682 19.6396 18.7731 19.5296C16.9577 19.0894 15.1973 18.6493 13.4369 18.1542C12.5567 17.9342 11.7315 17.6591 10.9063 17.219C9.97108 16.6689 9.2009 16.0087 8.65077 15.0185C8.37571 14.5234 8.21067 13.9733 8.15566 13.4231C8.04564 12.708 8.04564 11.9928 8.15566 11.2776C8.3207 9.90231 8.92583 8.74704 9.97108 7.81182C10.8513 6.98663 11.8965 6.49151 13.0518 6.16144C14.2071 5.83136 15.4174 5.66632 16.6276 5.66632C18.7181 5.66632 20.6436 6.10642 22.514 7.09665C23.2292 7.48174 23.9443 7.97686 24.4945 8.582C24.8796 9.07712 25.2096 9.62725 25.3197 10.2324C25.3747 10.5625 25.3747 10.8925 25.2647 11.2776C25.0996 11.8278 24.7145 12.2128 24.1644 12.4329C23.6143 12.708 23.0091 12.708 22.404 12.5429C22.0189 12.4329 21.7438 12.2128 21.4688 11.9378C21.1937 11.6627 20.9186 11.3326 20.6436 11.0576C19.8184 10.1774 18.8281 9.62724 17.6179 9.46221C17.0677 9.40719 16.4626 9.35218 15.9125 9.4072C15.1423 9.46221 14.4821 9.62724 13.822 10.0673C13.1068 10.6175 12.7217 11.5527 12.9418 12.4329C13.0518 12.928 13.3819 13.2581 13.767 13.4781C14.2071 13.7532 14.6472 13.9182 15.1423 14.0833C16.0225 14.3033 16.9027 14.5234 17.8379 14.7434C18.9382 15.0185 20.0384 15.2386 21.0837 15.5136C22.0189 15.7337 22.8991 16.1188 23.7243 16.6689C25.0446 17.5491 25.8698 18.8144 26.1448 20.4098C26.4199 22.0601 26.0898 23.6005 25.2096 25.0859Z" fill="black"/>
</svg>
