<svg width="47" height="57" viewBox="0 0 47 57" fill="none" xmlns="http://www.w3.org/2000/svg">
<path d="M20.8695 7.01508C22.7827 5.91051 25.2291 6.56601 26.3336 8.47918L34.2387 22.1712L42.6027 36.6581C43.7073 38.5713 43.0518 41.0177 41.1386 42.1222L39.217 43.2317C34.7411 37.468 25.692 42.6925 28.4455 49.4506L26.5345 50.5539C24.6172 51.6609 22.1653 50.9999 21.0643 49.0791L12.9326 34.8938L4.80765 20.9216C3.69468 19.0077 4.34813 16.5537 6.26551 15.4467L8.17636 14.3435C12.6534 20.1012 21.6957 14.8807 18.9479 8.12454L20.8695 7.01508Z" fill="#EB7EAF"/>
<rect x="36.3109" y="25.7603" width="2.76397" height="24.8757" transform="rotate(60 36.3109 25.7603)" fill="#4C378F"/>
</svg>
