<svg width="44" height="48" viewBox="0 0 44 48" fill="none" xmlns="http://www.w3.org/2000/svg">
<circle cx="21.7418" cy="21.5961" r="6.4586" fill="#269DDF"/>
<path d="M2.12006 23.7768C2.41022 22.08 3.7927 20.7827 5.5045 20.601L9.08911 20.2204C17.8073 19.2948 26.599 19.2948 35.3172 20.2204L38.9018 20.601C40.6136 20.7827 41.9961 22.08 42.2863 23.7768C43.3448 29.9668 43.3448 36.2917 42.2863 42.4817C41.9961 44.1785 40.6136 45.4758 38.9018 45.6575L35.3172 46.0381C26.599 46.9637 17.8073 46.9637 9.08911 46.0381L5.5045 45.6575C3.7927 45.4758 2.41022 44.1785 2.12006 42.4817C1.06152 36.2917 1.06152 29.9668 2.12006 23.7768Z" fill="#EB7EAF"/>
<path d="M18.0512 39.1265V26.2094L29.1231 32.0089L18.0512 39.1265Z" fill="#4C378F"/>
<path d="M23.5871 17.9054L33.2968 4.04562" stroke="#269DDF" stroke-width="2"/>
<circle cx="34.0272" cy="2.58509" r="2.55589" fill="#269DDF"/>
<path d="M19.8965 17.9055L14.6754 3.68051" stroke="#269DDF" stroke-width="2"/>
<path d="M12.1196 3.68052C12.1196 5.0921 13.2639 6.23641 14.6755 6.23641C16.0871 6.23641 17.2314 5.0921 17.2314 3.68052C17.2314 2.26894 16.0871 1.12463 14.6755 1.12463C13.2639 1.12463 12.1196 2.26894 12.1196 3.68052Z" fill="#269DDF"/>
</svg>
