<?xml version="1.0" encoding="utf-8"?>
<!-- Generator: Adobe Illustrator 22.1.0, SVG Export Plug-In . SVG Version: 6.00 Build 0)  -->
<svg version="1.1" id="Layer_1" xmlns="http://www.w3.org/2000/svg" xmlns:xlink="http://www.w3.org/1999/xlink" x="0px" y="0px"
	 viewBox="0 0 36 36" style="enable-background:new 0 0 36 36;" xml:space="preserve">
<style type="text/css">
	.st0{fill:#000000;}
</style>
<path class="st0" d="M31.7,11.2c0,0.3,0,0.6,0,0.9c0,9.4-7.2,20.3-20.3,20.3c-4,0-7.8-1.2-10.9-3.2c0.6,0.1,1.1,0.1,1.7,0.1
	c3.3,0,6.4-1.1,8.9-3.1c-3.1-0.1-5.8-2.1-6.7-5c0.4,0.1,0.9,0.1,1.3,0.1c0.7,0,1.3-0.1,1.9-0.3c-3.3-0.7-5.7-3.5-5.7-7v-0.1
	c1,0.5,2.1,0.9,3.2,0.9c-1.9-1.3-3.2-3.5-3.2-5.9c0-1.3,0.4-2.5,1-3.6c3.5,4.3,8.8,7.2,14.7,7.4c-0.1-0.5-0.2-1.1-0.2-1.6
	c0-3.9,3.2-7.1,7.1-7.1c2.1,0,3.9,0.9,5.2,2.3c1.6-0.3,3.1-0.9,4.5-1.7c-0.5,1.7-1.7,3.1-3.1,3.9c1.4-0.2,2.8-0.6,4.1-1.1
	C34.3,9,33.1,10.2,31.7,11.2z"/>
</svg>
