<?xml version="1.0" encoding="utf-8"?>
<!-- Generator: Adobe Illustrator 22.1.0, SVG Export Plug-In . SVG Version: 6.00 Build 0)  -->
<svg version="1.1" id="Layer_1" xmlns="http://www.w3.org/2000/svg" xmlns:xlink="http://www.w3.org/1999/xlink" x="0px" y="0px"
	 viewBox="0 0 36 36" style="enable-background:new 0 0 36 36;" xml:space="preserve">
<style type="text/css">
	.st0{fill:#FFFFFF;}
</style>
<path class="st0" d="M33.8,8c-1.3-1.4-2.8-1.4-3.5-1.5C25.3,6.1,18,6.1,18,6.1l0,0c0,0-7.4,0-12.3,0.4C4.9,6.6,3.4,6.6,2.1,8
	C1,9.1,0.7,11.5,0.7,11.5s-0.4,2.8-0.4,5.7v2.7c0,2.8,0.4,5.7,0.4,5.7S1,28,2.1,29c1.3,1.4,3.1,1.4,3.9,1.5c2.8,0.3,12,0.4,12,0.4
	s7.4,0,12.3-0.4c0.7-0.1,2.2-0.1,3.5-1.5c1.1-1.1,1.4-3.5,1.4-3.5s0.4-2.8,0.4-5.7v-2.7c0-2.8-0.4-5.7-0.4-5.7S34.8,9.1,33.8,8z
	 M14.3,23.1v-9.9l9.5,5L14.3,23.1z"/>
</svg>
