<svg width="472" height="317" viewBox="0 0 472 317" fill="none" xmlns="http://www.w3.org/2000/svg">
<path d="M66.1541 14.76L76.0421 14.664C76.3301 47.976 76.2341 69.48 76.2341 69.48C84.8741 69.288 89.2901 69.384 89.2901 69.384C88.9061 40.392 88.9062 24.168 88.9062 14.664C94.7622 14.664 98.6982 14.76 98.6982 14.76C98.6021 6.696 98.8901 1.99201 98.8901 1.99201C76.1381 2.37601 66.0582 2.28 66.0582 2.28C66.2502 11.304 66.1541 14.76 66.1541 14.76Z" fill="white"/>
<path d="M122.368 70.824C130.336 70.536 135.52 70.92 135.52 70.92C135.136 31.56 135.232 0.648006 135.232 0.648006C126.688 0.840004 121.984 0.744005 121.984 0.744005C122.08 13.704 122.272 25.512 122.272 35.592C118.336 35.592 115.936 35.496 114.784 35.496C114.592 16.584 114.496 3.72001 114.496 3.72001C104.896 3.912 101.728 3.81601 101.728 3.81601C102.112 42.12 102.112 67.464 102.112 67.464C109.6 67.176 115.168 67.368 115.168 67.368L114.88 46.728C118.528 46.632 120.736 46.632 122.368 46.632C122.56 61.032 122.368 70.824 122.368 70.824Z" fill="white"/>
<path d="M138.051 67.56C146.979 67.56 151.011 67.752 151.011 67.752L151.875 57.384C156.099 57.384 159.267 57.48 161.475 57.48C162.339 66.312 162.723 70.536 162.723 70.536C171.075 70.248 176.451 70.44 176.451 70.44C170.595 35.112 165.987 1.60801 165.987 1.60801C165.987 1.60801 157.923 1.51201 147.459 1.99201C142.083 42.216 138.051 67.56 138.051 67.56ZM156.579 12.744C158.211 26.952 159.459 37.992 160.323 46.728C155.427 46.824 152.931 46.728 152.931 46.728C154.467 30.792 155.907 18.312 156.579 12.744Z" fill="white"/>
<path d="M179.36 67.464C186.56 67.464 191.744 67.656 191.744 67.656C190.88 52.2 190.496 38.472 190.4 29.832C198.176 54.984 202.976 70.632 202.976 70.632C211.232 70.056 215.168 69.48 215.168 69.48C214.208 26.664 213.824 0.840004 213.824 0.840004C206.432 0.936003 201.92 0.648006 201.92 0.648006C203.168 19.656 203.744 35.4 204.032 44.904C196.832 22.056 191.84 3.912 191.84 3.912C184.16 4.104 179.072 4.488 179.072 4.488C179.648 43.464 179.36 67.464 179.36 67.464Z" fill="white"/>
<path d="M243.179 71.4C243.179 71.4 249.707 70.92 257.291 70.632C257.291 70.632 252.683 56.616 246.347 34.728C248.363 28.392 252.107 16.584 257.195 1.03201C257.195 1.03201 252.203 1.03201 243.659 0.552002C243.659 0.552002 240.299 13.32 233.003 39.048C233.003 29.448 233.003 18.024 233.195 3.81601C233.195 3.81601 228.683 3.81601 219.947 3.72001C219.947 3.72001 220.139 30.6 219.947 67.848C219.947 67.848 223.883 67.656 233.291 67.752C233.291 67.752 233.195 64.584 233.099 58.44C233.771 56.328 235.115 52.584 237.227 47.112C238.571 52.2 240.587 60.072 243.179 71.4Z" fill="white"/>
<path d="M286.386 70.248C296.85 69.96 299.634 70.152 299.634 70.152C299.154 56.808 299.346 54.792 299.346 54.792C307.026 22.056 312.21 1.99201 312.21 1.99201C302.514 1.99201 298.77 1.704 298.77 1.704C295.698 21.384 293.01 36.456 293.01 36.456C289.554 17.544 287.538 3.624 287.538 3.624C275.922 4.104 273.426 4.104 273.426 4.104C283.314 41.256 286.29 54.984 286.29 54.984C286.674 67.08 286.386 70.248 286.386 70.248Z" fill="white"/>
<path d="M329.955 70.536C342.435 70.536 348.387 62.184 348.579 35.592C348.579 15.144 345.027 1.03201 329.955 1.03201C315.075 1.03201 311.427 16.392 311.427 35.688C311.523 58.728 316.131 70.536 329.955 70.536ZM330.147 60.36C326.787 60.36 325.635 55.368 325.635 35.016C325.635 17.736 326.595 11.496 329.955 11.496C333.027 11.496 334.371 16.776 334.371 35.112C334.371 56.04 333.027 60.36 330.147 60.36Z" fill="white"/>
<path d="M369.501 70.344C382.461 70.344 387.453 59.784 387.453 34.728C387.453 23.976 386.205 11.688 384.477 0.552002C376.317 1.51201 371.325 1.60801 371.325 1.60801C372.861 13.032 373.821 25.032 373.821 35.304C373.821 54.6 372.189 57.576 369.405 57.576C366.621 57.576 364.317 51.528 364.317 30.504C364.317 23.4 364.893 15.72 366.045 4.968C357.213 3.912 353.469 3.24 353.469 3.24C352.125 12.744 351.453 23.016 351.453 33.48C351.453 58.248 356.061 70.344 369.501 70.344Z" fill="white"/>
<path d="M1.19927 164.808C1.19927 164.808 6.57528 164.616 14.1593 164.712L13.7753 142.248C22.2233 142.056 26.4473 142.248 26.4473 142.248C26.3513 134.76 26.3513 129.576 26.3513 129.576C19.2473 129.864 14.9273 129.768 13.5833 129.768C13.4873 117.384 13.4873 111.048 13.4873 111.048C22.7993 110.76 27.6953 110.856 27.6953 110.856C27.6953 102.408 27.7913 97.992 27.7913 97.992C12.9113 98.28 0.431274 98.376 0.431274 98.376C1.10327 137.16 1.19927 164.808 1.19927 164.808Z" fill="white"/>
<path d="M48.3765 166.536C60.8565 166.536 66.8085 158.184 67.0005 131.592C67.0005 111.144 63.4485 97.032 48.3765 97.032C33.4965 97.032 29.8485 112.392 29.8485 131.688C29.9445 154.728 34.5525 166.536 48.3765 166.536ZM48.5685 156.36C45.2085 156.36 44.0565 151.368 44.0565 131.016C44.0565 113.736 45.0165 107.496 48.3765 107.496C51.4485 107.496 52.7925 112.776 52.7925 131.112C52.7925 152.04 51.4485 156.36 48.5685 156.36Z" fill="white"/>
<path d="M93.9713 166.824C102.515 166.248 107.507 165.768 107.507 165.768C101.747 148.968 98.5793 139.272 97.8113 136.68C102.899 133.32 105.971 127.848 105.971 119.304C105.971 105 98.8673 96.936 83.8913 96.936C80.1473 96.936 75.9233 97.416 71.1233 98.28C71.4113 138.792 71.0273 163.752 71.0273 163.752C78.7073 163.656 84.4673 163.656 84.4673 163.656C84.2753 152.904 84.0833 145.128 84.0833 141.096C84.9473 141 85.9073 140.904 86.7713 140.712C91.3793 156.936 93.9713 166.824 93.9713 166.824ZM84.0833 132.072C84.0833 132.072 83.8913 121.224 83.7953 108.264C83.7953 108.264 84.6593 108.168 85.0433 108.168C90.1313 108.168 92.3393 112.872 92.3393 120.264C92.3393 128.712 88.7873 131.784 84.0833 132.072Z" fill="white"/>
<path d="M142.28 166.44C152.552 166.44 159.752 161.64 159.752 148.296C159.752 139.176 156.68 133.896 147.848 127.944C140.552 123.048 138.44 119.784 138.44 115.08C138.44 110.28 139.592 107.4 142.184 107.4C145.064 107.4 146.792 111.144 145.64 121.032C152.264 121.224 158.696 121.8 158.696 121.8C160.424 105.576 155.048 96.936 142.376 96.936C132.008 96.936 124.808 102.024 124.808 114.408C124.808 123.048 127.784 129.192 136.424 135.336C144.392 141 146.024 144.168 146.024 148.584C146.024 154.152 144.776 155.976 142.376 155.976C139.016 155.976 137.672 151.464 138.536 141.384C130.376 141.288 125.096 141.096 125.096 141.096C123.56 157.896 128.648 166.44 142.28 166.44Z" fill="white"/>
<path d="M164.146 165.096C172.69 165 177.298 165.096 177.298 165.096C177.01 130.44 176.818 98.28 176.818 98.28C168.274 98.376 163.762 98.376 163.762 98.376C164.242 135.72 164.146 165.096 164.146 165.096Z" fill="white"/>
<path d="M200.533 166.536C212.341 166.536 219.445 159.816 218.197 130.44C209.941 130.632 199.189 130.536 199.189 130.536C199.381 137.256 199.285 141.384 199.285 141.384C199.285 141.384 201.685 141.192 205.045 141.096C205.333 152.232 204.181 156.36 201.109 156.36C197.461 156.36 195.925 151.368 195.829 131.592C195.829 114.792 196.981 107.88 200.437 107.88C203.317 107.88 204.565 112.488 204.373 123.912C207.349 124.008 217.525 124.104 217.525 124.104C218.293 108.168 213.205 97.032 200.629 97.032C187.573 97.032 182.005 108.552 182.005 131.4C182.005 158.568 188.821 166.536 200.533 166.536Z" fill="white"/>
<path d="M222.532 163.464C229.732 163.464 234.916 163.656 234.916 163.656C234.052 148.2 233.668 134.472 233.572 125.832C241.348 150.984 246.148 166.632 246.148 166.632C254.404 166.056 258.34 165.48 258.34 165.48C257.38 122.664 256.996 96.84 256.996 96.84C249.604 96.936 245.092 96.648 245.092 96.648C246.34 115.656 246.916 131.4 247.204 140.904C240.004 118.056 235.012 99.912 235.012 99.912C227.332 100.104 222.244 100.488 222.244 100.488C222.82 139.464 222.532 163.464 222.532 163.464Z" fill="white"/>
<path d="M264.271 163.56C272.815 163.464 277.423 163.56 277.423 163.56C277.135 128.904 276.943 100.296 276.943 100.296C268.399 100.392 263.887 100.392 263.887 100.392C264.367 137.736 264.271 163.56 264.271 163.56Z" fill="white"/>
<path d="M283.282 165.672C290.482 165.672 295.666 165.96 295.666 165.96C294.706 149.64 294.418 133.704 294.226 123.912C302.002 148.872 306.61 164.712 306.61 164.712C314.866 163.944 319.186 163.848 319.186 163.848C318.226 121.032 317.842 98.088 317.842 98.088C310.354 98.184 305.842 97.896 305.842 97.896C307.09 116.232 307.762 130.152 308.05 138.792C300.658 116.328 295.954 98.568 295.954 98.568C287.89 98.76 282.994 98.568 282.994 98.568C283.57 137.544 283.282 165.672 283.282 165.672Z" fill="white"/>
<path d="M341.627 166.344C354.779 166.344 360.347 157.8 359.291 133.224C351.035 133.416 340.283 133.32 340.283 133.32C340.475 140.04 340.475 143.592 340.475 143.592C343.643 143.4 346.043 143.304 346.043 143.304C346.427 153.768 344.795 156.168 342.203 156.168C338.555 156.168 337.019 151.56 336.923 132.552C336.923 115.752 338.555 109.992 341.531 109.992C344.411 109.992 345.659 114.408 345.467 124.872C350.939 124.488 358.715 124.488 358.715 124.488C359.387 109.704 354.395 99.144 341.723 99.144C328.187 99.144 323.099 110.952 323.099 132.36C323.099 158.376 329.723 166.344 341.627 166.344Z" fill="white"/>
<path d="M397.111 166.344C410.071 166.344 415.063 155.784 415.063 130.728C415.063 119.976 413.815 107.688 412.087 96.552C403.927 97.512 398.935 97.608 398.935 97.608C400.471 109.032 401.431 121.032 401.431 131.304C401.431 150.6 399.799 153.576 397.015 153.576C394.231 153.576 391.927 147.528 391.927 126.504C391.927 119.4 392.503 111.72 393.655 100.968C384.823 99.912 381.079 99.24 381.079 99.24C379.735 108.744 379.063 119.016 379.063 129.48C379.063 154.248 383.671 166.344 397.111 166.344Z" fill="white"/>
<path d="M418.746 164.52C426.618 164.232 432.186 164.424 432.186 164.424L431.802 148.872C444.858 148.392 452.73 139.464 452.73 123.816C452.73 107.016 445.242 98.28 426.714 98.28C424.314 98.28 421.626 98.472 418.842 98.76C419.13 139.272 418.746 164.52 418.746 164.52ZM431.514 109.896C436.794 109.608 439.386 114.6 439.386 124.2C439.386 134.76 436.41 137.928 431.61 138.408C431.418 124.104 431.514 118.632 431.514 109.896Z" fill="white"/>
<path d="M463.359 165.96C468.255 165.96 471.711 162.696 471.711 157.416C471.711 152.904 469.119 148.68 463.263 148.68C457.791 148.68 454.623 152.232 454.623 157.224C454.623 162.696 458.079 165.96 463.359 165.96ZM457.791 144.936C464.319 144.744 468.831 144.936 468.831 144.936C469.407 119.304 470.175 97.992 470.175 97.992C461.535 98.184 455.871 97.992 455.871 97.992C457.119 121.512 457.791 144.936 457.791 144.936Z" fill="white"/>
<path d="M67.4641 244.08C75.1681 244.08 80.5681 240.48 80.5681 230.472C80.5681 223.632 78.2641 219.672 71.6401 215.208C66.1681 211.536 64.5841 209.088 64.5841 205.56C64.5841 201.96 65.4481 199.8 67.3921 199.8C69.5521 199.8 70.8481 202.608 69.9841 210.024C74.9521 210.168 79.7761 210.6 79.7761 210.6C81.0721 198.432 77.0401 191.952 67.5361 191.952C59.7601 191.952 54.3601 195.768 54.3601 205.056C54.3601 211.536 56.5921 216.144 63.0721 220.752C69.0481 225 70.2721 227.376 70.2721 230.688C70.2721 234.864 69.3361 236.232 67.5361 236.232C65.0161 236.232 64.0081 232.848 64.6561 225.288C58.5361 225.216 54.5761 225.072 54.5761 225.072C53.4241 237.672 57.2401 244.08 67.4641 244.08Z" fill="white"/>
<path d="M98.4792 244.368C104.455 244.152 108.343 244.44 108.343 244.44C108.055 214.92 108.127 191.736 108.127 191.736C101.719 191.88 98.1912 191.808 98.1912 191.808C98.2632 201.528 98.4072 210.384 98.4072 217.944C95.4552 217.944 93.6552 217.872 92.7912 217.872C92.6472 203.688 92.5752 194.04 92.5752 194.04C85.3752 194.184 82.9992 194.112 82.9992 194.112C83.2872 222.84 83.2872 241.848 83.2872 241.848C88.9032 241.632 93.0792 241.776 93.0792 241.776L92.8632 226.296C95.5992 226.224 97.2552 226.224 98.4792 226.224C98.6232 237.024 98.4792 244.368 98.4792 244.368Z" fill="white"/>
<path d="M110.242 241.92C116.938 241.92 119.962 242.064 119.962 242.064L120.61 234.288C123.778 234.288 126.154 234.36 127.81 234.36C128.458 240.984 128.746 244.152 128.746 244.152C135.01 243.936 139.042 244.08 139.042 244.08C134.65 217.584 131.194 192.456 131.194 192.456C131.194 192.456 125.146 192.384 117.298 192.744C113.266 222.912 110.242 241.92 110.242 241.92ZM124.138 200.808C125.362 211.464 126.298 219.744 126.946 226.296C123.274 226.368 121.402 226.296 121.402 226.296C122.554 214.344 123.634 204.984 124.138 200.808Z" fill="white"/>
<path d="M158.287 244.368C164.695 243.936 168.439 243.576 168.439 243.576C164.119 230.976 161.743 223.704 161.167 221.76C164.983 219.24 167.287 215.136 167.287 208.728C167.287 198 161.959 191.952 150.727 191.952C147.919 191.952 144.751 192.312 141.151 192.96C141.367 223.344 141.079 242.064 141.079 242.064C146.839 241.992 151.159 241.992 151.159 241.992C151.015 233.928 150.871 228.096 150.871 225.072C151.519 225 152.239 224.928 152.887 224.784C156.343 236.952 158.287 244.368 158.287 244.368ZM150.871 218.304C150.871 218.304 150.727 210.168 150.655 200.448C150.655 200.448 151.303 200.376 151.591 200.376C155.407 200.376 157.063 203.904 157.063 209.448C157.063 215.784 154.399 218.088 150.871 218.304Z" fill="white"/>
<path d="M170.341 242.784C181.141 242.928 190.285 243.216 190.285 243.216C190.285 237.24 190.429 234.144 190.429 234.144C184.165 234 179.989 233.712 179.989 233.712C179.845 229.968 179.773 226.44 179.701 223.2C184.885 223.2 188.845 223.272 188.845 223.272C188.773 217.944 188.773 214.128 188.773 214.128C183.301 214.272 180.133 214.2 179.557 214.2C179.413 206.928 179.485 202.536 179.485 202.536C184.309 202.392 190.213 202.32 190.213 202.32C190.069 196.704 190.141 192.744 190.141 192.744C175.597 192.96 169.765 193.032 169.765 193.032C170.197 222.048 170.341 242.784 170.341 242.784Z" fill="white"/>
<path d="M203.623 202.32L211.039 202.248C211.255 227.232 211.183 243.36 211.183 243.36C217.663 243.216 220.975 243.288 220.975 243.288C220.687 221.544 220.687 209.376 220.687 202.248C225.079 202.248 228.031 202.32 228.031 202.32C227.959 196.272 228.175 192.744 228.175 192.744C211.111 193.032 203.551 192.96 203.551 192.96C203.695 199.728 203.623 202.32 203.623 202.32Z" fill="white"/>
<path d="M245.784 244.368C251.76 244.152 255.648 244.44 255.648 244.44C255.36 214.92 255.432 191.736 255.432 191.736C249.024 191.88 245.496 191.808 245.496 191.808C245.568 201.528 245.712 210.384 245.712 217.944C242.76 217.944 240.96 217.872 240.096 217.872C239.952 203.688 239.88 194.04 239.88 194.04C232.68 194.184 230.304 194.112 230.304 194.112C230.592 222.84 230.592 241.848 230.592 241.848C236.208 241.632 240.384 241.776 240.384 241.776L240.168 226.296C242.904 226.224 244.56 226.224 245.784 226.224C245.928 237.024 245.784 244.368 245.784 244.368Z" fill="white"/>
<path d="M259.778 242.136C270.578 242.28 279.578 242.424 279.578 242.424C279.578 236.448 279.722 233.352 279.722 233.352C273.458 233.424 269.426 233.352 269.426 233.352C269.282 229.968 269.21 226.8 269.138 223.92C274.25 223.848 278.066 223.92 278.066 223.92C277.994 218.592 278.066 214.992 278.066 214.992C272.954 215.136 268.994 215.136 268.994 215.136C268.922 207.576 268.922 203.256 268.922 203.256C274.322 202.968 279.506 202.896 279.506 202.896C279.29 197.28 279.362 193.32 279.362 193.32C265.034 193.752 259.202 193.752 259.202 193.752C259.634 222.768 259.778 242.136 259.778 242.136Z" fill="white"/>
<path d="M295.137 241.848C300.537 241.848 304.425 241.992 304.425 241.992C303.777 230.4 303.489 220.104 303.417 213.624C309.249 232.488 312.849 244.224 312.849 244.224C319.041 243.792 321.993 243.36 321.993 243.36C321.273 211.248 320.985 191.88 320.985 191.88C315.441 191.952 312.057 191.736 312.057 191.736C312.993 205.992 313.425 217.8 313.641 224.928C308.241 207.792 304.497 194.184 304.497 194.184C298.737 194.328 294.921 194.616 294.921 194.616C295.353 223.848 295.137 241.848 295.137 241.848Z" fill="white"/>
<path d="M326.153 242.784C336.953 242.928 346.097 243.216 346.097 243.216C346.097 237.24 346.241 234.144 346.241 234.144C339.977 234 335.801 233.712 335.801 233.712C335.657 229.968 335.585 226.44 335.513 223.2C340.697 223.2 344.657 223.272 344.657 223.272C344.585 217.944 344.585 214.128 344.585 214.128C339.113 214.272 335.945 214.2 335.369 214.2C335.225 206.928 335.297 202.536 335.297 202.536C340.121 202.392 346.025 202.32 346.025 202.32C345.881 196.704 345.953 192.744 345.953 192.744C331.409 192.96 325.577 193.032 325.577 193.032C326.009 222.048 326.153 242.784 326.153 242.784Z" fill="white"/>
<path d="M371.817 244.872C371.817 244.872 375.561 245.088 385.569 244.512C385.569 244.512 386.721 226.728 389.673 192.672C389.673 192.672 384.921 192.672 379.233 192.384C379.233 192.384 379.161 202.392 378.009 234.792C377.145 228.6 375.417 215.784 373.185 196.632C373.185 196.632 369.873 196.344 364.329 196.416C364.329 196.416 363.537 201.24 359.289 230.76C359.289 230.76 358.713 218.952 358.209 193.824L347.625 194.112C347.625 194.112 349.353 210.312 351.585 241.272C351.585 241.272 354.537 241.128 364.257 241.704C364.257 241.704 365.193 233.928 368.649 209.736C369.369 217.296 370.449 228.96 371.817 244.872Z" fill="white"/>
<path d="M403.769 244.08C411.473 244.08 416.873 240.48 416.873 230.472C416.873 223.632 414.569 219.672 407.945 215.208C402.473 211.536 400.889 209.088 400.889 205.56C400.889 201.96 401.753 199.8 403.697 199.8C405.857 199.8 407.153 202.608 406.289 210.024C411.257 210.168 416.081 210.6 416.081 210.6C417.377 198.432 413.345 191.952 403.841 191.952C396.065 191.952 390.665 195.768 390.665 205.056C390.665 211.536 392.897 216.144 399.377 220.752C405.353 225 406.577 227.376 406.577 230.688C406.577 234.864 405.641 236.232 403.841 236.232C401.321 236.232 400.313 232.848 400.961 225.288C394.841 225.216 390.881 225.072 390.881 225.072C389.729 237.672 393.545 244.08 403.769 244.08Z" fill="white"/>
<path d="M45.2156 316.872C45.2156 316.872 48.9596 317.088 58.9676 316.512C58.9676 316.512 60.1196 298.728 63.0716 264.672C63.0716 264.672 58.3196 264.672 52.6316 264.384C52.6316 264.384 52.5596 274.392 51.4076 306.792C50.5436 300.6 48.8156 287.784 46.5836 268.632C46.5836 268.632 43.2716 268.344 37.7276 268.416C37.7276 268.416 36.9356 273.24 32.6876 302.76C32.6876 302.76 32.1116 290.952 31.6076 265.824L21.0236 266.112C21.0236 266.112 22.7516 282.312 24.9836 313.272C24.9836 313.272 27.9356 313.128 37.6556 313.704C37.6556 313.704 38.5916 305.928 42.0476 281.736C42.7676 289.296 43.8476 300.96 45.2156 316.872Z" fill="white"/>
<path d="M66.2148 315.072C72.6228 315 76.0788 315.072 76.0788 315.072C75.8628 289.08 75.7188 264.96 75.7188 264.96C69.3108 265.032 65.9268 265.032 65.9268 265.032C66.2868 293.04 66.2148 315.072 66.2148 315.072Z" fill="white"/>
<path d="M78.8891 274.32L86.3051 274.248C86.5211 299.232 86.4491 315.36 86.4491 315.36C92.9291 315.216 96.2411 315.288 96.2411 315.288C95.9531 293.544 95.9531 281.376 95.9531 274.248C100.345 274.248 103.297 274.32 103.297 274.32C103.225 268.272 103.441 264.744 103.441 264.744C86.3771 265.032 78.8171 264.96 78.8171 264.96C78.9611 271.728 78.8891 274.32 78.8891 274.32Z" fill="white"/>
<path d="M121.05 316.368C127.026 316.152 130.914 316.44 130.914 316.44C130.626 286.92 130.698 263.736 130.698 263.736C124.29 263.88 120.762 263.808 120.762 263.808C120.834 273.528 120.978 282.384 120.978 289.944C118.026 289.944 116.226 289.872 115.362 289.872C115.218 275.688 115.146 266.04 115.146 266.04C107.946 266.184 105.57 266.112 105.57 266.112C105.858 294.84 105.858 313.848 105.858 313.848C111.474 313.632 115.65 313.776 115.65 313.776L115.434 298.296C118.17 298.224 119.826 298.224 121.05 298.224C121.194 309.024 121.05 316.368 121.05 316.368Z" fill="white"/>
<path d="M154.415 315.936C162.263 315.72 164.351 315.864 164.351 315.864C163.991 305.856 164.135 304.344 164.135 304.344C169.895 279.792 173.783 264.744 173.783 264.744C166.511 264.744 163.703 264.528 163.703 264.528C161.399 279.288 159.383 290.592 159.383 290.592C156.791 276.408 155.279 265.968 155.279 265.968C146.567 266.328 144.695 266.328 144.695 266.328C152.111 294.192 154.343 304.488 154.343 304.488C154.631 313.56 154.415 315.936 154.415 315.936Z" fill="white"/>
<path d="M187.091 316.152C196.451 316.152 200.915 309.888 201.059 289.944C201.059 274.608 198.395 264.024 187.091 264.024C175.931 264.024 173.195 275.544 173.195 290.016C173.267 307.296 176.723 316.152 187.091 316.152ZM187.235 308.52C184.715 308.52 183.851 304.776 183.851 289.512C183.851 276.552 184.571 271.872 187.091 271.872C189.395 271.872 190.403 275.832 190.403 289.584C190.403 305.28 189.395 308.52 187.235 308.52Z" fill="white"/>
<path d="M216.751 316.008C226.471 316.008 230.215 308.088 230.215 289.296C230.215 281.232 229.279 272.016 227.983 263.664C221.863 264.384 218.119 264.456 218.119 264.456C219.271 273.024 219.991 282.024 219.991 289.728C219.991 304.2 218.767 306.432 216.679 306.432C214.591 306.432 212.863 301.896 212.863 286.128C212.863 280.8 213.295 275.04 214.159 266.976C207.535 266.184 204.727 265.68 204.727 265.68C203.719 272.808 203.215 280.512 203.215 288.36C203.215 306.936 206.671 316.008 216.751 316.008Z" fill="white"/>
<path d="M250.186 316.368C256.594 315.936 260.337 315.576 260.337 315.576C256.017 302.976 253.642 295.704 253.066 293.76C256.882 291.24 259.185 287.136 259.185 280.728C259.185 270 253.858 263.952 242.626 263.952C239.818 263.952 236.649 264.312 233.049 264.96C233.265 295.344 232.977 314.064 232.977 314.064C238.737 313.992 243.057 313.992 243.057 313.992C242.913 305.928 242.77 300.096 242.77 297.072C243.418 297 244.138 296.928 244.786 296.784C248.242 308.952 250.186 316.368 250.186 316.368ZM242.77 290.304C242.77 290.304 242.625 282.168 242.553 272.448C242.553 272.448 243.202 272.376 243.49 272.376C247.306 272.376 248.962 275.904 248.962 281.448C248.962 287.784 246.298 290.088 242.77 290.304Z" fill="white"/>
<path d="M274.825 314.856C274.825 314.856 278.857 314.712 284.545 314.784L284.257 297.936C290.593 297.792 293.761 297.936 293.761 297.936C293.689 292.32 293.689 288.432 293.689 288.432C288.361 288.648 285.121 288.576 284.113 288.576C284.041 279.288 284.041 274.536 284.041 274.536C291.025 274.32 294.697 274.392 294.697 274.392C294.697 268.056 294.769 264.744 294.769 264.744C283.609 264.96 274.249 265.032 274.249 265.032C274.753 294.12 274.825 314.856 274.825 314.856Z" fill="white"/>
<path d="M315.024 316.512C320.496 315.648 324.96 315.216 324.96 315.216L317.4 293.616C321.576 290.952 323.592 286.848 323.592 281.16C323.592 271.224 318.912 265.32 305.448 265.32C303.072 265.32 300.408 265.536 297.456 265.968C297.672 296.28 297.384 315.072 297.384 315.072C303.144 314.928 307.464 315 307.464 315C307.32 306.504 307.176 299.88 307.176 296.712C307.896 296.712 309.192 296.496 309.192 296.496C312.72 308.448 315.024 316.512 315.024 316.512ZM307.176 290.232C307.176 290.232 307.032 283.248 306.96 273.528C311.784 273.168 313.368 276.408 313.368 281.592C313.368 287.496 310.992 290.016 307.176 290.232Z" fill="white"/>
<path d="M327.145 315.072C333.553 315 337.009 315.072 337.009 315.072C336.793 289.08 336.648 264.96 336.648 264.96C330.24 265.032 326.857 265.032 326.857 265.032C327.217 293.04 327.145 315.072 327.145 315.072Z" fill="white"/>
<path d="M341.763 314.784C352.563 314.928 361.707 315.216 361.707 315.216C361.707 309.24 361.851 306.144 361.851 306.144C355.587 306 351.411 305.712 351.411 305.712C351.267 301.968 351.195 298.44 351.123 295.2C356.307 295.2 360.267 295.272 360.267 295.272C360.195 289.944 360.195 286.128 360.195 286.128C354.723 286.272 351.555 286.2 350.979 286.2C350.835 278.928 350.907 274.536 350.907 274.536C355.731 274.392 361.635 274.32 361.635 274.32C361.491 268.704 361.563 264.744 361.563 264.744C347.019 264.96 341.187 265.032 341.187 265.032C341.619 294.048 341.763 314.784 341.763 314.784Z" fill="white"/>
<path d="M364.746 313.848C370.146 313.848 374.034 313.992 374.034 313.992C373.386 302.4 373.098 292.104 373.026 285.624C378.858 304.488 382.458 316.224 382.458 316.224C388.65 315.792 391.603 315.36 391.603 315.36C390.883 283.248 390.595 263.88 390.595 263.88C385.051 263.952 381.667 263.736 381.667 263.736C382.603 277.992 383.034 289.8 383.25 296.928C377.85 279.792 374.107 266.184 374.107 266.184C368.347 266.328 364.53 266.616 364.53 266.616C364.962 295.848 364.746 313.848 364.746 313.848Z" fill="white"/>
<path d="M405.267 307.944C405.267 307.944 404.907 290.16 404.835 272.808C409.227 272.16 411.099 276.984 411.099 290.448C411.099 306.504 408.939 308.232 405.267 307.944ZM395.187 315.288C397.923 315.72 400.515 315.936 402.819 315.936C415.275 315.936 421.611 309.456 421.611 291.096C421.611 272.808 416.499 264.384 402.603 264.384C400.371 264.384 397.923 264.6 395.187 265.104C395.187 265.104 395.331 289.656 395.187 315.288Z" fill="white"/>
<path d="M436.745 316.08C444.449 316.08 449.849 312.48 449.849 302.472C449.849 295.632 447.545 291.672 440.921 287.208C435.449 283.536 433.865 281.088 433.865 277.56C433.865 273.96 434.729 271.8 436.673 271.8C438.833 271.8 440.129 274.608 439.265 282.024C444.233 282.168 449.057 282.6 449.057 282.6C450.353 270.432 446.321 263.952 436.817 263.952C429.041 263.952 423.641 267.768 423.641 277.056C423.641 283.536 425.873 288.144 432.353 292.752C438.329 297 439.553 299.376 439.553 302.688C439.553 306.864 438.617 308.232 436.817 308.232C434.297 308.232 433.289 304.848 433.937 297.288C427.817 297.216 423.857 297.072 423.857 297.072C422.705 309.672 426.521 316.08 436.745 316.08Z" fill="white"/>
</svg>
