<svg width="629" height="115" viewBox="0 0 629 115" fill="none" xmlns="http://www.w3.org/2000/svg">
<path d="M0.0742519 11.0132L7.72221 10.9388C7.94496 36.7604 7.87071 53.4291 7.87071 53.4291C14.5534 53.2803 17.969 53.3547 17.969 53.3547C17.672 30.8817 17.672 18.3058 17.672 10.9388C22.2013 10.9388 25.2457 11.0132 25.2457 11.0132C25.1714 4.76248 25.3942 1.11621 25.3942 1.11621C7.79646 1.41387 0 1.33945 0 1.33945C0.148504 8.33434 0.0742519 11.0132 0.0742519 11.0132Z" fill="white"/>
<path d="M43.5534 54.4709C49.7163 54.2476 53.7259 54.5453 53.7259 54.5453C53.4289 24.0356 53.5032 0.0744172 53.5032 0.0744172C46.8948 0.223243 43.2564 0.14883 43.2564 0.14883C43.3307 10.1947 43.4792 19.3476 43.4792 27.161C40.4348 27.161 38.5785 27.0866 37.6875 27.0866C37.539 12.4271 37.4648 2.45566 37.4648 2.45566C30.0396 2.60448 27.5892 2.53007 27.5892 2.53007C27.8863 32.2212 27.8863 51.8664 27.8863 51.8664C33.6779 51.6431 37.9845 51.792 37.9845 51.792L37.7618 35.793C40.5833 35.7186 42.2911 35.7186 43.5534 35.7186C43.7019 46.8807 43.5534 54.4709 43.5534 54.4709Z" fill="white"/>
<path d="M55.6838 51.9408C62.5892 51.9408 65.7078 52.0896 65.7078 52.0896L66.376 44.0529C69.6431 44.0529 72.0934 44.1274 73.8012 44.1274C74.4695 50.9734 74.7665 54.2476 74.7665 54.2476C81.2264 54.0244 85.3845 54.1732 85.3845 54.1732C80.8552 26.789 77.2911 0.818554 77.2911 0.818554C77.2911 0.818554 71.0539 0.744141 62.9604 1.11621C58.8023 32.2956 55.6838 51.9408 55.6838 51.9408ZM70.0144 9.45055C71.2767 20.4638 72.2419 29.0214 72.9102 35.793C69.1234 35.8674 67.1928 35.793 67.1928 35.793C68.3808 23.4403 69.4946 13.7665 70.0144 9.45055Z" fill="white"/>
<path d="M87.6341 51.8664C93.203 51.8664 97.2126 52.0152 97.2126 52.0152C96.5444 40.0346 96.2474 29.3934 96.1731 22.6962C102.188 42.1926 105.9 54.322 105.9 54.322C112.286 53.8756 115.33 53.4291 115.33 53.4291C114.588 20.2405 114.291 0.223243 114.291 0.223243C108.573 0.297656 105.083 0.0744172 105.083 0.0744172C106.049 14.8083 106.494 27.0122 106.717 34.3792C101.148 16.6687 97.2869 2.60448 97.2869 2.60448C91.3467 2.75331 87.4114 3.05096 87.4114 3.05096C87.8569 33.263 87.6341 51.8664 87.6341 51.8664Z" fill="white"/>
<path d="M136.995 54.9174C136.995 54.9174 142.045 54.5453 147.91 54.322C147.91 54.322 144.346 43.4576 139.446 26.4913C141.005 21.58 143.901 12.4271 147.836 0.372073C147.836 0.372073 143.975 0.372073 137.367 0C137.367 0 134.768 9.89703 129.125 29.8399C129.125 22.3985 129.125 13.5433 129.273 2.53007C129.273 2.53007 125.783 2.53007 119.026 2.45566C119.026 2.45566 119.175 23.2915 119.026 52.164C119.026 52.164 122.071 52.0152 129.348 52.0896C129.348 52.0896 129.273 49.634 129.199 44.8715C129.719 43.2344 130.758 40.3323 132.392 36.0907C133.431 40.0346 134.991 46.1365 136.995 54.9174Z" fill="white"/>
<path d="M170.415 54.0244C178.508 53.8011 180.661 53.95 180.661 53.95C180.29 43.6065 180.439 42.0438 180.439 42.0438C186.379 16.6687 190.388 1.11621 190.388 1.11621C182.889 1.11621 179.993 0.892967 179.993 0.892967C177.617 16.1478 175.538 27.8307 175.538 27.8307C172.865 13.1712 171.306 2.38124 171.306 2.38124C162.321 2.75331 160.391 2.75331 160.391 2.75331C168.039 31.5514 170.34 42.1926 170.34 42.1926C170.637 51.5687 170.415 54.0244 170.415 54.0244Z" fill="white"/>
<path d="M204.113 54.2476C213.766 54.2476 218.369 47.7736 218.518 27.161C218.518 11.3109 215.77 0.372073 204.113 0.372073C192.604 0.372073 189.782 12.2783 189.782 27.2354C189.856 45.0947 193.421 54.2476 204.113 54.2476ZM204.261 46.3598C201.663 46.3598 200.771 42.4903 200.771 26.7145C200.771 13.3201 201.514 8.48317 204.113 8.48317C206.489 8.48317 207.528 12.5759 207.528 26.789C207.528 43.0112 206.489 46.3598 204.261 46.3598Z" fill="white"/>
<path d="M234.701 54.0988C244.725 54.0988 248.586 45.9133 248.586 26.4913C248.586 18.157 247.62 8.632 246.284 0C239.972 0.744141 236.111 0.818554 236.111 0.818554C237.299 9.67379 238.042 18.9755 238.042 26.9378C238.042 41.8949 236.78 44.2018 234.626 44.2018C232.473 44.2018 230.691 39.5137 230.691 23.2171C230.691 17.7105 231.136 11.7574 232.028 3.42303C225.196 2.60448 222.3 2.08358 222.3 2.08358C221.261 9.45055 220.741 17.4128 220.741 25.5239C220.741 44.7227 224.305 54.0988 234.701 54.0988Z" fill="white"/>
<path d="M264.934 52.9082C264.934 52.9082 269.092 52.7593 274.958 52.8338L274.661 35.4209C281.195 35.2721 284.462 35.4209 284.462 35.4209C284.388 29.6167 284.388 25.5983 284.388 25.5983C278.893 25.8216 275.552 25.7472 274.512 25.7472C274.438 16.1478 274.438 11.2365 274.438 11.2365C281.641 11.0132 285.427 11.0877 285.427 11.0877C285.427 4.53924 285.502 1.11621 285.502 1.11621C273.993 1.33945 264.34 1.41387 264.34 1.41387C264.86 31.477 264.934 52.9082 264.934 52.9082Z" fill="white"/>
<path d="M301.572 0.892967C291.103 0.892967 287.167 8.632 287.093 27.161C287.093 45.6156 290.88 53.3547 301.572 53.3547C310.779 53.3547 315.977 46.583 315.977 27.0866C315.903 9.07848 312.042 0.892967 301.572 0.892967ZM301.424 9.00407C303.874 9.00407 304.988 12.3527 304.988 27.9052C304.988 43.16 303.725 45.4668 301.572 45.4668C299.419 45.4668 298.082 42.9367 298.082 27.8307C298.082 12.4271 299.047 9.00407 301.424 9.00407Z" fill="white"/>
<path d="M336.834 54.4709C343.443 54.0244 347.304 53.6523 347.304 53.6523C342.849 40.6299 340.398 33.1141 339.804 31.105C343.74 28.5005 346.116 24.2589 346.116 17.6361C346.116 6.54841 340.621 0.297656 329.038 0.297656C326.142 0.297656 322.875 0.669724 319.162 1.33945C319.385 32.7421 319.088 52.0896 319.088 52.0896C325.028 52.0152 329.483 52.0152 329.483 52.0152C329.335 43.6809 329.186 37.6534 329.186 34.528C329.854 34.4536 330.597 34.3792 331.265 34.2303C334.829 46.8063 336.834 54.4709 336.834 54.4709ZM329.186 27.5331C329.186 27.5331 329.038 19.1243 328.963 9.07848C328.963 9.07848 329.632 9.00407 329.929 9.00407C333.864 9.00407 335.572 12.6503 335.572 18.3802C335.572 24.9286 332.825 27.3098 329.186 27.5331Z" fill="white"/>
<path d="M374.199 54.1732C382.144 54.1732 387.713 50.4525 387.713 40.109C387.713 33.0397 385.337 28.947 378.506 24.3333C372.863 20.5382 371.229 18.0081 371.229 14.3619C371.229 10.6412 372.12 8.40876 374.125 8.40876C376.352 8.40876 377.689 11.3109 376.798 18.9755C381.921 19.1243 386.896 19.5708 386.896 19.5708C388.233 6.9949 384.075 0.297656 374.273 0.297656C366.254 0.297656 360.685 4.24159 360.685 13.841C360.685 20.5382 362.987 25.3007 369.67 30.0632C375.833 34.4536 377.095 36.9092 377.095 40.3323C377.095 44.6483 376.13 46.0621 374.273 46.0621C371.675 46.0621 370.635 42.5647 371.303 34.7512C364.992 34.6768 360.908 34.528 360.908 34.528C359.72 47.5504 363.655 54.1732 374.199 54.1732Z" fill="white"/>
<path d="M391.111 53.1314C397.72 53.057 401.284 53.1314 401.284 53.1314C401.061 26.2681 400.912 1.33945 400.912 1.33945C394.304 1.41387 390.814 1.41387 390.814 1.41387C391.185 30.3608 391.111 53.1314 391.111 53.1314Z" fill="white"/>
<path d="M419.255 54.2476C428.388 54.2476 433.883 49.0387 432.917 26.2681C426.532 26.4169 418.215 26.3425 418.215 26.3425C418.364 31.5514 418.29 34.7512 418.29 34.7512C418.29 34.7512 420.146 34.6024 422.745 34.528C422.968 43.16 422.077 46.3598 419.701 46.3598C416.879 46.3598 415.691 42.4903 415.617 27.161C415.617 14.1386 416.508 8.78082 419.181 8.78082C421.408 8.78082 422.374 12.3527 422.225 21.2079C424.527 21.2823 432.398 21.3567 432.398 21.3567C432.992 9.00407 429.056 0.372073 419.329 0.372073C409.231 0.372073 404.924 9.30172 404.924 27.0122C404.924 48.0713 410.196 54.2476 419.255 54.2476Z" fill="white"/>
<path d="M436.27 51.8664C441.839 51.8664 445.849 52.0152 445.849 52.0152C445.181 40.0346 444.884 29.3934 444.809 22.6962C450.824 42.1926 454.536 54.322 454.536 54.322C460.922 53.8756 463.966 53.4291 463.966 53.4291C463.224 20.2405 462.927 0.223243 462.927 0.223243C457.209 0.297656 453.72 0.0744172 453.72 0.0744172C454.685 14.8083 455.13 27.0122 455.353 34.3792C449.784 16.6687 445.923 2.60448 445.923 2.60448C439.983 2.75331 436.048 3.05096 436.048 3.05096C436.493 33.263 436.27 51.8664 436.27 51.8664Z" fill="white"/>
<path d="M468.554 51.9408C475.162 51.8664 478.726 51.9408 478.726 51.9408C478.503 25.0774 478.355 2.90214 478.355 2.90214C471.747 2.97655 468.257 2.97655 468.257 2.97655C468.628 31.9235 468.554 51.9408 468.554 51.9408Z" fill="white"/>
<path d="M483.258 53.5779C488.827 53.5779 492.836 53.8011 492.836 53.8011C492.094 41.1508 491.871 28.7981 491.723 21.2079C497.737 40.5555 501.301 52.8338 501.301 52.8338C507.687 52.2385 511.028 52.164 511.028 52.164C510.286 18.9755 509.989 1.19062 509.989 1.19062C504.197 1.26504 500.707 1.04179 500.707 1.04179C501.672 15.2548 502.192 26.0448 502.415 32.7421C496.697 15.3292 493.059 1.56269 493.059 1.56269C486.822 1.71152 483.035 1.56269 483.035 1.56269C483.481 31.7747 483.258 53.5779 483.258 53.5779Z" fill="white"/>
<path d="M528.385 54.0988C538.558 54.0988 542.864 47.476 542.047 28.4261C535.662 28.5749 527.346 28.5005 527.346 28.5005C527.494 33.7094 527.494 36.4627 527.494 36.4627C529.944 36.3139 531.801 36.2395 531.801 36.2395C532.098 44.3506 530.835 46.2109 528.831 46.2109C526.009 46.2109 524.821 42.6391 524.747 27.9052C524.747 14.8828 526.009 10.4179 528.311 10.4179C530.538 10.4179 531.504 13.841 531.355 21.9521C535.588 21.6544 541.602 21.6544 541.602 21.6544C542.122 10.1947 538.261 2.00917 528.459 2.00917C517.99 2.00917 514.055 11.1621 514.055 27.7563C514.055 47.9225 519.178 54.0988 528.385 54.0988Z" fill="white"/>
<path d="M571.3 54.0988C581.324 54.0988 585.185 45.9133 585.185 26.4913C585.185 18.157 584.22 8.632 582.883 0C576.572 0.744141 572.711 0.818554 572.711 0.818554C573.899 9.67379 574.641 18.9755 574.641 26.9378C574.641 41.8949 573.379 44.2018 571.226 44.2018C569.072 44.2018 567.29 39.5137 567.29 23.2171C567.29 17.7105 567.736 11.7574 568.627 3.42303C561.796 2.60448 558.9 2.08358 558.9 2.08358C557.86 9.45055 557.34 17.4128 557.34 25.5239C557.34 44.7227 560.905 54.0988 571.3 54.0988Z" fill="white"/>
<path d="M588.034 52.6849C594.122 52.4617 598.429 52.6105 598.429 52.6105L598.132 40.5555C608.23 40.1834 614.319 33.263 614.319 21.1335C614.319 8.1111 608.527 1.33945 594.197 1.33945C592.34 1.33945 590.261 1.48828 588.108 1.71152C588.331 33.1141 588.034 52.6849 588.034 52.6849ZM597.909 10.3435C601.993 10.1203 603.998 13.9898 603.998 21.4312C603.998 29.6167 601.696 32.0723 597.984 32.4444C597.835 21.3567 597.909 17.1152 597.909 10.3435Z" fill="white"/>
<path d="M622.54 53.8011C626.327 53.8011 629 51.2711 629 47.1783C629 43.6809 626.995 40.4067 622.466 40.4067C618.233 40.4067 615.783 43.16 615.783 47.0295C615.783 51.2711 618.456 53.8011 622.54 53.8011ZM618.233 37.5045C623.283 37.3557 626.772 37.5045 626.772 37.5045C627.218 17.6361 627.812 1.11621 627.812 1.11621C621.129 1.26504 616.748 1.11621 616.748 1.11621C617.714 19.3476 618.233 37.5045 618.233 37.5045Z" fill="white"/>
<path d="M13.4416 114.355C19.4004 114.355 23.577 111.565 23.577 103.807C23.577 98.5052 21.795 95.4356 16.6716 91.9754C12.4392 89.1291 11.2141 87.2315 11.2141 84.4968C11.2141 81.7063 11.8823 80.032 13.3859 80.032C15.0566 80.032 16.059 82.2086 15.3908 87.957C19.2333 88.0687 22.9645 88.4035 22.9645 88.4035C23.9669 78.9716 20.8483 73.9487 13.4973 73.9487C7.48292 73.9487 3.30624 76.9066 3.30624 84.1061C3.30624 89.1291 5.0326 92.7009 10.0446 96.2728C14.6668 99.5656 15.6135 101.407 15.6135 103.975C15.6135 107.212 14.8896 108.272 13.4973 108.272C11.5482 108.272 10.7686 105.649 11.2698 99.7888C6.5362 99.733 3.47331 99.6214 3.47331 99.6214C2.58229 109.388 5.5338 114.355 13.4416 114.355Z" fill="white"/>
<path d="M37.4305 114.579C42.0527 114.411 45.0599 114.634 45.0599 114.634C44.8372 91.7522 44.8929 73.7812 44.8929 73.7812C39.9365 73.8929 37.2078 73.837 37.2078 73.837C37.2635 81.3714 37.3748 88.2361 37.3748 94.0962C35.0916 94.0962 33.6994 94.0404 33.0311 94.0404C32.9197 83.0457 32.864 75.5672 32.864 75.5672C27.2951 75.6788 25.4574 75.623 25.4574 75.623C25.6802 97.8913 25.6802 112.625 25.6802 112.625C30.0239 112.458 33.2539 112.569 33.2539 112.569L33.0868 100.57C35.203 100.514 36.4838 100.514 37.4305 100.514C37.5419 108.886 37.4305 114.579 37.4305 114.579Z" fill="white"/>
<path d="M46.5283 112.681C51.7074 112.681 54.0463 112.793 54.0463 112.793L54.5475 106.765C56.9978 106.765 58.8355 106.821 60.1164 106.821C60.6176 111.955 60.8403 114.411 60.8403 114.411C65.6853 114.244 68.8039 114.355 68.8039 114.355C65.4068 93.8171 62.7338 74.3393 62.7338 74.3393C62.7338 74.3393 58.0559 74.2835 51.9858 74.5626C48.8672 97.9471 46.5283 112.681 46.5283 112.681ZM57.2762 80.8133C58.223 89.0733 58.9469 95.4915 59.4481 100.57C56.608 100.626 55.1601 100.57 55.1601 100.57C56.0511 91.3057 56.8864 84.0503 57.2762 80.8133Z" fill="white"/>
<path d="M83.6894 114.579C88.6457 114.244 91.5415 113.965 91.5415 113.965C88.2002 104.198 86.3624 98.561 85.9169 97.0541C88.8684 95.1008 90.6505 91.9196 90.6505 86.9525C90.6505 78.6367 86.5295 73.9487 77.842 73.9487C75.6701 73.9487 73.2198 74.2277 70.4354 74.73C70.6024 98.282 70.3797 112.793 70.3797 112.793C74.8348 112.737 78.1761 112.737 78.1761 112.737C78.0648 106.486 77.9534 101.965 77.9534 99.6214C78.4546 99.5656 79.0115 99.5098 79.5127 99.3982C82.1858 108.83 83.6894 114.579 83.6894 114.579ZM77.9534 94.3752C77.9534 94.3752 77.842 88.0687 77.7863 80.5343C77.7863 80.5343 78.2875 80.4785 78.5103 80.4785C81.4618 80.4785 82.7426 83.2132 82.7426 87.5106C82.7426 92.4219 80.6822 94.2078 77.9534 94.3752Z" fill="white"/>
<path d="M93.0125 113.351C101.366 113.462 108.438 113.686 108.438 113.686C108.438 109.053 108.55 106.654 108.55 106.654C103.705 106.542 100.475 106.319 100.475 106.319C100.363 103.417 100.308 100.682 100.252 98.1703C104.262 98.1703 107.325 98.2262 107.325 98.2262C107.269 94.0962 107.269 91.1382 107.269 91.1382C103.036 91.2499 100.586 91.1941 100.141 91.1941C100.029 85.5572 100.085 82.1528 100.085 82.1528C103.816 82.0412 108.383 81.9854 108.383 81.9854C108.271 77.6321 108.327 74.5626 108.327 74.5626C97.0778 74.73 92.567 74.7858 92.567 74.7858C92.9011 97.2774 93.0125 113.351 93.0125 113.351Z" fill="white"/>
<path d="M118.755 81.9854L124.491 81.9295C124.658 101.296 124.602 113.797 124.602 113.797C129.614 113.686 132.176 113.741 132.176 113.741C131.953 96.8867 131.953 87.4548 131.953 81.9295C135.35 81.9295 137.634 81.9854 137.634 81.9854C137.578 77.2973 137.745 74.5626 137.745 74.5626C124.547 74.7858 118.699 74.73 118.699 74.73C118.811 79.9762 118.755 81.9854 118.755 81.9854Z" fill="white"/>
<path d="M151.365 114.579C155.987 114.411 158.994 114.634 158.994 114.634C158.771 91.7522 158.827 73.7812 158.827 73.7812C153.871 73.8929 151.142 73.837 151.142 73.837C151.197 81.3714 151.309 88.2361 151.309 94.0962C149.026 94.0962 147.633 94.0404 146.965 94.0404C146.854 83.0457 146.798 75.5672 146.798 75.5672C141.229 75.6788 139.391 75.623 139.391 75.623C139.614 97.8913 139.614 112.625 139.614 112.625C143.958 112.458 147.188 112.569 147.188 112.569L147.021 100.57C149.137 100.514 150.418 100.514 151.365 100.514C151.476 108.886 151.365 114.579 151.365 114.579Z" fill="white"/>
<path d="M162.189 112.848C170.542 112.96 177.503 113.072 177.503 113.072C177.503 108.439 177.614 106.04 177.614 106.04C172.77 106.095 169.651 106.04 169.651 106.04C169.54 103.417 169.484 100.961 169.428 98.7284C173.382 98.6726 176.334 98.7284 176.334 98.7284C176.278 94.5985 176.334 91.808 176.334 91.808C172.38 91.9196 169.317 91.9196 169.317 91.9196C169.261 86.0595 169.261 82.7109 169.261 82.7109C173.438 82.4876 177.447 82.4318 177.447 82.4318C177.28 78.0786 177.336 75.0091 177.336 75.0091C166.254 75.3439 161.743 75.3439 161.743 75.3439C162.077 97.8355 162.189 112.848 162.189 112.848Z" fill="white"/>
<path d="M189.537 112.625C193.714 112.625 196.721 112.737 196.721 112.737C196.22 103.751 195.997 95.7705 195.941 90.7476C200.452 105.37 203.237 114.467 203.237 114.467C208.026 114.132 210.309 113.797 210.309 113.797C209.752 88.9058 209.529 73.8929 209.529 73.8929C205.241 73.9487 202.624 73.7812 202.624 73.7812C203.348 84.8317 203.682 93.9846 203.849 99.5098C199.673 86.2269 196.777 75.6788 196.777 75.6788C192.322 75.7904 189.37 76.0136 189.37 76.0136C189.704 98.6726 189.537 112.625 189.537 112.625Z" fill="white"/>
<path d="M213.527 113.351C221.88 113.462 228.953 113.686 228.953 113.686C228.953 109.053 229.064 106.654 229.064 106.654C224.219 106.542 220.989 106.319 220.989 106.319C220.878 103.417 220.822 100.682 220.766 98.1703C224.776 98.1703 227.839 98.2262 227.839 98.2262C227.783 94.0962 227.783 91.1382 227.783 91.1382C223.551 91.2499 221.101 91.1941 220.655 91.1941C220.544 85.5572 220.599 82.1528 220.599 82.1528C224.331 82.0412 228.897 81.9854 228.897 81.9854C228.786 77.6321 228.841 74.5626 228.841 74.5626C217.592 74.73 213.081 74.7858 213.081 74.7858C213.415 97.2774 213.527 113.351 213.527 113.351Z" fill="white"/>
<path d="M248.846 114.969C248.846 114.969 251.742 115.137 259.482 114.69C259.482 114.69 260.374 100.905 262.657 74.5068C262.657 74.5068 258.981 74.5068 254.582 74.2835C254.582 74.2835 254.526 82.0411 253.635 107.156C252.967 102.356 251.63 92.4219 249.904 77.5763C249.904 77.5763 247.342 77.3531 243.054 77.4089C243.054 77.4089 242.442 81.1482 239.156 104.03C239.156 104.03 238.71 94.8775 238.321 75.3997L230.134 75.623C230.134 75.623 231.471 88.1803 233.197 112.179C233.197 112.179 235.481 112.067 242.999 112.514C242.999 112.514 243.723 106.486 246.396 87.7338C246.952 93.5939 247.788 102.635 248.846 114.969Z" fill="white"/>
<path d="M273.559 114.355C279.518 114.355 283.695 111.565 283.695 103.807C283.695 98.5052 281.913 95.4356 276.789 91.9754C272.557 89.1291 271.332 87.2315 271.332 84.4968C271.332 81.7063 272 80.032 273.503 80.032C275.174 80.032 276.177 82.2086 275.508 87.957C279.351 88.0687 283.082 88.4035 283.082 88.4035C284.084 78.9716 280.966 73.9487 273.615 73.9487C267.6 73.9487 263.424 76.9066 263.424 84.1061C263.424 89.1291 265.15 92.7009 270.162 96.2728C274.784 99.5656 275.731 101.407 275.731 103.975C275.731 107.212 275.007 108.272 273.615 108.272C271.666 108.272 270.886 105.649 271.387 99.7888C266.654 99.733 263.591 99.6214 263.591 99.6214C262.7 109.388 265.651 114.355 273.559 114.355Z" fill="white"/>
<path d="M313.464 113.128C313.464 113.128 316.36 113.295 324.101 112.848C324.101 112.848 324.992 101.24 327.331 74.8974C327.331 74.8974 323.655 74.8974 319.2 74.6742C319.2 74.6742 319.089 82.3202 318.253 105.761C317.585 101.686 316.193 93.2032 314.3 78.6925C314.3 78.6925 311.682 78.4693 307.394 78.5809C307.394 78.5809 306.893 82.9341 303.385 105.593C303.385 105.593 302.883 92.2544 302.493 74.9532C302.493 74.9532 298.595 75.0649 294.307 75.1207C294.307 75.1207 295.644 89.6314 297.37 113.63C297.37 113.63 299.653 113.518 307.171 113.965C307.171 113.965 307.951 107.491 310.847 88.1245C311.459 93.3148 312.35 101.463 313.464 113.128Z" fill="white"/>
<path d="M329.75 113.574C334.707 113.518 337.38 113.574 337.38 113.574C337.213 93.4265 337.101 74.73 337.101 74.73C332.145 74.7858 329.527 74.7858 329.527 74.7858C329.806 96.496 329.75 113.574 329.75 113.574Z" fill="white"/>
<path d="M339.553 81.9854L345.289 81.9295C345.456 101.296 345.401 113.797 345.401 113.797C350.413 113.686 352.974 113.741 352.974 113.741C352.751 96.8867 352.751 87.4548 352.751 81.9295C356.149 81.9295 358.432 81.9854 358.432 81.9854C358.376 77.2973 358.543 74.5626 358.543 74.5626C345.345 74.7858 339.497 74.73 339.497 74.73C339.609 79.9762 339.553 81.9854 339.553 81.9854Z" fill="white"/>
<path d="M372.163 114.579C376.785 114.411 379.792 114.634 379.792 114.634C379.569 91.7522 379.625 73.7812 379.625 73.7812C374.669 73.8929 371.94 73.837 371.94 73.837C371.996 81.3714 372.107 88.2361 372.107 94.0962C369.824 94.0962 368.431 94.0404 367.763 94.0404C367.652 83.0457 367.596 75.5672 367.596 75.5672C362.027 75.6788 360.189 75.623 360.189 75.623C360.412 97.8913 360.412 112.625 360.412 112.625C364.756 112.458 367.986 112.569 367.986 112.569L367.819 100.57C369.935 100.514 371.216 100.514 372.163 100.514C372.274 108.886 372.163 114.579 372.163 114.579Z" fill="white"/>
<path d="M397.969 114.244C404.039 114.076 405.654 114.188 405.654 114.188C405.376 106.43 405.487 105.258 405.487 105.258C409.942 86.2269 412.95 74.5626 412.95 74.5626C407.325 74.5626 405.153 74.3951 405.153 74.3951C403.371 85.8363 401.812 94.5985 401.812 94.5985C399.807 83.6038 398.638 75.5114 398.638 75.5114C391.899 75.7904 390.451 75.7904 390.451 75.7904C396.187 97.389 397.914 105.37 397.914 105.37C398.136 112.402 397.969 114.244 397.969 114.244Z" fill="white"/>
<path d="M423.243 114.411C430.482 114.411 433.935 109.556 434.047 94.0962C434.047 82.2086 431.986 74.0045 423.243 74.0045C414.611 74.0045 412.495 82.9341 412.495 94.152C412.551 107.546 415.224 114.411 423.243 114.411ZM423.354 108.495C421.405 108.495 420.737 105.593 420.737 93.7613C420.737 83.7155 421.294 80.0878 423.243 80.0878C425.025 80.0878 425.805 83.1574 425.805 93.8171C425.805 105.984 425.025 108.495 423.354 108.495Z" fill="white"/>
<path d="M446.184 114.3C453.702 114.3 456.598 108.16 456.598 93.5939C456.598 87.3431 455.874 80.1994 454.871 73.7254C450.138 74.2835 447.242 74.3393 447.242 74.3393C448.133 80.9808 448.69 87.9571 448.69 93.9288C448.69 105.147 447.743 106.877 446.128 106.877C444.513 106.877 443.176 103.361 443.176 91.1382C443.176 87.0083 443.511 82.5435 444.179 76.2927C439.056 75.6788 436.884 75.2881 436.884 75.2881C436.104 80.8133 435.714 86.785 435.714 92.8684C435.714 107.267 438.387 114.3 446.184 114.3Z" fill="white"/>
<path d="M472.044 114.579C477 114.244 479.896 113.965 479.896 113.965C476.555 104.198 474.717 98.561 474.271 97.0541C477.223 95.1008 479.005 91.9196 479.005 86.9525C479.005 78.6367 474.884 73.9487 466.197 73.9487C464.025 73.9487 461.574 74.2277 458.79 74.73C458.957 98.282 458.734 112.793 458.734 112.793C463.189 112.737 466.531 112.737 466.531 112.737C466.419 106.486 466.308 101.965 466.308 99.6214C466.809 99.5656 467.366 99.5098 467.867 99.3982C470.54 108.83 472.044 114.579 472.044 114.579ZM466.308 94.3752C466.308 94.3752 466.196 88.0687 466.141 80.5343C466.141 80.5343 466.642 80.4785 466.865 80.4785C469.816 80.4785 471.097 83.2132 471.097 87.5106C471.097 92.4219 469.037 94.2078 466.308 94.3752Z" fill="white"/>
<path d="M491.102 113.407C491.102 113.407 494.22 113.295 498.62 113.351L498.397 100.291C503.297 100.18 505.748 100.291 505.748 100.291C505.692 95.9379 505.692 92.9242 505.692 92.9242C501.571 93.0916 499.065 93.0358 498.285 93.0358C498.23 85.8363 498.23 82.1528 498.23 82.1528C503.632 81.9854 506.472 82.0412 506.472 82.0412C506.472 77.1299 506.527 74.5626 506.527 74.5626C497.896 74.73 490.656 74.7858 490.656 74.7858C491.046 97.3332 491.102 113.407 491.102 113.407Z" fill="white"/>
<path d="M522.193 114.69C526.426 114.02 529.879 113.686 529.879 113.686L524.031 96.9425C527.261 94.8775 528.82 91.6963 528.82 87.2873C528.82 79.5855 525.201 75.0091 514.787 75.0091C512.949 75.0091 510.889 75.1765 508.605 75.5114C508.772 99.0075 508.55 113.574 508.55 113.574C513.005 113.462 516.346 113.518 516.346 113.518C516.235 106.933 516.123 101.798 516.123 99.3424C516.68 99.3424 517.683 99.1749 517.683 99.1749C520.411 108.439 522.193 114.69 522.193 114.69ZM516.123 94.3194C516.123 94.3194 516.012 88.9058 515.956 81.3714C519.688 81.0924 520.913 83.6038 520.913 87.6222C520.913 92.1986 519.075 94.152 516.123 94.3194Z" fill="white"/>
<path d="M531.568 113.574C536.525 113.518 539.198 113.574 539.198 113.574C539.031 93.4265 538.919 74.73 538.919 74.73C533.963 74.7858 531.346 74.7858 531.346 74.7858C531.624 96.496 531.568 113.574 531.568 113.574Z" fill="white"/>
<path d="M542.875 113.351C551.228 113.462 558.301 113.686 558.301 113.686C558.301 109.053 558.412 106.654 558.412 106.654C553.567 106.542 550.337 106.319 550.337 106.319C550.226 103.417 550.17 100.682 550.115 98.1703C554.124 98.1703 557.187 98.2262 557.187 98.2262C557.131 94.0962 557.131 91.1382 557.131 91.1382C552.899 91.2499 550.449 91.1941 550.003 91.1941C549.892 85.5572 549.948 82.1528 549.948 82.1528C553.679 82.0412 558.245 81.9854 558.245 81.9854C558.134 77.6321 558.189 74.5626 558.189 74.5626C546.94 74.73 542.429 74.7858 542.429 74.7858C542.764 97.2774 542.875 113.351 542.875 113.351Z" fill="white"/>
<path d="M560.652 112.625C564.829 112.625 567.836 112.737 567.836 112.737C567.335 103.751 567.112 95.7705 567.056 90.7476C571.567 105.37 574.351 114.467 574.351 114.467C579.141 114.132 581.424 113.797 581.424 113.797C580.867 88.9058 580.644 73.8929 580.644 73.8929C576.356 73.9487 573.739 73.7812 573.739 73.7812C574.463 84.8317 574.797 93.9846 574.964 99.5098C570.787 86.2269 567.891 75.6788 567.891 75.6788C563.436 75.7904 560.485 76.0136 560.485 76.0136C560.819 98.6726 560.652 112.625 560.652 112.625Z" fill="white"/>
<path d="M591.993 108.049C591.993 108.049 591.714 94.2636 591.659 80.8133C595.056 80.311 596.503 84.0503 596.503 94.4869C596.503 106.933 594.833 108.272 591.993 108.049ZM584.196 113.741C586.312 114.076 588.317 114.244 590.099 114.244C599.733 114.244 604.634 109.221 604.634 94.9892C604.634 80.8133 600.68 74.2835 589.932 74.2835C588.206 74.2835 586.312 74.451 584.196 74.8416C584.196 74.8416 584.308 93.8729 584.196 113.741Z" fill="white"/>
<path d="M616.34 114.355C622.299 114.355 626.475 111.565 626.475 103.807C626.475 98.5052 624.693 95.4356 619.57 91.9754C615.338 89.1291 614.112 87.2315 614.112 84.4968C614.112 81.7063 614.781 80.032 616.284 80.032C617.955 80.032 618.957 82.2086 618.289 87.957C622.132 88.0687 625.863 88.4035 625.863 88.4035C626.865 78.9716 623.747 73.9487 616.396 73.9487C610.381 73.9487 606.205 76.9066 606.205 84.1061C606.205 89.1291 607.931 92.7009 612.943 96.2728C617.565 99.5656 618.512 101.407 618.512 103.975C618.512 107.212 617.788 108.272 616.396 108.272C614.447 108.272 613.667 105.649 614.168 99.7888C609.435 99.733 606.372 99.6214 606.372 99.6214C605.481 109.388 608.432 114.355 616.34 114.355Z" fill="white"/>
</svg>
