<?xml version="1.0" standalone="no"?>
<!DOCTYPE svg PUBLIC "-//W3C//DTD SVG 20010904//EN"
 "http://www.w3.org/TR/2001/REC-SVG-20010904/DTD/svg10.dtd">
<svg version="1.0" xmlns="http://www.w3.org/2000/svg"
 width="512.000000pt" height="512.000000pt" viewBox="0 0 512.000000 512.000000"
 preserveAspectRatio="xMidYMid meet">
<metadata>
Created by potrace 1.11, written by Peter Selinger 2001-2013
</metadata>
<g transform="translate(0.000000,512.000000) scale(0.100000,-0.100000)"
fill="#000000" stroke="none">
<path d="M3911 4759 c-426 -49 -779 -377 -831 -769 -8 -60 -10 -499 -8 -1490
l4 -1405 22 -85 c30 -110 96 -249 159 -331 l51 -66 -34 -12 c-30 -11 -32 -14
-21 -31 13 -22 91 -55 151 -66 22 -4 81 -24 132 -45 146 -62 247 -83 399 -83
155 0 245 21 383 90 120 60 153 58 202 -14 18 -27 5 -26 283 -24 l227 2 0
1045 0 1045 -510 0 -510 0 0 -298 c0 -218 3 -301 12 -310 7 -7 42 -12 85 -12
l74 0 -3 -363 c-3 -330 -5 -365 -21 -390 -52 -80 -176 -100 -247 -41 l-30 26
0 1405 c0 987 3 1410 11 1425 25 46 143 64 208 30 19 -9 44 -30 55 -45 20 -28
21 -42 24 -468 l3 -439 397 0 c308 0 402 3 416 13 16 12 17 45 14 507 -4 487
-4 496 -27 565 -43 130 -110 243 -134 228 -7 -4 -8 1 -3 13 4 10 4 15 0 11 -4
-4 -42 26 -84 67 -175 167 -362 255 -610 285 -46 6 -105 11 -129 11 -66 0 -38
18 34 23 l60 3 -65 1 c-36 0 -98 -3 -139 -8z m1096 -2291 c-3 -10 -101 -13
-439 -15 -373 -2 -438 0 -448 12 -11 13 43 15 440 15 357 0 451 -3 447 -12z
m-1022 -1457 c110 -47 122 -65 37 -59 -63 4 -119 36 -142 78 -16 29 1 26 105
-19z"/>
<path d="M2107 4418 c-4 -161 -7 -1127 -7 -2145 l0 -1853 383 0 c210 0 392 3
405 6 l22 6 -2 2137 -3 2136 -396 3 -396 4 -6 -294z m602 272 c79 0 141 -3
137 -7 -12 -13 -679 -4 -691 9 -7 7 50 9 200 4 116 -3 275 -6 354 -6z"/>
<path d="M100 2560 l0 -2140 513 0 c542 0 625 5 759 45 46 14 110 32 143 40
117 30 132 35 154 54 20 17 21 20 6 29 -15 8 -6 21 54 88 83 91 151 215 183
331 21 75 22 101 26 618 4 599 1 630 -55 737 -39 74 -130 168 -208 213 l-45
27 60 39 c106 68 183 160 223 265 22 58 22 64 22 599 -1 526 -1 542 -23 620
-74 268 -264 457 -552 546 -74 23 -80 23 -667 27 l-593 3 0 -2141z m1255 2101
c120 -40 233 -103 302 -170 36 -34 88 -109 82 -116 -3 -2 -31 22 -64 54 -137
130 -276 197 -485 230 -104 17 -162 18 -586 13 -357 -3 -473 -2 -479 7 -5 9
129 11 577 8 578 -3 584 -3 653 -26z m-219 -764 c12 -15 26 -46 29 -69 3 -24
5 -205 3 -403 -3 -325 -5 -363 -21 -393 -23 -43 -69 -62 -147 -62 l-60 0 0
481 0 482 87 -5 c78 -4 88 -7 109 -31z m-116 -977 c0 -6 -39 -10 -97 -10 -67
0 -93 3 -83 10 20 13 180 13 180 0z m568 -344 c96 -49 189 -136 206 -193 10
-33 -3 -28 -54 18 -53 48 -135 105 -228 160 l-67 39 48 0 c31 0 64 -8 95 -24z
m-470 -391 c18 -15 34 -41 41 -69 13 -55 15 -782 1 -840 -14 -62 -29 -71 -130
-74 l-90 -4 0 506 0 506 74 0 c65 0 78 -3 104 -25z m-88 -1085 c0 -13 -49 -21
-126 -19 -60 1 -72 4 -63 15 17 21 189 24 189 4z"/>
</g>
</svg>
