<?xml version="1.0" encoding="utf-8"?>
<!-- Generator: Adobe Illustrator 22.1.0, SVG Export Plug-In . SVG Version: 6.00 Build 0)  -->
<svg version="1.1" id="Layer_1" xmlns="http://www.w3.org/2000/svg" xmlns:xlink="http://www.w3.org/1999/xlink" x="0px" y="0px"
	 viewBox="0 0 192 71" style="enable-background:new 0 0 192 71;" xml:space="preserve">
<metadata><?xpacket begin="﻿" id="W5M0MpCehiHzreSzNTczkc9d"?>
<x:xmpmeta xmlns:x="adobe:ns:meta/" x:xmptk="Adobe XMP Core 5.6-c143 79.161356, 2017/09/07-01:11:22        ">
   <rdf:RDF xmlns:rdf="http://www.w3.org/1999/02/22-rdf-syntax-ns#">
      <rdf:Description rdf:about=""/>
   </rdf:RDF>
</x:xmpmeta>
                                                                                                    
                                                                                                    
                                                                                                    
                                                                                                    
                                                                                                    
                                                                                                    
                                                                                                    
                                                                                                    
                                                                                                    
                                                                                                    
                                                                                                    
                                                                                                    
                                                                                                    
                                                                                                    
                                                                                                    
                                                                                                    
                                                                                                    
                                                                                                    
                                                                                                    
                                                                                                    
                           
<?xpacket end="w"?></metadata>
<style type="text/css">
	.st0{enable-background:new    ;}
	.st1{fill:#D70F82;}
</style>
<g class="st0">
	<path class="st1" d="M10.7,1.3c10.6-0.5,18.7-0.4,18.7-0.4S34,34.7,39.9,70.4c0,0-5.4-0.2-13.9,0.1c0,0-0.4-4.3-1.3-13.2
		c-2.2,0-5.4-0.1-9.7-0.1l-0.9,10.5c0,0-4.1-0.2-13.1-0.2C1.2,67.5,5.3,41.9,10.7,1.3z M16.2,46.4c0,0,2.5,0.1,7.5,0
		c-0.9-8.8-2.1-20-3.8-34.3C19.2,17.8,17.8,30.4,16.2,46.4z"/>
	<path class="st1" d="M42.6,1.8c5-1,9.6-1.5,13.5-1.5c14.5,0,20.7,6.4,20.7,18.7c0,7.3-3.7,12.4-9.1,14.5C74.1,36,78,41.7,78,50.2
		c0,13.9-9.1,19.2-24.5,19.2c-3.1,0-6.5-0.3-10.2-0.8C43.3,68.6,43.2,37.2,42.6,1.8z M55.8,29.8c5.8,0.2,8.6-3,8.6-9.5
		c0-6.7-2.5-10.1-8.6-9.6V29.8z M64.9,49.9c0-6.8-2.9-10.4-9-10.4l0.3,19.9C61.6,59.7,64.9,57.5,64.9,49.9z"/>
	<path class="st1" d="M79.6,35.3c0-19.5,3.7-35,18.7-35c15.2,0,18.8,14.2,18.8,34.9c-0.2,26.8-6.2,35.3-18.8,35.3
		C84.3,70.5,79.7,58.6,79.6,35.3z M102.7,34.7c0-18.5-1.4-23.8-4.5-23.8c-3.4,0-4.4,6.3-4.4,23.7c0,20.5,1.2,25.6,4.6,25.6
		C101.4,60.2,102.7,55.8,102.7,34.7z"/>
	<path class="st1" d="M120,33.1c0-10.6,0.7-20.9,2-30.5c0,0,3.8,0.7,12.7,1.7c-1.2,10.8-1.7,18.6-1.7,25.8c0,21.2,2.3,27.3,5.1,27.3
		s4.5-3,4.5-22.5c0-10.4-1-22.5-2.5-34c0,0,5-0.1,13.3-1.1c1.7,11.2,3,23.6,3,34.5c0,25.3-5,35.9-18.1,35.9
		C124.6,70.3,120,58.1,120,33.1z"/>
	<path class="st1" d="M157.9,1.6c0,0,10.2,0.1,33.1-0.3c0,0-0.3,4.7-0.2,12.9c0,0-4-0.1-9.9-0.1c0,9.6,0,26,0.4,55.2
		c0,0-4.5-0.1-13.2,0.1c0,0,0.1-21.7-0.2-55.3l-10,0.1C158,14.2,158.1,10.7,157.9,1.6z"/>
</g>
</svg>
