<?xml version="1.0" encoding="utf-8"?>
<!-- Generator: Adobe Illustrator 22.1.0, SVG Export Plug-In . SVG Version: 6.00 Build 0)  -->
<svg version="1.1" id="Layer_1" xmlns="http://www.w3.org/2000/svg" xmlns:xlink="http://www.w3.org/1999/xlink" x="0px" y="0px"
	 viewBox="0 0 300 71" style="enable-background:new 0 0 300 71;" xml:space="preserve">
<metadata><?xpacket begin="﻿" id="W5M0MpCehiHzreSzNTczkc9d"?>
<x:xmpmeta xmlns:x="adobe:ns:meta/" x:xmptk="Adobe XMP Core 5.6-c143 79.161356, 2017/09/07-01:11:22        ">
   <rdf:RDF xmlns:rdf="http://www.w3.org/1999/02/22-rdf-syntax-ns#">
      <rdf:Description rdf:about=""/>
   </rdf:RDF>
</x:xmpmeta>
                                                                                                    
                                                                                                    
                                                                                                    
                                                                                                    
                                                                                                    
                                                                                                    
                                                                                                    
                                                                                                    
                                                                                                    
                                                                                                    
                                                                                                    
                                                                                                    
                                                                                                    
                                                                                                    
                                                                                                    
                                                                                                    
                                                                                                    
                                                                                                    
                                                                                                    
                                                                                                    
                           
<?xpacket end="w"?></metadata>
<style type="text/css">
	.st0{fill:#D70F82;}
</style>
<g>
	<path class="st0" d="M96.6,14.9c6.5-0.3,11.5-0.2,11.5-0.2s2.8,20.7,6.5,42.5c0,0-3.3-0.1-8.5,0.1c0,0-0.2-2.6-0.8-8.1
		c-1.4,0-3.3-0.1-5.9-0.1l-0.5,6.4c0,0-2.5-0.1-8-0.1C90.8,55.4,93.3,39.7,96.6,14.9z M100,42.5c0,0,1.5,0.1,4.6,0
		c-0.5-5.4-1.3-12.2-2.3-21C101.8,25,100.9,32.7,100,42.5z"/>
	<path class="st0" d="M116.1,15.2c3.1-0.6,5.9-0.9,8.2-0.9c8.9,0,12.7,3.9,12.7,11.5c0,4.5-2.3,7.6-5.6,8.9c4,1.5,6.3,5,6.3,10.2
		c0,8.5-5.6,11.8-15,11.8c-1.9,0-4-0.2-6.2-0.5C116.6,56.1,116.5,36.9,116.1,15.2z M124.3,32.3c3.6,0.1,5.3-1.8,5.3-5.8
		c0-4.1-1.5-6.2-5.3-5.9V32.3z M129.8,44.7c0-4.2-1.8-6.3-5.5-6.3l0.2,12.2C127.8,50.7,129.8,49.3,129.8,44.7z"/>
	<path class="st0" d="M138.8,35.7c0-11.9,2.3-21.4,11.5-21.4c9.3,0,11.5,8.7,11.5,21.4c-0.1,16.4-3.8,21.6-11.5,21.6
		C141.7,57.2,138.9,49.9,138.8,35.7z M153,35.3c0-11.3-0.8-14.6-2.7-14.6c-2.1,0-2.7,3.9-2.7,14.5c0,12.6,0.7,15.7,2.8,15.7
		C152.1,51,153,48.3,153,35.3z"/>
	<path class="st0" d="M163.5,34.3c0-6.5,0.4-12.8,1.2-18.7c0,0,2.3,0.4,7.8,1.1c-0.7,6.6-1.1,11.4-1.1,15.8c0,13,1.4,16.7,3.1,16.7
		c1.7,0,2.7-1.8,2.7-13.8c0-6.3-0.6-13.8-1.5-20.8c0,0,3.1-0.1,8.1-0.7c1.1,6.9,1.8,14.5,1.8,21.1c0,15.5-3.1,22-11.1,22
		C166.4,57.1,163.5,49.7,163.5,34.3z"/>
	<path class="st0" d="M186.8,15.1c0,0,6.2,0.1,20.3-0.2c0,0-0.2,2.9-0.1,7.9c0,0-2.4-0.1-6.1-0.1c0,5.9,0,15.9,0.2,33.8
		c0,0-2.7-0.1-8.1,0.1c0,0,0.1-13.3-0.1-33.9l-6.1,0.1C186.9,22.8,186.9,20.6,186.8,15.1z"/>
</g>
</svg>
