<?xml version="1.0" encoding="utf-8"?>
<!-- Generator: Adobe Illustrator 21.1.0, SVG Export Plug-In . SVG Version: 6.00 Build 0)  -->
<svg version="1.1" id="Layer_1" xmlns="http://www.w3.org/2000/svg" xmlns:xlink="http://www.w3.org/1999/xlink" x="0px" y="0px"
	 viewBox="0 0 1000 71" style="enable-background:new 0 0 1000 71;" xml:space="preserve">
<style type="text/css">
	.st0{fill:#23408C;}
</style>
<path class="st0" d="M439.5,70.8c8-0.3,13.2,0.1,13.2,0.1c-0.4-39.4-0.3-70.3-0.3-70.3c-8.5,0.2-13.2,0.1-13.2,0.1
	c0.1,13,0.3,24.8,0.3,34.8c-3.9,0-6.3-0.1-7.5-0.1c-0.2-18.9-0.3-31.8-0.3-31.8c-9.6,0.2-12.8,0.1-12.8,0.1
	c0.4,38.3,0.4,63.6,0.4,63.6c7.5-0.3,13.1-0.1,13.1-0.1l-0.3-20.6c3.6-0.1,5.9-0.1,7.5-0.1C439.7,61,439.5,70.8,439.5,70.8z"/>
<path class="st0" d="M475.1,70.5c12.5,0,18.4-8.4,18.6-34.9c0-20.4-3.6-34.6-18.6-34.6c-14.9,0-18.5,15.4-18.5,34.7
	C456.7,58.7,461.3,70.5,475.1,70.5z M475.3,60.4c-3.4,0-4.5-5-4.5-25.3c0-17.3,1-23.5,4.3-23.5c3.1,0,4.4,5.3,4.4,23.6
	C479.5,56,478.2,60.4,475.3,60.4z"/>
<path class="st0" d="M496.8,67.8c5.7,0.1,13.7,0.3,13.7,0.3c-0.2-18.5-0.1-38.8,0-50.3c3.8,24.4,5.7,38.9,5.7,38.9
	c6.2,0.3,13.2,0.4,13.2,0.4c1.8-15.3,4.3-31.5,6-41.8c1.1,32.4,0.7,55.5,0.7,55.5c6.6-0.2,13.5-0.6,13.5-0.6
	c-2.1-42-2.3-68.8-2.3-68.8c-9.1-0.3-19.2-0.6-19.2-0.6c-1.6,15.2-3.8,30.3-5.5,40.5c-3-19.6-5.1-37.7-5.1-37.7
	c-10.2,0.5-18.6,0.4-18.6,0.4C498.1,40.3,496.8,67.8,496.8,67.8z"/>
<path class="st0" d="M554.3,68.7c14.4,0.2,26.6,0.6,26.6,0.6c0-8,0.2-12.1,0.2-12.1c-8.4-0.2-13.9-0.6-13.9-0.6
	c-0.2-5-0.3-9.7-0.4-14c6.9,0,12.2,0.1,12.2,0.1c-0.1-7.1-0.1-12.2-0.1-12.2c-7.3,0.2-11.5,0.1-12.3,0.1c-0.2-9.7-0.1-15.6-0.1-15.6
	c6.4-0.2,14.3-0.3,14.3-0.3C580.6,7.3,580.7,2,580.7,2c-19.4,0.3-27.2,0.4-27.2,0.4C554.1,41.1,554.3,68.7,554.3,68.7z"/>
</svg>
