<?xml version="1.0" encoding="utf-8"?>
<!-- Generator: Adobe Illustrator 21.1.0, SVG Export Plug-In . SVG Version: 6.00 Build 0)  -->
<svg version="1.1" id="Layer_1" xmlns="http://www.w3.org/2000/svg" xmlns:xlink="http://www.w3.org/1999/xlink" x="0px" y="0px"
	 viewBox="0 0 300 71" style="enable-background:new 0 0 300 71;" xml:space="preserve">
<style type="text/css">
	.st0{fill:#23408C;}
</style>
<path class="st0" d="M112.6,57.4c5-0.2,8.2,0.1,8.2,0.1c-0.2-24.4-0.2-43.5-0.2-43.5c-5.3,0.1-8.2,0.1-8.2,0.1
	c0.1,8,0.2,15.3,0.2,21.5c-2.4,0-3.9-0.1-4.6-0.1c-0.1-11.7-0.2-19.7-0.2-19.7c-5.9,0.1-7.9,0.1-7.9,0.1c0.2,23.7,0.2,39.4,0.2,39.4
	c4.6-0.2,8.1-0.1,8.1-0.1L108,42.5c2.2-0.1,3.7-0.1,4.6-0.1C112.7,51.4,112.6,57.4,112.6,57.4z"/>
<path class="st0" d="M134.6,57.3c7.7,0,11.4-5.2,11.5-21.6c0-12.6-2.2-21.4-11.5-21.4c-9.2,0-11.4,9.5-11.4,21.5
	C123.2,50,126.1,57.3,134.6,57.3z M134.7,51c-2.1,0-2.8-3.1-2.8-15.7c0-10.7,0.6-14.5,2.7-14.5c1.9,0,2.7,3.3,2.7,14.6
	C137.3,48.3,136.5,51,134.7,51z"/>
<path class="st0" d="M148,55.6c3.5,0.1,8.5,0.2,8.5,0.2c-0.1-11.4-0.1-24,0-31.1c2.4,15.1,3.5,24.1,3.5,24.1
	c3.8,0.2,8.2,0.2,8.2,0.2c1.1-9.5,2.7-19.5,3.7-25.9c0.7,20,0.4,34.3,0.4,34.3c4.1-0.1,8.4-0.4,8.4-0.4c-1.3-26-1.4-42.6-1.4-42.6
	c-5.6-0.2-11.9-0.4-11.9-0.4c-1,9.4-2.4,18.7-3.4,25.1c-1.9-12.1-3.2-23.3-3.2-23.3c-6.3,0.3-11.5,0.2-11.5,0.2
	C148.8,38.6,148,55.6,148,55.6z"/>
<path class="st0" d="M183.6,56.1c8.9,0.1,16.5,0.4,16.5,0.4c0-5,0.1-7.5,0.1-7.5c-5.2-0.1-8.6-0.4-8.6-0.4c-0.1-3.1-0.2-6-0.2-8.7
	c4.3,0,7.5,0.1,7.5,0.1c-0.1-4.4-0.1-7.5-0.1-7.5c-4.5,0.1-7.1,0.1-7.6,0.1c-0.1-6-0.1-9.7-0.1-9.7c4-0.1,8.8-0.2,8.8-0.2
	c-0.1-4.6-0.1-7.9-0.1-7.9c-12,0.2-16.8,0.2-16.8,0.2C183.5,39.1,183.6,56.1,183.6,56.1z"/>
</svg>
