<?xml version="1.0" encoding="utf-8"?>
<!-- Generator: Adobe Illustrator 21.1.0, SVG Export Plug-In . SVG Version: 6.00 Build 0)  -->
<svg version="1.1" id="Layer_1" xmlns="http://www.w3.org/2000/svg" xmlns:xlink="http://www.w3.org/1999/xlink" x="0px" y="0px"
	 viewBox="0 0 300 91" style="enable-background:new 0 0 300 91;" xml:space="preserve">
<style type="text/css">
	.st0{fill:#23408C;}
</style>
<path class="st0" d="M97.2,8.6l5.4-0.1c0.2,18,0.1,29.7,0.1,29.7c4.7-0.1,7.1-0.1,7.1-0.1c-0.2-15.7-0.2-24.5-0.2-29.6
	c3.2,0,5.3,0.1,5.3,0.1c-0.1-4.4,0.1-6.9,0.1-6.9c-12.3,0.2-17.8,0.2-17.8,0.2C97.2,6.7,97.2,8.6,97.2,8.6z"/>
<path class="st0" d="M117.1,38.1c4.6-0.1,7.1,0,7.1,0C124.1,19.3,124,1.9,124,1.9c-4.6,0.1-7.1,0.1-7.1,0.1
	C117.1,22.1,117.1,38.1,117.1,38.1z"/>
<path class="st0" d="M136.7,38.9c5.8,0.1,9.9-3.6,9.7-16.1c0,0-3.5,0-7.6,0.2c0.3,8.3-0.6,10-1.9,10c-1.8,0-2.3-3-2.3-13
	c-0.1-9.6,0.5-13.1,2.3-13.1c1.5,0,1.9,2.3,1.9,8.8c0,0,2.9,0.2,7.5,0.2c0.2-8.8-2-15-9-15c-7.5,0-10.4,6.2-10.4,19.1
	C126.8,33.6,129.7,38.9,136.7,38.9z"/>
<path class="st0" d="M160.9,39.3c0,0,3.5-0.3,7.6-0.4c0,0-2.5-7.6-5.9-19.4c1.1-3.4,3.1-9.8,5.9-18.3c0,0-2.7,0-7.3-0.3
	c0,0-1.8,6.9-5.8,20.9c0-5.2,0-11.4,0.1-19.1c0,0-2.4,0-7.2-0.1c0,0,0.1,14.6,0,34.7c0,0,2.1-0.1,7.2-0.1c0,0-0.1-1.7-0.1-5
	c0.4-1.1,1.1-3.2,2.2-6.1C158.4,28.9,159.5,33.2,160.9,39.3z"/>
<path class="st0" d="M170,37.8c7.8,0.1,14.4,0.3,14.4,0.3c0-4.3,0.1-6.6,0.1-6.6c-4.5-0.1-7.5-0.3-7.5-0.3c-0.1-2.7-0.2-5.3-0.2-7.6
	c3.7,0,6.6,0.1,6.6,0.1c-0.1-3.8-0.1-6.6-0.1-6.6c-4,0.1-6.2,0.1-6.7,0.1c-0.1-5.3-0.1-8.4-0.1-8.4c3.5-0.1,7.7-0.2,7.7-0.2
	c-0.1-4.1-0.1-6.9-0.1-6.9c-10.5,0.2-14.7,0.2-14.7,0.2C169.9,22.9,170,37.8,170,37.8z"/>
<path class="st0" d="M185.5,9.4l5.1-0.1c0.2,17.8,0.1,28.1,0.1,28.1c4.7-0.1,7.1-0.1,7.1-0.1c-0.2-15.1-0.2-23.1-0.2-28
	c2.8-0.1,5.1,0,5.1,0c-0.1-4.3,0.1-6.9,0.1-6.9c-12.3,0.3-17.4,0.2-17.4,0.2C185.6,7.5,185.5,9.4,185.5,9.4z"/>
<path class="st0" d="M44.6,90.1c4.6-0.1,7.1,0,7.1,0c-0.2-18.8-0.3-36.2-0.3-36.2c-4.6,0.1-7.1,0.1-7.1,0.1
	C44.7,74.1,44.6,90.1,44.6,90.1z"/>
<path class="st0" d="M54.9,89.2c3.9,0,6.7,0.1,6.7,0.1c-0.5-8.4-0.7-15.8-0.7-20.5c4.2,13.6,6.8,22.1,6.8,22.1
	c4.5-0.3,6.6-0.6,6.6-0.6c-0.5-23.2-0.7-37.2-0.7-37.2c-4,0.1-6.4-0.1-6.4-0.1c0.7,10.3,1,18.8,1.1,24c-3.9-12.4-6.6-22.2-6.6-22.2
	c-4.2,0.1-6.9,0.3-6.9,0.3C55.1,76.2,54.9,89.2,54.9,89.2z"/>
<path class="st0" d="M77.3,89.9c0,0,2.9-0.1,7-0.1l-0.2-12.2c4.6-0.1,6.9,0,6.9,0C91,73.6,91,70.8,91,70.8c-3.8,0.2-6.2,0.1-6.9,0.1
	C84,64.2,84,60.8,84,60.8c5-0.2,7.7-0.1,7.7-0.1c0-4.6,0.1-7,0.1-7c-8.1,0.2-14.8,0.2-14.8,0.2C77.3,74.9,77.3,89.9,77.3,89.9z"/>
<path class="st0" d="M102.9,90.8c6.8,0,10-4.5,10.1-18.9c0-11.1-1.9-18.7-10.1-18.7c-8.1,0-10,8.3-10,18.8
	C92.9,84.4,95.4,90.8,102.9,90.8z M103,85.3c-1.8,0-2.4-2.7-2.4-13.7c0-9.4,0.5-12.7,2.3-12.7c1.7,0,2.4,2.9,2.4,12.8
	C105.3,83,104.6,85.3,103,85.3z"/>
<path class="st0" d="M127.6,91c4.6-0.3,7.3-0.6,7.3-0.6c-3.1-9.1-4.8-14.4-5.3-15.8c2.8-1.8,4.4-4.8,4.4-9.4c0-7.7-3.8-12.1-12-12.1
	c-2,0-4.3,0.3-6.9,0.7c0.2,21.9-0.1,35.5-0.1,35.5c4.2-0.1,7.3-0.1,7.3-0.1c-0.1-5.8-0.2-10-0.2-12.2c0.5-0.1,1-0.1,1.5-0.2
	C126.2,85.6,127.6,91,127.6,91z M122.2,72.2c0,0-0.1-5.9-0.2-12.9c0,0,0.5-0.1,0.7-0.1c2.8,0,4,2.5,4,6.6
	C126.7,70.3,124.8,72,122.2,72.2z"/>
<path class="st0" d="M135.4,89.3c3.1,0.1,7.4,0.2,7.4,0.2c-0.1-10-0.1-21,0-27.2c2.1,13.2,3.1,21.1,3.1,21.1
	c3.4,0.2,7.2,0.2,7.2,0.2c1-8.3,2.3-17.1,3.2-22.6c0.6,17.5,0.4,30.1,0.4,30.1c3.6-0.1,7.3-0.3,7.3-0.3c-1.1-22.7-1.2-37.3-1.2-37.3
	c-4.9-0.2-10.4-0.3-10.4-0.3c-0.9,8.2-2.1,16.4-3,21.9c-1.6-10.6-2.8-20.4-2.8-20.4c-5.5,0.3-10.1,0.2-10.1,0.2
	C136.1,74.5,135.4,89.3,135.4,89.3z"/>
<path class="st0" d="M165,89.2c4.8,0,7,0.1,7,0.1l0.5-5.6c2.3,0,4,0.1,5.2,0.1c0.5,4.8,0.7,7.1,0.7,7.1c4.5-0.2,7.4-0.1,7.4-0.1
	c-3.2-19.1-5.7-37.3-5.7-37.3s-4.4-0.1-10,0.2C167.1,75.5,165,89.2,165,89.2z M175,59.5c0.9,7.7,1.6,13.7,2,18.4c-2.7,0.1-4,0-4,0
	C173.9,69.3,174.6,62.5,175,59.5z"/>
<path class="st0" d="M184.6,60.6l5.4-0.1c0.2,18,0.1,29.7,0.1,29.7c4.7-0.1,7.1-0.1,7.1-0.1c-0.2-15.7-0.2-24.5-0.2-29.6
	c3.2,0,5.3,0.1,5.3,0.1c-0.1-4.4,0.1-6.9,0.1-6.9c-12.3,0.2-17.8,0.2-17.8,0.2C184.7,58.7,184.6,60.6,184.6,60.6z"/>
<path class="st0" d="M204.5,90.1c4.6-0.1,7.1,0,7.1,0c-0.2-18.8-0.3-36.2-0.3-36.2c-4.6,0.1-7.1,0.1-7.1,0.1
	C204.6,74.1,204.5,90.1,204.5,90.1z"/>
<path class="st0" d="M224.2,90.8c6.8,0,10-4.5,10.1-18.9c0-11.1-1.9-18.7-10.1-18.7c-8.1,0-10,8.3-10,18.8
	C214.2,84.4,216.7,90.8,224.2,90.8z M224.3,85.3c-1.8,0-2.4-2.7-2.4-13.7c0-9.4,0.5-12.7,2.3-12.7c1.7,0,2.4,2.9,2.4,12.8
	C226.6,83,225.9,85.3,224.3,85.3z"/>
<path class="st0" d="M236.6,89.2c3.9,0,6.7,0.1,6.7,0.1c-0.5-8.4-0.7-15.8-0.7-20.5c4.2,13.6,6.8,22.1,6.8,22.1
	c4.5-0.3,6.6-0.6,6.6-0.6c-0.5-23.2-0.7-37.2-0.7-37.2c-4,0.1-6.4-0.1-6.4-0.1c0.7,10.3,1,18.8,1.1,24c-3.9-12.4-6.6-22.2-6.6-22.2
	c-4.2,0.1-6.9,0.3-6.9,0.3C236.7,76.2,236.6,89.2,236.6,89.2z"/>
</svg>
