<?xml version="1.0" encoding="utf-8"?>
<!-- Generator: Adobe Illustrator 21.1.0, SVG Export Plug-In . SVG Version: 6.00 Build 0)  -->
<svg version="1.1" id="Layer_1" xmlns="http://www.w3.org/2000/svg" xmlns:xlink="http://www.w3.org/1999/xlink" x="0px" y="0px"
	 viewBox="0 0 1000 72" style="enable-background:new 0 0 1000 72;" xml:space="preserve">
<style type="text/css">
	.st0{fill:#D70F82;}
</style>
<path class="st0" d="M197.6,14.8l9.9-0.1c0.3,33.3,0.2,54.8,0.2,54.8c8.6-0.2,13.1-0.1,13.1-0.1c-0.4-29-0.4-45.2-0.4-54.7
	c5.9,0,9.8,0.1,9.8,0.1C230,6.7,230.3,2,230.3,2c-22.8,0.4-32.8,0.3-32.8,0.3C197.7,11.3,197.6,14.8,197.6,14.8z"/>
<path class="st0" d="M234.3,69.1c8.5-0.1,13.2,0,13.2,0C247.2,34.4,247,2.3,247,2.3c-8.5,0.1-13.1,0.1-13.1,0.1
	C234.4,39.7,234.3,69.1,234.3,69.1z"/>
<path class="st0" d="M270.6,70.6c10.8,0.1,18.2-6.7,17.9-29.7c0,0-6.5,0-14.1,0.3c0.5,15.4-1.2,18.4-3.6,18.4c-3.3,0-4.3-5.5-4.3-24
	c-0.2-17.8,0.9-24.2,4.2-24.2c2.8,0,3.6,4.2,3.5,16.3c0,0,5.4,0.3,13.9,0.4c0.4-16.2-3.7-27.6-16.7-27.6
	c-13.9,0-19.2,11.5-19.2,35.2C252.2,60.9,257.5,70.6,270.6,70.6z"/>
<path class="st0" d="M315.2,71.4c0,0,6.5-0.5,14.1-0.8c0,0-4.6-14-10.9-35.9c2-6.3,5.8-18.1,10.8-33.7c0,0-5,0-13.5-0.5
	c0,0-3.4,12.8-10.7,38.5c0-9.6,0-21,0.2-35.2c0,0-4.5,0-13.2-0.1c0,0,0.2,26.9,0,64.1c0,0,3.9-0.2,13.3-0.1c0,0-0.1-3.2-0.2-9.3
	c0.7-2.1,2-5.9,4.1-11.3C310.6,52.2,312.6,60.1,315.2,71.4z"/>
<path class="st0" d="M332.1,68.7c14.4,0.2,26.6,0.6,26.6,0.6c0-8,0.2-12.1,0.2-12.1c-8.4-0.2-13.9-0.6-13.9-0.6
	c-0.2-5-0.3-9.7-0.4-14c6.9,0,12.2,0.1,12.2,0.1c-0.1-7.1-0.1-12.2-0.1-12.2c-7.3,0.2-11.5,0.1-12.3,0.1c-0.2-9.7-0.1-15.6-0.1-15.6
	c6.4-0.2,14.3-0.3,14.3-0.3C358.4,7.3,358.5,2,358.5,2c-19.4,0.3-27.2,0.4-27.2,0.4C331.9,41.1,332.1,68.7,332.1,68.7z"/>
<path class="st0" d="M360.6,16.2l9.5-0.1c0.4,32.8,0.2,51.8,0.2,51.8c8.7-0.2,13.1-0.1,13.1-0.1C383,39.9,383,25.1,383,16.1
	c5.1-0.1,9.5,0,9.5,0c-0.1-8,0.2-12.8,0.2-12.8c-22.8,0.5-32.2,0.4-32.2,0.4C360.7,12.6,360.6,16.2,360.6,16.2z"/>
<path class="st0" d="M412.5,69.1c8.5-0.1,13.2,0,13.2,0c-0.3-34.7-0.5-66.8-0.5-66.8c-8.5,0.1-13.1,0.1-13.1,0.1
	C412.6,39.7,412.5,69.1,412.5,69.1z"/>
<path class="st0" d="M431.5,67.5c7.2,0,12.4,0.2,12.4,0.2c-0.9-15.5-1.2-29.2-1.3-37.8c7.8,25.2,12.6,40.8,12.6,40.8
	c8.3-0.6,12.2-1.2,12.2-1.2c-1-42.8-1.3-68.6-1.3-68.6c-7.4,0.1-11.9-0.2-11.9-0.2c1.2,19,1.8,34.8,2.1,44.3
	C449,22.1,444,3.9,444,3.9c-7.7,0.2-12.8,0.6-12.8,0.6C431.8,43.5,431.5,67.5,431.5,67.5z"/>
<path class="st0" d="M472.9,68.8c0,0,5.4-0.2,13-0.1l-0.4-22.5c8.4-0.2,12.7,0,12.7,0c-0.1-7.5-0.1-12.7-0.1-12.7
	c-7.1,0.3-11.4,0.2-12.8,0.2c-0.1-12.4-0.1-18.7-0.1-18.7c9.3-0.3,14.2-0.2,14.2-0.2c0-8.4,0.1-12.9,0.1-12.9
	c-14.9,0.3-27.4,0.4-27.4,0.4C472.8,41.2,472.9,68.8,472.9,68.8z"/>
<path class="st0" d="M520.1,70.5c12.5,0,18.4-8.4,18.6-34.9c0-20.4-3.6-34.6-18.6-34.6c-14.9,0-18.5,15.4-18.5,34.7
	C501.6,58.7,506.2,70.5,520.1,70.5z M520.3,60.4c-3.4,0-4.5-5-4.5-25.3c0-17.3,1-23.5,4.3-23.5c3.1,0,4.4,5.3,4.4,23.6
	C524.5,56,523.1,60.4,520.3,60.4z"/>
<path class="st0" d="M565.7,70.8c8.5-0.6,13.5-1.1,13.5-1.1c-5.8-16.8-8.9-26.5-9.7-29.1c5.1-3.4,8.2-8.8,8.2-17.4
	c0-14.3-7.1-22.4-22.1-22.4c-3.7,0-8,0.5-12.8,1.3c0.3,40.5-0.1,65.5-0.1,65.5c7.7-0.1,13.4-0.1,13.4-0.1
	c-0.2-10.8-0.4-18.5-0.4-22.6c0.9-0.1,1.8-0.2,2.7-0.4C563.1,60.9,565.7,70.8,565.7,70.8z M555.8,36.1c0,0-0.2-10.8-0.3-23.8
	c0,0,0.9-0.1,1.2-0.1c5.1,0,7.3,4.7,7.3,12.1C564,32.7,560.5,35.8,555.8,36.1z"/>
<path class="st0" d="M580.1,67.8c5.7,0.1,13.7,0.3,13.7,0.3c-0.2-18.5-0.1-38.8,0-50.3c3.8,24.4,5.7,38.9,5.7,38.9
	c6.2,0.3,13.2,0.4,13.2,0.4c1.8-15.3,4.3-31.5,6-41.8c1.1,32.4,0.7,55.5,0.7,55.5c6.6-0.2,13.5-0.6,13.5-0.6
	c-2.1-42-2.3-68.8-2.3-68.8c-9.1-0.3-19.2-0.6-19.2-0.6c-1.6,15.2-3.8,30.3-5.5,40.5c-3-19.6-5.1-37.7-5.1-37.7
	c-10.2,0.5-18.6,0.4-18.6,0.4C581.4,40.3,580.1,67.8,580.1,67.8z"/>
<path class="st0" d="M634.6,67.6c8.9,0,13,0.2,13,0.2l0.9-10.4c4.2,0,7.4,0.1,9.6,0.1c0.9,8.8,1.2,13.1,1.2,13.1
	c8.4-0.3,13.7-0.1,13.7-0.1c-5.9-35.3-10.5-68.8-10.5-68.8S654.5,1.5,644,2C638.7,42.2,634.6,67.6,634.6,67.6z M653.2,12.7
	c1.6,14.2,2.9,25.2,3.7,34c-4.9,0.1-7.4,0-7.4,0C651,30.8,652.5,18.3,653.2,12.7z"/>
<path class="st0" d="M670.9,14.8l9.9-0.1c0.3,33.3,0.2,54.8,0.2,54.8c8.6-0.2,13.1-0.1,13.1-0.1c-0.4-29-0.4-45.2-0.4-54.7
	c5.9,0,9.8,0.1,9.8,0.1C703.4,6.7,703.7,2,703.7,2c-22.8,0.4-32.8,0.3-32.8,0.3C671,11.3,670.9,14.8,670.9,14.8z"/>
<path class="st0" d="M707.6,69.1c8.5-0.1,13.2,0,13.2,0c-0.3-34.7-0.5-66.8-0.5-66.8c-8.5,0.1-13.1,0.1-13.1,0.1
	C707.7,39.7,707.6,69.1,707.6,69.1z"/>
<path class="st0" d="M744,70.5c12.5,0,18.4-8.4,18.6-34.9C762.7,15.1,759.1,1,744,1c-14.9,0-18.5,15.4-18.5,34.7
	C725.6,58.7,730.2,70.5,744,70.5z M744.2,60.4c-3.4,0-4.5-5-4.5-25.3c0-17.3,1-23.5,4.3-23.5c3.1,0,4.4,5.3,4.4,23.6
	C748.4,56,747.1,60.4,744.2,60.4z"/>
<path class="st0" d="M766.9,67.5c7.2,0,12.4,0.2,12.4,0.2c-0.9-15.5-1.2-29.2-1.3-37.8c7.8,25.2,12.6,40.8,12.6,40.8
	c8.3-0.6,12.2-1.2,12.2-1.2c-1-42.8-1.3-68.6-1.3-68.6c-7.4,0.1-11.9-0.2-11.9-0.2c1.2,19,1.8,34.8,2.1,44.3
	c-7.2-22.8-12.2-41-12.2-41c-7.7,0.2-12.8,0.6-12.8,0.6C767.2,43.5,766.9,67.5,766.9,67.5z"/>
</svg>
